<?xml version="1.0" encoding="UTF-8"?><svg id="_レイヤー_2" xmlns="http://www.w3.org/2000/svg" viewBox="0 0 334.98 71.51"><defs><style>.cls-1{fill:#231815;}.cls-1,.cls-2{stroke-width:0px;}.cls-2{fill:#fff;}</style></defs><g id="_レイヤー_1-2"><rect class="cls-2" width="118.39" height="33.26"/><rect class="cls-2" x="122.98" width="212" height="33.26"/><path class="cls-1" d="M195.35,20.1c0,.07-.19.25-.23.29-.19.27-.96,1.49-1.15,1.72-.08.1-.32.36-.41.36-.03,0-.05-.01-.05-.05,0-.01.34-.82.4-.98.2-.58.41-1.15.42-1.47.01-.33.01-.36.1-.36.07,0,.36.11.44.15.16.07.47.21.47.34ZM197.75,18.79c-.02-.1-.04-.17-.16-.17-.1,0-.63.11-.76.12-.3.04-.3.14-.3.56,0,.5.01,2.96.01,3.51s-.47.62-.58.62c-.25,0-.25-.19-.25-.27,0-.15.06-.84.06-.99.02-.82.06-2.21.06-3.03,0-.15-.02-.27-.23-.27s-1.06.08-1.32.17c-.05.02-.27.17-.33.17-.2,0-.27-.9-.27-.96s0-.17.1-.17c.01,0,.28.08.31.09.24.08.63.16,1.13.16.36,0,.41-.03.51-.2.58-.95,1.23-2.47,1.37-3.16.06-.27.06-.29.15-.29.06,0,1.1.42,1.1.65,0,.1-.08.14-.17.15-.1.02-.2.03-.41.24-.3.31-1.75,2.52-1.75,2.57,0,.03.02.04.03.06.05.01.71.01.79.01.17,0,.53-.02.65-.03.06,0,.1-.02.1-.1,0-.14-.32-.78-.32-.8,0-.04.03-.04.04-.04.18,0,1.24.61,1.24,1.42,0,.25-.15.45-.35.45-.25,0-.4-.09-.46-.46ZM195.28,17.31c-.16,0-.25-.07-.37-.36-.05-.12-.29-.65-.76-1.21-.11-.14-.12-.15-.12-.18s.02-.07.09-.07c.14,0,.73.28.81.28.15,0,.54-1.4.69-2.3.03-.18.06-.18.1-.18.08,0,1.02.38,1.02.52,0,.07-.28.25-.33.29-.14.15-1.13,1.69-1.13,1.85,0,.1.04.16.1.21.14.15.28.45.28.65,0,.23-.12.49-.38.49ZM198.55,21.49c0,.33-.25.58-.46.58-.23,0-.25-.09-.42-.88-.1-.45-.14-.52-.36-.97-.02-.06-.07-.16-.07-.2s.03-.06.06-.06c.1,0,.45.26.64.45.33.33.61.77.61,1.08ZM199.67,16.1c-.25,0-.33.03-.42.17-.26.41-.89,1.39-1.1,1.39-.06,0-.08-.03-.08-.08,0-.02.42-.82.49-.98.47-1.02.97-2.55.97-3.16,0-.02-.01-.14-.01-.16,0-.03.01-.07.04-.07s1.23.36,1.23.59c0,.11-.14.18-.3.26-.18.08-.89,1.66-.89,1.67,0,.07.09.07.19.07h2.07c.3,0,.32,0,.44-.1.2-.19.23-.21.3-.21.14,0,.89.42.89.64,0,.08-.03.09-.28.29-.09.07-.09.55-.09.85-.02,2.08-.33,4.54-.96,5.52-.29.46-.91.71-1.22.71-.15,0-.18-.09-.28-.36-.1-.28-.36-.53-.62-.71-.16-.1-.18-.11-.18-.17,0-.04.03-.04.05-.04.02,0,.3.1.36.11.3.09.53.17.71.17.49,0,.73-.47.87-1.02.36-1.37.51-2.77.51-4.18,0-.18,0-.99-.03-1.05-.07-.15-.21-.15-.34-.15h-2.31ZM200.9,19.74c0,.43-.27.72-.54.72s-.32-.14-.45-.87c-.1-.54-.28-1-.34-1.12-.08-.17-.09-.2-.09-.24s0-.07.03-.07c.18,0,.71.43.89.61.32.31.5.62.5.96Z"/><path class="cls-1" d="M206.44,22.66c-.11,0-.52-.02-.52-.27,0-.96,1.16-2.35,1.57-2.84,4.27-5.08,4.65-5.55,4.65-7.27,0-1.61-1.18-2.55-2.4-2.55-1.08,0-2.03.74-2.03,1.52,0,.05,0,.29.18.54.24.34.38.54.38.87,0,.52-.43.98-.98.98-.61,0-1.03-.54-1.03-1.23,0-1.54,1.59-3.27,3.89-3.27,1.95,0,3.62,1.27,3.62,3.4,0,1.86-1.14,2.89-2.68,4.18-2.73,2.28-3.71,3.96-3.71,4.3,0,.27.58.27.65.27h1.86c1.83,0,2.88-.51,3.38-1.7.29-.67.29-.69.4-.69.18,0,.18.22.18.25,0,.14-.58,2.48-.67,2.86-.16.65-.8.65-1.08.65h-5.66Z"/><path class="cls-1" d="M217.24,24.17c.33-.22.71-.61.71-.94,0-.14-.18-.23-.52-.42-.23-.11-.72-.34-.72-1.01,0-.63.51-1.19,1.19-1.19.54,0,1.21.36,1.21,1.25,0,1.59-1.57,2.91-2.04,2.91-.18,0-.22-.13-.22-.2,0-.09.02-.13.4-.4Z"/><path class="cls-1" d="M224.02,10.85c-.61,0-.61.16-.63.72-.02.27-.14,3.33-.14,3.35,0,.14.04.27.16.27.11,0,.16-.04.71-.38.52-.34,1.16-.52,1.9-.52,2.37,0,3.89,1.93,3.89,4.1,0,2.68-2.22,4.61-4.52,4.61-1.92,0-3.38-1.41-3.38-2.57,0-.6.42-1.05,1.07-1.05.52,0,.92.33.92.89,0,.14-.14.85-.14,1.01,0,.78.87,1.14,1.5,1.14,1.32,0,2.88-1.28,2.88-3.82s-1.39-3.54-2.55-3.54-2.19.9-2.35,1.05c-.09.07-.43.51-.56.51-.14,0-.16-.13-.16-.29,0-.72.22-5.21.25-6.18,0-.23.04-.67.58-.67h5.17c.36,0,.52,0,.52.18,0,.11-.14.65-.25.92-.11.27-.29.27-.52.27h-4.32Z"/><path class="cls-1" d="M236.74,23c-2.86,0-4.07-3.6-4.07-6.93s1.23-6.94,4.07-6.94c2.93.02,4.07,3.76,4.07,6.94s-1.16,6.93-4.07,6.93ZM236.74,9.73c-2.4,0-2.44,5.42-2.44,6.35,0,.74,0,6.35,2.44,6.33,2.4,0,2.44-5.39,2.44-6.33,0-.76,0-6.35-2.44-6.35Z"/><path class="cls-1" d="M247.59,23c-2.86,0-4.07-3.6-4.07-6.93s1.23-6.94,4.07-6.94c2.93.02,4.07,3.76,4.07,6.94s-1.16,6.93-4.07,6.93ZM247.59,9.73c-2.4,0-2.44,5.42-2.44,6.35,0,.74,0,6.35,2.44,6.33,2.4,0,2.44-5.39,2.44-6.33,0-.76,0-6.35-2.44-6.35Z"/><path class="cls-1" d="M256.37,18.99c-.17,0-.36.01-.37.32-.01.33-.01,1.63-.01,3.39,0,.77-.52.81-.62.81-.34,0-.34-.16-.34-.3,0-.02.07-.96.08-1.14.08-1.2.1-6.12.1-6.23,0-.3-.04-1.78-.04-2.11,0-.08,0-.14.06-.14.15,0,.38.11.61.2.18.08.27.09.58.09h6.08c.36,0,.41-.03.53-.16.17-.16.24-.2.3-.2s.9.53.9.69c0,.11-.06.15-.29.33-.18.14-.2.16-.2,1.37,0,.93.11,5.59.11,6.64,0,.8-.86.91-.92.91-.19,0-.21-.08-.26-.38-.06-.31-.58-.49-.9-.61-.6-.21-.67-.24-.67-.31,0-.06.08-.06.14-.06.15,0,1.17.17,1.4.17.11,0,.25,0,.28-.12.03-.17.05-.97.05-1.22,0-.23-.01-1.61-.03-1.71-.04-.21-.23-.23-.34-.23h-6.21ZM258.66,18.69c.11,0,.24-.01.29-.14.03-.09.04-2.38.04-2.65,0-.21-.01-1.51-.04-1.59-.07-.14-.17-.14-.29-.14h-2.31c-.09,0-.24.01-.29.14-.03.08-.03,1.96-.03,2.24,0,.24,0,1.86.02,1.96.03.18.24.18.31.18h2.31ZM262.52,18.69c.4,0,.4-.08.4-.78,0-.16-.03-3.41-.06-3.55-.05-.19-.19-.19-.37-.19h-2.26c-.15,0-.28,0-.34.12-.06.11-.06,1.81-.06,2.1s0,2.05.06,2.17c.06.12.18.12.34.12h2.29Z"/><rect class="cls-2" y="38.24" width="118.39" height="33.26"/><rect class="cls-2" x="122.98" y="38.24" width="212" height="33.26"/><path class="cls-1" d="M34.67,55.59c-.2,0-.24-.06-.45-.6-.12-.32-.43-.71-.51-.79-.06-.05-.17-.17-.17-.2s.06-.03.07-.03c.26,0,1.48.34,1.48,1.16,0,.12-.15.46-.42.46ZM35.63,60.2c.17.44.27.68.27.93,0,.27-.21.52-.51.52-.43,0-.47-.34-.56-1.22-.05-.41-.14-.96-.79-1.15-.06-.01-.36-.02-.36-.08,0-.02.31-.14.36-.17.52-.27.59-.33,1.54-3.21.06-.16.32-.98.37-.98.02,0,.02.08.02.1,0,.62-.63,3.33-.63,3.9,0,.49.09.82.29,1.37ZM35.63,53.27c-.26,0-.35-.16-.62-.68-.1-.2-.33-.59-.52-.8-.03-.04-.14-.17-.14-.23,0-.02.02-.02.04-.02.01,0,1.59.35,1.59,1.26,0,.2-.07.46-.36.46ZM36.29,57.33s-.04-.06-.04-.07c0-.02.01-.03.03-.03.08,0,.43.03.5.05.55.02,1.03.03,1.56.03h.53c.17,0,.37,0,.37-.33,0-.17-.14-.98-.14-1.07,0-.08.07-.09.12-.09.04,0,.89.18.89.37,0,.06-.19.21-.2.27-.04.17-.04.42-.04.5,0,.28.08.35.37.35h1.6c.51,0,.56,0,.72-.18.33-.4.36-.43.43-.43.11,0,.89.64.89.76,0,.16-.23.16-.61.16h-2.7c-.11,0-.23,0-.23.14,0,.32,1.66,1.4,1.74,1.45.2.14.75.49,1.99.86.08.02.29.09.29.12,0,.06-.6.21-.7.27-.18.11-.38.32-.44.4-.04.06-.09.11-.14.11-.15,0-1.68-1.11-2.46-2.22-.16-.23-.41-.59-.47-.68-.03-.04-.1-.11-.17-.11-.03,0-.12.01-.12.18,0,.47.12,2.55.12,2.98,0,.49-.32.62-.54.62-.3,0-.3-.2-.3-.3,0-.09.08-2.31.08-2.76,0-.17-.05-.26-.1-.26-.07,0-.64.76-.77.89-.55.6-.93.99-1.61,1.48-.28.19-.62.43-.71.43-.02,0-.03-.01-.03-.02,0-.04.19-.25.3-.36.56-.56,1.2-1.22,2-2.41.33-.5.36-.54.36-.65,0-.15-.12-.15-.21-.15-.53,0-1.05,0-1.5.02-.04,0-.32.03-.34.03-.03,0-.06-.03-.1-.08l-.21-.26ZM41.96,52.21c.25,0,.28,0,.42-.2.15-.21.17-.25.24-.25.09,0,1,.62,1,.81,0,.1-.12.19-.29.2-.44.01-.5.02-.76.18-.05.02-.5.36-.58.42-.03,0-.04-.02-.04-.06,0-.09.24-.52.24-.62,0-.18-.18-.18-.28-.18h-.79c-.16,0-.26.05-.29.21v1.05c0,.98,0,1.05.93,1.05.84,0,.93-.23,1.17-.84.07-.15.17-.4.19-.4.03,0,.04.11.04.15,0,.19.08.51.17.69.02.06.23.32.23.38,0,.1-.1.35-.5.51-.41.16-.9.18-1.78.18-1.03,0-1.16-.37-1.16-1.1v-1.45c0-.27,0-.45-.3-.45h-.78s-.11,0-.11.05c0,.07.61.35.61.47,0,.07-.3.26-.35.32-.05.08-.12.5-.15.59-.43,1.6-2.26,2.36-2.45,2.36-.01,0-.04,0-.04-.03,0-.06.3-.23.36-.27,1.57-1.22,1.57-2.47,1.57-2.98,0-.37,0-.5-.33-.5h-.26c-.18,0-.23.11-.25.21-.07.38-.23,1.23-.76,1.23-.19,0-.44-.2-.44-.5,0-.15.03-.28.33-.6.18-.19.37-.45.49-.82.09-.29.14-.42.19-.42.07,0,.12.36.16.43.06.15.15.16.29.16h4.08Z"/><path class="cls-1" d="M55.09,53.57c.46,0,.52,0,.61-.08.1-.09.51-.6.62-.6.12,0,1.13.72,1.13.85s-.21.14-.61.14h-7.44c-.26,0-1.04,0-1.43.02-.03.01-.2.03-.24.03s-.06-.03-.1-.08l-.21-.26s-.04-.06-.04-.07c0-.02.01-.03.03-.03.08,0,.43.03.5.04.52.02,1.03.03,1.55.03h2.3c.32,0,.35-.15.35-.4,0-.17-.02-1.05-.03-1.12-.01-.08-.15-.4-.15-.47,0-.07.1-.08.16-.08.04,0,1.21.15,1.21.45,0,.12-.09.19-.2.27-.16.12-.16.18-.16.33,0,.1-.02.54-.02.64,0,.34.14.37.36.37h1.83ZM51.21,54.62c-.19.09-.9,1.31-1.07,1.55-.14.17-.18.27-.18.3,0,.02.06.05.2.09.16.04.28.08.28.17,0,.06-.21.21-.24.26-.03.08-.03,1.59-.03,2.4,0,.32,0,.79.01,1.1,0,.08.03.5.03.59,0,.36-.27.58-.52.58-.18,0-.35-.11-.35-.4,0-.09.06-.79.07-.95.05-1.02.07-2,.07-3.03,0-.04,0-.25-.15-.25-.08,0-.2.11-.31.19-.08.07-1.37,1.14-1.37.97,0-.02.52-.64.58-.7.1-.14,1.86-2.25,2.15-3.33.05-.17.06-.28.15-.28.1,0,.84.46.87.59.01.06-.02.07-.19.15ZM55.23,55.34c.18,0,.3-.01.41-.07.09-.05.31-.24.38-.24.09,0,.8.44.8.61,0,.07-.07.09-.21.12-.16.05-.26.16-.51.63-.36.69-1.05,1.73-1.52,2.26-.07.07-.2.23-.2.34s.09.2.18.28c1.07.95,2.48,1.2,2.91,1.28.23.03.25.05.25.08,0,.02-.06.06-.12.09-.4.17-.58.28-.71.42-.11.11-.27.37-.35.37-.07,0-1.4-.54-2.46-1.73-.1-.12-.18-.17-.27-.17s-.18.06-.32.18c-1.66,1.56-2.59,1.76-2.59,1.73.02-.05.07-.09.09-.11.77-.68.99-.89,1.92-1.87.42-.43.45-.49.45-.67,0-.08-.02-.15-.12-.34-.17-.33-.38-.89-.47-1.2-.09-.31-.1-.33-.17-.33s-.44.47-.52.55c-.61.67-1.51,1.16-1.51,1.11,0-.01.67-.79.79-.94.94-1.17,1.71-2.87,1.75-3.46.01-.23.01-.25.08-.25s.95.42.95.52c0,.07-.12.18-.23.27-.09.09-.21.33-.21.4,0,.12.12.12.19.12h1.35ZM53.74,55.64c-.28,0-.36.03-.49.24-.11.17-.41.63-.41.78,0,.32.63,1.72.91,1.72.19,0,.68-.78.94-1.21.4-.67.69-1.26.69-1.39,0-.14-.11-.14-.28-.14h-1.37ZM53.38,56.02c.35,0,1.06.51,1.06,1.07,0,.26-.2.52-.46.52s-.27-.23-.3-.53c-.03-.35-.12-.69-.33-.97-.01-.01-.03-.05-.05-.07.01-.02.05-.02.08-.02Z"/><path class="cls-1" d="M64.06,55.47c-.07,0-.34.01-.34.19,0,.04.04.09.09.11.64.34,1.76,1.15,1.76,1.76,0,.16-.09.47-.41.47-.21,0-.26-.14-.4-.56-.27-.85-.97-1.49-1.02-1.49-.06,0-.06.03-.06.25,0,.27.02,1.59.02,1.89.01.43.04,2.51.04,2.98,0,.52-.49.6-.54.6-.14,0-.32-.1-.32-.35s.09-1.47.1-1.74c.01-.15.07-2.17.07-2.27,0-.07-.02-.12-.1-.12-.06,0-.08.03-.25.36-.46.85-1.46,2.19-1.6,2.19-.02,0-.03-.01-.03-.03s.16-.31.19-.36c1.24-2.39,1.46-3.55,1.46-3.62,0-.1-.07-.25-.26-.25-.2,0-.82.03-1.02.04-.02,0-.14.01-.16.01-.05,0-.07-.02-.1-.07l-.21-.26q-.06-.06-.06-.08s.02-.02.04-.02c.06,0,.34.03.41.03.21.01,1.24.05,1.39.05.27,0,.34-.1.34-.33,0-.64-.02-1.8-.05-2.39-.01-.12-.08-.7-.08-.82,0-.06.02-.12.09-.12.02,0,1.12.21,1.12.42,0,.06-.02.07-.11.16-.09.07-.18.17-.25.46,0,.02-.1,2.21-.1,2.33,0,.31.21.31.4.31.12,0,.37,0,.46-.08.07-.07.38-.53.5-.53.06,0,.88.6.88.76,0,.15-.12.15-.43.15h-1.48ZM62.06,54.5c-.23,0-.26-.18-.36-.68-.11-.52-.37-.94-.54-1.22-.01-.02-.03-.06-.03-.09,0-.04.04-.07.08-.07.19,0,1.31.79,1.31,1.51,0,.42-.34.54-.45.54ZM64.23,54.69s-.02,0-.02-.03.21-.49.26-.58c.21-.5.49-1.34.51-1.82,0-.03.01-.1.07-.1.09,0,.9.55.9.68,0,.07-.07.11-.1.14-.07.03-.25.12-.35.23-.03.03-1.13,1.49-1.26,1.49ZM66.58,58.47c-.49.1-1.08.24-1.39.33-.05.01-.2.07-.25.07-.03,0-.06-.01-.09-.05l-.27-.21q-.06-.05-.06-.07s.02-.02.3-.06c.08-.01.94-.14,1.75-.3l1.76-.37c.35-.08.35-.38.35-.41,0-2.08-.06-4.17-.11-4.9-.01-.12-.1-.71-.1-.84,0-.06.03-.1.09-.1.07,0,1.16.19,1.16.38,0,.07-.21.27-.25.32-.06.12-.1.31-.11.38,0,.04-.01,1.81-.01,2.12,0,.51,0,2.19.01,2.57,0,.1.1.19.21.19.04,0,.21-.03.27-.14.07-.11.28-.67.4-.67.03,0,.97.44.97.62,0,.17-.34.25-.4.26l-1.13.23c-.19.03-.31.17-.31.36,0,.47.11,2.7.11,2.94,0,.4-.36.58-.58.58-.19,0-.33-.15-.33-.37,0-.1.03-.59.03-.69.01-.46.05-1.74.05-2.06,0-.27,0-.55-.33-.49l-1.77.36ZM67.39,56.77c-.24,0-.27-.14-.35-.4-.06-.2-.46-.95-.77-1.25-.06-.06-.11-.1-.11-.15,0-.03.04-.04.07-.04.18,0,1.54.58,1.54,1.38,0,.45-.32.46-.37.46ZM67.49,53.93c-.21,0-.34-.25-.43-.42-.18-.35-.29-.45-.67-.8-.06-.06-.07-.07-.07-.1s.02-.03.08-.03c.03,0,1.4.21,1.4.93,0,.05,0,.43-.32.43Z"/><path class="cls-1" d="M80.14,52.24c0,.07.07.16.18.32,1.32,1.83,3.25,2.44,4.01,2.68.08.02.52.11.52.14,0,.03-.03.04-.34.17-.14.06-.51.25-.59.43-.07.17-.09.2-.17.2-.17,0-.87-.49-1.08-.63-1-.69-1.81-1.49-2.57-2.81-.2-.35-.23-.38-.29-.38s-.11.05-.18.11c-.53.55-1.12,1.16-1.28,1.32-1.38,1.37-3.5,2.5-3.95,2.5-.02,0-.08,0-.08-.05,0-.03.27-.2.34-.25,2.45-1.56,3.99-3.72,4.25-4.31.1-.24.11-.27.18-.27.05,0,1.08.45,1.12.63.01.03-.06.18-.06.21ZM82,60.85c.35,0,.44,0,.58-.1.1-.09.47-.65.6-.65.08,0,.55.4.73.53.35.26.4.29.4.38,0,.14-.23.15-.68.15h-6.92c-.26,0-1.03,0-1.42.02-.04,0-.21.03-.25.03s-.06-.03-.09-.08l-.23-.26s-.04-.06-.04-.07c0-.02.01-.03.03-.03.08,0,.43.03.51.04.52.02,1.02.03,1.55.03h1.98c.09,0,.26,0,.33-.14.03-.08.03-1.37.03-1.58,0-.16,0-1.65-.03-1.73-.07-.14-.2-.14-.29-.14h-.63c-.26,0-1.03,0-1.43.02-.03.01-.2.03-.24.03s-.06-.03-.1-.08l-.21-.26s-.04-.06-.04-.07c0-.02.01-.03.03-.03.08,0,.43.03.51.04.51.02,1.02.03,1.55.03h.56c.34,0,.34-.14.34-.61q0-1.03-.34-1.03s-.6.01-.8.03c-.03,0-.17.02-.19.02-.03,0-.06-.02-.08-.07l-.18-.26s-.04-.06-.04-.08.01-.02.03-.02c.06,0,.29.02.34.03.36.02.97.04,1.33.04h.53c.43,0,.45-.03.5-.08.08-.09.36-.53.46-.53.06,0,.86.61.86.75,0,.16-.19.16-.5.16h-.77c-.35,0-.35.15-.35.64,0,.95.01.99.34.99h.46c.58,0,.69,0,.89-.26.23-.28.25-.32.34-.32.14,0,.87.62.87.73,0,.15-.25.15-.61.15h-1.95c-.25,0-.34.07-.34.35,0,.35,0,2.82.01,2.94.01.2.07.29.34.29h1.75ZM78.21,59.7c0,.51-.32.7-.54.7-.28,0-.29-.09-.49-.88-.06-.26-.25-.8-.47-1.2-.02-.05-.15-.23-.15-.27,0-.06.06-.06.09-.06.14.03,1.56.69,1.56,1.71ZM82.75,58.53c0,.09-.03.11-.37.24-.23.09-.32.17-.81.75-.33.37-1.08,1.07-1.16,1.07-.03,0-.06-.03-.06-.07,0-.08.21-.36.25-.42.46-.78.81-1.74.86-2.02.02-.11.04-.25.12-.25.03,0,.09,0,.18.04.14.07.99.52.99.66Z"/><path class="cls-1" d="M195.35,58.35c0,.07-.19.25-.23.29-.19.27-.96,1.49-1.15,1.72-.08.1-.32.36-.41.36-.03,0-.05-.01-.05-.04,0-.01.34-.82.4-.98.2-.58.41-1.15.42-1.47.01-.33.01-.36.1-.36.07,0,.36.11.44.15.16.07.47.21.47.34ZM197.75,57.04c-.02-.1-.04-.17-.16-.17-.1,0-.63.11-.76.12-.3.04-.3.14-.3.56,0,.5.01,2.96.01,3.51s-.47.62-.58.62c-.25,0-.25-.19-.25-.27,0-.15.06-.84.06-.99.02-.82.06-2.21.06-3.03,0-.15-.02-.27-.23-.27s-1.06.08-1.32.17c-.05.02-.27.17-.33.17-.2,0-.27-.9-.27-.96s0-.17.1-.17c.01,0,.28.08.31.09.24.08.63.16,1.13.16.36,0,.41-.03.51-.2.58-.95,1.23-2.47,1.37-3.16.06-.27.06-.29.15-.29.06,0,1.1.42,1.1.65,0,.1-.08.14-.17.15-.1.02-.2.03-.41.24-.3.31-1.75,2.52-1.75,2.57,0,.03.02.04.03.06.05.01.71.01.79.01.17,0,.53-.02.65-.03.06,0,.1-.02.1-.1,0-.14-.32-.78-.32-.8,0-.04.03-.04.04-.04.18,0,1.24.61,1.24,1.42,0,.25-.15.45-.35.45-.25,0-.4-.09-.46-.46ZM195.28,55.56c-.16,0-.25-.07-.37-.36-.05-.12-.29-.65-.76-1.21-.11-.14-.12-.15-.12-.18s.02-.07.09-.07c.14,0,.73.28.81.28.15,0,.54-1.4.69-2.3.03-.18.06-.18.1-.18.08,0,1.02.38,1.02.52,0,.07-.28.25-.33.29-.14.15-1.13,1.69-1.13,1.85,0,.1.04.16.1.21.14.15.28.45.28.66,0,.23-.12.49-.38.49ZM198.55,59.74c0,.33-.25.58-.46.58-.23,0-.25-.09-.42-.88-.1-.45-.14-.52-.36-.97-.02-.06-.07-.16-.07-.2s.03-.06.06-.06c.1,0,.45.26.64.45.33.33.61.77.61,1.08ZM199.67,54.34c-.25,0-.33.03-.42.17-.26.41-.89,1.39-1.1,1.39-.06,0-.08-.03-.08-.08,0-.02.42-.82.49-.98.47-1.02.97-2.55.97-3.16,0-.02-.01-.14-.01-.16,0-.03.01-.07.04-.07s1.23.36,1.23.59c0,.11-.14.18-.3.26-.18.08-.89,1.66-.89,1.67,0,.07.09.07.19.07h2.07c.3,0,.32,0,.44-.1.2-.19.23-.21.3-.21.14,0,.89.42.89.64,0,.08-.03.09-.28.29-.09.07-.09.55-.09.85-.02,2.08-.33,4.54-.96,5.52-.29.46-.91.71-1.22.71-.15,0-.18-.09-.28-.36-.1-.28-.36-.53-.62-.71-.16-.1-.18-.11-.18-.17,0-.05.03-.05.05-.05.02,0,.3.1.36.11.3.09.53.17.71.17.49,0,.73-.47.87-1.02.36-1.37.51-2.77.51-4.18,0-.18,0-.99-.03-1.05-.07-.15-.21-.15-.34-.15h-2.31ZM200.9,57.99c0,.43-.27.72-.54.72s-.32-.14-.45-.87c-.1-.54-.28-1-.34-1.12-.08-.17-.09-.2-.09-.24s0-.07.03-.07c.18,0,.71.43.89.61.32.3.5.62.5.96Z"/><path class="cls-1" d="M213.49,50.43c0,1.07-.61,2.02-1.61,2.75-.14.09-.94.52-.94.63,0,.16.85.45.99.54.85.52,1.83,1.48,1.83,3.07,0,2.31-1.99,3.82-4.27,3.82-1.81,0-3.54-1.01-3.54-2.46,0-.74.51-1.08,1.03-1.08.61,0,.89.49.89.85,0,.14-.16.81-.16.96,0,.67.78,1.16,1.63,1.16,1.45,0,2.8-1.46,2.8-3.22s-1.25-3.31-2.84-3.31c-.09,0-.6.07-.71.07-.27,0-.4-.16-.4-.36,0-.22.18-.38.42-.38.11,0,.65.09.78.09,1.23,0,2.48-1.12,2.48-2.86,0-1.39-.85-2.73-2.28-2.73-.96,0-1.45.63-1.45,1.16,0,.09.09.56.09.67,0,.54-.42.96-.92.96-.58,0-.9-.49-.9-.96,0-.87,1.07-2.42,3.53-2.42,1.79,0,3.56,1.21,3.56,3.06Z"/><path class="cls-1" d="M217.24,62.42c.33-.22.71-.61.71-.94,0-.14-.18-.23-.52-.42-.23-.11-.72-.34-.72-1.01,0-.63.51-1.19,1.19-1.19.54,0,1.21.36,1.21,1.25,0,1.59-1.57,2.91-2.04,2.91-.18,0-.22-.13-.22-.2,0-.09.02-.13.4-.4Z"/><path class="cls-1" d="M225.9,61.24c-2.86,0-4.07-3.6-4.07-6.93s1.23-6.94,4.07-6.94c2.93.02,4.07,3.76,4.07,6.94s-1.16,6.93-4.07,6.93ZM225.9,47.97c-2.4,0-2.44,5.42-2.44,6.35,0,.74,0,6.35,2.44,6.33,2.4,0,2.44-5.39,2.44-6.33,0-.76,0-6.35-2.44-6.35Z"/><path class="cls-1" d="M236.74,61.24c-2.86,0-4.07-3.6-4.07-6.93s1.23-6.94,4.07-6.94c2.93.02,4.07,3.76,4.07,6.94s-1.16,6.93-4.07,6.93ZM236.74,47.97c-2.4,0-2.44,5.42-2.44,6.35,0,.74,0,6.35,2.44,6.33,2.4,0,2.44-5.39,2.44-6.33,0-.76,0-6.35-2.44-6.35Z"/><path class="cls-1" d="M247.59,61.24c-2.86,0-4.07-3.6-4.07-6.93s1.23-6.94,4.07-6.94c2.93.02,4.07,3.76,4.07,6.94s-1.16,6.93-4.07,6.93ZM247.59,47.97c-2.4,0-2.44,5.42-2.44,6.35,0,.74,0,6.35,2.44,6.33,2.4,0,2.44-5.39,2.44-6.33,0-.76,0-6.35-2.44-6.35Z"/><path class="cls-1" d="M256.37,57.23c-.17,0-.36.01-.37.32-.01.33-.01,1.63-.01,3.39,0,.77-.52.81-.62.81-.34,0-.34-.16-.34-.3,0-.02.07-.96.08-1.14.08-1.2.1-6.12.1-6.23,0-.3-.04-1.78-.04-2.11,0-.08,0-.14.06-.14.15,0,.38.11.61.2.18.08.27.09.58.09h6.08c.36,0,.41-.03.53-.16.17-.16.24-.2.3-.2s.9.53.9.69c0,.11-.06.15-.29.33-.18.14-.2.16-.2,1.37,0,.93.11,5.59.11,6.64,0,.8-.86.91-.92.91-.19,0-.21-.08-.26-.38-.06-.3-.58-.49-.9-.61-.6-.21-.67-.24-.67-.31,0-.06.08-.06.14-.06.15,0,1.17.17,1.4.17.11,0,.25,0,.28-.12.03-.17.05-.97.05-1.22,0-.23-.01-1.61-.03-1.71-.04-.21-.23-.23-.34-.23h-6.21ZM258.66,56.94c.11,0,.24-.01.29-.14.03-.09.04-2.38.04-2.65,0-.21-.01-1.51-.04-1.59-.07-.14-.17-.14-.29-.14h-2.31c-.09,0-.24.01-.29.14-.03.08-.03,1.96-.03,2.24,0,.24,0,1.86.02,1.96.03.18.24.18.31.18h2.31ZM262.52,56.94c.4,0,.4-.08.4-.78,0-.16-.03-3.41-.06-3.55-.05-.19-.19-.19-.37-.19h-2.26c-.15,0-.28,0-.34.12-.06.11-.06,1.81-.06,2.1s0,2.06.06,2.17c.06.12.18.12.34.12h2.29Z"/><path class="cls-1" d="M33.57,11.38q-.06-.06-.06-.07s.02-.03.05-.03c.2,0,1.19.08,1.41.08.2,0,.26-.04.42-.23.25-.28.28-.32.34-.32s.72.4.72.6c0,.03-.01.06-.02.07-.03.05-.24.17-.28.2-.07.07-.07.19-.07,1.38,0,1.57,0,1.77.28,2.12.52.67,2.22.67,3,.67.56,0,2.04.04,4.18-.33.06-.01.32-.07.38-.07.02,0,.07,0,.07.05,0,.01-.01.06-.09.1-.26.14-.4.21-.54.47-.03.07-.1.45-.17.51-.02.01-1.29.01-1.47.01-2.44,0-3.42-.14-4.11-.29-.16-.03-.97-.23-1.41-.91-.09-.14-.4-.87-.5-.87-.19,0-1.19,1.59-1.19,1.67-.01.35-.02.38-.12.38-.21,0-.8-.8-.8-.97,0-.08.12-.11.24-.15.21-.06.75-.37,1.05-.61.47-.35.47-.36.47-.85,0-.26.02-1.6.02-1.9-.01-.38-.07-.44-.38-.44-.02,0-.64-.01-.95.03-.02,0-.14.02-.16.02-.04,0-.07-.02-.1-.08l-.21-.26ZM35.77,9.18c-.19,0-.28-.08-.45-.38-.02-.03-.33-.55-1.06-1.29-.07-.07-.44-.42-.44-.43,0-.05.07-.05.1-.05.23,0,2.21.68,2.21,1.75,0,.18-.1.4-.36.4ZM41.07,7.19c.4,0,.49,0,.62-.1.06-.05.33-.4.42-.4.1,0,1.02.56,1.02.78,0,.08-.07.12-.15.15-.08.02-.51.1-.6.14-.23.09-1.26.75-1.5.89-.06.03-.38.25-.38.33,0,.03.12.17.14.2.03.06.03.12.03.3,0,.06.06.06.21.06h1.15c.12,0,.25,0,.37-.09.04-.02.26-.21.33-.21.15,0,.68.37.68.51,0,.09-.09.15-.18.21-.14.09-.14.15-.14.34,0,1.57,0,1.74.03,2.53.03.69.03,1.15.03,1.3,0,.49-.1.78-.37.98-.12.09-.36.2-.51.2-.12,0-.17-.08-.19-.12-.01-.03-.08-.26-.11-.3-.06-.08-.49-.33-.49-.37,0-.07.56-.11.67-.15.28-.1.28-.18.28-.99,0-.24,0-.42-.34-.42h-1.23c-.33,0-.35.17-.35.4v.43c0,.12.04.76.04.9,0,.2-.02.51-.53.51-.24,0-.27-.28-.27-.46,0-.21.08-1.23.08-1.47,0-.3-.21-.3-.34-.3h-1.06c-.36,0-.36.09-.36.7,0,.15.02.88.02,1.04,0,.62-.41.63-.47.63-.33,0-.35-.25-.35-.56,0-.11.02-.54.03-.64.03-.44.05-.79.05-1.74,0-.42-.05-2.48-.05-2.96,0-.09,0-.16.07-.16.02,0,.58.19.62.2.26.09.41.08.53.08h1.1c.07,0,.14,0,.14-.09,0-.08-.31-.45-.66-.71-.25-.18-.29-.2-.29-.27,0-.06.11-.06.15-.06.11,0,.43.03.79.16.07.02.41.2.49.2.16,0,1.11-1.02,1.11-1.2,0-.09-.07-.09-.21-.09h-1.74c-.27,0-1.03,0-1.42.03-.03,0-.2.02-.24.02-.05,0-.07-.02-.1-.07l-.21-.26q-.06-.06-.06-.08s.02-.02.04-.02c.07,0,.42.03.5.03.32.01.9.05,1.55.05h1.63ZM38.42,11.43c-.1,0-.25.01-.32.14-.03.07-.03.12-.03.71,0,.19,0,.37.35.37h1.06c.35,0,.35-.12.35-.65,0-.42,0-.56-.35-.56h-1.06ZM38.41,9.83c-.33,0-.33.09-.33.89,0,.18,0,.4.33.4h1.08c.33,0,.33-.08.33-.87,0-.2,0-.42-.33-.42h-1.08ZM42.03,11.12c.35,0,.35-.07.35-.76,0-.38,0-.53-.35-.53h-1.19c-.35,0-.35.1-.35.72,0,.44,0,.56.35.56h1.19ZM42.09,12.65c.33,0,.33-.17.33-.44,0-.7,0-.78-.33-.78h-1.26c-.33,0-.33.08-.33.76,0,.3,0,.46.33.46h1.26Z"/><path class="cls-1" d="M51.62,8.83c.33,0,.33-.2.33-.52,0-.11.01-.58.01-.68,0-.17-.04-.93-.04-1.07,0-.07,0-.11.1-.11.05,0,.99.21.99.43,0,.07-.23.29-.24.36-.01.05-.03,1.15-.03,1.26,0,.1.01.33.33.33h.46c.18,0,.35,0,.96-1.45.03-.09.16-.5.18-.58.02-.07.06-.11.12-.11.04,0,1.06.61,1.06.77,0,.1-.05.11-.43.23-.35.1-1.15.98-1.15,1.07,0,.07.09.07.14.07h1.35c.06,0,.17,0,.3-.06.06-.02.28-.17.33-.17.16,0,.95.58.95.94,0,.14-.09.19-.2.19-.08,0-.37-.12-.44-.12-.27,0-.62.3-.78.44-.01.01-.2.18-.23.18-.03,0-.03-.05-.03-.06,0-.07.27-.84.27-.95,0-.1-.07-.1-.16-.1h-7.07c-.16,0-.16.02-.17.21-.03.58-.43,1.1-.69,1.1-.19,0-.4-.21-.4-.49,0-.18.07-.29.19-.49.32-.5.32-1.05.32-1.08,0-.23,0-.25.07-.25.06,0,.08.06.34.5.09.17.14.2.28.2h2.97ZM54.99,13.36c.06,0,.16,0,.24-.04.08-.03.34-.34.42-.34.11,0,.81.38.81.62,0,.08-.03.1-.24.2-.07.03-.08.14-.08.19,0,1.54,0,1.71-.07,1.85-.21.52-.82.76-.94.76-.12,0-.16-.03-.4-.38-.14-.2-.33-.29-.59-.41-.05-.02-.14-.07-.14-.09,0-.04.06-.04.09-.04.45,0,.72-.05.86-.07.38-.07.38-.16.38-1.06,0-.8,0-.89-.34-.89h-1.9c-.34,0-.34.18-.34.38,0,.34.01,1.85.01,2.17s-.14.71-.56.71c-.32,0-.32-.25-.32-.35,0-.01.09-2.16.09-2.56,0-.18-.01-.35-.35-.35h-1.76c-.35,0-.36.06-.36,1.26,0,.15.03.8.03.94,0,.72-.63.76-.67.76-.15,0-.24-.08-.24-.4,0-.42.07-2.25.07-2.62,0-.07-.05-.41-.05-.47,0-.08.03-.1.09-.1.03,0,.42.16.62.25.21.09.27.09.37.09h1.91c.34,0,.34-.2.34-.41,0-.94-.16-.94-.37-.94h-.87c-.14,0-.25,0-.32.15-.09.17-.16.29-.56.29-.33,0-.33-.21-.33-.3,0-.21.03-1.16.03-1.37,0-.15,0-.36-.04-.67-.01-.09-.02-.16-.02-.18,0-.03.01-.1.09-.1.1,0,.53.21.63.25.17.07.3.07.49.07h3.42c.09,0,.28,0,.4-.17.14-.21.16-.24.28-.24.14,0,.66.28.66.54,0,.09-.05.15-.18.31-.05.06-.05.17-.05.37,0,.14.01.75.01.87-.01.4-.38.53-.58.53-.16,0-.18-.04-.25-.24-.04-.11-.17-.11-.25-.11h-1.49s-.1,0-.1.05c0,.03.01.03.15.1.24.11.33.16.33.21,0,.07-.25.28-.28.34-.02.06-.03.11-.03.19,0,.27,0,.45.35.45h1.87ZM50.29,8.67c-.24,0-.28-.1-.71-.97-.11-.24-.27-.56-.4-.73-.01-.02-.15-.18-.15-.19,0-.03.05-.04.07-.04.2,0,.79.38.97.51.32.24.61.62.61.9,0,.23-.11.53-.4.53ZM50.79,10.46c-.35,0-.35.11-.35.73,0,.37.04.53.38.53h3.32c.09,0,.25,0,.32-.16.03-.07.03-.53.03-.8,0-.3-.24-.3-.34-.3h-3.36Z"/><path class="cls-1" d="M64.06,10.63c-.07,0-.34.01-.34.19,0,.04.04.09.09.11.64.34,1.76,1.15,1.76,1.76,0,.16-.09.47-.41.47-.21,0-.26-.14-.4-.56-.27-.85-.97-1.49-1.02-1.49-.06,0-.06.03-.06.25,0,.27.02,1.59.02,1.89.01.43.04,2.51.04,2.98,0,.52-.49.6-.54.6-.14,0-.32-.1-.32-.35s.09-1.47.1-1.74c.01-.15.07-2.17.07-2.27,0-.07-.02-.12-.1-.12-.06,0-.08.03-.25.36-.46.85-1.46,2.19-1.6,2.19-.02,0-.03-.01-.03-.03s.16-.31.19-.36c1.24-2.39,1.46-3.55,1.46-3.62,0-.1-.07-.25-.26-.25-.2,0-.82.03-1.02.04-.02,0-.14.01-.16.01-.05,0-.07-.02-.1-.07l-.21-.26q-.06-.06-.06-.08s.02-.02.04-.02c.06,0,.34.03.41.03.21.01,1.24.05,1.39.05.27,0,.34-.1.34-.33,0-.64-.02-1.8-.05-2.39-.01-.12-.08-.7-.08-.82,0-.06.02-.12.09-.12.02,0,1.12.21,1.12.42,0,.06-.02.07-.11.16-.09.07-.18.17-.25.46,0,.02-.1,2.21-.1,2.33,0,.31.21.31.4.31.12,0,.37,0,.46-.08.07-.07.38-.53.5-.53.06,0,.88.6.88.76,0,.15-.12.15-.43.15h-1.48ZM62.06,9.65c-.23,0-.26-.18-.36-.68-.11-.52-.37-.94-.54-1.22-.01-.02-.03-.06-.03-.09,0-.04.04-.07.08-.07.19,0,1.31.79,1.31,1.51,0,.42-.34.54-.45.54ZM64.23,9.85s-.02,0-.02-.03.21-.49.26-.58c.21-.5.49-1.34.51-1.82,0-.03.01-.1.07-.1.09,0,.9.55.9.68,0,.07-.07.11-.1.14-.07.03-.25.12-.35.23-.03.03-1.13,1.49-1.26,1.49ZM66.58,13.63c-.49.1-1.08.24-1.39.33-.05.01-.2.07-.25.07-.03,0-.06-.01-.09-.05l-.27-.21q-.06-.05-.06-.07s.02-.02.3-.06c.08-.01.94-.14,1.75-.3l1.76-.37c.35-.08.35-.38.35-.41,0-2.08-.06-4.17-.11-4.9-.01-.12-.1-.71-.1-.84,0-.06.03-.1.09-.1.07,0,1.16.19,1.16.38,0,.07-.21.27-.25.32-.06.12-.1.31-.11.38,0,.04-.01,1.81-.01,2.12,0,.51,0,2.19.01,2.57,0,.1.1.19.21.19.04,0,.21-.03.27-.14.07-.11.28-.67.4-.67.03,0,.97.44.97.62,0,.17-.34.25-.4.26l-1.13.23c-.19.03-.31.17-.31.36,0,.47.11,2.7.11,2.94,0,.4-.36.58-.58.58-.19,0-.33-.15-.33-.37,0-.1.03-.59.03-.69.01-.46.05-1.74.05-2.06,0-.27,0-.55-.33-.49l-1.77.36ZM67.39,11.92c-.24,0-.27-.14-.35-.4-.06-.2-.46-.95-.77-1.25-.06-.06-.11-.1-.11-.15,0-.03.04-.04.07-.04.18,0,1.54.58,1.54,1.38,0,.45-.32.46-.37.46ZM67.49,9.09c-.21,0-.34-.25-.43-.42-.18-.35-.29-.45-.67-.8-.06-.06-.07-.07-.07-.1s.02-.03.08-.03c.03,0,1.4.21,1.4.93,0,.05,0,.43-.32.43Z"/><path class="cls-1" d="M80.14,7.4c0,.07.07.16.18.32,1.32,1.83,3.25,2.44,4.01,2.68.08.02.52.11.52.14,0,.03-.03.04-.34.17-.14.06-.51.25-.59.43-.07.17-.09.2-.17.2-.17,0-.87-.49-1.08-.63-1-.69-1.81-1.49-2.57-2.81-.2-.35-.23-.38-.29-.38s-.11.05-.18.11c-.53.55-1.12,1.16-1.28,1.32-1.38,1.37-3.5,2.5-3.95,2.5-.02,0-.08,0-.08-.05,0-.03.27-.2.34-.25,2.45-1.56,3.99-3.72,4.25-4.31.1-.24.11-.27.18-.27.05,0,1.08.45,1.12.63.01.03-.06.18-.06.21ZM82,16.01c.35,0,.44,0,.58-.1.1-.09.47-.65.6-.65.08,0,.55.4.73.53.35.26.4.29.4.38,0,.14-.23.15-.68.15h-6.92c-.26,0-1.03,0-1.42.02-.04,0-.21.03-.25.03s-.06-.03-.09-.08l-.23-.26s-.04-.06-.04-.07c0-.02.01-.03.03-.03.08,0,.43.03.51.04.52.02,1.02.03,1.55.03h1.98c.09,0,.26,0,.33-.14.03-.08.03-1.37.03-1.58,0-.16,0-1.65-.03-1.73-.07-.14-.2-.14-.29-.14h-.63c-.26,0-1.03,0-1.43.02-.03.01-.2.03-.24.03s-.06-.03-.1-.08l-.21-.26s-.04-.06-.04-.07c0-.02.01-.03.03-.03.08,0,.43.03.51.04.51.02,1.02.03,1.55.03h.56c.34,0,.34-.14.34-.61q0-1.03-.34-1.03s-.6.01-.8.03c-.03,0-.17.02-.19.02-.03,0-.06-.02-.08-.07l-.18-.26s-.04-.06-.04-.08.01-.02.03-.02c.06,0,.29.02.34.03.36.02.97.04,1.33.04h.53c.43,0,.45-.03.5-.08.08-.09.36-.53.46-.53.06,0,.86.61.86.75,0,.16-.19.16-.5.16h-.77c-.35,0-.35.15-.35.64,0,.95.01.99.34.99h.46c.58,0,.69,0,.89-.26.23-.28.25-.32.34-.32.14,0,.87.62.87.73,0,.15-.25.15-.61.15h-1.95c-.25,0-.34.07-.34.35,0,.35,0,2.82.01,2.94.01.2.07.29.34.29h1.75ZM78.21,14.86c0,.51-.32.7-.54.7-.28,0-.29-.09-.49-.88-.06-.26-.25-.8-.47-1.2-.02-.05-.15-.23-.15-.27,0-.06.06-.06.09-.06.14.03,1.56.69,1.56,1.71ZM82.75,13.69c0,.09-.03.11-.37.24-.23.09-.32.17-.81.75-.33.37-1.08,1.07-1.16,1.07-.03,0-.06-.03-.06-.07,0-.08.21-.36.25-.42.46-.78.81-1.74.86-2.02.02-.11.04-.25.12-.25.03,0,.09,0,.18.04.14.07.99.52.99.66Z"/><path class="cls-1" d="M48.18,28.61c.08.09.48.52.48.58,0,.02-.02.06-.07.06-.1,0-2.36-1.63-2.36-4.66s2.26-4.66,2.36-4.66c.05,0,.07.04.07.06,0,.06-.4.49-.48.58-.39.49-1.41,1.89-1.41,4.03s1.02,3.54,1.41,4.03Z"/><path class="cls-1" d="M52.54,27.91c-.06,0-.26,0-.28.21-.02.25-.04.53-.47.53-.32,0-.34-.2-.34-.36,0-.04.06-2,.06-2.37,0-1.07,0-3.4-.08-4.39,0-.09-.06-.5-.06-.59,0-.05.01-.08.06-.08.04,0,.09.02.46.21.27.13.32.14.49.14h3c.21,0,.28,0,.35-.1.15-.21.19-.25.28-.25.14,0,.85.46.85.61,0,.07-.05.11-.22.25-.13.1-.18.17-.18.64,0,1.05,0,1.22.02,2.09,0,.56.08,3.04.08,3.55,0,.34-.23.54-.49.54-.03,0-.28,0-.31-.37-.01-.17-.01-.24-.21-.24h-3.02ZM55.48,24.35c.28,0,.28-.19.28-.31,0-.12-.03-2.4-.05-2.45-.06-.13-.19-.13-.24-.13h-3.03c-.14,0-.22.09-.23.15-.02.08-.02,2.2-.02,2.38,0,.19,0,.36.27.36h3.01ZM55.47,27.64c.09,0,.26,0,.28-.21.01-.06.01-2.23.01-2.46,0-.21-.02-.37-.28-.37h-3c-.25,0-.28.15-.28.34,0,.32.03,1.9.03,2.25,0,.31.03.44.29.44h2.95Z"/><path class="cls-1" d="M60.99,25.49c-.25,0-.26.13-.28.34-.03.25-.28.55-.58.55-.25,0-.25-.13-.25-.25,0-.07.03-.4.04-.48.02-.37.02-1.29.02-1.56,0-.62-.02-1.25-.06-1.77,0-.05-.03-.32-.03-.34,0-.03,0-.07.03-.07.09,0,.16.04.74.35.19.1.3.14.53.14h1.63c.29,0,.29-.18.29-.36,0-.29,0-1.19-.03-1.46,0-.06-.06-.3-.06-.36s.06-.06.1-.06c.07,0,.96.15.96.33,0,.06-.21.25-.22.3-.04.17-.04.25-.04,1.28,0,.15,0,.32.27.32h1.82c.11,0,.21,0,.3-.14.19-.25.21-.28.29-.28.14,0,.83.5.83.63,0,.06-.22.24-.25.29-.08.14-.08.25-.08,1.23,0,.2.03,1.18.03,1.4,0,.21,0,.32-.1.45-.2.24-.43.25-.48.25-.27,0-.27-.24-.27-.48,0-.09,0-.26-.28-.26h-1.76c-.18,0-.31.02-.31.32,0,.34.02,2.04.02,2.42,0,.21,0,.77-.52.77-.32,0-.32-.29-.32-.39,0-.11.04-.61.04-.73.01-.34.03-1.72.03-2.06,0-.23-.03-.34-.29-.34h-1.76ZM62.76,25.22c.08,0,.21,0,.25-.12.06-.12.06-1.35.06-1.6,0-.78,0-.86-.3-.86h-1.82c-.28,0-.28.11-.28.46,0,.24.02,1.46.02,1.74s.05.37.3.37h1.77ZM65.94,25.22c.09,0,.23,0,.25-.15.02-.07.05-1.92.05-2.11,0-.24-.09-.32-.28-.32h-1.89c-.28,0-.28.2-.28.33,0,.25,0,1.95.03,2.07.03.15.14.18.26.18h1.86Z"/><path class="cls-1" d="M70.21,20.56c-.08-.09-.48-.52-.48-.58,0-.02.02-.06.07-.06.1,0,2.36,1.63,2.36,4.66s-2.26,4.66-2.36,4.66c-.05,0-.07-.04-.07-.06,0-.06.4-.49.48-.58.39-.49,1.41-1.89,1.41-4.03s-1.02-3.54-1.41-4.03Z"/></g></svg>