<svg xmlns="http://www.w3.org/2000/svg" width="214.205" height="55.96" viewBox="0 0 214.205 55.96">
  <g id="intro-txt02" transform="translate(-234.687)">
    <path id="パス_1" data-name="パス 1" d="M238.126,41.88c.085,0,.238,0,.238.153s-.161.17-.246.17H236.63a.422.422,0,0,1-.476-.468v-6.8a.42.42,0,0,1,.476-.467h1.5c.085,0,.238.008.238.161s-.153.162-.238.162H236.69a.21.21,0,0,0-.2.119,8.99,8.99,0,0,0-.034.986c0,.663,0,5.634.009,5.771a.206.206,0,0,0,.221.212Z" fill="#1a1311"/>
    <path id="パス_2" data-name="パス 2" d="M239.2,38.047c-.042-.042-.042-.042-.042-.051s.017-.025.034-.025c.153,0,.892.059,1.062.059.153,0,.2-.034.314-.17.187-.212.213-.238.256-.238s.543.3.543.451a.072.072,0,0,1-.017.051,1.942,1.942,0,0,1-.212.153c-.051.051-.051.144-.051,1.036,0,1.182,0,1.335.212,1.6.391.5,1.674.5,2.261.5a16.285,16.285,0,0,0,3.145-.247c.042-.008.238-.051.289-.051.017,0,.051,0,.051.034,0,.009-.009.043-.068.077a.793.793,0,0,0-.408.357c-.026.051-.077.34-.128.382-.017.009-.969.009-1.1.009a13.643,13.643,0,0,1-3.094-.221,1.73,1.73,0,0,1-1.062-.689c-.068-.1-.3-.654-.374-.654a5.237,5.237,0,0,0-.892,1.258c-.008.263-.017.289-.093.289-.162,0-.6-.6-.6-.731,0-.06.093-.085.178-.111a3.311,3.311,0,0,0,.791-.458c.357-.264.357-.272.357-.638,0-.195.017-1.207.017-1.428-.008-.289-.051-.331-.289-.331a6.091,6.091,0,0,0-.714.025c-.017,0-.1.017-.119.017-.034,0-.051-.017-.076-.059Zm1.657-1.657c-.144,0-.212-.059-.34-.289a5.459,5.459,0,0,0-.8-.969c-.052-.051-.332-.315-.332-.323,0-.034.051-.034.077-.034.17,0,1.665.51,1.665,1.317a.273.273,0,0,1-.272.3m3.987-1.5c.3,0,.365,0,.467-.077.042-.033.246-.3.314-.3s.765.425.765.586c0,.06-.051.094-.11.111s-.383.076-.451.1c-.17.068-.952.561-1.13.671-.042.026-.289.187-.289.247,0,.026.094.127.1.153.025.043.025.093.025.23,0,.042.043.042.162.042h.867a.431.431,0,0,0,.28-.068c.034-.017.2-.161.247-.161.11,0,.51.28.51.382,0,.068-.068.11-.136.162-.1.067-.1.11-.1.254,0,1.182,0,1.309.025,1.9.026.519.026.867.026.978a.754.754,0,0,1-.663.892.151.151,0,0,1-.145-.093,1.42,1.42,0,0,0-.085-.23c-.042-.059-.365-.246-.365-.281s.425-.085.5-.11c.213-.077.213-.136.213-.748,0-.178,0-.315-.255-.315h-.927c-.246,0-.263.128-.263.3v.323c0,.093.034.569.034.68,0,.153-.017.383-.4.383-.178,0-.2-.213-.2-.349,0-.162.059-.926.059-1.1,0-.23-.161-.23-.255-.23h-.8c-.272,0-.272.069-.272.527,0,.111.017.663.017.783,0,.467-.306.476-.357.476-.246,0-.263-.187-.263-.426,0-.085.017-.407.025-.484.026-.332.034-.6.034-1.309,0-.314-.034-1.87-.034-2.227,0-.068,0-.119.051-.119.017,0,.434.145.468.154a1.022,1.022,0,0,0,.4.059h.825c.05,0,.1,0,.1-.068a1.612,1.612,0,0,0-.493-.535c-.187-.137-.222-.154-.222-.2s.086-.042.111-.042a2.086,2.086,0,0,1,.6.119,2.741,2.741,0,0,0,.366.153,2.838,2.838,0,0,0,.833-.9c0-.068-.052-.068-.162-.068h-1.309c-.2,0-.773,0-1.071.026-.025,0-.153.017-.178.017s-.051-.017-.077-.052l-.161-.195c-.043-.042-.043-.042-.043-.059s.017-.018.034-.018c.051,0,.315.026.374.026.238.009.68.034,1.164.034Zm-1.989,3.187a.251.251,0,0,0-.238.1c-.026.051-.026.094-.026.536,0,.144,0,.28.264.28h.8c.263,0,.263-.093.263-.493,0-.314,0-.425-.263-.425Zm-.009-1.2c-.247,0-.247.068-.247.671,0,.136,0,.3.247.3h.816c.247,0,.247-.06.247-.655,0-.153,0-.314-.247-.314Zm2.72.969c.263,0,.263-.051.263-.57,0-.289,0-.4-.263-.4h-.892c-.264,0-.264.076-.264.544,0,.331,0,.425.264.425ZM245.615,39c.246,0,.246-.127.246-.332,0-.526,0-.586-.246-.586h-.952c-.247,0-.247.06-.247.57,0,.229,0,.348.247.348Z" fill="#1a1311"/>
    <path id="パス_3" data-name="パス 3" d="M248.293,40.435a.1.1,0,0,1-.043-.05c0-.017.017-.026.035-.026.05,0,.263.026.306.034.1,0,.8.034,1.07.034.221,0,.221-.059.221-.4,0-.382,0-.408-.306-.408-.2,0-.782,0-1.079.026-.025,0-.153.017-.179.017s-.042-.017-.076-.051l-.162-.2a.085.085,0,0,1-.033-.059c0-.008.008-.017.025-.017.043,0,.45.034.535.034.629.025.68.025,1.063.025.212,0,.221-.135.221-.365,0-.561,0-.621-.272-.621H249.4c-.2,0-.2.035-.221.374-.017.281-.349.34-.434.34-.144,0-.152-.042-.152-.22,0-.222.033-1.182.033-1.377a2.757,2.757,0,0,0-.068-.731c-.008-.034-.076-.179-.076-.213a.073.073,0,0,1,.068-.068,2.324,2.324,0,0,1,.493.264.516.516,0,0,0,.357.1h1.623a.4.4,0,0,0,.246-.051c.043-.026.213-.2.264-.2a1.762,1.762,0,0,1,.552.51c0,.043,0,.043-.118.085s-.119.06-.128.3c-.009.152-.026.935-.042.994-.043.161-.306.2-.341.2-.127,0-.152-.094-.17-.187-.033-.12-.152-.12-.22-.12h-.4c-.263,0-.263.077-.263.442,0,.494,0,.544.289.544h.178a1.693,1.693,0,0,0,.289-.008c.094-.025.425-.4.459-.4s.519.382.519.5-.06.127-.527.127h-.978c-.2,0-.229.077-.229.29,0,.416,0,.467.127.5.043.017.06.017.289.017a.292.292,0,0,0,.187-.059c.06-.052.306-.366.349-.366s.56.391.56.51c0,.136-.118.136-.39.136h-.867c-.128,0-.247,0-.247.212,0,.332,0,.417.179.417.238,0,1.36-.128,1.5-.128.008,0,.043,0,.043.017a32.209,32.209,0,0,1-3.494.833c-.05.017-.246.179-.3.179-.179,0-.34-.8-.34-.825a.045.045,0,0,1,.051-.051c.051,0,.255.077.3.077a.475.475,0,0,0,.145.017c.085,0,1.207-.06,1.258-.068.127-.034.127-.077.127-.442,0-.144-.017-.238-.212-.238-.272,0-.706,0-.961.017a1.581,1.581,0,0,1-.178.025c-.034,0-.051-.017-.077-.059Zm3.2-4.81c-.23,0-.23.11-.23.28,0,.051,0,.366-.008.383-.025.1-.212.178-.357.178-.179,0-.179-.059-.179-.255,0-.527,0-.586-.229-.586h-.535c-.1,0-.238.008-.238.212,0,.052.017.289.017.332,0,.272-.306.357-.357.357-.221,0-.221-.162-.221-.272,0-.561,0-.621-.2-.621-.1,0-.544.034-.638.034-.025,0-.042-.017-.076-.05l-.162-.2a.088.088,0,0,1-.033-.06c0-.008.008-.016.025-.016.145,0,.765.05.884.05.162,0,.2-.085.2-.229a1.773,1.773,0,0,0-.059-.519c-.009-.033-.128-.178-.128-.212a.019.019,0,0,1,.017-.017c.077,0,.757.221.783.229.042.017.11.069.11.119s-.017.06-.136.17a.27.27,0,0,0-.059.2c0,.246.1.272.271.272h.544c.229,0,.229-.077.229-.4a.9.9,0,0,0-.042-.348,1.147,1.147,0,0,1-.059-.153c0-.034.042-.034.059-.034s.8.136.8.255c0,.042-.017.093-.111.187a.251.251,0,0,0-.1.247c0,.127,0,.246.222.246h.152c.1,0,.137-.017.3-.238.153-.195.17-.221.187-.221.051,0,.587.416.587.552s-.052.128-.519.128Zm-1.878,2.558c.263,0,.272-.051.272-.552,0-.442,0-.519-.272-.519h-.23c-.271,0-.271.06-.271.587,0,.408,0,.484.271.484Zm1.054-1.071c-.264,0-.272.068-.272.519,0,.5,0,.552.272.552h.357c.263,0,.272-.06.272-.518,0-.5,0-.553-.272-.553Zm3.8-.535c.11,0,.17-.009.229-.111.153-.263.17-.3.221-.3s.672.416.672.51c0,.059-.238.238-.264.272a2.629,2.629,0,0,0-.017.628,17.3,17.3,0,0,1-.357,3.638c-.323.85-.909.876-.994.876-.145,0-.145-.034-.153-.136s-.06-.221-.255-.374c-.042-.026-.264-.145-.264-.2a.028.028,0,0,1,.026-.025c.034,0,.433.068.51.068.238,0,.484-.017.654-.621a17.062,17.062,0,0,0,.272-3.68c0-.229-.017-.323-.255-.323h-.289c-.221,0-.272.026-.3.264a9.011,9.011,0,0,1-1.02,3.867,2.9,2.9,0,0,1-1.522,1.223c-.008,0-.042,0-.042-.025a.171.171,0,0,1,.042-.059,3.68,3.68,0,0,0,1.207-1.479,9.536,9.536,0,0,0,.757-3.587c0-.2-.145-.2-.221-.2s-.485.009-.638.026c-.025,0-.11.017-.127.017-.034,0-.051-.026-.077-.06l-.161-.195c-.034-.034-.042-.043-.042-.051s.016-.026.033-.026c.145,0,.885.06,1.055.06a.193.193,0,0,0,.212-.145,10.67,10.67,0,0,0,.051-1.113,3.13,3.13,0,0,0-.017-.485c-.009-.068-.051-.246-.051-.289s.034-.051.093-.051c.136,0,.893.2.893.366,0,.042-.051.085-.068.1s-.153.094-.179.119a8.3,8.3,0,0,0-.118,1.292c0,.17.118.2.254.2Z" fill="#1a1311"/>
    <path id="パス_4" data-name="パス 4" d="M258.544,35.514a.459.459,0,0,0,.349-.128c.2-.187.221-.212.263-.212a1.1,1.1,0,0,1,.468.459,3.27,3.27,0,0,1-.187.425,8.925,8.925,0,0,0-.051,1.088c0,.442.051,2.4.051,2.787a.729.729,0,0,1-.153.519.721.721,0,0,1-.357.195c-.153,0-.162-.195-.162-.246,0-.2,0-.264-.238-.264h-.484a.214.214,0,0,0-.238.238c0,.026,0,.366-.009.417a.693.693,0,0,1-.433.5c-.23,0-.23-.195-.23-.272s.035-.62.035-.739c.025-.9.042-1.5.042-3.884,0-.179-.025-.969-.025-1.122,0-.043,0-.094.05-.094a1.42,1.42,0,0,1,.383.187.726.726,0,0,0,.468.145Zm-.017,4.4c.077,0,.2,0,.255-.11.026-.06.026-.739.026-.918a8,8,0,0,0-.026-.909.206.206,0,0,0-.2-.111h-.578c-.221,0-.221.068-.221.765a11.586,11.586,0,0,0,.034,1.173.193.193,0,0,0,.2.11Zm-.484-4.173a.212.212,0,0,0-.179.068,10.232,10.232,0,0,0-.068,1.5c0,.187,0,.34.238.34h.519a.23.23,0,0,0,.229-.111c.034-.085.034-.968.034-1.138,0-.612,0-.655-.246-.655Zm4.853,1.683c.4,0,.442,0,.569-.212.06-.094.213-.34.349-.34a2.08,2.08,0,0,1,.34.238c.4.331.425.348.425.416,0,.119-.179.119-.459.119h-3.2c-.4,0-.748.009-.91.026-.034,0-.161.017-.187.017s-.042-.017-.068-.052l-.17-.195c-.034-.042-.034-.042-.034-.059s.009-.018.026-.018c.068,0,.331.026.382.026.3.017.723.034,1,.034h.332c.254,0,.254-.17.254-.272,0-.178,0-.646-.008-.8-.009-.212-.144-.212-.229-.212-.272,0-.706,0-.952.017-.026,0-.153.025-.179.025s-.051-.025-.076-.059l-.162-.2c-.034-.034-.042-.042-.042-.051s.017-.025.034-.025c.059,0,.323.025.374.034.306.008.679.025.977.025.094,0,.255,0,.255-.212a7.016,7.016,0,0,0-.051-.943c-.008-.043-.034-.2-.034-.239a.063.063,0,0,1,.068-.068c.008,0,.9.255.9.366,0,.042-.187.187-.212.221a.636.636,0,0,0-.06.34c0,.51,0,.535.366.535.348,0,.475.009.586-.152.238-.332.238-.332.306-.332a2.467,2.467,0,0,1,.748.62c0,.094-.043.094-.417.094H262.4c-.238,0-.238.136-.238.34a3.555,3.555,0,0,0,.025.833c.043.11.162.11.222.11Zm.323,1.691c-.255,0-.289.077-.289.307,0,.331.042,1.776.042,2.073,0,.663-.7.689-.816.689-.085,0-.118-.009-.118-.1,0-.221,0-.34-.357-.468-.085-.025-.459-.119-.527-.144-.034-.017-.136-.068-.136-.1s.05-.06.127-.06c.034,0,.808.094.961.094s.187-.018.221-.136a6.891,6.891,0,0,0,.025-1.046c0-1.087-.009-1.1-.289-1.1h-.7c-.187,0-.773,0-1.071.018a1.361,1.361,0,0,1-.178.025c-.034,0-.051-.025-.077-.06l-.161-.195c-.034-.034-.043-.042-.043-.051s.017-.026.034-.026c.06,0,.323.026.374.035.391.017.774.025,1.165.025h.662c.247,0,.247-.145.247-.289,0-.11-.043-.68-.043-.7,0-.068.018-.1.068-.1s.85.23.85.4c0,.052-.212.213-.229.255a.527.527,0,0,0-.043.255c0,.145.077.179.162.179.1,0,.128-.034.34-.323.077-.111.17-.221.264-.221.042,0,.076.025.339.238.4.323.425.348.425.416,0,.119-.17.119-.45.119Zm-1.9,1.811c-.187,0-.238-.094-.417-.4a2.744,2.744,0,0,0-.756-.747c-.034-.026-.306-.222-.306-.23,0-.042.043-.051.068-.051.17,0,1.708.3,1.708,1.122a.323.323,0,0,1-.3.306" fill="#1a1311"/>
    <path id="パス_5" data-name="パス 5" d="M265.65,34.792c-.085,0-.238,0-.238-.153s.153-.17.238-.17h1.5a.422.422,0,0,1,.476.468v6.8a.42.42,0,0,1-.476.467h-1.5c-.085,0-.238-.008-.238-.161s.153-.162.238-.162h1.437a.21.21,0,0,0,.2-.119,8.981,8.981,0,0,0,.034-.986c0-.858,0-5.634-.009-5.771a.206.206,0,0,0-.22-.212Z" fill="#1a1311"/>
    <path id="パス_6" data-name="パス 6" d="M272.73,35.37c.085,0,.212,0,.212.145s-.118.135-.254.135c-.111,0-.562,0-.629.442-.026.145-.026,2.737-.026,3.221,0,.213.017,1.25.017,1.488a2.222,2.222,0,0,1-.518,1.691,1.608,1.608,0,0,1-1.139.468c-.459,0-.825-.2-.825-.612a.462.462,0,0,1,.5-.493c.314,0,.365.136.484.459a.28.28,0,0,0,.306.2c.391,0,.451-.3.485-.509.034-.255.034-4.394.034-5.04,0-1.2,0-1.318-.893-1.318-.034,0-.17,0-.17-.135s.128-.145.213-.145Z" fill="#1a1311"/>
    <path id="パス_7" data-name="パス 7" d="M276.249,35.37c.408,0,2.346.042,2.346,1.47a1.653,1.653,0,0,1-1.131,1.487c-.3.145-.331.162-.331.255a15.062,15.062,0,0,0,.884,2.032,1.059,1.059,0,0,0,1,.68c.085,0,.255,0,.255.135,0,.119-.17.137-.213.137H278a.417.417,0,0,1-.4-.247c-.051-.085-.654-1.4-.747-1.615-.468-1.028-.528-1.164-.825-1.164h-.467c-.06,0-.17.034-.2.1-.034.085-.034,1.207-.034,1.4,0,1.028,0,1.25.782,1.25.059,0,.179,0,.179.135s-.153.137-.247.137h-2.1c-.085,0-.212-.018-.212-.137,0-.135.118-.135.237-.135.587,0,.672-.272.7-.587.017-.289.017-2.626.017-3.026a13.67,13.67,0,0,0-.068-1.717c-.11-.314-.476-.314-.671-.314-.051,0-.23,0-.23-.153,0-.127.153-.127.255-.127Zm-.306.28c-.612,0-.612.383-.612,1.258,0,1.334,0,1.36.23,1.36h.688a1.372,1.372,0,0,0,1.538-1.343c0-.595-.323-1.275-1.427-1.275Z" fill="#1a1311"/>
    <path id="パス_8" data-name="パス 8" d="M281.41,41.149c-.247,0-.247.162-.247.306,0,.247,0,.518-.4.518-.221,0-.281-.093-.281-.34,0-.611.043-3.331.043-3.892a9.119,9.119,0,0,0-.051-1.131c-.008-.042-.025-.229-.025-.272,0-.059.008-.076.076-.076.026,0,.867.161.867.34,0,.06-.025.085-.153.221a1.787,1.787,0,0,0-.068.646c0,.5-.009,2.711-.009,3.161,0,.17.026.3.247.3h1.717a.2.2,0,0,0,.238-.17c.008-.051.05-2.677.05-3.782,0-.757-.016-1.717-.016-1.793s-.043-.366-.043-.425.017-.068.076-.068.442.076.536.093c.179.034.289.051.289.162,0,.051-.162.246-.179.288a1,1,0,0,0-.042.366c-.026,1.572-.026,3.6-.026,5.031,0,.222.068.3.256.3H286c.239,0,.255-.136.255-.34,0-.332.017-1.819.017-2.116,0-.731-.017-1.709-.026-1.81,0-.06-.033-.357-.033-.417s.017-.076.068-.076.824.178.824.365c0,.034-.136.17-.145.2a5.4,5.4,0,0,0-.05.935c0,.382.017,2.082.017,2.43,0,.2.008,1.114.008,1.292a.427.427,0,0,1-.434.476c-.246,0-.255-.187-.255-.45,0-.137-.016-.264-.246-.264Z" fill="#1a1311"/>
    <path id="パス_9" data-name="パス 9" d="M294.108,37.112c.408,0,.451,0,.57-.195.17-.281.221-.332.3-.332a2.445,2.445,0,0,1,.689.629c0,.127-.161.127-.451.127h-2.252c-.23,0-.238.145-.238.272,0,.1,0,1.1.026,1.148a.22.22,0,0,0,.22.11h1.607c.4,0,.442,0,.544-.135.272-.374.3-.417.408-.417a2.057,2.057,0,0,1,.73.663c0,.119-.17.119-.45.119h-2.839c-.22,0-.246.119-.246.255,0,.272.008,1.453.008,1.7a.984.984,0,0,1-.365.884.932.932,0,0,1-.57.195c-.135,0-.135-.017-.169-.255-.035-.187-.34-.365-.638-.484-.026-.009-.076-.034-.076-.06,0-.042.05-.042.076-.042.884,0,.977,0,1.046-.12s.085-.195.085-1.818c0-.094,0-.255-.239-.255h-1.852c-.739,0-.986.017-1.071.017a1.385,1.385,0,0,1-.178.025c-.034,0-.052-.025-.077-.059l-.161-.2c-.035-.034-.043-.042-.043-.05s.017-.026.034-.026c.059,0,.323.034.374.034.417.017.764.025,1.164.025h1.81a.227.227,0,0,0,.221-.1c.027-.051.027-1.045.027-1.156s-.009-.272-.248-.272h-1.326c-.739,0-.985.009-1.07.018-.025,0-.153.025-.179.025s-.051-.025-.076-.06l-.162-.195c-.017-.017-.042-.042-.042-.051s.017-.026.034-.026c.06,0,.322.035.374.035.416.025.765.025,1.164.025h1.283c.239,0,.239-.153.239-.263,0-1.241,0-1.275-.306-1.275-.094,0-1.037.042-1.232.042a5.226,5.226,0,0,1-1.327-.11,1.547,1.547,0,0,1,.349-.06,18.289,18.289,0,0,0,3.884-.629,3.838,3.838,0,0,0,.535-.246.249.249,0,0,1,.085-.026,3.46,3.46,0,0,1,.477.34c.289.2.305.213.305.281,0,.144-.094.153-.764.195a6.078,6.078,0,0,0-1.276.179c-.136.076-.136.161-.136.9,0,.6,0,.671.247.671Z" fill="#1a1311"/>
    <path id="パス_10" data-name="パス 10" d="M298.528,38.319c.281,0,.629,0,.842-.008.229-.009.229-.034.229-.085a4.442,4.442,0,0,0-.2-.553c0-.017.025-.042.06-.042.119,0,.815.552.815,1.037a.335.335,0,0,1-.331.365c-.222,0-.247-.17-.289-.425-.018-.127-.025-.153-.094-.153a2.022,2.022,0,0,0-.383.1,3.809,3.809,0,0,0-.042.74c0,.365.042,1.989.042,2.32a.479.479,0,0,1-.45.51c-.144,0-.161-.145-.161-.357,0-.383.06-2.091.06-2.439a4.178,4.178,0,0,0-.026-.587c-.017-.068-.043-.085-.153-.085a4.588,4.588,0,0,0-.782.153c-.042.017-.2.145-.246.145-.085,0-.306-.672-.306-.689s.017-.025.042-.025.314.034.374.042c.043,0,.349.017.425.017.2,0,.238-.059.527-.612a19.041,19.041,0,0,0,.867-1.793c.076-.212.085-.238.136-.238.025,0,.714.323.714.45,0,.068-.018.068-.2.128a.509.509,0,0,0-.255.179c-.365.476-.867,1.3-1.267,1.75-.034.034-.059.094-.042.119s.06.034.093.034m-.2,1.411c0,.06-.187.238-.212.289-.188.349-.426.943-.647,1.283-.016.026-.2.306-.289.306a.036.036,0,0,1-.034-.034c0-.025.256-.781.289-.909a4.906,4.906,0,0,0,.179-1.13c0-.153,0-.179.051-.179a2.372,2.372,0,0,1,.332.119c.212.094.331.162.331.255m-.009-3.238a.663.663,0,0,1,.323.527.252.252,0,0,1-.255.272.274.274,0,0,1-.186-.085c-.069-.077-.374-.5-.451-.586s-.467-.426-.467-.443c0-.033.033-.042.067-.042.085,0,.485.144.578.144.06,0,.077-.033.2-.314a3.79,3.79,0,0,0,.348-1.411c0-.034,0-.094.051-.094.009,0,.791.256.791.434,0,.025,0,.077-.034.094s-.23.1-.264.136c-.1.093-.475.663-.569.79-.068.085-.3.382-.28.459a1.185,1.185,0,0,0,.152.119m1.487,2.719c-.033-.042-.033-.042-.033-.059s.017-.017.025-.017c.162,0,.935.051,1.114.051a.268.268,0,0,0,.246-.119c.085-.119.128-.17.213-.17.135,0,.552.238.552.408a.118.118,0,0,1-.084.1c-.179.068-.179.068-.239.178a5.971,5.971,0,0,1-.927,1.479,3.932,3.932,0,0,1-1.393.986c-.009,0-.025,0-.025-.017s.008-.033.05-.076a9.457,9.457,0,0,0,.868-.9,4.479,4.479,0,0,0,.858-1.564c0-.068-.034-.068-.28-.068-.1,0-.629.034-.706.034-.026,0-.042-.017-.077-.051Zm.451,1.3a.328.328,0,0,1-.289.365c-.187,0-.2-.22-.247-.578a2.143,2.143,0,0,0-.229-.637c-.008-.034-.033-.077-.033-.093a.045.045,0,0,1,.042-.043,1.392,1.392,0,0,1,.365.272,1.154,1.154,0,0,1,.391.714m.96-2.312a.251.251,0,0,0-.246.094.473.473,0,0,1-.357.238c-.195,0-.195-.128-.195-.357,0-.247.034-1.47.034-1.742,0-.145-.017-.842-.017-.995,0-.034,0-.06.051-.06.085,0,.476.281.578.281.17,0,.689-.943.7-1.114.009-.059.018-.118.069-.118.016,0,.425.2.493.238.118.059.237.119.237.187s-.348.152-.407.187a2.357,2.357,0,0,0-.629.586c0,.051.017.051.161.051h1.632c.179,0,.238-.008.306-.119.187-.289.213-.323.3-.323.11,0,.585.314.585.5a.242.242,0,0,1-.1.17c-.119.1-.153.137-.153.281,0,.128.025.765.025.909,0,.162.06.935.06,1,0,.383-.408.408-.451.408-.119,0-.135-.034-.186-.2-.027-.1-.137-.1-.2-.1h-.977c-.043,0-.077,0-.077.034s.017.043.162.1c.067.017.246.094.246.2,0,.068-.017.076-.153.178a.145.145,0,0,0-.051.1,6.041,6.041,0,0,0,.306.646c.068.127.178.34.281.34.2,0,.781-.612.969-.824.016-.026.092-.111.11-.111a2.488,2.488,0,0,1,.6.6c0,.034-.026.043-.051.043a2.031,2.031,0,0,1-.221-.009c-.247,0-.426.085-1.156.417-.153.068-.153.076-.153.127a4.038,4.038,0,0,0,1.479,1.5c.272.161.306.17.306.2s-.026.025-.136.034a1.992,1.992,0,0,0-.484.093,1.441,1.441,0,0,1-.255.119,6.616,6.616,0,0,1-1.429-2.158c-.033-.077-.186-.527-.2-.527s-.026.246-.026.288c0,.085.017,1.42.017,1.573,0,.518,0,.7-.187.85a1.275,1.275,0,0,1-.662.229.092.092,0,0,1-.094-.059,1.055,1.055,0,0,0-.17-.289c-.051-.051-.323-.281-.323-.289,0-.026.025-.026.246-.026.637,0,.672-.085.672-.705,0-.391,0-2.176-.043-2.422-.034-.2-.127-.247-.3-.247Zm.018-2.3c-.111,0-.222.017-.255.179v.484c0,.221.161.221.263.221h2.21c.255,0,.255-.034.255-.654,0-.23-.17-.23-.255-.23Zm0,1.1c-.094,0-.255.008-.255.238,0,.722,0,.74.255.74h2.243a.211.211,0,0,0,.238-.23c0-.714,0-.748-.246-.748Z" fill="#1a1311"/>
    <path id="パス_11" data-name="パス 11" d="M307.522,37.027c-.187,0-.773,0-1.071.017a1.226,1.226,0,0,1-.179.026c-.034,0-.042-.026-.076-.06l-.162-.195c-.033-.034-.042-.043-.042-.051s.016-.026.034-.026c.034,0,.45.043.535.043.62.026.638.017,1.122.017.264,0,.264-.068.264-.519,0-.11,0-.8-.025-.841-.06-.1-.112-.11-.222-.11s-.951.042-1.139.042c-.153,0-.17,0-.17-.042s.017-.043.2-.077a8.529,8.529,0,0,0,2.1-.561c.306-.136.34-.153.407-.153s.8.332.8.459c0,.085-.033.085-.518.136-.9.094-.9.111-.9.425,0,.11.009,1.071.017,1.1a.218.218,0,0,0,.238.136h.153c.2,0,.246-.017.349-.136.237-.289.263-.314.34-.314a2.378,2.378,0,0,1,.739.56c0,.119-.17.119-.45.119h-1.14c-.246,0-.262.034-.262.646,0,.247.084.264.152.281.357.068,1.25.289,1.25.935,0,.306-.188.416-.289.416-.17,0-.2-.059-.408-.586a1.1,1.1,0,0,0-.647-.655c-.067,0-.067.059-.067.128,0,.331.025,2.728.051,3.051.008.161.025.459.025.493,0,.323-.391.425-.493.425-.178,0-.178-.119-.178-.247,0-.416.051-2.244.051-2.617,0-.086.009-.426.009-.5s-.018-.144-.1-.144c-.042,0-.051.016-.153.127a8.838,8.838,0,0,1-1.623,1.53c-.068.051-.1.077-.136.077a.041.041,0,0,1-.043-.043c0-.009.536-.629.612-.731a10.478,10.478,0,0,0,1.471-2.465.1.1,0,0,0-.11-.119Zm3.841.6c0,1.487,0,1.657.018,2.031,0,.06.016.323.016.374,0,.238-.127.417-.468.417-.212,0-.212-.1-.212-.162s.026-.2.026-.238c.025-.272.043-1.241.043-2.414,0-.382,0-1.4-.069-1.972a1.2,1.2,0,0,1-.017-.178c0-.043.009-.076.068-.076.043,0,.884.152.884.306a.138.138,0,0,1-.042.093c-.17.153-.195.187-.222.306-.007.034-.025.731-.025,1.513m1.666.178c0,.51.051,2.737.051,3.188,0,.611-.042.781-.187.883a1.334,1.334,0,0,1-.594.281c-.12,0-.137-.051-.179-.187-.1-.315-.638-.5-.732-.527-.025-.009-.076-.034-.076-.068s.051-.034.06-.034c.11,0,.56.076.654.076.417,0,.417-.076.417-.731,0-.79,0-4.921-.043-5.515-.009-.094-.076-.553-.076-.578,0-.043.051-.077.094-.077.025,0,.721.127.773.136s.127.043.127.128-.042.1-.136.17a.41.41,0,0,0-.128.254c-.016.145-.025,2.159-.025,2.6" fill="#1a1311"/>
    <path id="パス_12" data-name="パス 12" d="M316.285,39.27c-.247,0-.247.069-.281.374a3.314,3.314,0,0,1-1.215,2.4.046.046,0,0,1-.05-.042c0-.009.2-.341.237-.408.348-.723.493-1.471.493-3.587,0-.671-.017-2.065-.076-2.694-.009-.093-.069-.578-.069-.6,0-.051.009-.068.06-.068a1.694,1.694,0,0,1,.425.144,1.18,1.18,0,0,0,.672.2h4.156a.337.337,0,0,0,.3-.1c.144-.153.153-.17.213-.17s.688.348.688.484c0,.077-.068.128-.136.162-.2.1-.221.11-.221.918,0,.7.051,3.833.051,4.555,0,.374,0,1.318-.79,1.318-.077,0-.085-.018-.145-.187-.119-.307-.638-.485-.714-.5-.025-.008-.153-.034-.153-.085,0-.034.059-.051.1-.051.111,0,.646.043.765.043.331,0,.34-.094.34-1.173,0-.111,0-.706-.017-.773-.034-.154-.162-.154-.255-.154h-1.725c-.23,0-.273.085-.264.332.009.612.009,1.309.009,1.963,0,.162-.025.221-.085.28a.634.634,0,0,1-.4.154c-.17,0-.179-.111-.179-.221,0-.315.051-1.879.051-2.236,0-.187-.06-.272-.264-.272Zm1.547-2.345c.255,0,.255,0,.255-.859,0-.824,0-.849-.255-.849h-1.547c-.254,0-.254.033-.254.739,0,.969.007.969.262.969Zm0,2.116a.219.219,0,0,0,.221-.1,9.309,9.309,0,0,0,.034-.994c0-.757,0-.791-.255-.791h-1.547c-.093,0-.2.017-.238.153-.009.043-.009,1.241-.009,1.436,0,.137,0,.3.247.3Zm1.1-3.824c-.11,0-.221.016-.255.152-.009.051-.009,1.029-.009,1.233,0,.178,0,.323.264.323h1.691c.264,0,.264-.094.264-.578,0-1.13-.009-1.13-.28-1.13Zm0,1.937c-.264,0-.264.025-.264.808a8.347,8.347,0,0,0,.035.968c.042.111.169.111.229.111h1.734c.255,0,.255-.059.255-.62,0-1.25-.009-1.267-.272-1.267Z" fill="#1a1311"/>
    <path id="パス_13" data-name="パス 13" d="M238.126,54.88c.085,0,.238,0,.238.153s-.161.17-.246.17H236.63a.422.422,0,0,1-.476-.468v-6.8a.42.42,0,0,1,.476-.467h1.5c.085,0,.238.008.238.161s-.153.162-.238.162H236.69a.21.21,0,0,0-.2.119,8.99,8.99,0,0,0-.034.986c0,.663,0,5.634.009,5.771a.206.206,0,0,0,.221.212Z" fill="#1a1311"/>
    <path id="パス_14" data-name="パス 14" d="M240.906,48.25c-.739,0-.985.017-1.07.026-.026,0-.154.017-.179.017s-.051-.017-.076-.051l-.162-.2c-.034-.042-.034-.042-.034-.059s.009-.017.025-.017c.06,0,.324.025.374.025.417.026.765.034,1.165.034h3.731c.348,0,.391,0,.459-.059s.34-.4.425-.4a2.591,2.591,0,0,1,.79.6c0,.085-.042.085-.45.085H243.4c-.255,0-.255.094-.255.569,0,.264.008,2.55.017,2.6.042.135.17.135.263.135h1.657c.391,0,.434,0,.544-.144.247-.34.281-.374.357-.374.153,0,.706.578.706.629,0,.11-.17.11-.45.11h-2.814c-.17,0-.272.034-.272.29,0,.356.034,1.962.034,2.286,0,.4,0,.875-.425.875-.28,0-.28-.246-.28-.331,0-.4.051-2.151.051-2.508,0-.544,0-.612-.273-.612h-1.733c-.748,0-.995.018-1.079.026-.026,0-.153.025-.179.025s-.043-.025-.076-.059l-.162-.2c-.034-.034-.034-.042-.034-.05a.023.023,0,0,1,.026-.026c.059,0,.322.026.374.034.416.017.773.025,1.173.025h1.7c.085,0,.2,0,.247-.093a4.161,4.161,0,0,0,.034-.748c0-.034,0-2.27-.009-2.3-.017-.128-.1-.162-.229-.162Zm-.952.621c.119,0,1.4.824,1.4,1.75a.4.4,0,0,1-.374.434c-.238,0-.272-.119-.416-.689a4.243,4.243,0,0,0-.434-1.088c-.034-.05-.2-.3-.221-.339,0-.026,0-.068.042-.068m5.678.552a7.324,7.324,0,0,0-.816,1.037,2.994,2.994,0,0,1-.79.722.073.073,0,0,1-.077-.068c0-.008.153-.254.17-.28a5.454,5.454,0,0,0,.9-2.057c0-.161,0-.187.051-.187.017,0,.808.476.808.621,0,.085-.018.085-.247.212" fill="#1a1311"/>
    <path id="パス_15" data-name="パス 15" d="M250.954,49.126c.246,0,.246-.153.246-.391,0-.085.009-.433.009-.51,0-.127-.034-.7-.034-.808,0-.05,0-.085.076-.085.034,0,.748.162.748.324,0,.05-.17.22-.178.272-.009.033-.026.866-.026.951a.218.218,0,0,0,.247.247h.348c.136,0,.264,0,.723-1.088.025-.068.119-.374.135-.434s.043-.085.094-.085c.034,0,.8.459.8.579,0,.076-.034.085-.323.169a2.691,2.691,0,0,0-.867.808c0,.051.068.051.1.051h1.02a.564.564,0,0,0,.23-.043,2.234,2.234,0,0,1,.246-.127c.119,0,.714.434.714.706a.136.136,0,0,1-.153.144c-.06,0-.281-.094-.331-.094a1.184,1.184,0,0,0-.587.332,1.407,1.407,0,0,1-.17.136c-.026,0-.026-.034-.026-.043,0-.051.2-.629.2-.714s-.051-.076-.119-.076h-5.32c-.119,0-.119.017-.127.161-.026.434-.324.825-.519.825a.351.351,0,0,1-.3-.366.619.619,0,0,1,.144-.365,1.642,1.642,0,0,0,.238-.816c0-.17,0-.187.051-.187s.059.043.255.374c.068.127.1.153.213.153Zm2.533,3.408a.367.367,0,0,0,.178-.034c.059-.025.255-.255.314-.255.085,0,.613.289.613.467,0,.06-.026.077-.179.154-.051.025-.06.1-.06.144a5.119,5.119,0,0,1-.05,1.394,1.056,1.056,0,0,1-.706.569c-.093,0-.119-.025-.3-.289a.9.9,0,0,0-.442-.306c-.034-.017-.1-.05-.1-.068,0-.034.042-.034.068-.034a3.56,3.56,0,0,0,.646-.051c.289-.051.289-.119.289-.8,0-.6,0-.672-.255-.672h-1.429c-.254,0-.254.136-.254.289,0,.255.008,1.394.008,1.632s-.1.535-.425.535c-.238,0-.238-.187-.238-.263,0-.009.068-1.623.068-1.93,0-.135-.008-.263-.263-.263h-1.326c-.263,0-.272.042-.272.952,0,.11.025.6.025.7a.523.523,0,0,1-.5.57c-.111,0-.178-.06-.178-.3,0-.314.05-1.691.05-1.972,0-.05-.033-.305-.033-.357s.025-.076.068-.076c.025,0,.314.119.467.187a.573.573,0,0,0,.281.068h1.436c.254,0,.254-.153.254-.306,0-.705-.118-.705-.28-.705h-.654c-.1,0-.187,0-.238.11-.068.128-.119.221-.425.221-.247,0-.247-.161-.247-.23,0-.161.026-.875.026-1.028a3.149,3.149,0,0,0-.034-.5c-.008-.068-.017-.119-.017-.136a.068.068,0,0,1,.068-.077,3.81,3.81,0,0,1,.476.187.871.871,0,0,0,.366.052h2.575a.329.329,0,0,0,.3-.128c.1-.162.119-.179.212-.179s.494.213.494.408c0,.068-.035.111-.137.23-.033.042-.033.127-.033.28,0,.1.008.561.008.655a.426.426,0,0,1-.434.4c-.118,0-.135-.034-.187-.178-.033-.085-.127-.085-.187-.085H251.77c-.026,0-.077,0-.077.034s.008.025.111.076c.178.085.246.119.246.162s-.187.212-.212.255a.363.363,0,0,0-.026.144c0,.2,0,.34.263.34Zm-3.536-3.527c-.179,0-.212-.076-.536-.731a4.191,4.191,0,0,0-.3-.552c-.008-.018-.11-.137-.11-.145,0-.025.033-.034.05-.034a2.493,2.493,0,0,1,.731.383,1.067,1.067,0,0,1,.459.679c0,.17-.085.4-.3.4m.374,1.343c-.264,0-.264.085-.264.552,0,.281.035.4.289.4h2.5a.226.226,0,0,0,.238-.119,3.616,3.616,0,0,0,.026-.6c0-.229-.179-.229-.255-.229Z" fill="#1a1311"/>
    <path id="パス_16" data-name="パス 16" d="M258.2,48.514a.459.459,0,0,0,.349-.128c.195-.187.221-.212.263-.212a1.1,1.1,0,0,1,.468.459,3.266,3.266,0,0,1-.187.425,8.931,8.931,0,0,0-.051,1.088c0,.442.051,2.4.051,2.787a.729.729,0,0,1-.153.519.721.721,0,0,1-.357.195c-.153,0-.162-.195-.162-.246,0-.2,0-.264-.238-.264H257.7a.214.214,0,0,0-.238.238c0,.026,0,.366-.009.417a.693.693,0,0,1-.433.5c-.23,0-.23-.195-.23-.272s.035-.62.035-.739c.025-.9.042-1.5.042-3.884,0-.179-.025-.969-.025-1.122,0-.043,0-.094.05-.094a1.42,1.42,0,0,1,.383.187.726.726,0,0,0,.468.145Zm-.017,4.4c.077,0,.2,0,.255-.11.026-.06.026-.739.026-.918a8,8,0,0,0-.026-.909.206.206,0,0,0-.195-.111h-.578c-.221,0-.221.068-.221.765a11.586,11.586,0,0,0,.034,1.173c.025.085.119.11.2.11Zm-.484-4.173a.212.212,0,0,0-.179.068,10.236,10.236,0,0,0-.068,1.5c0,.187,0,.34.238.34h.519a.23.23,0,0,0,.229-.111c.034-.085.034-.968.034-1.138,0-.612,0-.655-.246-.655Zm4.853,1.683c.4,0,.442,0,.569-.212.06-.094.213-.34.349-.34a2.08,2.08,0,0,1,.34.238c.4.331.425.348.425.416,0,.119-.179.119-.459.119h-3.2c-.4,0-.748.009-.91.026-.034,0-.161.017-.187.017s-.042-.017-.067-.052l-.171-.195c-.034-.042-.034-.042-.034-.059s.009-.018.026-.018c.068,0,.331.026.382.026.3.017.723.034,1,.034h.332c.254,0,.254-.17.254-.272,0-.178,0-.646-.008-.8-.009-.212-.144-.212-.229-.212-.272,0-.706,0-.952.017-.026,0-.153.025-.179.025s-.051-.025-.076-.059l-.162-.2c-.034-.034-.042-.042-.042-.051s.017-.025.034-.025c.059,0,.323.025.374.034.306.008.679.025.977.025.094,0,.255,0,.255-.212a7.021,7.021,0,0,0-.051-.943c-.008-.043-.034-.2-.034-.239a.063.063,0,0,1,.068-.068c.008,0,.9.255.9.366,0,.042-.187.187-.212.221a.636.636,0,0,0-.06.34c0,.51,0,.535.366.535.348,0,.475.009.586-.152.238-.332.238-.332.306-.332a2.467,2.467,0,0,1,.748.62c0,.094-.043.094-.417.094h-1.334c-.238,0-.238.136-.238.34a3.555,3.555,0,0,0,.025.833c.043.11.162.11.222.11Zm.323,1.691c-.255,0-.289.077-.289.307,0,.331.042,1.776.042,2.073,0,.663-.7.689-.816.689-.085,0-.118-.009-.118-.1,0-.221,0-.34-.357-.468-.085-.025-.459-.119-.527-.144-.034-.017-.136-.068-.136-.1s.05-.06.127-.06c.034,0,.808.094.961.094s.187-.018.221-.136a6.891,6.891,0,0,0,.025-1.046c0-1.087-.009-1.1-.289-1.1h-.7c-.187,0-.773,0-1.071.018a1.36,1.36,0,0,1-.178.025c-.034,0-.051-.025-.077-.06l-.161-.195c-.034-.034-.043-.042-.043-.051s.017-.026.034-.026c.06,0,.323.026.374.035.391.017.774.025,1.165.025h.662c.247,0,.247-.145.247-.289,0-.11-.043-.68-.043-.7,0-.068.018-.1.068-.1s.85.23.85.4c0,.052-.212.213-.229.255a.527.527,0,0,0-.043.255c0,.145.077.179.162.179.1,0,.128-.034.34-.323.077-.111.17-.221.264-.221.042,0,.076.025.339.238.4.323.425.348.425.416,0,.119-.17.119-.45.119Zm-1.9,1.811c-.187,0-.238-.094-.417-.4a2.744,2.744,0,0,0-.756-.747c-.034-.026-.306-.222-.306-.23,0-.042.043-.051.068-.051.17,0,1.708.3,1.708,1.122a.323.323,0,0,1-.3.306" fill="#1a1311"/>
    <path id="パス_17" data-name="パス 17" d="M265.31,47.792c-.085,0-.238,0-.238-.153s.153-.17.238-.17h1.5a.422.422,0,0,1,.476.468v6.8a.42.42,0,0,1-.476.467h-1.5c-.085,0-.238-.008-.238-.161s.153-.162.238-.162h1.437a.21.21,0,0,0,.195-.119,8.973,8.973,0,0,0,.034-.986c0-.858,0-5.634-.009-5.771a.206.206,0,0,0-.22-.212Z" fill="#1a1311"/>
    <path id="パス_18" data-name="パス 18" d="M272.391,48.37c.085,0,.212,0,.212.145s-.118.135-.254.135c-.111,0-.562,0-.629.442-.026.145-.026,2.737-.026,3.221,0,.213.017,1.25.017,1.488a2.222,2.222,0,0,1-.518,1.691,1.608,1.608,0,0,1-1.139.468c-.459,0-.825-.2-.825-.612a.462.462,0,0,1,.5-.493c.314,0,.365.136.484.459a.28.28,0,0,0,.306.2c.391,0,.451-.3.485-.509.034-.255.034-4.394.034-5.04,0-1.2,0-1.318-.893-1.318-.034,0-.17,0-.17-.135s.128-.145.213-.145Z" fill="#1a1311"/>
    <path id="パス_19" data-name="パス 19" d="M275.909,48.37c.408,0,2.346.042,2.346,1.47a1.653,1.653,0,0,1-1.131,1.487c-.3.145-.331.162-.331.255a15.062,15.062,0,0,0,.884,2.032,1.059,1.059,0,0,0,1,.68c.085,0,.255,0,.255.135,0,.119-.17.137-.213.137H277.66a.417.417,0,0,1-.4-.247c-.051-.085-.654-1.4-.747-1.615-.468-1.028-.528-1.164-.825-1.164h-.467c-.06,0-.17.034-.2.1-.034.085-.034,1.207-.034,1.4,0,1.028,0,1.25.782,1.25.059,0,.179,0,.179.135s-.153.137-.247.137h-2.1c-.085,0-.212-.018-.212-.137,0-.135.118-.135.237-.135.587,0,.672-.272.7-.587.017-.289.017-2.626.017-3.026a13.67,13.67,0,0,0-.068-1.717c-.11-.314-.476-.314-.671-.314-.051,0-.23,0-.23-.153,0-.127.153-.127.255-.127Zm-.306.28c-.612,0-.612.383-.612,1.258,0,1.334,0,1.36.23,1.36h.688a1.372,1.372,0,0,0,1.538-1.343c0-.595-.323-1.275-1.427-1.275Z" fill="#1a1311"/>
    <path id="パス_20" data-name="パス 20" d="M282.489,53.181c0,.059-.017.067-.2.11a.8.8,0,0,0-.323.187,7.166,7.166,0,0,1-2.261,1.334c-.017,0-.051,0-.051-.025a5.313,5.313,0,0,1,.433-.374,7.3,7.3,0,0,0,1.513-1.606c.043-.085.162-.3.2-.3s.689.535.689.672m2.941-4.437c.39,0,.433,0,.543-.144.29-.392.323-.434.391-.434a2.306,2.306,0,0,1,.935.688c0,.12-.17.12-.451.12h-5.617c-.74,0-.986.008-1.071.016-.026,0-.153.026-.179.026s-.042-.026-.076-.06l-.161-.195c-.026-.026-.035-.042-.035-.051a.023.023,0,0,1,.026-.026c.059,0,.323.026.374.035.416.016.765.025,1.164.025h1.607c.263,0,.263-.127.263-.391,0-.128-.043-.748-.043-.782,0-.085.051-.094.094-.094.026,0,.85.145.85.255,0,.06-.161.256-.179.3a.951.951,0,0,0-.051.365c0,.222,0,.349.273.349Zm-3.35,3.119c-.152,0-.212.043-.22.111-.026.221-.272.3-.451.3-.2,0-.2-.076-.2-.246,0-.2.026-1.148.026-1.36,0-.153-.06-.91-.06-.978,0-.034,0-.076.051-.076a3.677,3.677,0,0,1,.6.263.726.726,0,0,0,.315.06h2.736a.339.339,0,0,0,.272-.119c.145-.17.187-.213.255-.213.1,0,.6.247.6.374,0,.051-.051.111-.136.2-.1.119-.1.17-.1.6,0,.144.026.892.026,1.062,0,.255-.314.382-.5.382-.144,0-.17-.076-.178-.195-.008-.085-.026-.17-.255-.17h-.783c-.143,0-.2.051-.229.153-.017.051-.017,1.173-.017,1.377,0,.162.034.935.034,1.113,0,.553-.586.672-.841.672-.094,0-.094-.009-.127-.187-.043-.221-.341-.34-.885-.51-.11-.034-.161-.051-.161-.094s.051-.051.068-.051c.119,0,.7.051.842.051.356,0,.4-.093.416-.3.017-.281.017-1.173.017-1.853,0-.246,0-.374-.264-.374Zm.043-1.708c-.272,0-.272.076-.272.467,0,.128,0,.825.017.884.043.136.153.136.255.136h2.711c.1,0,.213,0,.256-.136.025-.076.025-.977.025-1.071,0-.255-.11-.28-.272-.28Zm2.371,2.507c.2,0,2.389.739,2.389,1.657a.369.369,0,0,1-.391.383c-.187,0-.307-.162-.544-.468a6.965,6.965,0,0,0-1.386-1.427c-.059-.052-.119-.085-.11-.128.009-.017.034-.017.042-.017" fill="#1a1311"/>
    <path id="パス_21" data-name="パス 21" d="M288.924,53.869c0-.773,0-.842-.416-1.071-.043-.025-.272-.119-.272-.144,0-.043.043-.043.05-.043.043,0,.4.034.477.034.152,0,.3,0,.441-.323.281-.6.8-1.725,1.386-3.093.008-.018.025-.06.067-.06.027,0,.035.042.035.06a7.769,7.769,0,0,1-.366,1.215,13.477,13.477,0,0,0-.807,2.737,2.827,2.827,0,0,0,.144.773,1.713,1.713,0,0,1,.069.476.438.438,0,0,1-.4.493c-.408,0-.408-.323-.408-1.054m.7-3.7c0,.22-.093.407-.281.407-.229,0-.306-.17-.51-.586a3.194,3.194,0,0,0-.493-.756c-.016-.018-.085-.085-.085-.1s.027-.026.034-.026a2.815,2.815,0,0,1,.374.1c.383.145.961.45.961.961m.646-1.828c0,.2-.119.425-.323.425-.17,0-.2-.076-.382-.442a2.649,2.649,0,0,0-.477-.714c-.008-.017-.076-.093-.076-.1,0-.025.025-.025.043-.025a1.411,1.411,0,0,1,.467.1c.417.161.748.382.748.756m2.694,5.21c0,.1-.043.111-.34.17-.153.026-.187.051-.509.3a6.679,6.679,0,0,1-2.287,1.138c-.017,0-.034-.008-.034-.025s.68-.476.8-.561a4.393,4.393,0,0,0,1.317-1.453c.06-.128.077-.162.136-.162a2.279,2.279,0,0,1,.459.23c.416.246.459.272.459.365m-2.873-1.36c-.034-.051-.034-.051-.034-.059s.017-.017.026-.017c.153,0,.866.051,1.036.051a.22.22,0,0,0,.239-.238,27.649,27.649,0,0,0-.069-3.29c-.007-.059-.11-.339-.11-.407s.052-.077.094-.077a1.14,1.14,0,0,1,.493.145.53.53,0,0,0,.289.084,7.13,7.13,0,0,0,2.125-.807c.067-.093.1-.127.152-.127.094,0,.9.45.9.671,0,.145-.162.145-.417.145a2.341,2.341,0,0,0-.535.068c-.239.05-.579.093-1.793.22-.459.043-.468.052-.511.128a8.782,8.782,0,0,0-.033,1.088.248.248,0,0,0,.271.246h2c.332,0,.383-.025.434-.085s.272-.476.374-.476.7.536.7.672c0,.11-.042.11-.45.11h-.646a.237.237,0,0,0-.238.128c-.017.042-.017,1.394-.017,1.555,0,.077,0,.255.221.255a.936.936,0,0,0,.3-.042c.076-.051.331-.5.441-.5.128,0,.859.459.859.646,0,.119-.154.119-.451.119h-4.156c-.2,0-.782,0-1.079.026-.025,0-.153.017-.179.017s-.043-.017-.076-.06Zm2.1-1.955a.218.218,0,0,0-.246.238v1.513a.221.221,0,0,0,.246.187H293.5a.218.218,0,0,0,.239-.246V50.41a.219.219,0,0,0-.239-.179Zm3.612,4.25c0,.3-.187.425-.349.425-.213,0-.3-.128-.45-.4a6.473,6.473,0,0,0-1.08-1.283.627.627,0,0,1-.1-.119c0-.025.05-.025.068-.025a2.269,2.269,0,0,1,1.028.374c.357.195.884.544.884,1.028" fill="#1a1311"/>
    <path id="パス_22" data-name="パス 22" d="M299.242,52.143c-.136,0-.145.052-.153.145-.026.179-.272.247-.425.247-.136,0-.23-.026-.23-.255,0-.1.034-1,.034-1.19,0-.255-.017-1.4-.017-1.641,0-.042,0-.068.034-.068a1.873,1.873,0,0,1,.383.137,1.352,1.352,0,0,0,.629.169h.833c.094,0,.246,0,.246-.254,0-.451,0-.553-.272-.553h-1.7c-.748,0-.994.009-1.07.017a1.488,1.488,0,0,1-.188.025c-.025,0-.042-.025-.068-.059l-.17-.2c-.033-.034-.033-.042-.033-.05s.008-.026.033-.026c.052,0,.315.026.374.034.417.017.766.025,1.165.025H300.3c.246,0,.272-.093.272-.314,0-.119-.051-.654-.051-.765,0-.094.017-.119.076-.119.026,0,.443.119.587.162.246.068.255.11.255.161s-.2.2-.213.229a.877.877,0,0,0-.042.374c0,.2.026.272.28.272h1.513c.358,0,.4,0,.493-.153.2-.348.273-.348.331-.348a2.232,2.232,0,0,1,.859.612c0,.119-.17.119-.459.119h-2.737c-.3,0-.3.051-.3.569,0,.111.025.238.246.238h1.037c.153,0,.195,0,.289-.11.119-.128.152-.162.212-.162.1,0,.6.332.6.442,0,.051-.169.23-.177.281a2.463,2.463,0,0,0-.043.45c0,.23.016,1.266.016,1.479,0,.366-.459.366-.492.366-.179,0-.187-.077-.2-.2-.009-.094-.034-.094-.247-.094h-.884c-.043,0-.1,0-.1.06a5.768,5.768,0,0,0,3.077,1.938c.213.068.238.076.238.1s-.018.051-.06.051c-.3,0-.62,0-.782.3-.042.085-.059.111-.11.111a6.389,6.389,0,0,1-1.862-1.419,5.949,5.949,0,0,1-.663-.876c-.025-.034-.034-.059-.067-.059s-.043.05-.043.085c0,.11-.009.569-.009.663,0,.246.052,1.538.052,1.64a.383.383,0,0,1-.153.348.6.6,0,0,1-.315.128c-.2,0-.229-.17-.229-.281,0-.051.05-1.36.05-1.606,0-.442,0-.493-.067-.493-.026,0-.442.374-.5.425a9.456,9.456,0,0,1-2.83,1.573c-.018,0-.043,0-.043-.035a2.623,2.623,0,0,1,.5-.339,10,10,0,0,0,2.286-1.862,2.053,2.053,0,0,0,.238-.374c0-.077-.068-.077-.144-.077ZM300.3,50.75c.272,0,.272-.094.272-.519,0-.221-.017-.314-.272-.314h-.943c-.255,0-.272.1-.272.314,0,.434.008.519.28.519Zm-.935.221c-.111,0-.272.008-.272.238,0,.688,0,.705.272.705h.918c.263,0,.289-.068.289-.561,0-.263-.008-.382-.28-.382Zm2.065-1.054c-.263,0-.28.068-.28.493,0,.255.017.34.272.34h.977c.272,0,.272-.06.272-.493,0-.238,0-.34-.272-.34Zm.969,2c.281,0,.281-.127.281-.382,0-.434,0-.561-.289-.561h-.961c-.28,0-.28.136-.28.374,0,.5,0,.569.28.569Z" fill="#1a1311"/>
    <path id="パス_23" data-name="パス 23" d="M308.1,49.737c.264,0,.264-.135.264-.331,0-.263-.043-1.555-.043-1.844,0-.051.008-.085.076-.085.017,0,.867.153.867.323a.1.1,0,0,1-.051.085c-.1.059-.144.085-.17.17-.076.178-.085,3.535-.085,4.113,0,.358.035,2.142.035,2.55,0,.374-.426.451-.5.451a.219.219,0,0,1-.221-.239c0-.288.059-1.784.059-2.116,0-.144-.008-.246-.093-.246a.293.293,0,0,0-.136.051c-.119.076-.221.153-.936.714-.076.059-.475.339-.577.416-.034.034-.187.28-.247.28-.119,0-.578-.7-.578-.79,0-.051.026-.059.289-.119a8.141,8.141,0,0,0,2.168-.841c.127-.119.136-.128.136-2.023,0-.145,0-.3-.255-.3h-.68c-.2,0-.773,0-1.071.025-.025,0-.153.017-.179.017s-.051-.025-.076-.051l-.161-.195c-.034-.043-.034-.043-.034-.06s.016-.017.025-.017c.051,0,.315.026.374.026.246.008.689.033,1.164.033Zm4.164-.4c.034-.034.162-.229.2-.229.018,0,.851.663.851.782,0,.059-.034.059-.332.093a14.009,14.009,0,0,0-2.133.357c-.111.068-.111.255-.111,1.9,0,.238,0,1.53.008,1.649.018.374.2.416,1.173.416.621,0,.672-.11.842-.747.144-.553.17-.612.212-.612s.052.034.077.314a1.184,1.184,0,0,0,.221.714c.213.238.229.264.229.374,0,.586-1.445.586-1.9.586-1.479,0-1.479-.322-1.479-1.436,0-.637.035-3.433.035-4,0-.3,0-1.283-.026-1.725,0-.034-.017-.153-.017-.179,0-.068.017-.11.068-.11.034,0,.527.136.587.153.186.068.263.093.263.17,0,.059-.034.085-.145.153-.118.085-.118.357-.118.688,0,.2-.009,1.1-.009,1.275,0,.128.017.247.187.2a5.02,5.02,0,0,0,1.317-.782" fill="#1a1311"/>
    <path id="パス_24" data-name="パス 24" d="M315.766,51.319c.281,0,.629,0,.842-.008.229-.009.229-.034.229-.085a4.442,4.442,0,0,0-.2-.553c0-.017.025-.042.06-.042.119,0,.815.552.815,1.037a.335.335,0,0,1-.331.365c-.222,0-.247-.17-.289-.425-.018-.127-.025-.153-.094-.153a2.022,2.022,0,0,0-.383.1,3.806,3.806,0,0,0-.042.74c0,.365.042,1.989.042,2.32a.479.479,0,0,1-.45.51c-.144,0-.161-.145-.161-.357,0-.383.06-2.091.06-2.439a4.178,4.178,0,0,0-.026-.587c-.017-.068-.043-.085-.153-.085a4.589,4.589,0,0,0-.782.153c-.042.017-.2.145-.246.145-.085,0-.306-.672-.306-.689s.017-.025.042-.025.314.034.374.042c.043,0,.349.017.425.017.2,0,.238-.059.527-.612a19.048,19.048,0,0,0,.867-1.793c.076-.212.085-.238.136-.238.025,0,.714.323.714.45,0,.068-.018.068-.2.128a.509.509,0,0,0-.255.179c-.365.476-.867,1.3-1.267,1.75-.034.034-.059.094-.042.119s.06.034.093.034m-.195,1.411c0,.06-.187.238-.212.289-.188.349-.426.943-.647,1.283-.016.026-.2.306-.289.306a.036.036,0,0,1-.034-.034c0-.025.256-.781.289-.909a4.906,4.906,0,0,0,.179-1.13c0-.153,0-.179.051-.179a2.37,2.37,0,0,1,.332.119c.212.094.331.162.331.255m-.009-3.238a.663.663,0,0,1,.323.527.252.252,0,0,1-.255.272.273.273,0,0,1-.186-.085c-.069-.077-.374-.5-.451-.586s-.467-.426-.467-.443c0-.033.033-.042.067-.042.085,0,.485.144.578.144.06,0,.077-.033.2-.314a3.79,3.79,0,0,0,.348-1.411c0-.034,0-.094.051-.094.009,0,.791.256.791.434,0,.025,0,.077-.034.094s-.23.1-.264.136c-.1.093-.475.663-.569.79-.068.085-.3.382-.28.459a1.116,1.116,0,0,0,.152.119m1.488,2.719c-.034-.042-.034-.042-.034-.059s.017-.017.025-.017c.162,0,.935.051,1.114.051a.268.268,0,0,0,.246-.119c.085-.119.128-.17.213-.17.135,0,.552.238.552.408a.118.118,0,0,1-.084.1c-.179.068-.179.068-.239.178a5.97,5.97,0,0,1-.927,1.479,3.932,3.932,0,0,1-1.393.986c-.009,0-.025,0-.025-.017s.007-.033.05-.076a9.455,9.455,0,0,0,.868-.9,4.479,4.479,0,0,0,.858-1.564c0-.068-.034-.068-.28-.068-.1,0-.629.034-.706.034-.026,0-.042-.017-.077-.051Zm.45,1.3a.328.328,0,0,1-.289.365c-.187,0-.2-.22-.247-.578a2.142,2.142,0,0,0-.229-.637c-.008-.034-.033-.077-.033-.093a.045.045,0,0,1,.042-.043,1.392,1.392,0,0,1,.365.272,1.154,1.154,0,0,1,.391.714m.96-2.312a.251.251,0,0,0-.246.094.473.473,0,0,1-.357.238c-.2,0-.2-.128-.2-.357,0-.247.034-1.47.034-1.742,0-.145-.017-.842-.017-.995,0-.034,0-.06.051-.06.085,0,.476.281.578.281.17,0,.689-.943.7-1.114.009-.059.018-.118.069-.118.016,0,.425.2.493.238.118.059.237.119.237.187s-.348.152-.407.187a2.356,2.356,0,0,0-.629.586c0,.051.017.051.161.051h1.632c.179,0,.238-.008.306-.119.187-.289.213-.323.3-.323.11,0,.585.314.585.5a.242.242,0,0,1-.1.17c-.119.1-.153.137-.153.281,0,.128.025.765.025.909,0,.162.06.935.06,1,0,.383-.408.408-.451.408-.119,0-.135-.034-.186-.2-.027-.1-.137-.1-.2-.1h-.978c-.042,0-.076,0-.076.034s.017.043.162.1c.067.017.246.094.246.2,0,.068-.017.076-.153.178a.145.145,0,0,0-.051.1,6.041,6.041,0,0,0,.306.646c.068.127.178.34.281.34.2,0,.781-.612.969-.824.016-.026.092-.111.11-.111a2.487,2.487,0,0,1,.6.6c0,.034-.026.043-.051.043a2.032,2.032,0,0,1-.221-.009c-.247,0-.426.085-1.156.417-.153.068-.153.076-.153.127a4.038,4.038,0,0,0,1.479,1.5c.272.161.306.17.306.2s-.026.025-.136.034a1.992,1.992,0,0,0-.484.093,1.441,1.441,0,0,1-.255.119,6.616,6.616,0,0,1-1.429-2.158c-.033-.077-.186-.527-.2-.527s-.026.246-.026.288c0,.085.017,1.42.017,1.573,0,.518,0,.7-.187.85a1.275,1.275,0,0,1-.662.229.092.092,0,0,1-.094-.059,1.055,1.055,0,0,0-.17-.289c-.052-.051-.323-.281-.323-.289,0-.026.025-.026.246-.026.637,0,.672-.085.672-.705,0-.391,0-2.176-.043-2.422-.034-.2-.127-.247-.3-.247Zm.018-2.3c-.111,0-.222.017-.255.179v.484c0,.221.161.221.263.221h2.21c.255,0,.255-.034.255-.654,0-.23-.17-.23-.255-.23Zm0,1.1c-.094,0-.255.008-.255.238,0,.722,0,.74.255.74h2.243a.211.211,0,0,0,.238-.23c0-.714,0-.748-.246-.748Z" fill="#1a1311"/>
    <path id="パス_25" data-name="パス 25" d="M323.17,51.591a.244.244,0,0,1-.221-.272,1.8,1.8,0,0,1,.23-.688,3.954,3.954,0,0,0,.348-1.36c0-.025,0-.043.026-.043s.212.3.212,1.19c0,.5-.178,1.173-.6,1.173m1.59-.391c0,.382,0,2.151.076,3.2,0,.06.025.3.025.349a.428.428,0,0,1-.484.433c-.247,0-.264-.127-.255-.229.008-.179.042-.484.051-.629s.076-2.312.076-3.757c0-.756-.017-2.363-.067-2.592-.009-.068-.094-.391-.094-.425,0-.077.085-.094.153-.094.17.009.807.1.807.324,0,.05-.033.1-.136.17-.085.059-.136.11-.136.322,0,.409-.016,2.516-.016,2.924m3.96-2.056a.354.354,0,0,0,.238-.06c.034-.034.186-.238.246-.238.043,0,.663.315.663.467,0,.035-.009.043-.127.145a.339.339,0,0,0-.128.289c-.009.221,0,1.3,0,1.547,0,.1,0,.212.1.212a.213.213,0,0,0,.179-.153c.119-.221.153-.3.247-.3s.688.484.688.62c0,.111-.179.111-.451.111h-2.32c-.042,0-.111,0-.111.067a2.453,2.453,0,0,0,.213.536,3.666,3.666,0,0,0,1.428,1.411,3.957,3.957,0,0,0,1.428.485c.016,0,.043,0,.043.025s-.035.034-.06.042a1.311,1.311,0,0,0-.553.519c-.043.068-.068.1-.119.1a4.379,4.379,0,0,1-2.456-2.983c-.034-.137-.034-.145-.068-.145s-.034.043-.042.153a3.3,3.3,0,0,1-2.635,3.153c-.009,0-.025,0-.025-.017s.033-.033.042-.042a3.944,3.944,0,0,0,1.02-.706,3.531,3.531,0,0,0,1.045-2.379c0-.221-.145-.221-.246-.221H326.6c-.34,0-.909-.009-1.071.017-.034,0-.153.025-.187.025-.017,0-.033-.017-.068-.051l-.169-.2c-.026-.025-.035-.042-.035-.051a.027.027,0,0,1,.026-.025c.059,0,.314.034.374.034.246.017.849.025,1.173.025h.348c.238,0,.281,0,.281-1,0-.246,0-1-.026-1.062a.215.215,0,0,0-.221-.119c-.127,0-.756.042-.841.042-.026,0-.043-.025-.076-.059l-.163-.195c-.034-.043-.034-.043-.034-.052,0-.025.018-.025.027-.025.152,0,.918.06,1.087.06.238,0,.238-.145.238-.332a4.868,4.868,0,0,0-.034-.96c0-.043-.093-.255-.093-.307s.059-.05.11-.05c.076,0,.926.076.926.322,0,.052-.237.2-.272.247a3.848,3.848,0,0,0-.059.85c0,.162.068.23.255.23Zm-3.23,1.3c-.213,0-.213-.153-.238-.536a1.986,1.986,0,0,0-.161-.645c0-.009-.017-.043-.017-.052a.018.018,0,0,1,.017-.017c.034,0,.739.315.739.85a.363.363,0,0,1-.34.4m2.592-1.071c-.076,0-.2,0-.237.1s-.069,1.785-.069,1.853c0,.229.154.229.264.229h.765c.263,0,.263-.076.263-.425,0-.221,0-1.564-.034-1.657s-.161-.1-.246-.1Z" fill="#1a1311"/>
    <path id="パス_26" data-name="パス 26" d="M331.993,50.979c-.034-.043-.034-.043-.034-.06s.017-.017.034-.017c.136,0,.833.051.986.051a.329.329,0,0,0,.289-.136c.111-.11.153-.136.2-.136.111,0,.561.348.561.468,0,.042-.017.067-.119.152-.212.162-.239.187-.255.255s-.026.859-.026,1.012a1.317,1.317,0,0,0,.154.773c.492.859,1.657.859,3.178.859a11.4,11.4,0,0,0,2.549-.2,3.246,3.246,0,0,1,.324-.093.028.028,0,0,1,.008.017c0,.008-.144.144-.161.161a.989.989,0,0,0-.374.578c-.017.238-.052.238-.4.238-.4,0-1.437-.043-2.159-.076-1.488-.06-2.754-.213-3.2-1.479-.043-.119-.059-.153-.093-.153s-.06.034-.076.051c-.213.289-.579.739-.791,1.028-.051.06-.221.408-.306.408-.119,0-.51-.637-.51-.765,0-.059.025-.059.145-.068a1.44,1.44,0,0,0,.441-.178c.655-.366.706-.417.723-.621.008-.068.008-.221.008-1.623,0-.085-.008-.238-.289-.238-.085,0-.493.034-.56.034-.034,0-.052-.017-.077-.051Zm2.023-1.6a.3.3,0,0,1-.289.314c-.17,0-.213-.068-.578-.663a7.829,7.829,0,0,0-.884-1.164c-.017-.017-.162-.17-.162-.179a2.443,2.443,0,0,1,.833.357c.927.578,1.08,1.122,1.08,1.335m3.2,1.742c-.111,0-.255,0-.255.2,0,.144.059.17.255.246,1.233.485,2.133,1.165,2.133,1.649a.248.248,0,0,1-.255.281c-.17,0-.22-.06-.679-.629a4.8,4.8,0,0,0-1.165-1.114c-.153-.1-.17-.11-.212-.11-.077,0-.077.11-.077.161,0,.264.026,1.445.026,1.683,0,.348-.2.459-.332.459-.2,0-.255-.127-.255-.3,0-.272.068-1.462.068-1.7,0-.076-.009-.128-.051-.128s-.051.009-.2.187a5.064,5.064,0,0,1-1.818,1.4c-.034,0,.271-.281.3-.315a10.745,10.745,0,0,0,1.479-1.887c0-.093-.11-.093-.178-.093h-.536c-.135,0-.153.076-.187.187-.042.153-.23.2-.322.2-.23,0-.23-.179-.23-.281,0-.153.017-.833.017-.969,0-.374-.009-.578-.017-.706,0-.042-.026-.237-.026-.28s.059-.051.086-.051a1.953,1.953,0,0,1,.458.179.48.48,0,0,0,.281.076h.705c.238,0,.238-.051.238-.544,0-.229-.162-.238-.263-.238h-.646c-.578,0-.885.009-1.08.026-.025,0-.152.017-.179.017s-.042-.017-.076-.051l-.161-.2c-.034-.043-.034-.043-.034-.059s.009-.017.025-.017c.06,0,.323.025.374.025.416.026.774.034,1.173.034h.569c.255,0,.255-.119.255-.221a4.378,4.378,0,0,0-.059-.493,1.571,1.571,0,0,1-.051-.187c0-.059.043-.076.085-.076s.8.153.8.272a.929.929,0,0,1-.145.178.463.463,0,0,0-.093.3c0,.2.093.229.229.229h.536c.382,0,.425,0,.544-.153.237-.306.264-.34.34-.34.094,0,.73.467.73.6s-.135.119-.39.119H337.2c-.238,0-.238.094-.238.51,0,.145,0,.272.238.272h.722a.28.28,0,0,0,.255-.085c.154-.153.161-.17.246-.17a.905.905,0,0,1,.519.4c0,.042-.136.17-.161.2a.522.522,0,0,0-.069.324c0,.127.06.679.06.8a.406.406,0,0,1-.407.425c-.145,0-.171-.05-.239-.178-.042-.068-.144-.068-.2-.068Zm-.986-.221c.1,0,.238,0,.238-.3,0-.1,0-.681-.009-.723-.034-.17-.127-.178-.229-.178h-.723c-.1,0-.237,0-.237.3,0,.893,0,.9.237.9Zm1.708,0c.255,0,.255-.085.255-.586,0-.553,0-.612-.255-.612h-.73c-.255,0-.255.085-.255.577,0,.561,0,.621.255.621Z" fill="#1a1311"/>
    <path id="パス_27" data-name="パス 27" d="M342.184,50.027c-.187,0-.773,0-1.071.017a1.226,1.226,0,0,1-.179.026c-.034,0-.042-.026-.076-.06l-.162-.195c-.033-.034-.042-.043-.042-.051s.016-.026.034-.026c.034,0,.45.043.535.043.62.026.638.017,1.122.017.264,0,.264-.068.264-.519,0-.11,0-.8-.025-.841-.06-.1-.112-.11-.222-.11s-.951.042-1.139.042c-.153,0-.17,0-.17-.042s.017-.043.2-.077a8.529,8.529,0,0,0,2.1-.561c.306-.136.34-.153.407-.153s.8.332.8.459c0,.085-.033.085-.518.136-.9.094-.9.111-.9.425,0,.11.009,1.071.017,1.1a.218.218,0,0,0,.238.136h.153c.2,0,.246-.017.349-.136.237-.289.263-.314.34-.314a2.378,2.378,0,0,1,.739.56c0,.119-.17.119-.45.119h-1.14c-.246,0-.262.034-.262.646,0,.247.084.264.152.281.357.068,1.25.289,1.25.935,0,.306-.188.416-.289.416-.17,0-.2-.059-.408-.586a1.1,1.1,0,0,0-.647-.655c-.067,0-.067.059-.067.128,0,.331.025,2.728.051,3.051.008.161.025.459.025.493,0,.323-.391.425-.493.425-.178,0-.178-.119-.178-.247,0-.416.051-2.244.051-2.617,0-.086.009-.426.009-.5s-.018-.144-.1-.144c-.042,0-.051.016-.153.127a8.839,8.839,0,0,1-1.623,1.53c-.068.051-.1.077-.136.077a.041.041,0,0,1-.043-.043c0-.009.536-.629.612-.731a10.477,10.477,0,0,0,1.471-2.465.1.1,0,0,0-.11-.119Zm3.841.6c0,1.487,0,1.657.018,2.031,0,.06.016.323.016.374,0,.238-.127.417-.468.417-.212,0-.212-.1-.212-.162s.026-.2.026-.238c.025-.272.043-1.241.043-2.414,0-.382,0-1.4-.069-1.972a1.2,1.2,0,0,1-.017-.178c0-.043.009-.076.068-.076.043,0,.884.152.884.306a.138.138,0,0,1-.042.093c-.17.153-.2.187-.222.306-.007.034-.025.731-.025,1.513m1.666.178c0,.51.051,2.737.051,3.188,0,.611-.042.781-.187.883a1.334,1.334,0,0,1-.594.281c-.12,0-.137-.051-.179-.187-.1-.315-.638-.5-.732-.527-.025-.009-.076-.034-.076-.068s.051-.034.06-.034c.11,0,.56.076.654.076.417,0,.417-.076.417-.731,0-.79,0-4.921-.043-5.515-.009-.094-.076-.553-.076-.578,0-.043.051-.077.094-.077.025,0,.721.127.773.136s.127.043.127.128-.042.1-.136.17a.41.41,0,0,0-.128.254c-.016.145-.025,2.159-.025,2.6" fill="#1a1311"/>
    <path id="パス_28" data-name="パス 28" d="M350.948,52.27c-.247,0-.247.069-.281.374a3.314,3.314,0,0,1-1.215,2.4A.046.046,0,0,1,349.4,55c0-.009.2-.341.237-.408.348-.723.493-1.471.493-3.587,0-.671-.017-2.065-.076-2.694-.009-.093-.069-.578-.069-.6,0-.051.009-.068.06-.068a1.694,1.694,0,0,1,.425.144,1.18,1.18,0,0,0,.672.2H355.3a.337.337,0,0,0,.3-.1c.144-.153.153-.17.213-.17s.688.348.688.484c0,.077-.068.128-.136.162-.2.1-.221.11-.221.918,0,.7.051,3.833.051,4.555,0,.374,0,1.318-.79,1.318-.077,0-.085-.018-.145-.187-.119-.307-.638-.485-.714-.5-.025-.008-.153-.034-.153-.085,0-.034.059-.051.1-.051.111,0,.646.043.765.043.332,0,.34-.094.34-1.173,0-.111,0-.706-.017-.773-.034-.154-.162-.154-.255-.154H353.6c-.23,0-.273.085-.264.332.009.612.009,1.309.009,1.963,0,.162-.025.221-.085.28a.635.635,0,0,1-.4.154c-.17,0-.179-.111-.179-.221,0-.315.051-1.879.051-2.236,0-.187-.06-.272-.264-.272Zm1.547-2.345c.255,0,.255,0,.255-.859,0-.824,0-.849-.255-.849h-1.547c-.255,0-.255.033-.255.739,0,.969.008.969.263.969Zm0,2.116a.219.219,0,0,0,.221-.1,9.309,9.309,0,0,0,.034-.994c0-.757,0-.791-.255-.791h-1.547c-.093,0-.2.017-.238.153-.009.043-.009,1.241-.009,1.436,0,.137,0,.3.247.3Zm1.1-3.824c-.11,0-.221.016-.255.152-.009.051-.009,1.029-.009,1.233,0,.178,0,.323.264.323h1.691c.264,0,.264-.094.264-.578,0-1.13-.009-1.13-.28-1.13Zm0,1.937c-.264,0-.264.025-.264.808a8.347,8.347,0,0,0,.035.968c.042.111.169.111.229.111h1.734c.255,0,.255-.059.255-.62,0-1.25-.009-1.267-.272-1.267Z" fill="#1a1311"/>
    <path id="パス_29" data-name="パス 29" d="M241.535,6.312c.3,0,.446.1.446.334s-.127.351-.446.351h-3.807c-.43,0-.43.095-.43,2.007,0,1.784.016,9.7.016,11.327,0,.366-.08.509-.335.509-.35,0-.35-.111-.35-1.051V6.965a.6.6,0,0,1,.685-.653Z" fill="#1a1311"/>
    <path id="パス_30" data-name="パス 30" d="M247.946,15.01c-.255,0-.271.1-.286.271-.048.335-.51.462-.8.462-.255,0-.43-.048-.43-.478,0-.191.064-1.88.064-2.23,0-.478-.032-2.629-.032-3.075,0-.079,0-.127.063-.127a3.571,3.571,0,0,1,.717.255,2.538,2.538,0,0,0,1.179.318h1.561c.176,0,.462,0,.462-.477,0-.845,0-1.036-.51-1.036h-3.186c-1.4,0-1.863.016-2.007.032a2.627,2.627,0,0,1-.35.048c-.048,0-.08-.048-.128-.112l-.318-.366c-.064-.064-.064-.08-.064-.1,0-.032.016-.048.064-.048.1,0,.589.048.7.064.78.032,1.433.048,2.182.048h3.106c.462,0,.51-.175.51-.59,0-.223-.1-1.226-.1-1.433,0-.175.032-.223.144-.223.048,0,.828.223,1.1.3.462.128.478.207.478.3s-.367.366-.4.43a1.613,1.613,0,0,0-.08.7c0,.366.048.51.526.51h2.835c.669,0,.749,0,.924-.287.383-.653.51-.653.621-.653a4.183,4.183,0,0,1,1.61,1.147c0,.223-.319.223-.861.223H252.12c-.574,0-.574.1-.574,1.067,0,.207.048.446.462.446h1.944c.287,0,.366,0,.542-.207.222-.239.286-.3.4-.3.191,0,1.131.622,1.131.829,0,.095-.319.43-.335.525a4.981,4.981,0,0,0-.079.845c0,.43.032,2.374.032,2.772,0,.685-.861.685-.925.685-.334,0-.35-.144-.366-.367-.016-.175-.063-.175-.462-.175h-1.657c-.079,0-.191,0-.191.112,0,.127,1.721,2.357,5.767,3.632.4.127.446.143.446.191,0,.064-.032.1-.111.1-.574,0-1.164,0-1.466.558-.08.159-.112.207-.207.207a11.934,11.934,0,0,1-3.489-2.66,10.973,10.973,0,0,1-1.242-1.641c-.048-.064-.064-.112-.128-.112s-.079.1-.079.16c0,.207-.016,1.067-.016,1.242,0,.462.1,2.884.1,3.075a.716.716,0,0,1-.287.653,1.121,1.121,0,0,1-.589.239c-.383,0-.43-.319-.43-.526,0-.1.1-2.549.1-3.01,0-.829,0-.924-.127-.924-.048,0-.828.7-.94.8a17.722,17.722,0,0,1-5.305,2.947c-.031,0-.079,0-.079-.064a4.967,4.967,0,0,1,.94-.637,18.648,18.648,0,0,0,4.285-3.489,3.883,3.883,0,0,0,.446-.7c0-.143-.127-.143-.271-.143Zm1.991-2.613c.51,0,.51-.174.51-.971,0-.414-.032-.59-.51-.59h-1.768c-.478,0-.509.192-.509.59,0,.812.015.971.525.971Zm-1.752.415c-.207,0-.51.016-.51.446,0,1.29,0,1.322.51,1.322h1.721c.493,0,.541-.127.541-1.051,0-.494-.016-.717-.526-.717Zm3.871-1.976c-.494,0-.525.128-.525.924,0,.478.031.637.509.637h1.832c.51,0,.51-.111.51-.923,0-.446,0-.638-.51-.638Zm1.816,3.744c.526,0,.526-.239.526-.717,0-.812,0-1.051-.542-1.051h-1.8c-.525,0-.525.255-.525.7,0,.94,0,1.067.525,1.067Z" fill="#1a1311"/>
    <path id="パス_31" data-name="パス 31" d="M265.539,16.954c0,.111-.032.127-.382.207a1.52,1.52,0,0,0-.605.35,13.423,13.423,0,0,1-4.238,2.5c-.032,0-.1,0-.1-.048a10.1,10.1,0,0,1,.812-.7,13.669,13.669,0,0,0,2.836-3.011c.079-.16.3-.558.382-.558s1.29,1,1.29,1.259m5.512-8.316c.733,0,.812,0,1.019-.271.542-.732.606-.812.733-.812a4.318,4.318,0,0,1,1.753,1.29c0,.223-.319.223-.844.223h-10.53c-1.386,0-1.848.016-2.008.032-.047,0-.286.048-.334.048-.064,0-.08-.048-.144-.112l-.3-.366c-.048-.048-.064-.08-.064-.1a.043.043,0,0,1,.048-.048c.111,0,.606.048.7.064.781.032,1.434.048,2.182.048h3.011c.494,0,.494-.239.494-.733,0-.238-.08-1.4-.08-1.465,0-.16.1-.175.175-.175.048,0,1.594.27,1.594.477,0,.112-.3.478-.335.558a1.779,1.779,0,0,0-.1.685c0,.414,0,.653.509.653Zm-6.276,5.846c-.287,0-.4.08-.414.207-.048.415-.51.558-.845.558-.366,0-.382-.143-.382-.462,0-.366.048-2.15.048-2.549,0-.286-.112-1.7-.112-1.832,0-.063,0-.143.1-.143a6.789,6.789,0,0,1,1.115.494,1.373,1.373,0,0,0,.589.111H270a.635.635,0,0,0,.509-.222c.271-.319.351-.4.478-.4.192,0,1.116.462,1.116.7,0,.1-.1.207-.255.382-.192.223-.192.319-.192,1.131,0,.271.048,1.673.048,1.992,0,.478-.589.717-.94.717-.27,0-.318-.144-.334-.367-.016-.159-.048-.319-.478-.319h-1.465c-.271,0-.383.1-.431.288-.031.095-.031,2.2-.031,2.58,0,.3.063,1.753.063,2.087,0,1.035-1.1,1.258-1.577,1.258-.175,0-.175-.016-.239-.35-.079-.414-.637-.637-1.657-.956-.207-.064-.3-.1-.3-.175,0-.1.1-.1.127-.1.223,0,1.322.1,1.577.1.669,0,.749-.175.781-.558.032-.526.032-2.2.032-3.472,0-.462,0-.7-.494-.7Zm.079-3.2c-.51,0-.51.143-.51.876,0,.239,0,1.545.033,1.656.079.255.286.255.477.255h5.082c.191,0,.4,0,.478-.255.048-.143.048-1.832.048-2.007,0-.478-.207-.525-.51-.525Zm4.445,4.7c.382,0,4.476,1.386,4.476,3.106a.692.692,0,0,1-.732.717c-.351,0-.574-.3-1.02-.876a13.06,13.06,0,0,0-2.6-2.676c-.111-.1-.223-.16-.207-.239.016-.032.064-.032.08-.032" fill="#1a1311"/>
    <path id="パス_32" data-name="パス 32" d="M276.84,20.681c-.3,0-.446-.095-.446-.334s.127-.351.446-.351h3.807c.43,0,.43-.1.43-2.007,0-1.784-.016-9.7-.016-11.327,0-.366.08-.509.335-.509.335,0,.335.111.335,1.051V20.028a.587.587,0,0,1-.67.653Z" fill="#1a1311"/>
    <path id="パス_33" data-name="パス 33" d="M286,18.2c0,.334,0,1.386-.6,1.386a.527.527,0,0,1-.479-.574,8.593,8.593,0,0,1,.176-.892,7.486,7.486,0,0,0,.175-1.354c0-.669,0-.716.1-.716a.329.329,0,0,1,.1.031A3.628,3.628,0,0,1,286,18.2m3.76-4.174c.366,0,.4,0,.574-.159.207-.191.319-.3.414-.3.175,0,1,.573,1,.844,0,.1-.031.128-.3.478a1.074,1.074,0,0,0-.126.542,18.232,18.232,0,0,1-.526,3.234,2.647,2.647,0,0,1-1.9,1.959c-.143,0-.207-.031-.43-.414a1.992,1.992,0,0,0-.318-.366c-.033-.032-.272-.207-.272-.271s.176-.064.319-.064c1.116,0,1.338-.462,1.417-.637a12.848,12.848,0,0,0,.8-4.03c0-.383-.27-.383-.494-.383h-2.8a.387.387,0,0,0-.334.144c-.223.3-.271.382-.653.382-.366,0-.494-.127-.494-.494,0-.255.112-3.6.112-4.142,0-.621-.016-2.071-.064-2.644-.016-.1-.1-.637-.1-.749,0-.064,0-.095.048-.095.08,0,.813.3.972.366a2.009,2.009,0,0,0,.685.112h1.784c.654,0,.844,0,1-.271.224-.4.3-.51.51-.51.176,0,1.18.748,1.18.988,0,.222-.335.222-.861.222h-1.481c-.494,0-.494.112-.494.956,0,.558.032.8.446.8.334,0,.43,0,.558-.255.111-.191.286-.51.525-.51.223,0,.956.765.956.972,0,.223-.271.223-.733.223H289.4c-.462,0-.462.08-.462,1.338a.4.4,0,0,0,.462.431c.239,0,.335,0,.462-.255.08-.176.239-.51.494-.51s1,.765,1,.987-.32.223-.845.223h-1.083c-.494,0-.494.128-.494,1.418,0,.414.239.446.477.446Zm-2.1,4.237c0,.51-.27.67-.461.67-.4,0-.462-.415-.478-1a7.875,7.875,0,0,0-.191-1.418,1.516,1.516,0,0,1-.048-.382c0-.143.063-.175.159-.143.462.175,1.019,1.768,1.019,2.277m0-8.745c.462,0,.462-.255.462-.86,0-.685,0-.893-.477-.893h-.462c-.479,0-.479.224-.479.877s0,.876.479.876Zm0,2.214c.462,0,.462-.239.462-.876,0-.685,0-.908-.462-.908h-.477c-.479,0-.479.223-.479.908,0,.637,0,.876.462.876Zm-.047,2.294c.509,0,.509-.207.509-.924,0-.7,0-.94-.462-.94h-.446c-.51,0-.51.207-.51.924s0,.94.495.94Zm.78,4.063c-.238,0-.238-.208-.271-.8a7.55,7.55,0,0,0-.174-1.147,4.586,4.586,0,0,1-.1-.573c0-.08,0-.176.063-.176a2.4,2.4,0,0,1,1,1.737c0,.653-.35.956-.526.956m1.546-1.514c0,.287-.144.526-.367.526-.287,0-.3-.1-.446-1.036a3.023,3.023,0,0,0-.207-.733.666.666,0,0,1-.032-.175c0-.08.032-.127.111-.111a2.073,2.073,0,0,1,.941,1.529M297.075,7.3a.444.444,0,0,0,.43-.174c.223-.335.351-.51.479-.51s.971.653.971.86a6.038,6.038,0,0,1-.35.733c-.048.191-.048,1.577-.048,1.863,0,.3.048,1.785.048,2.119a.783.783,0,0,1-.8.7c-.334,0-.351-.159-.4-.51-.015-.191-.031-.318-.429-.318h-.621a.38.38,0,0,0-.447.4,1.487,1.487,0,0,0,.033.255c.222,1.465.8,4.365,2.628,6.2a11.341,11.341,0,0,1,.971.924c0,.064-.1.079-.159.079s-.318-.032-.382-.032a5.545,5.545,0,0,0-.877.08c-.063.016-.366.144-.4.144-.079,0-.175-.176-.223-.239a13.946,13.946,0,0,1-2.007-7.153c-.048-.637-.08-.653-.462-.653h-.892c-.478,0-.478.1-.478.971a12.036,12.036,0,0,1-1.88,6.58c-.128.191-.764.955-.939.955a.089.089,0,0,1-.1-.079c0-.064.493-.844.589-1,1.386-2.6,1.386-6.005,1.386-7.248a40.885,40.885,0,0,0-.223-4.62c-.015-.1-.1-.541-.1-.653,0-.048,0-.159.063-.159a7.736,7.736,0,0,1,.972.366,1.985,1.985,0,0,0,.653.127Zm-2.979.415a.424.424,0,0,0-.382.239c-.064.175-.064,2.82-.064,3.138s.032.558.478.558h2.867a.429.429,0,0,0,.414-.176,28.941,28.941,0,0,0,.112-3.154c0-.446-.064-.605-.493-.605Z" fill="#1a1311"/>
    <path id="パス_34" data-name="パス 34" d="M307.978,11.872a13.664,13.664,0,0,0,4.46,3.059c.749.35,1.4.7,1.4,1.162,0,.1-.143.606-.59.606-.143,0-1.577-.048-3.95-2.326-.383-.366-2.087-2.087-2.437-2.421-.366-.351-.637-.558-.893-.558-.525,0-.669.144-1.974,1.418-.112.111-1.275,1.21-1.307,1.227a.446.446,0,0,1-.255.079c-.6,0-1.545-.749-1.545-1.019,0-.064.031-.08.3-.112a6.058,6.058,0,0,0,2.6-1.227c1.337-1.067,1.656-1.179,2.2-1.179.414,0,.939.239,1.991,1.291" fill="#1a1311"/>
    <path id="パス_35" data-name="パス 35" d="M364.453,10.661c.255,0,.494-.032.494-.462,0-1.418,0-1.5-.446-1.5h-3.649c-1.385,0-1.847.032-2.006.047-.048,0-.286.032-.334.032-.065,0-.1-.032-.144-.1l-.3-.367c-.063-.079-.08-.079-.08-.111s.033-.032.065-.032c.111,0,.6.048.7.048.781.032,1.434.064,2.183.064h3.52c.144,0,.478,0,.478-.415a4.328,4.328,0,0,0-.1-.86c-.017-.111-.192-.605-.192-.717,0-.095.1-.127.207-.127.048,0,1.609.223,1.609.478,0,.048-.223.27-.271.318-.111.112-.159.24-.159.606,0,.462,0,.717.478.717h2.422c.669,0,.844,0,1.019-.271.478-.765.526-.845.717-.845.27,0,1.194.877,1.4,1.02.033.016.24.175.24.287,0,.223-.3.223-.844.223h-4.955c-.478,0-.478.3-.478.462,0,1.481,0,1.5.494,1.5h.892a.944.944,0,0,0,.845-.4c.111-.175.207-.287.334-.287a3.886,3.886,0,0,1,1.4.908,3.9,3.9,0,0,1-.462.813.854.854,0,0,0-.111.509c0,.845.111,4.524.111,5.289,0,.733,0,1.067-.845,1.067-.238,0-.366,0-.4-.445-.031-.335-.127-.447-.525-.447h-3.648a.357.357,0,0,0-.4.351,3.027,3.027,0,0,1-.017.446.779.779,0,0,1-.717.35c-.318,0-.541-.143-.541-.589,0-.287.048-1.529.048-1.784,0-2.931-.1-5.146-.128-5.448-.015-.144-.111-.749-.111-.86,0-.064.032-.08.1-.08.174,0,.222.032.843.366a1.94,1.94,0,0,0,.956.239Zm-3.7,9.288a.431.431,0,0,0-.383.222.879.879,0,0,1-.828.526.452.452,0,0,1-.494-.478c0-.541.111-3.17.111-3.759,0-.542-.016-4.333-.111-4.62a5.132,5.132,0,0,1-.207-.526c0-.143.143-.143.191-.143.239,0,1.641.446,1.641.749,0,.1-.3.414-.335.51-.079.207-.079,4.109-.079,4.524a17.747,17.747,0,0,0,.127,2.325.489.489,0,0,0,.478.255h8.14c.622,0,.717-.032.8-.127.128-.159.637-.988.8-.988.048,0,1.785.876,1.785,1.338,0,.192-.08.192-.845.192Zm3.17-8.874c-.431,0-.431.287-.431.733,0,.781,0,1.051.446,1.051h3.935c.446,0,.446-.238.446-.891s0-.893-.446-.893Zm.079,2.2a.412.412,0,0,0-.478.462c0,1.195.064,1.306.494,1.306h3.839c.478,0,.478-.191.478-.876,0-.7,0-.892-.478-.892Zm.032,2.182a.393.393,0,0,0-.446.43c0,1.243.128,1.354.478,1.354h3.791c.462,0,.462-.239.462-.892s0-.892-.462-.892Z" fill="#1a1311"/>
    <path id="パス_36" data-name="パス 36" d="M374,12.955c-.08-.08-.08-.08-.08-.1,0-.032.032-.047.064-.047.286,0,1.673.111,1.991.111.286,0,.366-.064.589-.319.351-.4.4-.446.479-.446s1.019.558,1.019.845a.132.132,0,0,1-.032.095,3.518,3.518,0,0,1-.4.287c-.1.1-.1.271-.1,1.943,0,2.215,0,2.5.4,2.995.734.94,3.139.94,4.238.94a30.542,30.542,0,0,0,5.894-.462,5.4,5.4,0,0,1,.542-.1c.031,0,.1,0,.1.063,0,.016-.016.08-.127.144a1.5,1.5,0,0,0-.765.669c-.048.095-.143.637-.239.717-.031.016-1.816.016-2.07.016a25.549,25.549,0,0,1-5.8-.414,3.242,3.242,0,0,1-1.991-1.291c-.128-.191-.558-1.226-.7-1.226a9.837,9.837,0,0,0-1.672,2.357c-.016.494-.032.542-.175.542-.3,0-1.131-1.131-1.131-1.37,0-.112.175-.159.334-.207a6.189,6.189,0,0,0,1.481-.861c.669-.493.669-.509.669-1.194,0-.367.032-2.263.032-2.677-.015-.541-.1-.621-.542-.621a11.421,11.421,0,0,0-1.337.048c-.032,0-.192.032-.223.032-.065,0-.1-.032-.144-.111Zm3.106-3.107c-.27,0-.4-.111-.638-.541a10.108,10.108,0,0,0-1.5-1.816c-.1-.1-.621-.589-.621-.606,0-.063.1-.063.144-.063.318,0,3.122.956,3.122,2.469a.512.512,0,0,1-.51.557m7.471-2.8c.557,0,.685,0,.877-.143.079-.064.462-.558.589-.558.143,0,1.433.8,1.433,1.1,0,.111-.1.175-.207.207s-.717.144-.844.192c-.319.127-1.784,1.051-2.119,1.258-.079.048-.541.35-.541.462,0,.048.175.239.191.286.048.08.048.176.048.431,0,.079.08.079.3.079h1.625a.813.813,0,0,0,.526-.127c.064-.032.367-.3.462-.3.207,0,.956.526.956.717,0,.128-.127.207-.255.3-.192.127-.192.207-.192.478,0,2.214,0,2.453.048,3.568.048.972.048,1.625.048,1.832a1.414,1.414,0,0,1-1.242,1.673.28.28,0,0,1-.271-.176,3.02,3.02,0,0,0-.159-.43c-.08-.111-.685-.462-.685-.526,0-.1.8-.159.939-.207.4-.143.4-.254.4-1.4,0-.335,0-.59-.478-.59h-1.736c-.462,0-.494.239-.494.558v.605c0,.176.063,1.068.063,1.275,0,.286-.031.716-.748.716-.335,0-.383-.4-.383-.653,0-.3.111-1.736.111-2.071,0-.43-.3-.43-.477-.43h-1.5c-.51,0-.51.128-.51.988,0,.207.031,1.243.031,1.465,0,.877-.573.892-.669.892-.462,0-.493-.35-.493-.8,0-.159.031-.765.047-.908.048-.621.065-1.115.065-2.453,0-.59-.065-3.505-.065-4.174,0-.128,0-.223.1-.223.032,0,.812.271.877.287a1.89,1.89,0,0,0,.748.111h1.545c.1,0,.191,0,.191-.127a3.017,3.017,0,0,0-.924-1c-.35-.255-.414-.286-.414-.382,0-.08.159-.08.207-.08a3.935,3.935,0,0,1,1.116.224,5.276,5.276,0,0,0,.684.286,5.285,5.285,0,0,0,1.562-1.688c0-.128-.1-.128-.3-.128h-2.453c-.383,0-1.449,0-2.007.048-.048,0-.287.032-.335.032-.064,0-.1-.032-.144-.1l-.3-.366c-.079-.08-.079-.08-.079-.112s.031-.032.063-.032c.1,0,.589.048.7.048.446.016,1.275.064,2.183.064Zm-3.728,5.974a.467.467,0,0,0-.445.191c-.048.1-.048.175-.048,1,0,.27,0,.525.493.525h1.5c.493,0,.493-.175.493-.924,0-.589,0-.8-.493-.8Zm-.015-2.246c-.462,0-.462.127-.462,1.258,0,.255,0,.558.462.558h1.529c.462,0,.462-.112.462-1.227,0-.287,0-.589-.462-.589Zm5.1,1.816c.494,0,.494-.1.494-1.068,0-.541,0-.748-.494-.748H384.26c-.493,0-.493.143-.493,1.019,0,.621,0,.8.493.8Zm.1,2.15c.462,0,.462-.239.462-.621,0-.988,0-1.1-.462-1.1h-1.784c-.462,0-.462.111-.462,1.067,0,.43,0,.653.462.653Z" fill="#1a1311"/>
    <path id="パス_39" data-name="パス 39" d="M400.91,12.628a4.657,4.657,0,0,1-2.394.715c-2.723,0-4.925-2.751-4.925-6.108,0-3.8,2.724-7.235,5.888-7.235,3.136,0,6.327,3.576,6.327,9.491,0,6.356-3.576,11.638-7.786,11.638-1.843,0-3.136-1.1-3.136-2.394a1.376,1.376,0,0,1,1.4-1.43c.55,0,1.458.357,1.512,1.9.028.605.083.99.826.99a2.7,2.7,0,0,0,2.008-.962c2.449-2.7,2.586-6.768,2.7-9.217a7.056,7.056,0,0,1-2.421,2.614m.907-10.207A2.723,2.723,0,0,0,399.588.935c-1.458,0-3.521,1.541-3.521,6.053,0,1.266.3,5.117,3.137,5.117,1.045,0,2.8-.77,4.1-3.742-.109-1.513-.33-4.154-1.485-5.942" fill="#1a1311"/>
    <path id="パス_40" data-name="パス 40" d="M415.35,7.946c0,.159-.112.191-.446.271a3.541,3.541,0,0,0-.8,1.083,10.321,10.321,0,0,1-4.731,4.413.084.084,0,0,1-.1-.1c0-.095.031-.111.334-.35A13.746,13.746,0,0,0,413.2,8.456c.112-.239.526-1.593.542-1.593.111-.048,1.609.812,1.609,1.083m1.545,4.652c-.414,0-.414.032-.51.876a6.709,6.709,0,0,1-3.217,5.7,10.4,10.4,0,0,1-3.043,1.035c-.048,0-.192,0-.192-.111,0-.08.08-.112.367-.207a9.128,9.128,0,0,0,3.138-1.928,7.721,7.721,0,0,0,1.8-5.018c0-.35-.159-.35-.4-.35h-.478c-.589,0-1.354.016-1.641.032a3,3,0,0,1-.334.047c-.064,0-.1-.047-.143-.111l-.32-.367c-.046-.064-.063-.079-.063-.1,0-.032.017-.048.063-.048.113,0,.59.064.7.064.781.032,1.433.048,2.182.048H418.3c.718,0,.8-.033,1.052-.3.24-.255.383-.351.494-.351.255,0,1.179.733,1.179,1.068,0,.079-.255.366-.287.43-.079.159-.175,1.975-.207,2.342-.175,1.927-.3,3.233-.749,3.95a2.4,2.4,0,0,1-1.624.956c-.176,0-.176-.048-.3-.494-.1-.366-.638-.573-1.466-.812-.35-.1-.525-.159-.525-.255s.143-.1.175-.1a6.192,6.192,0,0,1,.621.112,9.374,9.374,0,0,0,1.131.127c.764,0,1.2-.143,1.418-1.784.159-1.227.319-3.074.319-3.887,0-.43-.032-.573-.478-.573Zm.8-5.13c-.4,0-.94.016-1.274.032-.048,0-.272.032-.32.032s-.063-.016-.127-.1l-.3-.366a.168.168,0,0,1-.048-.112c0-.015.015-.032.048-.032.1,0,.557.064.653.064.175.016.844.048.955.048a.817.817,0,0,0,.67-.414c.318-.446.349-.494.477-.494.207,0,1.386.8,1.386,1.147,0,.159-.048.175-.477.287-.08.016-.319.095-.319.334,0,.829,2.1,3.362,4.795,3.632.047,0,.238.032.238.128,0,.08-.414.175-.477.191a3.292,3.292,0,0,0-.972.733c-.032.048-.207.239-.255.239-.542,0-3.17-2.2-3.807-4.6-.175-.685-.207-.749-.573-.749Z" fill="#1a1311"/>
    <path id="パス_41" data-name="パス 41" d="M428.721,19.348a4.382,4.382,0,0,1,.463.557.064.064,0,0,1-.067.057,5.579,5.579,0,0,1,0-8.992.064.064,0,0,1,.067.057,4.453,4.453,0,0,1-.463.557,6.22,6.22,0,0,0,0,7.764" fill="#1a1311"/>
    <path id="パス_42" data-name="パス 42" d="M434.452,12.16v.5c-1.5,2.314-2.031,3.627-2.153,5.734-.02.245-.048.841-.53.841a.5.5,0,0,1-.481-.52c0-.671.661-2.654,2.654-5.809h-1.615c-1.37,0-1.578.633-1.785,1.237l-.284-.066.387-1.917Z" fill="#1a1311"/>
    <path id="パス_43" data-name="パス 43" d="M439.372,12.4c0,.094-.066.113-.264.161a2.072,2.072,0,0,0-.473.642,6.113,6.113,0,0,1-2.805,2.616.049.049,0,0,1-.056-.056c0-.057.018-.066.2-.208a8.135,8.135,0,0,0,2.125-2.853c.066-.141.311-.944.321-.944.067-.028.954.482.954.642m.916,2.758c-.245,0-.245.019-.3.52a3.98,3.98,0,0,1-1.909,3.381,6.158,6.158,0,0,1-1.8.614c-.029,0-.114,0-.114-.066,0-.047.048-.066.218-.123a5.407,5.407,0,0,0,1.861-1.143,4.578,4.578,0,0,0,1.067-2.975c0-.208-.1-.208-.236-.208h-.284c-.349,0-.8.01-.972.019a1.756,1.756,0,0,1-.2.028c-.038,0-.056-.028-.084-.066l-.19-.217c-.028-.038-.037-.047-.037-.056s.009-.029.037-.029c.066,0,.35.038.416.038.463.019.85.028,1.294.028h2.068c.425,0,.473-.019.623-.179s.228-.208.293-.208c.152,0,.7.434.7.633,0,.047-.152.217-.17.255-.047.094-.1,1.171-.123,1.388A6.281,6.281,0,0,1,442,19.14a1.425,1.425,0,0,1-.964.566c-.1,0-.1-.028-.179-.292-.057-.218-.378-.34-.868-.482-.208-.057-.313-.095-.313-.151s.085-.057.1-.057c.065,0,.321.057.368.066a5.6,5.6,0,0,0,.671.076c.453,0,.708-.085.839-1.058.1-.728.19-1.823.19-2.305,0-.255-.019-.34-.283-.34Zm.473-3.041c-.236,0-.558.009-.756.019-.028,0-.161.019-.189.019s-.037-.01-.076-.057l-.179-.217a.1.1,0,0,1-.029-.066c0-.01.01-.019.029-.019.056,0,.331.037.388.037.1.01.5.029.566.029a.48.48,0,0,0,.4-.246c.19-.264.208-.292.285-.292.122,0,.821.472.821.68,0,.094-.028.1-.283.17-.048.009-.19.056-.19.2a3.531,3.531,0,0,0,2.844,2.153c.028,0,.142.019.142.076s-.247.1-.284.113a1.933,1.933,0,0,0-.576.435c-.019.028-.123.141-.151.141a4.736,4.736,0,0,1-2.258-2.729c-.1-.406-.123-.444-.34-.444Z" fill="#1a1311"/>
    <path id="パス_44" data-name="パス 44" d="M446.134,11.584a4.38,4.38,0,0,1-.463-.557.064.064,0,0,1,.067-.057,5.579,5.579,0,0,1,0,8.992.064.064,0,0,1-.067-.057,4.451,4.451,0,0,1,.463-.557,6.22,6.22,0,0,0,0-7.764" fill="#1a1311"/>
    <line id="線_1" data-name="線 1" x2="214.205" transform="translate(234.687 26.536)" fill="none" stroke="#1a1311" stroke-miterlimit="10" stroke-width="0.295"/>
  </g>
</svg>
