<svg xmlns="http://www.w3.org/2000/svg" width="214.205" height="40.052" viewBox="0 0 214.205 40.052">
  <g id="network03" transform="translate(-234.193)">
    <path id="パス_249" data-name="パス 249" d="M237.893,25.03c.085,0,.212,0,.212.145s-.118.135-.254.135c-.111,0-.562,0-.629.442-.026.145-.026,2.737-.026,3.221,0,.213.017,1.25.017,1.488a2.222,2.222,0,0,1-.518,1.691,1.608,1.608,0,0,1-1.139.468c-.459,0-.825-.2-.825-.612a.462.462,0,0,1,.5-.493c.314,0,.365.136.484.459a.28.28,0,0,0,.306.2c.391,0,.451-.3.485-.509.034-.255.034-4.394.034-5.04,0-1.2,0-1.318-.893-1.318-.034,0-.17,0-.17-.135s.128-.145.213-.145Z" fill="#1a1311"/>
    <path id="パス_250" data-name="パス 250" d="M241.411,25.03c.408,0,2.346.042,2.346,1.47a1.653,1.653,0,0,1-1.131,1.487c-.3.145-.331.162-.331.255a15.064,15.064,0,0,0,.884,2.032,1.059,1.059,0,0,0,1,.68c.085,0,.255,0,.255.135,0,.119-.17.137-.213.137h-1.062a.417.417,0,0,1-.4-.247c-.051-.085-.654-1.4-.747-1.615-.468-1.028-.528-1.164-.825-1.164h-.467c-.06,0-.17.034-.2.1-.034.085-.034,1.207-.034,1.4,0,1.028,0,1.25.782,1.25.059,0,.179,0,.179.135s-.153.137-.247.137h-2.1c-.085,0-.212-.018-.212-.137,0-.135.118-.135.237-.135.587,0,.672-.272.7-.587.017-.289.017-2.626.017-3.026a13.67,13.67,0,0,0-.068-1.717c-.11-.314-.476-.314-.671-.314-.051,0-.23,0-.23-.153,0-.127.153-.127.255-.127Zm-.306.28c-.612,0-.612.383-.612,1.258,0,1.334,0,1.36.23,1.36h.688a1.372,1.372,0,0,0,1.538-1.343c0-.595-.323-1.275-1.427-1.275Z" fill="#1a1311"/>
    <path id="パス_251" data-name="パス 251" d="M247.318,28.8c-.136,0-.144.052-.153.145-.025.179-.272.247-.425.247-.135,0-.229-.026-.229-.255,0-.1.034-1,.034-1.19,0-.255-.017-1.4-.017-1.641,0-.042,0-.068.034-.068a1.85,1.85,0,0,1,.382.137,1.358,1.358,0,0,0,.629.169h.833c.094,0,.247,0,.247-.254,0-.451,0-.553-.273-.553h-1.7c-.748,0-.994.009-1.071.017a1.5,1.5,0,0,1-.187.025c-.026,0-.043-.025-.068-.059l-.17-.2c-.034-.034-.034-.042-.034-.05s.009-.026.034-.026c.051,0,.315.026.374.034.417.017.765.025,1.164.025h1.657c.247,0,.273-.093.273-.314,0-.119-.051-.654-.051-.765,0-.094.017-.119.076-.119.026,0,.442.119.587.162.246.068.255.11.255.161s-.2.2-.213.229a.878.878,0,0,0-.042.374c0,.2.025.272.28.272h1.513c.357,0,.4,0,.493-.153.2-.348.272-.348.331-.348a2.232,2.232,0,0,1,.859.612c0,.119-.17.119-.459.119h-2.737c-.306,0-.306.051-.306.569,0,.111.026.238.246.238h1.037c.153,0,.2,0,.29-.11.118-.128.152-.162.212-.162.1,0,.6.332.6.442,0,.051-.169.23-.178.281a2.552,2.552,0,0,0-.043.45c0,.23.017,1.266.017,1.479,0,.366-.459.366-.493.366-.178,0-.187-.077-.195-.2-.008-.094-.034-.094-.247-.094H249.6c-.043,0-.1,0-.1.06a5.768,5.768,0,0,0,3.077,1.938c.213.068.238.076.238.1s-.017.051-.059.051c-.306,0-.621,0-.782.3-.043.085-.059.111-.111.111A6.377,6.377,0,0,1,250,29.943a5.808,5.808,0,0,1-.663-.876c-.026-.034-.034-.059-.068-.059s-.043.05-.043.085c0,.11-.008.569-.008.663,0,.246.051,1.538.051,1.64a.381.381,0,0,1-.153.348.591.591,0,0,1-.314.128c-.2,0-.23-.17-.23-.281,0-.051.051-1.36.051-1.606,0-.442,0-.493-.068-.493-.025,0-.442.374-.5.425a9.469,9.469,0,0,1-2.83,1.573c-.018,0-.043,0-.043-.035a2.591,2.591,0,0,1,.5-.339,10,10,0,0,0,2.286-1.862,2.034,2.034,0,0,0,.237-.374c0-.077-.067-.077-.144-.077Zm1.062-1.393c.273,0,.273-.094.273-.519,0-.221-.017-.314-.273-.314h-.943c-.255,0-.272.1-.272.314,0,.434.009.519.281.519Zm-.934.221c-.111,0-.272.008-.272.238,0,.688,0,.7.272.7h.918c.263,0,.289-.068.289-.561,0-.263-.009-.382-.281-.382Zm2.065-1.054c-.263,0-.281.068-.281.493,0,.255.018.34.272.34h.978c.272,0,.272-.06.272-.493,0-.238,0-.34-.272-.34Zm.969,2c.28,0,.28-.127.28-.382,0-.434,0-.561-.289-.561h-.96c-.281,0-.281.136-.281.374,0,.5,0,.569.281.569Z" fill="#1a1311"/>
    <path id="パス_252" data-name="パス 252" d="M254.715,27.384c-.239,0-.315-.179-.417-.442a2.1,2.1,0,0,0-.331-.57,1.076,1.076,0,0,1-.1-.11c0-.042.043-.051.094-.051.213,0,1.011.289,1.011.85,0,.187-.11.323-.254.323m.152,4.317c-.28,0-.339-.374-.357-.612-.05-.969-.067-1.079-.306-1.334-.033-.042-.237-.221-.237-.255,0-.059.306-.059.348-.076.195-.06.34-.1.859-1.445.178-.476.518-1.369.552-1.42.009-.017.025-.059.068-.059.026,0,.051.017.051.059,0,.357-.876,2.83-.876,3.213a3.883,3.883,0,0,0,.077.612,3.886,3.886,0,0,1,.221.9.376.376,0,0,1-.4.416m.51-6.212c-.186,0-.229-.094-.39-.468a2.233,2.233,0,0,0-.349-.587c-.025-.033-.093-.11-.093-.144s.059-.034.076-.034c.221,0,1.037.3,1.037.876,0,.152-.06.357-.281.357m4.964,3.059c-.229,0-.238.136-.247.365-.008.2-.1,1.1-.1,1.242s.1.17.179.17c.128,0,.136-.018.246-.187.17-.281.187-.315.256-.315a2.374,2.374,0,0,1,.781.612c0,.119-.17.119-.459.119h-.8c-.221,0-.238.06-.314.4-.077.323-.212.91-.9.91-.085,0-.085-.017-.161-.187a.659.659,0,0,0-.383-.34c-.2-.094-.2-.1-.2-.136s.026-.042.069-.042c.016,0,.484.05.577.05a.422.422,0,0,0,.468-.459c0-.135-.1-.195-.246-.195h-1.786a.211.211,0,0,0-.229.153c-.051.229-.093.425-.416.425-.145,0-.221-.051-.221-.2s.3-1.946.3-2.159a.2.2,0,0,0-.238-.213c-.1,0-.6.035-.68.035-.025,0-.042-.017-.068-.051l-.17-.2c-.034-.034-.034-.043-.034-.052a.023.023,0,0,1,.026-.025c.161,0,.867.06,1.011.06.213,0,.221-.145.255-.391.085-.731.145-1.1.153-1.581,0-.06.026-.1.077-.1a3.7,3.7,0,0,1,.5.221.829.829,0,0,0,.247.026h1.436a.764.764,0,0,0,.315-.052c.05-.025.237-.22.288-.22s.613.356.613.561c0,.1-.052.144-.171.237-.059.043-.059.077-.085.315-.008.11-.076.773-.076.824,0,.077.034.162.178.162.077,0,.094-.035.179-.145.187-.263.212-.3.28-.3a1.693,1.693,0,0,1,.655.561c0,.11-.187.11-.451.11ZM257.383,25.4c-.212,0-.255.059-.408.3a4.187,4.187,0,0,1-.807.986c-.026,0-.026-.026-.026-.035,0-.025.17-.365.221-.484a7.631,7.631,0,0,0,.6-1.878c.017-.247.025-.281.093-.281.085,0,.7.34.7.485,0,.042-.195.17-.221.2a1.3,1.3,0,0,0-.153.373c0,.077.06.1.281.1h2.048c.365,0,.408,0,.612-.237.17-.2.187-.222.238-.222.076,0,.714.459.714.57s-.162.119-.451.119Zm.153,3.153c-.059,0-.221,0-.246.162,0,.017-.136,1.385-.136,1.4,0,.213.178.213.246.213h.349c.212,0,.229-.094.246-.247.026-.212.144-1.156.144-1.3a.21.21,0,0,0-.246-.23Zm.187-1.827c-.213,0-.229.093-.238.136-.051.34-.127,1.19-.127,1.249a.209.209,0,0,0,.246.213h.357c.23,0,.247-.119.264-.238.008-.043.118-1.122.118-1.139,0-.187-.144-.221-.246-.221Zm1.164,1.827a.209.209,0,0,0-.22.195c-.009.085-.137,1.344-.137,1.377,0,.137.1.2.239.2h.433c.144,0,.221-.051.238-.153.008-.052.136-1.267.136-1.394a.2.2,0,0,0-.238-.23Zm.247-1.827a.218.218,0,0,0-.247.161c-.025.094-.144,1.165-.144,1.216a.214.214,0,0,0,.246.221h.4c.179,0,.229-.085.238-.221.008-.06.085-1.1.085-1.139,0-.238-.17-.238-.238-.238Z" fill="#1a1311"/>
    <path id="パス_253" data-name="パス 253" d="M262.594,27.673c-.035-.043-.035-.043-.035-.051a.027.027,0,0,1,.026-.025c.144,0,.816.05.97.05a.3.3,0,0,0,.3-.127c.22-.238.246-.272.28-.272s.544.3.544.45a.122.122,0,0,1-.06.094c-.085.06-.2.145-.212.187s-.009.926-.009,1.063c0,1.062.026,1.13.085,1.266.221.526.791.7,2.73.7a23.762,23.762,0,0,0,3.058-.237,1.591,1.591,0,0,1,.188-.017c0,.034-.035.076-.12.161a2.735,2.735,0,0,0-.238.417c-.017.034-.059.22-.094.246-.008.017-.875.017-.968.017-.8,0-2.125-.017-2.9-.111a2.024,2.024,0,0,1-1.673-.807c-.043-.076-.2-.578-.306-.578a5.343,5.343,0,0,0-.935,1.19c-.026.153-.06.3-.171.3-.126,0-.51-.68-.51-.689,0-.068.1-.093.146-.11.126-.043,1-.468,1.113-.757.034-.093.034-1.326.034-1.521,0-.552,0-.621-.3-.621-.112,0-.6.043-.707.043-.025,0-.042-.017-.076-.059Zm1.495-1.462c-.11,0-.11,0-.391-.535a4.221,4.221,0,0,0-.68-.952c-.025-.026-.161-.128-.161-.162s.051-.034.06-.034c.475,0,1.58.655,1.47,1.36-.026.162-.162.323-.3.323m2.218,3.969c-.11,0-.144.008-.161.162-.025.246-.323.305-.458.305-.086,0-.18-.008-.18-.195,0-.093.052-.5.06-.586.034-.383.052-1.224.052-1.947,0-.237-.035-1.461-.035-1.5,0-.025,0-.077.035-.077a1.771,1.771,0,0,1,.543.239.485.485,0,0,0,.221.068c.154,0,.2,0,.255-.051a1.922,1.922,0,0,0,.17-.672c0-.153-.111-.153-.2-.153h-.3c-.748,0-.994.017-1.08.017a1.325,1.325,0,0,1-.177.026c-.026,0-.043-.026-.077-.06l-.162-.2c-.034-.035-.034-.043-.034-.051s.008-.026.027-.026c.058,0,.321.034.373.034.416.017.774.026,1.164.026h1.224c.153,0,.331,0,.671-1.122.008-.034.043-.2.051-.238a.085.085,0,0,1,.086-.076c.093,0,.688.348.688.441,0,.043-.213.085-.247.1a3.494,3.494,0,0,0-.807.842.071.071,0,0,0,.076.051h.493c.435,0,.493,0,.748-.374.025-.043.085-.119.145-.119a2.168,2.168,0,0,1,.713.6c0,.119-.17.119-.459.119h-1.886c-.264,0-.3.025-.5.289a5.666,5.666,0,0,0-.406.536c0,.051.066.051.092.051h1.181a.3.3,0,0,0,.3-.12c.136-.161.154-.178.2-.178a1.432,1.432,0,0,1,.6.365c0,.052-.2.2-.214.23-.034.059-.034.127-.034.748,0,.4.085,2.38.085,2.558,0,.238-.177.34-.4.34-.205,0-.221-.093-.221-.2,0-.144,0-.2-.118-.2Zm.171-4.768c-.171,0-.212-.077-.374-.408a3.708,3.708,0,0,0-.409-.569c-.024-.026-.11-.1-.11-.128s.06-.016.069-.016c.169,0,1.284.356,1.1.951a.277.277,0,0,1-.28.17m1.827,3.443c.255,0,.255-.111.255-.366,0-.476-.009-.552-.264-.552h-1.92c-.255,0-.255.11-.255.382,0,.467,0,.536.255.536Zm-.026-1.148c.255,0,.255-.068.255-.493,0-.23,0-.34-.255-.34h-1.886c-.264,0-.264.1-.264.349,0,.424,0,.484.264.484Zm.035,2.252c.254,0,.254-.144.254-.433,0-.306,0-.442-.254-.442h-1.921c-.23,0-.256.127-.256.246,0,.57,0,.629.264.629Z" fill="#1a1311"/>
    <path id="パス_254" data-name="パス 254" d="M274.255,26.967a.456.456,0,0,0,.391-.229c.085-.111.153-.187.2-.187.068,0,.535.408.535.51,0,.127-.051.127-.5.127h-2.185c-.4,0-.5.009-.807.017-.051,0-.3.026-.348.026a.1.1,0,0,1-.068-.034l-.187-.221c-.026-.034-.034-.034-.034-.051s.025-.017.034-.017c.025,0,.2.017.229.017.332.017.833.042,1.131.042Zm-.187,1.335a.439.439,0,0,0,.391-.23c.085-.1.153-.187.2-.187.068,0,.535.408.535.519,0,.127-.042.127-.5.127h-1.02c-.025,0-.153,0-.153.094s.025.093.306.238c.629.314.918.476.918.85,0,.187-.1.365-.264.365s-.17-.042-.348-.391c-.1-.195-.391-.7-.527-.7-.094,0-.094.136-.1.23s-.009.892-.009,1.054c0,.144.017.747.017.866a1.747,1.747,0,0,1-.025.451.463.463,0,0,1-.357.187c-.2,0-.2-.119-.2-.187,0-.246.05-1.343.05-1.564,0-.493,0-.544-.067-.544-.026,0-.069.06-.1.119a6.881,6.881,0,0,1-.893,1.08,3.465,3.465,0,0,1-.45.356.04.04,0,0,1-.043-.042c0-.025.391-.561.468-.671a5.041,5.041,0,0,0,.8-1.658c0-.1-.033-.136-.22-.136-.239,0-.426.009-.613.026-.025,0-.135.017-.161.017a.075.075,0,0,1-.068-.043l-.2-.221c-.026-.025-.026-.034-.026-.042s.017-.017.034-.017.213.017.255.017c.391.017.833.042,1.088.042.178,0,.2-.085.2-.195,0-.145-.008-.315-.008-.459-.009-.043-.042-.221-.042-.255,0-.051.068-.06.093-.06.059,0,.646.06.646.23,0,.051-.145.246-.153.289s-.009.263-.009.3c0,.085.043.145.162.145Zm-.943-2.839c-.561,0-.8.009-.9.009-.051.008-.289.034-.34.034a.114.114,0,0,1-.076-.043l-.187-.213a.242.242,0,0,1-.026-.05c0-.018.017-.026.034-.026.162,0,.892.06,1.037.06.264,0,.264-.017.264-.57a1.094,1.094,0,0,0-.035-.348c0-.017-.034-.128-.034-.145s.017-.076.1-.076c.026,0,.663.127.663.221,0,.017-.093.212-.11.246a.8.8,0,0,0-.077.391c0,.2.009.281.187.281h.2a.369.369,0,0,0,.289-.154c.2-.229.229-.254.289-.254a1.16,1.16,0,0,1,.646.518c0,.119-.17.119-.451.119h-.365c-.026,0-.068.009-.068.051,0,.085.4.272.4.349,0,.059-.239.237-.272.28-.094.1-.477.586-.57.68a.8.8,0,0,1-.2.119c-.026,0-.034-.034-.034-.051a3.815,3.815,0,0,1,.153-.374,2.575,2.575,0,0,0,.221-.816c0-.153-.025-.238-.255-.238Zm-.876.187a.92.92,0,0,1,.681.807c0,.162-.1.383-.3.383s-.213-.051-.3-.595a2.719,2.719,0,0,0-.127-.51c0-.017-.017-.059,0-.068a.055.055,0,0,1,.042-.017m4.25,1.615c-.28,0-.28.136-.3.62a5.113,5.113,0,0,1-.672,2.779,2.569,2.569,0,0,1-1.037.927c-.025,0-.059,0-.059-.026,0-.05.178-.2.212-.238.935-1.215,1.012-1.98,1.012-4.011,0-1-.017-1.241-.052-1.759-.008-.094-.05-.536-.05-.57s0-.076.042-.076a2.414,2.414,0,0,1,.323.11.99.99,0,0,0,.246.042,6.072,6.072,0,0,0,1.624-.577,1.625,1.625,0,0,1,.247-.162,2.551,2.551,0,0,1,.824.553c0,.076-.034.085-.476.11-.2.017-1.947.213-2.049.255s-.127.085-.127,1.1c0,.638,0,.706.3.706h1.266a.352.352,0,0,0,.357-.162c.212-.28.238-.314.314-.314s.119.042.459.383c.137.135.145.144.145.195,0,.119-.162.119-.5.119h-.535c-.059,0-.179.042-.2.238-.008.059-.017,2.456-.017,2.635,0,.195.017,1.037.017,1.207a.382.382,0,0,1-.424.433c-.2,0-.222-.068-.222-.2,0-.085.026-.773.052-1.479.008-.314.008-1.759.008-2.2,0-.467-.025-.637-.221-.637Z" fill="#1a1311"/>
    <path id="パス_255" data-name="パス 255" d="M281.386,26.339c.179,0,.239-.059.239-.323,0-.459-.017-.527-.255-.527h-.2c-.162,0-.485,0-.74.017a1.213,1.213,0,0,1-.178.026c-.026,0-.043-.026-.077-.06l-.161-.195a.128.128,0,0,1-.034-.052A.022.022,0,0,1,280,25.2c.06,0,.34.034.391.034.247.017.57.026.807.026h.187c.23,0,.23-.094.23-.561a1.619,1.619,0,0,0-.017-.34,1.288,1.288,0,0,1-.034-.145c0-.076.068-.076.1-.076.068,0,.739.136.739.3,0,.059-.017.077-.135.17-.052.043-.145.128-.145.442,0,.213.2.213.272.213h.306a.411.411,0,0,0,.2-.026c.068-.034.306-.314.374-.314.119,0,.467.331.467.45s-.161.119-.45.119h-.9c-.144,0-.272.017-.272.263,0,.528,0,.587.263.587h.179a.254.254,0,0,0,.255-.128c.042-.068.077-.11.144-.11.094,0,.477.238.477.357a3.337,3.337,0,0,1-.187.391,2.317,2.317,0,0,0-.043.646c0,.178.034.943.034,1.1,0,.128-.043.383-.306.383-.127,0-.144-.034-.221-.187-.043-.093-.077-.093-.349-.093-.238,0-.238.093-.238.518,0,.408,0,.51.247.51h.51c.153,0,.2,0,.3-.153.06-.093.171-.238.256-.238.118,0,.5.365.5.485s-.161.127-.459.127h-1.1c-.135,0-.255.017-.255.238,0,.2.035,1.045.035,1.224a.353.353,0,0,1-.383.391c-.2,0-.23-.111-.23-.247,0-.084.06-1.164.06-1.368,0-.221-.128-.238-.246-.238h-.289c-.154,0-.476,0-.731.025-.026,0-.154.018-.179.018s-.051-.018-.076-.06l-.162-.187c-.034-.043-.042-.051-.042-.06s.017-.016.034-.016c.059,0,.331.025.391.025.246.017.569.034.807.034h.238c.255,0,.255-.043.255-.688,0-.2,0-.34-.255-.34h-.187a.21.21,0,0,0-.238.136.368.368,0,0,1-.4.331c-.162,0-.162-.2-.162-.272s.008-.238.034-.57c.017-.229.017-.433.017-.756,0-.357,0-.909-.017-1.079-.008-.051-.068-.255-.068-.3s.051-.059.1-.059a2.483,2.483,0,0,1,.366.161.486.486,0,0,0,.22.043Zm-.212.221c-.238,0-.247.11-.247.349,0,.382,0,.484.247.484h1.317c.255,0,.255-.1.255-.468,0-.246,0-.365-.246-.365Zm1.317,1.912c.247,0,.247-.127.247-.391,0-.374,0-.467-.247-.467h-1.308c-.256,0-.256.144-.256.4,0,.349,0,.459.256.459Zm1.514-1.079c-.035-.043-.043-.043-.043-.06s.017-.017.034-.017c.059,0,.331.026.391.026.246.017.569.034.807.034h.57c.161,0,.2,0,.3-.145.068-.1.17-.246.256-.246.119,0,.492.365.492.493s-.161.119-.45.119h-.561c-.255,0-.255.136-.255.314v.816c0,.23.17.23.264.23h.738c.155,0,.206,0,.3-.145.068-.093.17-.246.254-.246a1.014,1.014,0,0,1,.5.492c0,.128-.162.128-.459.128h-1.343c-.247,0-.247.153-.247.238,0,.034.018.731.018.833,0,.178.051.969.051,1.131a.432.432,0,0,1-.434.492c-.187,0-.221-.1-.221-.255,0-.17.051-1.869.051-2.108s-.025-.331-.229-.331h-.187c-.162,0-.484,0-.74.017-.026,0-.152.026-.178.026s-.043-.026-.077-.06l-.161-.2c-.026-.025-.034-.042-.034-.059s.017-.017.026-.017c.067,0,.34.026.391.034.246.009.569.026.815.026h.153c.23,0,.23-.06.23-.808,0-.408,0-.552-.23-.552-.085,0-.484.043-.56.043-.035,0-.052-.018-.077-.052Zm-.434-.17a8.81,8.81,0,0,0,1.232-2.6c.017-.068.069-.4.094-.467a.121.121,0,0,1,.119-.06c.17,0,.629.238.629.357,0,.042-.111.2-.111.238a4.49,4.49,0,0,0,2.142,1.972c.026.017.187.06.187.085,0,.008-.536.238-.638.3a1.012,1.012,0,0,1-.177.111,5.426,5.426,0,0,1-1.413-1.81c-.033-.077-.169-.425-.2-.476a.055.055,0,0,0-.051-.034c-.033,0-.05.034-.058.059a5.329,5.329,0,0,1-1.845,2.474.4.4,0,0,1,.085-.145" fill="#1a1311"/>
    <path id="パス_256" data-name="パス 256" d="M289.98,27.979c.28,0,.629,0,.841-.008.23-.009.23-.034.23-.085a4.427,4.427,0,0,0-.2-.553c0-.017.026-.042.06-.042.119,0,.816.552.816,1.037a.336.336,0,0,1-.332.365c-.221,0-.246-.17-.289-.425-.017-.127-.025-.153-.094-.153a2.012,2.012,0,0,0-.382.1,3.809,3.809,0,0,0-.042.74c0,.365.042,1.989.042,2.32a.479.479,0,0,1-.45.51c-.144,0-.162-.145-.162-.357,0-.383.061-2.091.061-2.439a4.024,4.024,0,0,0-.027-.587c-.016-.068-.042-.085-.153-.085a4.6,4.6,0,0,0-.781.153c-.043.017-.2.145-.246.145-.086,0-.307-.672-.307-.689s.018-.025.043-.025.314.034.373.042c.043,0,.35.017.426.017.2,0,.238-.059.527-.612a19.243,19.243,0,0,0,.866-1.793c.077-.212.085-.238.136-.238.025,0,.715.323.715.45,0,.068-.018.068-.2.128a.506.506,0,0,0-.254.179c-.366.476-.867,1.3-1.268,1.75-.033.034-.058.094-.042.119s.06.034.094.034m-.2,1.411c0,.06-.187.238-.212.289-.187.349-.425.943-.646,1.283-.017.026-.2.306-.289.306a.036.036,0,0,1-.034-.034c0-.025.255-.781.289-.909a4.905,4.905,0,0,0,.179-1.13c0-.153,0-.179.051-.179a2.362,2.362,0,0,1,.331.119c.213.094.331.162.331.255m-.008-3.238a.661.661,0,0,1,.322.527.252.252,0,0,1-.254.272.275.275,0,0,1-.187-.085c-.069-.077-.374-.5-.45-.586s-.468-.426-.468-.443c0-.033.034-.042.068-.042.085,0,.485.144.578.144.059,0,.077-.033.2-.314a3.812,3.812,0,0,0,.347-1.411c0-.034,0-.094.052-.094.009,0,.79.256.79.434,0,.025,0,.077-.033.094s-.231.1-.264.136c-.1.093-.476.663-.57.79-.067.085-.3.382-.279.459a1.12,1.12,0,0,0,.152.119m1.487,2.719c-.034-.042-.034-.042-.034-.059s.018-.017.025-.017c.163,0,.936.051,1.114.051a.271.271,0,0,0,.247-.119c.085-.119.128-.17.212-.17.136,0,.552.238.552.408a.118.118,0,0,1-.084.1c-.179.068-.179.068-.238.178a5.97,5.97,0,0,1-.928,1.479,3.924,3.924,0,0,1-1.392.986c-.01,0-.025,0-.025-.017s.007-.033.05-.076a9.372,9.372,0,0,0,.867-.9,4.459,4.459,0,0,0,.858-1.564c0-.068-.033-.068-.28-.068-.1,0-.629.034-.706.034-.026,0-.042-.017-.077-.051Zm.45,1.3a.328.328,0,0,1-.289.365c-.186,0-.2-.22-.246-.578a2.207,2.207,0,0,0-.229-.637c-.009-.034-.034-.077-.034-.093a.045.045,0,0,1,.043-.043,1.408,1.408,0,0,1,.365.272,1.154,1.154,0,0,1,.39.714m.961-2.312c-.111,0-.17,0-.246.094a.474.474,0,0,1-.357.238c-.2,0-.2-.128-.2-.357,0-.247.033-1.47.033-1.742,0-.145-.017-.842-.017-1,0-.034,0-.06.051-.06.085,0,.476.281.578.281.17,0,.689-.943.7-1.114.01-.059.018-.118.069-.118.017,0,.426.2.493.238.119.059.238.119.238.187s-.348.152-.408.187a2.374,2.374,0,0,0-.629.586c0,.051.017.051.161.051h1.633c.178,0,.237-.008.305-.119.187-.289.213-.323.3-.323.109,0,.585.314.585.5a.246.246,0,0,1-.1.17c-.119.1-.154.137-.154.281,0,.128.026.765.026.909,0,.162.06.935.06,1,0,.383-.409.408-.452.408-.119,0-.135-.034-.186-.2-.026-.1-.136-.1-.2-.1h-.978c-.043,0-.076,0-.076.034s.016.043.161.1c.067.017.247.094.247.2,0,.068-.018.076-.153.178a.146.146,0,0,0-.052.1,6.065,6.065,0,0,0,.307.646c.068.127.177.34.28.34.2,0,.782-.612.969-.824.016-.026.093-.111.11-.111a2.473,2.473,0,0,1,.6.595c0,.034-.026.043-.051.043a2.05,2.05,0,0,1-.222-.009c-.247,0-.425.085-1.155.417-.153.068-.153.076-.153.127a4.031,4.031,0,0,0,1.478,1.5c.273.161.306.17.306.2s-.026.025-.136.034a2,2,0,0,0-.484.093,1.407,1.407,0,0,1-.255.119,6.621,6.621,0,0,1-1.428-2.158c-.034-.077-.187-.527-.2-.527s-.025.246-.025.288c0,.085.016,1.42.016,1.573,0,.518,0,.7-.186.85a1.275,1.275,0,0,1-.663.229.092.092,0,0,1-.094-.059,1.055,1.055,0,0,0-.17-.289c-.051-.051-.322-.281-.322-.289,0-.026.025-.026.246-.026.636,0,.672-.085.672-.7,0-.391,0-2.176-.043-2.422-.035-.2-.127-.247-.3-.247Zm.017-2.3c-.11,0-.221.017-.255.179v.484c0,.221.162.221.264.221h2.209c.256,0,.256-.034.256-.654,0-.23-.17-.23-.256-.23Zm0,1.105c-.093,0-.255.008-.255.238,0,.722,0,.74.255.74h2.244a.211.211,0,0,0,.237-.23c0-.714,0-.748-.246-.748Z" fill="#1a1311"/>
    <path id="パス_257" data-name="パス 257" d="M300.734,25.565c0,.026.016.059.016.093a6.516,6.516,0,0,1,.085.918,4.359,4.359,0,0,1-.875,2.491c-.679,1.036-1.113,1.24-1.453,1.24-.561,0-1.062-.875-1.062-1.912a2.992,2.992,0,0,1,.943-2.167,3.515,3.515,0,0,1,2.711-1.105,2.765,2.765,0,0,1,1.368.272,2.664,2.664,0,0,1,1.48,2.473A3.17,3.17,0,0,1,301.8,30.86a5.218,5.218,0,0,1-1.41.314c-.034,0-.086-.008-.086-.059,0-.026.017-.034.23-.119.883-.349,2.729-1.08,2.729-3.2a2.19,2.19,0,0,0-2.356-2.354c-.169,0-.177.068-.177.119m-2.763,2.609c0,.553.222,1.309.739,1.309.247,0,.451-.1,1.037-.986a4.846,4.846,0,0,0,.833-2.473c0-.51-.034-.553-.144-.553a2.935,2.935,0,0,0-2.465,2.7" fill="#1a1311"/>
    <path id="パス_258" data-name="パス 258" d="M308.944,25.412c0,.119-.043.213-.323.4a22.035,22.035,0,0,0-1.929,1.725,5.954,5.954,0,0,0-.773.935c0,.034.033.051.067.051a11.294,11.294,0,0,0,1.513-.536,5.144,5.144,0,0,1,1.709-.552c.177,0,.79.093.79.408,0,.212-.315.281-.443.281a3.136,3.136,0,0,0-1.164.127c-1.292.357-1.42,1.113-1.42,1.428,0,.816.562.935,1.539,1.147.425.093.518.349.518.425,0,.17-.237.281-.568.281a2.318,2.318,0,0,1-1.453-.57,1.283,1.283,0,0,1-.367-.969,2.1,2.1,0,0,1,.349-1.147c.033-.043.2-.255.2-.272s-.009-.026-.034-.026a2.823,2.823,0,0,0-.629.34c-.451.349-.578.434-.842.434-.347,0-.441-.4-.441-.485,0-.161.068-.229.314-.459.076-.076,1.53-1.844,1.836-2.167.254-.263.765-.807.765-1a.146.146,0,0,0-.145-.153,1,1,0,0,0-.536.323c-.212.229-.322.349-.619.349a.475.475,0,0,1-.485-.366,3.141,3.141,0,0,1-.136-.374.053.053,0,0,1,.06-.059c.025,0,.339.042.407.042a1.126,1.126,0,0,0,.306-.042,4.421,4.421,0,0,1,1.131-.255.759.759,0,0,1,.8.739m1.861.926c0,.128-.119.324-.272.324-.136,0-.2-.111-.407-.434a2.429,2.429,0,0,0-.528-.586c-.025-.026-.111-.1-.111-.136,0-.06.137-.06.162-.06.383,0,1.156.4,1.156.892m.893-.671a.242.242,0,0,1-.222.255c-.178,0-.289-.153-.424-.348a1.99,1.99,0,0,0-.706-.536c-.085-.042-.1-.076-.1-.1,0-.076.2-.076.323-.076.315,0,1.131.246,1.131.807" fill="#1a1311"/>
    <path id="パス_259" data-name="パス 259" d="M315.481,25.429c-.111,0-.468.306-.6.425-.11.1-.433.391-.654.391-.315,0-.553-.6-.553-.629,0-.051.017-.085.068-.085s.247.034.289.034c.272,0,.375-.017.884-.34a1.461,1.461,0,0,1,.817-.28c.56,0,.687.382.687.51,0,.178-.076.28-.517.688a7.67,7.67,0,0,0-1.25,1.726c0,.042.059.051.085.051.11,0,.587-.009.688,0a6.913,6.913,0,0,1,1.607.339.325.325,0,0,0,.135.035c.111,0,.162-.7.162-.783,0-.068-.051-.442-.051-.475,0-.052.059-.052.093-.052s.765.137.765.468a1.839,1.839,0,0,1-.186.331c0,.017-.12.7-.12.723,0,.11.051.136.2.212.331.179,1.1.579,1.1,1.02a.328.328,0,0,1-.314.323c-.17,0-.264-.068-.858-.577-.017-.009-.263-.222-.349-.222-.068,0-.093.06-.118.1a3.681,3.681,0,0,1-1.666,1.573,3.142,3.142,0,0,1-.918.339c-.009,0-.068,0-.068-.025a1.534,1.534,0,0,1,.161-.119,5.293,5.293,0,0,0,1.751-1.683,1.571,1.571,0,0,0,.255-.484c0-.077,0-.119-.468-.349a3.677,3.677,0,0,0-1.564-.382c-.526,0-.543.034-.688.34-.73,1.556-.875,1.87-1.411,1.87-.433,0-.561-.468-.561-.68,0-.722.757-1.368,1.649-1.683a.3.3,0,0,0,.212-.17c.2-.314,1.258-1.921,1.3-2a1.2,1.2,0,0,0,.111-.383c-.01-.042-.035-.1-.1-.1m-2.847,4.1c0,.145.067.247.221.247.466,0,1.019-1.25,1.019-1.284s-.008-.043-.034-.043c-.306,0-1.206.579-1.206,1.08" fill="#1a1311"/>
    <path id="パス_260" data-name="パス 260" d="M321.651,26.687c-.187,0-.773,0-1.07.017a1.22,1.22,0,0,1-.18.026c-.033,0-.042-.026-.076-.06l-.161-.195c-.034-.034-.042-.043-.042-.051s.016-.026.033-.026c.034,0,.451.043.535.043.621.026.639.017,1.123.017.263,0,.263-.068.263-.519,0-.11,0-.8-.025-.841-.06-.1-.111-.11-.221-.11s-.952.042-1.14.042c-.152,0-.17,0-.17-.042s.018-.043.205-.077a8.511,8.511,0,0,0,2.1-.561c.306-.136.34-.153.408-.153s.8.332.8.459c0,.085-.034.085-.518.136-.9.094-.9.111-.9.425,0,.11.008,1.071.017,1.105a.217.217,0,0,0,.237.136h.153c.2,0,.247-.017.349-.136.238-.289.264-.314.34-.314a2.383,2.383,0,0,1,.74.56c0,.119-.17.119-.451.119h-1.139c-.246,0-.263.034-.263.646,0,.247.085.264.152.281.357.068,1.25.289,1.25.935,0,.306-.188.416-.289.416-.17,0-.2-.059-.408-.586a1.1,1.1,0,0,0-.646-.655c-.067,0-.067.059-.067.128,0,.331.025,2.728.051,3.051.007.161.025.459.025.493,0,.323-.391.425-.493.425-.179,0-.179-.119-.179-.247,0-.416.051-2.244.051-2.617,0-.086.009-.426.009-.5s-.017-.144-.1-.144c-.042,0-.051.016-.152.127a8.871,8.871,0,0,1-1.623,1.53c-.069.051-.1.077-.137.077a.04.04,0,0,1-.042-.043c0-.009.535-.629.612-.731a10.457,10.457,0,0,0,1.47-2.465.1.1,0,0,0-.11-.119Zm3.842.6c0,1.487,0,1.657.017,2.031,0,.06.016.323.016.374,0,.238-.127.417-.467.417-.213,0-.213-.1-.213-.162s.026-.2.026-.238c.025-.272.043-1.241.043-2.414,0-.382,0-1.4-.069-1.972a1.272,1.272,0,0,1-.016-.178c0-.043.009-.076.067-.076.043,0,.885.152.885.306a.139.139,0,0,1-.043.093c-.17.153-.2.187-.221.306-.008.034-.025.731-.025,1.513m1.666.178c0,.51.051,2.737.051,3.188,0,.611-.043.781-.188.883a1.329,1.329,0,0,1-.594.281c-.119,0-.136-.051-.179-.187-.1-.315-.637-.5-.731-.527-.025-.009-.076-.034-.076-.068s.051-.034.059-.034c.111,0,.561.076.654.076.417,0,.417-.076.417-.731,0-.79,0-4.921-.042-5.515-.009-.094-.076-.553-.076-.578,0-.043.051-.077.093-.077.025,0,.722.127.773.136s.128.043.128.128-.043.1-.137.17a.4.4,0,0,0-.127.254c-.017.145-.025,2.159-.025,2.6" fill="#1a1311"/>
    <path id="パス_261" data-name="パス 261" d="M330.415,28.93c-.247,0-.247.069-.281.374a3.314,3.314,0,0,1-1.215,2.4.046.046,0,0,1-.05-.042c0-.009.2-.341.238-.408a7.688,7.688,0,0,0,.492-3.587c0-.671-.018-2.065-.076-2.694-.009-.093-.069-.578-.069-.595,0-.051.009-.068.06-.068a1.694,1.694,0,0,1,.425.144,1.182,1.182,0,0,0,.672.2h4.156a.335.335,0,0,0,.3-.1c.144-.153.153-.17.213-.17s.687.348.687.484c0,.077-.067.128-.135.162-.2.1-.221.11-.221.918,0,.7.052,3.833.052,4.555,0,.374,0,1.318-.791,1.318-.077,0-.085-.018-.145-.187-.119-.307-.637-.485-.714-.5-.025-.008-.153-.034-.153-.085,0-.034.06-.051.1-.051.111,0,.646.043.765.043.332,0,.34-.094.34-1.173,0-.111,0-.706-.017-.773-.034-.154-.161-.154-.255-.154h-1.725c-.23,0-.273.085-.264.332.009.612.009,1.309.009,1.963,0,.162-.025.221-.085.28a.637.637,0,0,1-.4.154c-.17,0-.179-.111-.179-.221,0-.315.051-1.879.051-2.236,0-.187-.06-.272-.263-.272Zm1.547-2.345c.254,0,.254,0,.254-.859,0-.824,0-.849-.254-.849h-1.547c-.255,0-.255.033-.255.739,0,.969.008.969.263.969Zm0,2.116a.219.219,0,0,0,.221-.1,9.592,9.592,0,0,0,.033-.994c0-.757,0-.791-.254-.791h-1.547c-.093,0-.205.017-.238.153-.009.043-.009,1.241-.009,1.436,0,.137,0,.3.247.3Zm1.1-3.824c-.11,0-.221.016-.255.152-.009.051-.009,1.029-.009,1.233,0,.178,0,.323.264.323h1.691c.264,0,.264-.094.264-.578,0-1.13-.008-1.13-.28-1.13Zm0,1.937c-.264,0-.264.025-.264.808a8.347,8.347,0,0,0,.035.968c.042.111.17.111.229.111h1.734c.255,0,.255-.059.255-.62,0-1.25-.009-1.267-.272-1.267Z" fill="#1a1311"/>
    <path id="パス_282" data-name="パス 282" d="M402.615,32.109a5.206,5.206,0,0,1,0-8.227l.076.119a5.75,5.75,0,0,0,0,7.989Z" fill="#1a1311"/>
    <path id="パス_283" data-name="パス 283" d="M410.181,25.292l.331-.441c.042-.051.092-.111.128-.111a.3.3,0,0,1,.152.093l.5.443a.186.186,0,0,1,.084.127c0,.085-.067.094-.127.094h-3.314v.985h1.189l.179-.187c.059-.059.11-.127.161-.127a.322.322,0,0,1,.153.077l.331.237c.061.043.137.111.137.187s-.111.17-.289.281c-.009.348-.018.926.008,1.742.008.222.051,1.292.051,1.453a.38.38,0,0,1-.424.409c-.231,0-.231-.128-.221-.306h-2.448c.008.178.016.467-.4.467-.2,0-.238-.144-.238-.272,0-.076,0-.229.009-.331.025-.459.025-1.173.025-1.675a13.905,13.905,0,0,0-.094-2.269l.732.314h.535c.008-.679.008-.756,0-.985h-2.2a5.8,5.8,0,0,0-1,.076l-.17-.34c.493.043,1.13.059,1.309.059h2.065a3.177,3.177,0,0,0-.179-1.232l.893.281c.093.034.17.068.17.153s-.085.136-.28.254v.544Zm.067,5.933.331-.467c.043-.06.086-.111.137-.111a.339.339,0,0,1,.152.085l.485.468a.237.237,0,0,1,.085.135c0,.085-.068.094-.127.094h-6.1a.405.405,0,0,1-.425.493c-.2,0-.263-.093-.263-.263,0-.111.034-.561.034-.655.025-.493.025-.944.025-1.946,0-.6,0-1.539-.025-1.9a4.27,4.27,0,0,0-.111-.621l.816.264c.1.033.178.067.178.135,0,.094-.084.154-.272.255-.008.536.01,2.244.043,4.029Zm-3.484-3.57h2.456v-.969h-2.456Zm0,1.165h2.456v-.96h-2.456Zm0,1.224h2.456v-1.02h-2.456Z" fill="#1a1311"/>
    <path id="パス_284" data-name="パス 284" d="M419.769,31.633c-.29-.009-1.54.017-1.794.017a8.717,8.717,0,0,1-2.321-.246c-1-.3-1.207-.765-1.325-1.029-.128.17-.773.875-.9,1.029-.026.085-.042.212-.06.246a.106.106,0,0,1-.094.068.16.16,0,0,1-.119-.068l-.62-.739a3.236,3.236,0,0,0,1.4-.409v-2.49a6.162,6.162,0,0,0-1.1.077l-.17-.34c.373.034.629.051,1.139.06l.314-.239c.051-.033.094-.068.119-.068a.181.181,0,0,1,.111.06l.34.306a.16.16,0,0,1,.059.11.122.122,0,0,1-.051.1c-.043.033-.128.11-.178.152-.026.17-.026,1.037-.026,1.224,0,1.054,0,1.606,2.371,1.606a21.608,21.608,0,0,0,2.771-.195c.179-.034.468-.094.688-.144v.034a1.3,1.3,0,0,0-.551.875m-5.415-5.805c-.255,0-.323-.229-.375-.408a2.025,2.025,0,0,0-.721-1.088l.016-.051c1.038.2,1.428.842,1.428,1.165a.358.358,0,0,1-.348.382m5.549.765c-.033.034-.22.178-.262.213-.017.407.008,2.413.008,2.872,0,.289,0,.782-.816.961a1.215,1.215,0,0,0-.663-.8V29.8c.085,0,.5.026.6.026.281,0,.314-.06.314-.306v-.561h-1.325c0,.085.025.909.025,1.062,0,.034.026.3.026.332,0,.152-.136.306-.392.306-.212,0-.212-.128-.212-.2,0-.043.017-.272.017-.323,0-.17,0-.994.009-1.181h-1.309c.009.17.017.986.017,1.173a.4.4,0,0,1-.409.416c-.22,0-.22-.136-.22-.229,0-.026.008-.136.008-.162.026-.382.035-1.5.035-1.827a15.051,15.051,0,0,0-.094-2.337l.773.382h1.428c-.068-.06-.076-.077-.144-.229a2.749,2.749,0,0,0-.774-.859v-.059a2.417,2.417,0,0,1,1.08.374c.2-.2.442-.485.688-.782h-1.9a5.925,5.925,0,0,0-1,.076l-.17-.331c.442.034.875.051,1.309.051h1.836l.307-.213a.236.236,0,0,1,.109-.059.258.258,0,0,1,.137.068l.492.416a.169.169,0,0,1,.06.11.135.135,0,0,1-.068.1,4.213,4.213,0,0,1-.493.085c-.187.051-1,.476-1.19.552a.557.557,0,0,1,.23.433.291.291,0,0,1-.137.264h1.157l.238-.229a.167.167,0,0,1,.11-.068.2.2,0,0,1,.093.05l.442.307a.123.123,0,0,1,.069.085.114.114,0,0,1-.027.076m-2.676-.017h-1.318c0,.238.009.689.009.969h1.309Zm0,1.173h-1.309v1h1.309Zm1.852-1.173h-1.325v.969h1.325Zm0,1.173h-1.325v1h1.325Z" fill="#1a1311"/>
    <path id="パス_285" data-name="パス 285" d="M421.563,30.954h.467c.441,0,.594-.17.594-.519v-4.6c0-.263-.247-.305-.408-.305h-.645v-.264h.152a3.276,3.276,0,0,0,1.386-.357c.059-.034.085-.051.119-.051.076,0,.093.051.093.119v5.456c0,.366.179.519.595.519h.467v.272h-2.82Z" fill="#1a1311"/>
    <path id="パス_286" data-name="パス 286" d="M428.1,24.859h.348v4.318h.96v.272h-.96v.986c0,.374.187.518.6.518h.137v.272H427.02v-.272h.135c.4,0,.6-.136.6-.518v-.986h-2.287v-.3Zm-.348,1.122-1.964,3.2h1.964Z" fill="#1a1311"/>
    <path id="パス_287" data-name="パス 287" d="M431.9,31.387a1.718,1.718,0,0,1-1.393-.918,5.273,5.273,0,0,1-.52-2.422c0-1.81.774-3.187,1.913-3.187.875,0,1.912.943,1.912,3.263,0,2.082-.876,3.264-1.912,3.264m-.952-5.108a7.693,7.693,0,0,0-.2,1.844c0,1.9.45,2.975,1.147,2.975.587,0,.85-.782.944-1.1a7.927,7.927,0,0,0,.2-1.87c0-1.938-.468-2.974-1.148-2.974-.6,0-.867.832-.952,1.13" fill="#1a1311"/>
    <path id="パス_288" data-name="パス 288" d="M437.278,25.362a7.333,7.333,0,0,1-2.635,2.889l-.043-.059a11.046,11.046,0,0,0,2.058-3.111,2.886,2.886,0,0,0,.136-.544l.73.493c.043.025.112.077.112.136,0,.1-.221.161-.358.2m3.086,2.66c-.086,3.059-.256,3.68-1.785,3.816a1.221,1.221,0,0,0-.638-.935l.009-.059a5.35,5.35,0,0,0,.986.144c.408,0,.569-.094.7-.867a17.367,17.367,0,0,0,.128-2.448h-1.717a4.044,4.044,0,0,1-3.3,4.131l-.016-.068a4.294,4.294,0,0,0,2.686-4.063h-.247a5.427,5.427,0,0,0-1,.085l-.161-.34c.526.043,1.045.051,1.3.051h2.406l.228-.2a.25.25,0,0,1,.154-.093c.042,0,.085.042.119.076l.34.374a.228.228,0,0,1,.076.136c0,.077-.026.094-.263.264m1.547-.009a4.925,4.925,0,0,1-2.559-3.229h-.679a4.123,4.123,0,0,0-.715.05l-.109-.3c.381.034.755.042.925.042h.425l.273-.272c.076-.076.11-.093.152-.093s.086.043.144.093l.315.307a.149.149,0,0,1,.068.127c0,.17-.39.238-.544.264a3.974,3.974,0,0,0,3.119,2.278l.009.084a1.4,1.4,0,0,0-.824.646" fill="#1a1311"/>
    <path id="パス_289" data-name="パス 289" d="M443.543,32.109l-.076-.119a5.75,5.75,0,0,0,0-7.989l.076-.119a5.206,5.206,0,0,1,0,8.227" fill="#1a1311"/>
    <path id="パス_290" data-name="パス 290" d="M241.04,2.929c.3,0,.446.1.446.334s-.127.351-.446.351h-3.807c-.43,0-.43.1-.43,2.007,0,1.784.016,9.7.016,11.327,0,.366-.08.509-.335.509-.35,0-.35-.111-.35-1.051V3.582a.6.6,0,0,1,.685-.653Z" fill="#1a1311"/>
    <path id="パス_291" data-name="パス 291" d="M248.948,8.186a.856.856,0,0,0,.733-.43c.16-.207.287-.35.367-.35.127,0,1,.764,1,.956,0,.238-.1.238-.94.238h-4.094c-.749,0-.94.017-1.513.032-.1,0-.558.048-.653.048a.2.2,0,0,1-.128-.063l-.35-.415c-.048-.063-.064-.063-.064-.095,0-.016.048-.032.064-.032.048,0,.366.032.43.032.621.032,1.561.079,2.119.079Zm-.35,2.5a.826.826,0,0,0,.733-.43c.159-.191.286-.35.366-.35.127,0,1,.764,1,.972,0,.239-.079.239-.939.239h-1.912c-.048,0-.287,0-.287.175,0,.159.048.175.574.446,1.179.589,1.72.892,1.72,1.593,0,.35-.191.685-.494.685-.286,0-.318-.08-.653-.733-.191-.366-.732-1.306-.987-1.306-.175,0-.175.255-.192.43,0,.191-.016,1.672-.016,1.975,0,.271.033,1.4.033,1.625a3.192,3.192,0,0,1-.048.844.866.866,0,0,1-.67.351c-.366,0-.366-.223-.366-.351,0-.462.1-2.517.1-2.931,0-.924,0-1.019-.128-1.019-.048,0-.127.111-.191.223a12.871,12.871,0,0,1-1.672,2.023,6.43,6.43,0,0,1-.845.669.075.075,0,0,1-.079-.08c0-.048.732-1.051.876-1.258a9.441,9.441,0,0,0,1.5-3.107c0-.191-.064-.254-.414-.254-.446,0-.8.016-1.147.047-.048,0-.255.032-.3.032a.143.143,0,0,1-.128-.079l-.367-.415c-.047-.047-.047-.063-.047-.079,0-.032.032-.032.063-.032.016,0,.4.032.479.032.732.032,1.561.079,2.039.079.334,0,.366-.159.366-.366,0-.271-.016-.59-.016-.861-.016-.079-.08-.414-.08-.477,0-.1.128-.112.175-.112.112,0,1.211.112,1.211.43,0,.1-.271.462-.287.542,0,.064-.015.494-.015.557,0,.16.079.271.3.271Zm-1.769-5.32c-1.051,0-1.5.016-1.688.016-.1.015-.542.063-.637.063a.214.214,0,0,1-.143-.079l-.351-.4a.56.56,0,0,1-.048-.1c0-.032.032-.048.064-.048.3,0,1.672.111,1.943.111.494,0,.494-.031.494-1.067a2.139,2.139,0,0,0-.063-.653c0-.032-.064-.239-.064-.271,0-.048.031-.143.191-.143.047,0,1.242.239,1.242.414,0,.032-.175.4-.207.462a1.506,1.506,0,0,0-.143.733c0,.366.016.525.35.525h.367a.686.686,0,0,0,.541-.286c.383-.43.431-.478.542-.478a2.169,2.169,0,0,1,1.211.971c0,.224-.319.224-.844.224H248.9c-.048,0-.128.016-.128.095,0,.159.749.51.749.654,0,.111-.446.445-.51.525-.175.191-.892,1.1-1.067,1.274a1.492,1.492,0,0,1-.383.224c-.048,0-.063-.064-.063-.1a7.137,7.137,0,0,1,.286-.7,4.779,4.779,0,0,0,.414-1.529c0-.287-.047-.446-.477-.446Zm-1.64.35a1.726,1.726,0,0,1,1.274,1.513c0,.3-.191.717-.558.717s-.4-.095-.557-1.115a5.244,5.244,0,0,0-.239-.956c0-.031-.032-.111,0-.127a.1.1,0,0,1,.08-.032m7.965,3.027c-.526,0-.526.255-.558,1.163a9.579,9.579,0,0,1-1.258,5.209,4.826,4.826,0,0,1-1.944,1.736c-.048,0-.111,0-.111-.047,0-.1.334-.383.4-.447,1.752-2.278,1.9-3.711,1.9-7.518,0-1.88-.032-2.326-.1-3.3-.016-.175-.1-1-.1-1.068s0-.143.08-.143a4.664,4.664,0,0,1,.606.207,1.836,1.836,0,0,0,.461.08,11.373,11.373,0,0,0,3.043-1.083,3.242,3.242,0,0,1,.462-.3,4.781,4.781,0,0,1,1.545,1.035c0,.144-.063.16-.892.207-.366.033-3.648.4-3.839.478-.207.1-.239.16-.239,2.056,0,1.194,0,1.322.558,1.322h2.373a.662.662,0,0,0,.67-.3c.4-.526.445-.59.589-.59s.223.08.86.718c.255.255.271.27.271.366,0,.223-.3.223-.94.223h-1c-.111,0-.334.08-.366.446-.016.112-.032,4.6-.032,4.938,0,.366.032,1.944.032,2.262a.718.718,0,0,1-.8.813c-.382,0-.414-.127-.414-.367,0-.159.048-1.449.1-2.772.016-.589.016-3.3.016-4.125,0-.877-.048-1.195-.414-1.195Z" fill="#1a1311"/>
    <path id="パス_292" data-name="パス 292" d="M262.559,8.361c-1.4,0-1.848.032-2.007.048-.064,0-.287.032-.335.032-.064,0-.1-.032-.143-.1l-.3-.366c-.064-.08-.08-.08-.08-.112s.033-.032.064-.032c.112,0,.6.048.7.048.781.032,1.434.063,2.183.063h2.755c.494,0,.542,0,.542-2.246,0-.382,0-1.226-.1-2.2-.016-.1-.064-.462-.064-.541s0-.128.1-.128a13.366,13.366,0,0,1,1.657.366c.207.048.351.128.351.287,0,.127-.08.223-.255.367-.3.255-.3.334-.335,1.083-.016.414-.127,2.262-.127,2.644,0,.366.287.366.542.366h2.755c.733,0,.813,0,1.02-.27.51-.653.573-.717.765-.717a4.059,4.059,0,0,1,1.624,1.179c0,.223-.318.223-.844.223h-5.082c-.35,0-.462,0-.462.255,0,.972,2.071,5.7,6.579,7.471.431.175.431.175.431.239,0,.112-.08.127-.319.143a4,4,0,0,0-1.434.3,2.406,2.406,0,0,1-.525.287,8.335,8.335,0,0,1-2.549-2.486,16,16,0,0,1-2.485-5.4c-.016-.1-.08-.318-.112-.318-.048,0-.048.048-.112.382a9.485,9.485,0,0,1-5.018,7.392,6.882,6.882,0,0,1-2.373.86c-.032,0-.1-.016-.1-.064,0-.08.35-.239.509-.318a10.463,10.463,0,0,0,5.544-6.787,11.677,11.677,0,0,0,.255-1.609c0-.35-.176-.35-.43-.35Z" fill="#1a1311"/>
    <path id="パス_293" data-name="パス 293" d="M279.866,3.566a.461.461,0,0,0,.414-.16c.223-.239.255-.27.367-.27.159,0,1.21.67,1.21.923,0,.1-.016.113-.334.367a22.6,22.6,0,0,0-2.263,3.457,3.61,3.61,0,0,0,.431.4,3.692,3.692,0,0,1,1.481,3.011c0,1.7-1,3.011-1.991,3.011-.128,0-.128,0-.255-.367a1.229,1.229,0,0,0-.781-.685c-.175,0-.175.048-.175.908,0,.255.048,1.45.048,1.721,0,.78,0,1.513-.78,1.513a.529.529,0,0,1-.558-.589c0-.112.032-.478.048-.606.175-1.88.175-7.009.175-9.606a27.456,27.456,0,0,0-.064-2.85c0-.1-.063-.542-.063-.638a.074.074,0,0,1,.079-.08,3.1,3.1,0,0,1,.876.367,1.168,1.168,0,0,0,.7.175Zm-1.4.414a.4.4,0,0,0-.462.43c0,.653-.032,3.473-.032,4.046,0,1,0,4.206.016,4.286.032.159.159.207.8.207.383,0,.622-.032.8-.287a4.046,4.046,0,0,0-.382-4.3c-.064-.08-.4-.3-.4-.382s1.322-3.394,1.322-3.791c0-.208-.112-.208-.478-.208Zm9.287,3.442a.6.6,0,0,0,.574-.255c.223-.3.3-.431.478-.431.255,0,1.306.733,1.306.955,0,.113-.064.144-.319.288a.9.9,0,0,0-.334.509c-.908,2.788-.972,2.979-1.975,4.476a2.49,2.49,0,0,0-.287.494,6.973,6.973,0,0,0,3.3,2.613c.112.048.271.112.271.223,0,.063-.223.063-.446.063a2.039,2.039,0,0,0-1.036.287,4.107,4.107,0,0,1-.494.3,6.525,6.525,0,0,1-2.118-2.326c-.143-.207-.175-.27-.255-.27-.111,0-.143.031-.462.334a9.226,9.226,0,0,1-4.094,2.453c-.064,0-.143-.032-.143-.1s.143-.127.318-.207a11.2,11.2,0,0,0,3.839-3.456c0-.048-.015-.112-.255-.622a13.212,13.212,0,0,1-1.1-4.3c-.079-.541-.079-.605-.493-.605-.3,0-.3.143-.319.382a18.263,18.263,0,0,1-.366,3.489c-.765,3.807-3.3,5.448-3.792,5.448-.016,0-.111,0-.111-.048.1-.08.573-.51.653-.6,2.5-2.82,2.5-7.057,2.5-8.953,0-1.114-.064-2.278-.1-2.867-.016-.159-.143-.861-.143-1.02,0-.064.016-.127.1-.127a5.452,5.452,0,0,1,1.146.415,1.718,1.718,0,0,0,.861.207h2.914c.75,0,.829,0,1.037-.3.254-.4.35-.541.573-.541a4.042,4.042,0,0,1,1.545,1.051c0,.223-.319.223-.86.223h-5.511c-.207,0-.431.048-.447.367-.016.239,0,1.417,0,1.688,0,.542,0,.766.43.766Zm-2.533.429c-.238,0-.382,0-.382.223,0,.733,1.179,4.381,1.641,4.381s1.688-3.377,1.688-4.317c0-.287-.238-.287-.445-.287Z" fill="#1a1311"/>
    <path id="パス_294" data-name="パス 294" d="M292.681,17.3c-.3,0-.447-.1-.447-.334s.128-.351.447-.351h3.807c.429,0,.429-.1.429-2.007,0-1.784-.015-9.7-.015-11.327,0-.366.08-.509.335-.509.335,0,.335.111.335,1.051V16.645a.588.588,0,0,1-.67.653Z" fill="#1a1311"/>
    <path id="パス_295" data-name="パス 295" d="M301.842,14.813c0,.334,0,1.386-.605,1.386a.527.527,0,0,1-.478-.574,8.886,8.886,0,0,1,.175-.892,7.492,7.492,0,0,0,.176-1.354c0-.669,0-.716.1-.716a.328.328,0,0,1,.1.031,3.635,3.635,0,0,1,.541,2.119m3.76-4.174c.367,0,.4,0,.574-.159.207-.191.319-.3.414-.3.175,0,1,.573,1,.844,0,.1-.033.128-.3.478a1.058,1.058,0,0,0-.127.542,18.266,18.266,0,0,1-.527,3.234,2.646,2.646,0,0,1-1.894,1.959c-.145,0-.207-.031-.431-.414a1.957,1.957,0,0,0-.319-.366c-.032-.032-.27-.207-.27-.271s.175-.064.318-.064c1.116,0,1.338-.462,1.418-.637a12.874,12.874,0,0,0,.8-4.03c0-.383-.27-.383-.493-.383h-2.8a.388.388,0,0,0-.334.144c-.222.3-.271.382-.653.382-.366,0-.493-.127-.493-.494,0-.255.111-3.6.111-4.142,0-.621-.016-2.071-.064-2.644-.016-.1-.1-.637-.1-.749,0-.064,0-.1.049-.1.079,0,.812.3.971.366a2.009,2.009,0,0,0,.685.112h1.784c.654,0,.845,0,1-.271.224-.4.3-.51.51-.51.176,0,1.18.748,1.18.988,0,.222-.335.222-.861.222h-1.481c-.494,0-.494.112-.494.956,0,.558.031.8.446.8.335,0,.43,0,.558-.255.111-.191.287-.51.525-.51.223,0,.956.765.956.972,0,.223-.27.223-.733.223h-1.29c-.462,0-.462.08-.462,1.338a.4.4,0,0,0,.462.431c.239,0,.335,0,.462-.255.08-.176.239-.51.494-.51s1,.765,1,.987-.32.223-.845.223h-1.083c-.494,0-.494.128-.494,1.418,0,.414.238.446.478.446Zm-2.1,4.237c0,.51-.27.67-.461.67-.4,0-.462-.415-.479-1a7.778,7.778,0,0,0-.19-1.418,1.516,1.516,0,0,1-.048-.382c0-.143.063-.175.159-.143.462.175,1.019,1.768,1.019,2.277m0-8.745c.462,0,.462-.255.462-.86,0-.685,0-.893-.478-.893h-.461c-.479,0-.479.224-.479.877s0,.876.479.876Zm0,2.214c.462,0,.462-.239.462-.876,0-.685,0-.908-.462-.908h-.477c-.479,0-.479.223-.479.908,0,.637,0,.876.463.876Zm-.047,2.294c.509,0,.509-.207.509-.924,0-.7,0-.94-.462-.94h-.446c-.51,0-.51.207-.51.924s0,.94.495.94Zm.781,4.063c-.24,0-.24-.208-.272-.8a7.438,7.438,0,0,0-.175-1.147,4.753,4.753,0,0,1-.1-.573c0-.08,0-.176.063-.176a2.4,2.4,0,0,1,1,1.737c0,.653-.35.956-.525.956m1.545-1.514c0,.287-.144.526-.367.526-.287,0-.3-.1-.446-1.036a3.022,3.022,0,0,0-.207-.733.71.71,0,0,1-.032-.175c0-.08.032-.127.111-.111a2.073,2.073,0,0,1,.941,1.529m7.136-9.272a.444.444,0,0,0,.43-.174c.223-.335.351-.51.479-.51s.97.653.97.86a6.179,6.179,0,0,1-.349.733c-.048.191-.048,1.577-.048,1.863,0,.3.048,1.785.048,2.119a.783.783,0,0,1-.8.7c-.334,0-.351-.159-.4-.51-.015-.191-.031-.318-.429-.318H312.2a.38.38,0,0,0-.447.4,1.487,1.487,0,0,0,.033.255c.222,1.465.8,4.365,2.628,6.2a11.337,11.337,0,0,1,.971.924c0,.064-.1.079-.159.079s-.318-.032-.382-.032a5.546,5.546,0,0,0-.877.08c-.063.016-.366.144-.4.144-.079,0-.175-.176-.223-.239a13.946,13.946,0,0,1-2.007-7.153c-.048-.637-.08-.653-.462-.653h-.892c-.478,0-.478.095-.478.971a12.044,12.044,0,0,1-1.88,6.58c-.127.191-.764.955-.939.955a.089.089,0,0,1-.1-.079c0-.064.494-.844.589-1,1.386-2.6,1.386-6.005,1.386-7.248a40.884,40.884,0,0,0-.223-4.62c-.015-.1-.1-.541-.1-.653,0-.048,0-.159.064-.159a7.78,7.78,0,0,1,.971.366,1.992,1.992,0,0,0,.653.127Zm-2.979.415a.424.424,0,0,0-.382.239c-.064.175-.064,2.82-.064,3.138s.032.558.478.558h2.867a.429.429,0,0,0,.414-.176,28.941,28.941,0,0,0,.112-3.154c0-.446-.064-.605-.493-.605Z" fill="#1a1311"/>
    <path id="パス_296" data-name="パス 296" d="M323.817,8.489a13.644,13.644,0,0,0,4.461,3.059c.748.35,1.4.7,1.4,1.162,0,.1-.143.606-.589.606-.144,0-1.578-.048-3.951-2.326-.383-.366-2.087-2.087-2.437-2.421-.366-.351-.637-.558-.893-.558-.525,0-.668.144-1.974,1.418-.112.111-1.275,1.21-1.307,1.227a.446.446,0,0,1-.255.079c-.605,0-1.545-.749-1.545-1.019,0-.064.032-.08.3-.112a6.058,6.058,0,0,0,2.6-1.227c1.337-1.067,1.656-1.179,2.2-1.179.414,0,.939.239,1.991,1.291" fill="#1a1311"/>
    <path id="パス_297" data-name="パス 297" d="M367.765,7.278c.255,0,.494-.032.494-.462,0-1.418,0-1.5-.446-1.5h-3.648c-1.386,0-1.848.032-2.007.047-.048,0-.287.032-.334.032-.065,0-.1-.032-.144-.095l-.3-.367c-.063-.079-.08-.079-.08-.111s.033-.032.064-.032c.111,0,.605.048.7.048.781.032,1.434.064,2.183.064h3.52c.144,0,.479,0,.479-.415a4.286,4.286,0,0,0-.1-.86c-.016-.111-.192-.605-.192-.717,0-.1.1-.127.207-.127.048,0,1.61.223,1.61.478,0,.048-.224.27-.272.318-.111.112-.159.24-.159.606,0,.462,0,.717.478.717h2.422c.669,0,.843,0,1.019-.271.479-.765.526-.845.717-.845.271,0,1.2.877,1.4,1.02.032.016.239.175.239.287,0,.223-.3.223-.844.223H369.82c-.478,0-.478.3-.478.462,0,1.481,0,1.5.494,1.5h.892a.944.944,0,0,0,.845-.4c.111-.175.207-.287.335-.287a3.891,3.891,0,0,1,1.4.908,3.9,3.9,0,0,1-.462.813.854.854,0,0,0-.111.509c0,.845.111,4.524.111,5.289,0,.733,0,1.067-.845,1.067-.239,0-.366,0-.4-.445-.032-.335-.128-.447-.526-.447h-3.648a.357.357,0,0,0-.4.351,3.216,3.216,0,0,1-.016.446.782.782,0,0,1-.717.35c-.319,0-.542-.143-.542-.589,0-.287.048-1.529.048-1.784,0-2.931-.1-5.146-.128-5.448-.015-.144-.111-.749-.111-.86,0-.064.032-.08.1-.08.174,0,.222.032.844.366a1.937,1.937,0,0,0,.955.239Zm-3.7,9.288a.429.429,0,0,0-.383.222.878.878,0,0,1-.828.526.452.452,0,0,1-.494-.478c0-.541.111-3.17.111-3.759,0-.542-.016-4.333-.111-4.62a5.139,5.139,0,0,1-.207-.526c0-.143.143-.143.191-.143.238,0,1.641.446,1.641.749,0,.1-.3.414-.334.51-.08.207-.08,4.109-.08,4.524A17.574,17.574,0,0,0,363.7,15.9a.489.489,0,0,0,.478.255h8.141c.621,0,.716-.032.8-.127.128-.159.637-.988.8-.988.048,0,1.785.876,1.785,1.338,0,.192-.08.192-.845.192Zm3.17-8.874c-.43,0-.43.287-.43.733,0,.781,0,1.051.445,1.051h3.936c.445,0,.445-.238.445-.891s0-.893-.445-.893Zm.08,2.2a.412.412,0,0,0-.479.462c0,1.2.064,1.306.494,1.306h3.839c.478,0,.478-.191.478-.876,0-.7,0-.892-.478-.892Zm.031,2.182a.393.393,0,0,0-.446.43c0,1.243.128,1.354.477,1.354h3.792c.462,0,.462-.239.462-.892s0-.892-.462-.892Z" fill="#1a1311"/>
    <path id="パス_298" data-name="パス 298" d="M377.314,9.572c-.08-.08-.08-.08-.08-.1,0-.032.032-.047.064-.047.287,0,1.672.111,1.991.111.286,0,.366-.064.589-.319.351-.4.4-.446.479-.446s1.019.558,1.019.845a.128.128,0,0,1-.032.1,3.61,3.61,0,0,1-.4.287c-.094.1-.094.271-.094,1.943,0,2.215,0,2.5.4,2.995.734.94,3.139.94,4.238.94a30.542,30.542,0,0,0,5.894-.462,5.43,5.43,0,0,1,.541-.1c.032,0,.1,0,.1.063,0,.016-.016.08-.127.144a1.5,1.5,0,0,0-.765.669c-.048.1-.143.637-.239.717-.031.016-1.816.016-2.07.016a25.549,25.549,0,0,1-5.8-.414,3.244,3.244,0,0,1-1.991-1.291c-.128-.191-.558-1.226-.7-1.226a9.836,9.836,0,0,0-1.672,2.357c-.016.494-.032.542-.175.542-.3,0-1.132-1.131-1.132-1.37,0-.112.176-.159.335-.207a6.189,6.189,0,0,0,1.481-.861c.67-.493.67-.509.67-1.194,0-.367.031-2.263.031-2.677-.015-.541-.1-.621-.541-.621a11.432,11.432,0,0,0-1.338.048c-.033,0-.191.032-.223.032-.064,0-.1-.032-.144-.111Zm3.106-3.107c-.27,0-.4-.111-.638-.541a10.053,10.053,0,0,0-1.5-1.816c-.1-.1-.621-.589-.621-.606,0-.063.1-.063.144-.063.318,0,3.122.956,3.122,2.469a.512.512,0,0,1-.51.557m7.472-2.8c.556,0,.684,0,.875-.143.08-.064.463-.558.59-.558.143,0,1.433.8,1.433,1.1,0,.111-.1.175-.207.207s-.717.144-.844.192c-.318.127-1.784,1.051-2.119,1.258-.08.048-.541.35-.541.462,0,.048.175.239.192.286.047.08.047.176.047.431,0,.079.08.079.3.079h1.625a.811.811,0,0,0,.526-.127c.064-.032.367-.3.463-.3.207,0,.955.526.955.717,0,.128-.127.207-.255.3-.191.127-.191.207-.191.478,0,2.214,0,2.453.047,3.568.049.972.049,1.625.049,1.832a1.416,1.416,0,0,1-1.243,1.673.281.281,0,0,1-.271-.176,2.708,2.708,0,0,0-.16-.43c-.079-.111-.684-.462-.684-.526,0-.1.8-.159.94-.207.4-.143.4-.254.4-1.4,0-.335,0-.59-.479-.59h-1.736c-.462,0-.494.239-.494.558v.605c0,.176.064,1.068.064,1.275,0,.286-.032.716-.749.716-.335,0-.383-.4-.383-.653,0-.3.112-1.736.112-2.071,0-.43-.3-.43-.478-.43h-1.5c-.51,0-.51.128-.51.988,0,.207.033,1.243.033,1.465,0,.877-.574.892-.67.892-.462,0-.494-.35-.494-.8,0-.159.032-.765.049-.908.047-.621.063-1.115.063-2.453,0-.59-.063-3.505-.063-4.174,0-.128,0-.223.1-.223.031,0,.811.271.875.287a1.9,1.9,0,0,0,.749.111h1.546c.1,0,.19,0,.19-.127a3.017,3.017,0,0,0-.924-1c-.35-.255-.414-.286-.414-.382,0-.08.159-.08.207-.08a3.935,3.935,0,0,1,1.116.224,5.274,5.274,0,0,0,.684.286A5.285,5.285,0,0,0,388.274,4.2c0-.128-.1-.128-.3-.128h-2.453c-.382,0-1.45,0-2.007.048-.049,0-.287.032-.335.032-.064,0-.1-.032-.144-.1l-.3-.366c-.08-.08-.08-.08-.08-.112s.033-.032.064-.032c.1,0,.59.048.7.048.446.016,1.274.064,2.182.064Zm-3.729,5.974a.468.468,0,0,0-.445.191c-.049.1-.049.175-.049,1,0,.27,0,.525.494.525h1.5c.494,0,.494-.175.494-.924,0-.589,0-.8-.494-.8Zm-.015-2.246c-.462,0-.462.127-.462,1.258,0,.255,0,.558.462.558h1.529c.462,0,.462-.112.462-1.227,0-.287,0-.589-.462-.589Zm5.1,1.816c.494,0,.494-.1.494-1.068,0-.541,0-.748-.494-.748h-1.673c-.493,0-.493.143-.493,1.019,0,.621,0,.8.493.8Zm.1,2.15c.462,0,.462-.239.462-.621,0-.988,0-1.1-.462-1.1h-1.784c-.462,0-.462.111-.462,1.067,0,.43,0,.653.462.653Z" fill="#1a1311"/>
    <path id="パス_299" data-name="パス 299" d="M394.649,16.487h1.266c1.195,0,1.609-.46,1.609-1.4V2.644c0-.713-.667-.828-1.1-.828h-1.748V1.1h.414a8.843,8.843,0,0,0,3.749-.966c.161-.091.23-.137.322-.137.207,0,.252.137.252.321V15.084c0,.989.483,1.4,1.61,1.4h1.265v.736h-7.635Z" fill="#1a1311"/>
    <path id="パス_300" data-name="パス 300" d="M413.945,9.4a4.269,4.269,0,0,1,1.563,3.4c0,2.829-2.322,4.852-5.357,4.852-2.483,0-4.576-1.4-4.576-3.242a1.326,1.326,0,0,1,1.31-1.471,1.125,1.125,0,0,1,1.127,1.149,1.9,1.9,0,0,1-.137.736,1.634,1.634,0,0,0-.07.529c0,.874.989,1.518,2.071,1.518a3.93,3.93,0,0,0,3.563-4.071c0-2.368-1.747-4.208-3.587-4.208-.138,0-.782.092-.92.092a.454.454,0,0,1-.506-.483.521.521,0,0,1,.53-.529c.137,0,.827.139.988.139a3.336,3.336,0,0,0,3.15-3.588c0-1.793-1.081-3.449-2.9-3.449a1.723,1.723,0,0,0-1.862,1.54,1.924,1.924,0,0,0,.068.346,2.207,2.207,0,0,1,.069.551A1.214,1.214,0,0,1,407.3,4.484a1.191,1.191,0,0,1-1.149-1.265c0-1.264,1.472-3.219,4.415-3.219,2.828,0,4.6,1.84,4.6,3.863a3.976,3.976,0,0,1-.851,2.346,5.464,5.464,0,0,1-2.92,1.954A6.167,6.167,0,0,1,413.945,9.4" fill="#1a1311"/>
    <path id="パス_301" data-name="パス 301" d="M427.745.437V1.656c-3.656,5.634-4.944,8.83-5.243,13.957-.046.6-.115,2.047-1.288,2.047a1.215,1.215,0,0,1-1.172-1.265c0-1.632,1.609-6.461,6.461-14.142h-3.932c-3.334,0-3.84,1.541-4.346,3.013l-.69-.161.942-4.668Z" fill="#1a1311"/>
    <path id="パス_302" data-name="パス 302" d="M439.12,6.275c0,.159-.111.191-.445.271a3.541,3.541,0,0,0-.8,1.083,10.326,10.326,0,0,1-4.73,4.413.084.084,0,0,1-.1-.1c0-.1.031-.111.334-.35a13.746,13.746,0,0,0,3.584-4.811c.111-.239.526-1.593.542-1.593.111-.048,1.608.812,1.608,1.083m1.546,4.652c-.414,0-.414.032-.51.876a6.709,6.709,0,0,1-3.217,5.7,10.4,10.4,0,0,1-3.043,1.035c-.048,0-.192,0-.192-.111,0-.08.08-.112.367-.207a9.128,9.128,0,0,0,3.138-1.928,7.722,7.722,0,0,0,1.8-5.018c0-.35-.158-.35-.4-.35h-.477c-.589,0-1.355.016-1.641.032a2.955,2.955,0,0,1-.335.047c-.063,0-.1-.047-.142-.111l-.319-.367c-.048-.064-.064-.079-.064-.1,0-.032.016-.048.064-.048.112,0,.589.064.7.064.78.032,1.434.048,2.182.048h3.488c.717,0,.8-.033,1.052-.3.239-.255.382-.351.494-.351.255,0,1.179.733,1.179,1.068,0,.079-.255.366-.287.43-.08.159-.175,1.975-.207,2.342-.175,1.927-.3,3.233-.748,3.95a2.4,2.4,0,0,1-1.625.956c-.176,0-.176-.048-.3-.494-.1-.366-.638-.573-1.466-.812-.35-.1-.526-.159-.526-.255s.145-.1.176-.1a6.245,6.245,0,0,1,.621.112,9.352,9.352,0,0,0,1.131.127c.765,0,1.195-.143,1.418-1.784.16-1.227.318-3.074.318-3.887,0-.43-.031-.573-.478-.573Zm.8-5.13c-.4,0-.939.016-1.273.032-.049,0-.272.032-.319.032s-.064-.016-.128-.1l-.3-.366a.168.168,0,0,1-.048-.112c0-.015.015-.032.048-.032.1,0,.557.064.653.064.175.016.844.048.955.048a.817.817,0,0,0,.67-.414c.318-.446.349-.494.477-.494.207,0,1.386.8,1.386,1.147,0,.159-.048.175-.477.287-.08.016-.32.095-.32.334,0,.829,2.1,3.362,4.8,3.632.049,0,.239.032.239.128,0,.08-.414.175-.477.191a3.292,3.292,0,0,0-.972.733c-.032.048-.207.239-.255.239-.542,0-3.17-2.2-3.807-4.6-.175-.685-.207-.749-.574-.749Z" fill="#1a1311"/>
    <line id="線_6" data-name="線 6" x2="214.205" transform="translate(234.193 39.846)" fill="none" stroke="#1a1311" stroke-miterlimit="10" stroke-width="0.412"/>
  </g>
</svg>
