<svg id="network02" xmlns="http://www.w3.org/2000/svg" width="214.205" height="40.052" viewBox="0 0 214.205 40.052">
  <path id="パス_222" data-name="パス 222" d="M172.553,31.489a3.891,3.891,0,0,1,.417.5.057.057,0,0,1-.06.051,5.02,5.02,0,0,1,0-8.091.057.057,0,0,1,.06.051,3.962,3.962,0,0,1-.417.5,5.6,5.6,0,0,0,0,6.986" fill="#1a1311"/>
  <path id="パス_223" data-name="パス 223" d="M177.585,26.482c.136,0,.263-.017.263-.246,0-.757,0-.8-.238-.8h-1.946c-.739,0-.986.017-1.071.026-.025,0-.153.016-.178.016s-.051-.016-.077-.05l-.162-.2c-.033-.042-.042-.042-.042-.059s.017-.017.034-.017c.06,0,.323.025.374.025.417.017.765.034,1.164.034h1.879c.076,0,.255,0,.255-.221a2.3,2.3,0,0,0-.051-.459c-.009-.059-.1-.323-.1-.382s.051-.068.11-.068c.025,0,.859.119.859.255,0,.025-.119.144-.145.17-.059.059-.085.127-.085.322,0,.247,0,.383.255.383h1.292c.357,0,.451,0,.544-.144.255-.408.281-.451.382-.451.145,0,.638.468.748.544.017.009.128.094.128.153,0,.119-.161.119-.451.119h-2.643c-.255,0-.255.162-.255.247,0,.79,0,.8.264.8h.476a.5.5,0,0,0,.45-.212c.06-.093.11-.153.179-.153a2.065,2.065,0,0,1,.747.485,2.1,2.1,0,0,1-.246.433.458.458,0,0,0-.059.272c0,.45.059,2.414.059,2.822,0,.391,0,.569-.451.569-.127,0-.2,0-.212-.238-.017-.178-.068-.238-.28-.238h-1.947a.19.19,0,0,0-.212.187,1.622,1.622,0,0,1-.009.238.416.416,0,0,1-.382.187c-.17,0-.289-.076-.289-.314,0-.153.025-.816.025-.952,0-1.564-.05-2.745-.068-2.907-.008-.077-.059-.4-.059-.459,0-.034.017-.042.051-.042.093,0,.119.017.45.195a1.032,1.032,0,0,0,.51.127Zm-1.972,4.955a.228.228,0,0,0-.2.12.469.469,0,0,1-.442.28.241.241,0,0,1-.264-.255c0-.289.06-1.691.06-2.006,0-.289-.008-2.311-.06-2.465a2.812,2.812,0,0,1-.11-.28c0-.077.077-.077.1-.077.127,0,.876.239.876.4,0,.051-.162.221-.179.272-.043.111-.043,2.193-.043,2.414a9.427,9.427,0,0,0,.068,1.241.264.264,0,0,0,.256.136h4.342c.332,0,.383-.017.426-.069.068-.085.34-.526.424-.526.026,0,.952.467.952.713,0,.1-.042.1-.45.1ZM177.3,26.7c-.229,0-.229.152-.229.391,0,.416,0,.56.238.56h2.1c.238,0,.238-.127.238-.475s0-.476-.238-.476Zm.043,1.172a.22.22,0,0,0-.255.247c0,.637.034.7.263.7H179.4c.254,0,.254-.1.254-.467s0-.477-.254-.477Zm.017,1.165a.21.21,0,0,0-.238.229c0,.663.068.723.255.723H179.4c.246,0,.246-.128.246-.476s0-.476-.246-.476Z" fill="#1a1311"/>
  <path id="パス_224" data-name="パス 224" d="M182.677,27.707c-.042-.042-.042-.042-.042-.051s.017-.025.034-.025c.153,0,.892.059,1.062.059.153,0,.2-.034.314-.17.187-.212.213-.237.256-.237s.543.3.543.45a.071.071,0,0,1-.017.051,1.94,1.94,0,0,1-.212.153c-.051.051-.051.144-.051,1.036,0,1.182,0,1.335.212,1.6.391.5,1.674.5,2.261.5a16.285,16.285,0,0,0,3.145-.247c.042-.008.238-.051.289-.051.017,0,.051,0,.051.034,0,.009-.009.043-.068.077a.793.793,0,0,0-.408.357c-.026.051-.077.34-.128.382-.017.009-.969.009-1.1.009a13.643,13.643,0,0,1-3.094-.221,1.73,1.73,0,0,1-1.062-.689c-.068-.1-.3-.654-.374-.654a5.237,5.237,0,0,0-.892,1.258c-.008.263-.017.289-.093.289-.162,0-.6-.6-.6-.731,0-.06.093-.085.178-.111a3.31,3.31,0,0,0,.791-.458c.357-.264.357-.272.357-.638,0-.2.017-1.207.017-1.428-.008-.289-.051-.331-.289-.331a6.091,6.091,0,0,0-.714.025c-.017,0-.1.017-.119.017-.034,0-.051-.017-.076-.059Zm1.657-1.657c-.144,0-.212-.059-.34-.289a5.459,5.459,0,0,0-.8-.969c-.052-.051-.332-.315-.332-.323,0-.034.051-.034.077-.034.17,0,1.665.51,1.665,1.317a.273.273,0,0,1-.272.3m3.987-1.5c.3,0,.365,0,.467-.077.042-.033.246-.3.314-.3s.765.425.765.586c0,.06-.051.094-.11.111s-.383.076-.451.1c-.17.068-.952.561-1.13.672-.042.025-.289.186-.289.246,0,.025.094.127.1.153.025.043.025.093.025.23,0,.042.043.042.162.042h.867a.431.431,0,0,0,.28-.068c.034-.017.2-.161.247-.161.11,0,.51.28.51.382,0,.068-.068.11-.136.162-.1.067-.1.11-.1.254,0,1.182,0,1.309.025,1.9.026.519.026.867.026.978a.754.754,0,0,1-.663.892.151.151,0,0,1-.145-.093,1.421,1.421,0,0,0-.085-.23c-.042-.059-.365-.246-.365-.281,0-.05.425-.085.5-.11.213-.077.213-.136.213-.748,0-.178,0-.315-.255-.315h-.927c-.246,0-.263.128-.263.3v.323c0,.093.034.569.034.68,0,.153-.017.383-.4.383-.178,0-.2-.213-.2-.349,0-.162.059-.926.059-1.1,0-.23-.161-.23-.255-.23h-.8c-.272,0-.272.069-.272.527,0,.111.017.663.017.783,0,.467-.306.476-.357.476-.246,0-.263-.187-.263-.426,0-.085.017-.407.025-.484.026-.332.034-.595.034-1.309,0-.314-.034-1.87-.034-2.227,0-.068,0-.119.051-.119.017,0,.434.145.468.154a1.022,1.022,0,0,0,.4.059h.825c.05,0,.1,0,.1-.068a1.622,1.622,0,0,0-.493-.535c-.187-.137-.222-.154-.222-.2s.086-.042.111-.042a2.086,2.086,0,0,1,.6.119,2.742,2.742,0,0,0,.366.153,2.838,2.838,0,0,0,.833-.9c0-.068-.052-.068-.162-.068h-1.309c-.2,0-.773,0-1.071.026-.025,0-.153.017-.178.017s-.051-.017-.077-.052l-.161-.2c-.043-.042-.043-.042-.043-.059s.017-.018.034-.018c.051,0,.315.026.374.026.238.009.68.034,1.164.034Zm-1.989,3.187a.251.251,0,0,0-.238.1c-.026.051-.026.094-.026.536,0,.144,0,.28.264.28h.8c.263,0,.263-.093.263-.493,0-.314,0-.425-.263-.425Zm-.009-1.2c-.247,0-.247.068-.247.671,0,.136,0,.3.247.3h.816c.247,0,.247-.06.247-.655,0-.153,0-.314-.247-.314Zm2.72.969c.263,0,.263-.051.263-.57,0-.289,0-.4-.263-.4h-.892c-.264,0-.264.076-.264.544,0,.331,0,.425.264.425Zm.051,1.147c.246,0,.246-.127.246-.332,0-.526,0-.586-.246-.586h-.952c-.247,0-.247.06-.247.57,0,.229,0,.348.247.348Z" fill="#1a1311"/>
  <path id="パス_225" data-name="パス 225" d="M193.616,28.76a1.43,1.43,0,0,1-.739.222,1.738,1.738,0,0,1-1.522-1.887,2.121,2.121,0,0,1,1.819-2.236c.97,0,1.955,1.105,1.955,2.933,0,1.963-1.1,3.595-2.4,3.595-.569,0-.969-.341-.969-.74a.425.425,0,0,1,.434-.442c.169,0,.45.111.467.587.009.187.026.306.255.306a.832.832,0,0,0,.62-.3,4.461,4.461,0,0,0,.833-2.847,2.172,2.172,0,0,1-.748.807m.281-3.153a.843.843,0,0,0-.688-.458c-.451,0-1.088.475-1.088,1.869,0,.391.093,1.581.968,1.581.324,0,.868-.238,1.267-1.156a4.12,4.12,0,0,0-.459-1.836" fill="#1a1311"/>
  <path id="パス_226" data-name="パス 226" d="M199.141,31.225H195.8V31a5.744,5.744,0,0,1,1.249-1.9c1.25-1.445,1.674-1.929,1.674-2.78a1.092,1.092,0,0,0-1.13-1.164c-.6,0-.952.357-.952.663a.473.473,0,0,0,.085.264.729.729,0,0,1,.179.424.472.472,0,0,1-.459.476.536.536,0,0,1-.485-.6,1.7,1.7,0,0,1,1.828-1.521,1.551,1.551,0,0,1,1.7,1.581c0,.858-.494,1.326-1.258,1.98a7.382,7.382,0,0,0-1.836,2.134h1.173c1.19,0,1.47-.459,1.725-1.165l.255.094Z" fill="#1a1311"/>
  <path id="パス_227" data-name="パス 227" d="M203.6,25.242c0,.085-.059.1-.238.144a1.881,1.881,0,0,0-.425.579,5.5,5.5,0,0,1-2.524,2.354.045.045,0,0,1-.051-.051c0-.052.017-.06.179-.187a7.334,7.334,0,0,0,1.912-2.567c.06-.128.28-.85.289-.85.06-.026.858.433.858.578m.825,2.482c-.221,0-.221.016-.272.467a3.579,3.579,0,0,1-1.717,3.043,5.532,5.532,0,0,1-1.623.552c-.026,0-.1,0-.1-.059,0-.043.042-.06.2-.111a4.848,4.848,0,0,0,1.674-1.028,4.121,4.121,0,0,0,.961-2.677c0-.187-.085-.187-.212-.187h-.255c-.315,0-.723.008-.876.016a1.405,1.405,0,0,1-.179.026c-.033,0-.05-.026-.076-.059l-.17-.2c-.026-.034-.034-.043-.034-.051s.008-.025.034-.025c.059,0,.314.033.374.033.416.018.765.026,1.164.026h1.862c.382,0,.425-.017.561-.161s.2-.187.263-.187c.136,0,.629.391.629.569,0,.043-.136.2-.153.23-.042.084-.093,1.054-.11,1.249a5.653,5.653,0,0,1-.4,2.108,1.281,1.281,0,0,1-.867.51c-.093,0-.093-.026-.161-.264-.051-.195-.34-.306-.782-.433-.187-.051-.281-.085-.281-.136s.077-.051.094-.051c.059,0,.289.051.331.059a4.851,4.851,0,0,0,.6.068c.407,0,.637-.076.756-.952.085-.654.17-1.64.17-2.074,0-.229-.017-.3-.255-.3Zm.425-2.737c-.213,0-.5.008-.68.017-.026,0-.145.017-.17.017s-.034-.009-.068-.051l-.162-.195a.092.092,0,0,1-.025-.06c0-.009.008-.017.025-.017.051,0,.3.034.349.034.093.008.45.026.51.026a.435.435,0,0,0,.357-.222c.17-.237.187-.263.255-.263.11,0,.739.425.739.612,0,.085-.026.093-.255.153-.042.009-.17.051-.17.178a3.18,3.18,0,0,0,2.559,1.938c.025,0,.127.017.127.068s-.221.094-.255.1a1.763,1.763,0,0,0-.518.391c-.017.025-.111.127-.137.127a4.258,4.258,0,0,1-2.031-2.456c-.093-.365-.11-.4-.306-.4Z" fill="#1a1311"/>
  <path id="パス_228" data-name="パス 228" d="M209.681,24.5a4.033,4.033,0,0,1-.417-.5.057.057,0,0,1,.06-.052,5.021,5.021,0,0,1,0,8.092.058.058,0,0,1-.06-.051,3.894,3.894,0,0,1,.417-.5,5.6,5.6,0,0,0,0-6.986" fill="#1a1311"/>
  <path id="パス_229" data-name="パス 229" d="M6.847,2.929c.3,0,.446.1.446.334s-.127.351-.446.351H3.04c-.43,0-.43.1-.43,2.007,0,1.784.016,9.7.016,11.327,0,.366-.08.509-.335.509-.35,0-.35-.111-.35-1.051V3.582a.6.6,0,0,1,.685-.653Z" fill="#1a1311"/>
  <path id="パス_230" data-name="パス 230" d="M20.155,11.5a.6.6,0,0,0,.573-.239c.175-.223.271-.319.382-.319s1.307.606,1.307.909a.328.328,0,0,1-.128.254,1.565,1.565,0,0,0-.318.255,5.427,5.427,0,0,0-.16,1.928c0,.286.1,1.72.1,2.039,0,.254-.048.8-.844.8-.383,0-.431-.175-.431-.7,0-.366-.318-.366-.477-.366H15.392c-.494,0-.494.159-.494.573a.636.636,0,0,1-.112.414,1.1,1.1,0,0,1-.685.319c-.334,0-.478-.255-.478-.589,0-.1.048-.749.048-.877.032-.382.048-.923.048-1.847,0-.51-.016-.972-.032-1.5,0-.191-.032-.286-.127-.286a1.692,1.692,0,0,0-.4.143,17.493,17.493,0,0,1-3.52,1.211c-.064,0-.159-.017-.159-.1,0-.048.047-.1.445-.255a20.714,20.714,0,0,0,7.886-5.336A9.4,9.4,0,0,0,19.39,5.605c0-.144-.175-.144-.255-.144H15.248c-.494,0-.541.065-1,.526C12.6,7.691,10.66,9.03,10.2,9.03c-.048,0-.1-.016-.1-.064,0-.016.923-.845,1.083-.987.621-.59,3.059-3.075,3.584-4.764.048-.159.08-.333.192-.333.143,0,1.5.62,1.5.827,0,.079-.4.287-.478.35a6.329,6.329,0,0,0-.717.877c0,.112.1.112.319.112h3.568a.561.561,0,0,0,.558-.286c.334-.448.366-.495.525-.495.191,0,1.466.495,1.466.812,0,.144-.032.176-.478.463a2.388,2.388,0,0,0-.59.7,18.686,18.686,0,0,1-4.938,4.81c-.287.191-.318.207-.318.287,0,.159.254.159.478.159Zm-4.27-2.772a.757.757,0,0,1-.716.86c-.255,0-.271-.064-.495-.78a4.32,4.32,0,0,0-.669-1.433c-.127-.207-.159-.256-.159-.3a.084.084,0,0,1,.048-.078c.08,0,1.991.413,1.991,1.735M15.3,11.913c-.1,0-.351,0-.43.207a12.18,12.18,0,0,0-.048,1.37,18.323,18.323,0,0,0,.064,1.944c.08.207.318.207.43.207h4.875c.27,0,.414-.1.445-.239.048-.223.064-1.912.064-2.23,0-1.132,0-1.259-.478-1.259Z" fill="#1a1311"/>
  <path id="パス_231" data-name="パス 231" d="M31.535,10.831c.176,0,.494,0,.494-.446,0-.431.016-2.358,0-2.74a.4.4,0,0,0-.462-.415h-3.3c-1.4,0-1.864.033-2.008.048-.063,0-.286.032-.35.032-.048,0-.08-.032-.127-.095l-.319-.367c-.064-.08-.064-.08-.064-.111s.016-.032.064-.032c.1,0,.589.048.7.048.78.032,1.434.063,2.182.063h3.2c.271,0,.478-.063.478-.43a19.262,19.262,0,0,0-.08-3.027c-.015-.079-.159-.446-.159-.525a.147.147,0,0,1,.159-.144c.1,0,1.291.255,1.594.351.111.032.19.1.19.207s-.318.382-.366.462a6.751,6.751,0,0,0-.143,1.752c0,1.291,0,1.354.494,1.354h3.058c.669,0,.749,0,.908-.143.144-.127.542-.908.7-.908a9.872,9.872,0,0,1,1.29.956c.033.016.255.175.255.287,0,.222-.318.222-.86.222H33.718c-.494,0-.494.016-.494,1.657,0,.223,0,1.593.032,1.689a.419.419,0,0,0,.462.255h1.864a.934.934,0,0,0,.812-.335c.111-.159.175-.239.287-.239s1.418.813,1.418,1.02c0,.079-.367.334-.415.4a.805.805,0,0,0-.143.51c0,.637.111,3.616.111,4.014a.811.811,0,0,1-.8.892c-.51,0-.526-.239-.541-.557s-.16-.4-.495-.4h-6.4c-.271,0-.478.1-.494.382a.766.766,0,0,1-.844.8c-.478,0-.51-.334-.51-.733,0-.207.047-1.147.063-1.354.032-.732.032-1.035.032-1.544,0-.813,0-2.454-.015-2.757,0-.079-.048-.446-.048-.525,0-.048,0-.128.095-.128a9.041,9.041,0,0,1,1.083.414,2.518,2.518,0,0,0,.892.144Zm-2.2.414c-.144,0-.478.016-.478.43,0,.35.016,3.728.032,3.792a.409.409,0,0,0,.446.255h6.547c.143,0,.478,0,.478-.431,0-.35,0-3.712-.032-3.791a.419.419,0,0,0-.446-.255Z" fill="#1a1311"/>
  <path id="パス_232" data-name="パス 232" d="M53.112,3.949c.319,0,.366-.08.526-.319.127-.191.239-.271.287-.271s1.385.526,1.385.908a.377.377,0,0,1-.238.335c-.192.095-.271.175-.271.35,0,.048.079.845.079,1,0,.971-.685,1.035-.86,1.035-.287,0-.366-.127-.478-.334-.064-.111-.175-.159-.43-.159h-8.2c-.526,0-.526.127-.526.939,0,3.394-.414,6.739-2.214,8.921a3.035,3.035,0,0,1-.589.558.086.086,0,0,1-.08-.08c.064-.127.207-.382.255-.462.8-1.545,1.5-3.425,1.5-7.805,0-1.434-.127-3.3-.191-3.744-.016-.159-.191-.956-.191-1.131,0-.048.032-.287.255-.287a6.565,6.565,0,0,1,.972.382,1.692,1.692,0,0,0,.8.16ZM52,13.571c.717,0,.8,0,1.036-.287.462-.558.509-.606.652-.606.112,0,1.45.876,1.45,1.084,0,.175-.127.223-.844.223h-3.25c-.509,0-.509.239-.509.717,0,1.274,0,1.417.493,1.417h1.737c.573,0,.685-.031.764-.127.112-.128.542-.844.7-.844.1,0,1.689.94,1.689,1.163,0,.175-.144.222-.829.222h-8.7c-1.068,0-1.673.017-2.023.048-.048,0-.287.032-.335.032s-.08-.032-.143-.1l-.3-.367c-.048-.048-.064-.08-.064-.111s.016-.032.048-.032c.112,0,.6.048.7.048.78.047,1.45.063,2.183.063h2.453c.477,0,.477-.127.477-1.242,0-.7,0-.892-.462-.892h-.748c-1.179,0-1.641.016-2.008.047-.047,0-.286.032-.334.032-.064,0-.1-.032-.143-.1l-.3-.367c-.032-.048-.08-.079-.08-.111s.032-.032.064-.032c.111,0,.6.048.7.048.78.032,1.593.064,2.182.064h.621c.463,0,.463-.271.463-.558,0-.318,0-1.4-.574-1.4-.063,0-2.421.3-2.6.382-.1.032-.414.383-.509.383-.112,0-.143-.048-.287-.351a8.575,8.575,0,0,1-.669-1.561c0-.063.048-.08.1-.08a2.907,2.907,0,0,1,.3.16,3.144,3.144,0,0,0,.908.111c.239.016,1.259.048,1.466.048.494,0,.669-.207.876-.653A8.4,8.4,0,0,0,48.843,8.7c0-.255-.223-.255-.383-.255h-.509c-1.227,0-1.641.016-2.007.048-.064,0-.287.032-.351.032-.048,0-.064-.032-.127-.1l-.319-.382c-.048-.048-.064-.08-.064-.1,0-.032.016-.032.064-.032.1,0,.589.048.7.048.78.032,1.434.048,2.182.048h4.349c.749,0,.828,0,.972-.111.144-.128.733-.781.892-.781.112,0,1.274.892,1.274,1.1s-.175.223-.844.223H50.006c-.08,0-.128,0-.128.048,0,.032.431.446.431.558,0,.1-.431.207-.495.27a7.167,7.167,0,0,0-.955,1.211c0,.175.3.175.43.175.4,0,2.931-.1,3.473-.127.064,0,.255-.016.255-.144,0-.175-.94-1.051-.94-1.147a.074.074,0,0,1,.079-.079,9.727,9.727,0,0,1,1.5.733c1.258.716,1.7.987,1.7,1.768,0,.493-.271.8-.637.8-.255,0-.287-.048-.749-.812-.414-.7-.494-.733-.717-.733-.048,0-2.644.4-3.042.446-.207.032-.383.048-.383.127,0,.16,1.116.415,1.116.669,0,.112-.048.16-.255.351-.112.112-.112.159-.112.622,0,.4.3.4.478.4ZM44.892,4.363c-.175,0-.542,0-.542.414,0,1.243,0,1.291.558,1.291h8.125c.493,0,.573-.112.573-1.132,0-.334-.016-.573-.542-.573Z" fill="#1a1311"/>
  <path id="パス_233" data-name="パス 233" d="M58.487,17.3c-.3,0-.446-.1-.446-.334s.127-.351.446-.351h3.807c.43,0,.43-.1.43-2.007,0-1.784-.016-9.7-.016-11.327,0-.366.08-.509.335-.509.335,0,.335.111.335,1.051V16.645a.587.587,0,0,1-.67.653Z" fill="#1a1311"/>
  <path id="パス_234" data-name="パス 234" d="M67.65,14.813c0,.334,0,1.386-.606,1.386a.527.527,0,0,1-.478-.574,8.864,8.864,0,0,1,.176-.892,7.574,7.574,0,0,0,.175-1.354c0-.669,0-.716.1-.716a.319.319,0,0,1,.1.031,3.626,3.626,0,0,1,.542,2.119m3.759-4.174c.367,0,.4,0,.574-.159.207-.191.319-.3.414-.3.175,0,1,.573,1,.844,0,.1-.033.128-.3.478a1.046,1.046,0,0,0-.127.542,18.327,18.327,0,0,1-.526,3.234,2.649,2.649,0,0,1-1.9,1.959c-.143,0-.207-.031-.43-.414a1.957,1.957,0,0,0-.319-.366c-.032-.032-.27-.207-.27-.271s.175-.064.318-.064c1.115,0,1.338-.462,1.418-.637a12.874,12.874,0,0,0,.8-4.03c0-.383-.27-.383-.493-.383h-2.8a.388.388,0,0,0-.335.144c-.223.3-.271.382-.653.382-.366,0-.493-.127-.493-.494,0-.255.111-3.6.111-4.142,0-.621-.016-2.071-.064-2.644-.016-.1-.1-.637-.1-.749,0-.064,0-.1.048-.1.079,0,.812.3.971.366a2.009,2.009,0,0,0,.685.112h1.784c.653,0,.845,0,1-.271.223-.4.3-.51.51-.51.175,0,1.178.748,1.178.988,0,.222-.334.222-.86.222H71.075c-.494,0-.494.112-.494.956,0,.558.032.8.446.8.335,0,.43,0,.557-.255.112-.191.287-.51.526-.51.223,0,.956.765.956.972,0,.223-.271.223-.733.223h-1.29c-.462,0-.462.08-.462,1.338a.4.4,0,0,0,.462.431c.239,0,.334,0,.462-.255.079-.176.239-.51.494-.51s1,.765,1,.987-.319.223-.844.223H71.075c-.494,0-.494.128-.494,1.418,0,.414.239.446.478.446Zm-2.1,4.237c0,.51-.271.67-.461.67-.4,0-.462-.415-.478-1a7.875,7.875,0,0,0-.191-1.418,1.515,1.515,0,0,1-.048-.382c0-.143.063-.175.159-.143.462.175,1.019,1.768,1.019,2.277m0-8.745c.462,0,.462-.255.462-.86,0-.685,0-.893-.478-.893h-.462c-.478,0-.478.224-.478.877s0,.876.478.876Zm0,2.214c.462,0,.462-.239.462-.876,0-.685,0-.908-.462-.908h-.478c-.478,0-.478.223-.478.908,0,.637,0,.876.463.876Zm-.047,2.294c.509,0,.509-.207.509-.924,0-.7,0-.94-.462-.94H68.86c-.51,0-.51.207-.51.924s0,.94.5.94Zm.78,4.063c-.239,0-.239-.208-.271-.8a7.319,7.319,0,0,0-.175-1.147,4.755,4.755,0,0,1-.1-.573c0-.08,0-.176.063-.176a2.4,2.4,0,0,1,1,1.737c0,.653-.35.956-.526.956m1.545-1.514c0,.287-.143.526-.366.526-.287,0-.3-.1-.446-1.036a3.023,3.023,0,0,0-.207-.733.666.666,0,0,1-.032-.175c0-.08.032-.127.111-.111a2.072,2.072,0,0,1,.94,1.529m7.137-9.272a.444.444,0,0,0,.43-.174c.223-.335.351-.51.478-.51.144,0,.972.653.972.86a6.052,6.052,0,0,1-.351.733C80.2,5.016,80.2,6.4,80.2,6.688c0,.3.047,1.785.047,2.119a.782.782,0,0,1-.8.7c-.335,0-.351-.159-.4-.51-.015-.191-.031-.318-.429-.318H78a.38.38,0,0,0-.446.4,1.584,1.584,0,0,0,.032.255c.223,1.465.8,4.365,2.629,6.2a11.341,11.341,0,0,1,.971.924c0,.064-.1.079-.159.079s-.318-.032-.382-.032a5.535,5.535,0,0,0-.876.08c-.064.016-.367.144-.4.144-.079,0-.175-.176-.223-.239a13.946,13.946,0,0,1-2.007-7.153c-.048-.637-.08-.653-.462-.653H75.79c-.478,0-.478.095-.478.971a12.036,12.036,0,0,1-1.88,6.58c-.127.191-.764.955-.94.955a.089.089,0,0,1-.095-.079c0-.064.494-.844.589-1,1.386-2.6,1.386-6.005,1.386-7.248a40.884,40.884,0,0,0-.223-4.62c-.016-.1-.1-.541-.1-.653,0-.048,0-.159.063-.159a7.677,7.677,0,0,1,.972.366,2,2,0,0,0,.653.127Zm-2.979.415a.425.425,0,0,0-.382.239c-.064.175-.064,2.82-.064,3.138s.032.558.478.558h2.867a.429.429,0,0,0,.414-.176,28.941,28.941,0,0,0,.112-3.154c0-.446-.064-.605-.493-.605Z" fill="#1a1311"/>
  <path id="パス_235" data-name="パス 235" d="M89.624,8.489a13.643,13.643,0,0,0,4.46,3.059c.749.35,1.4.7,1.4,1.162,0,.1-.143.606-.589.606-.144,0-1.577-.048-3.951-2.326-.382-.366-2.087-2.087-2.437-2.421-.366-.351-.637-.558-.892-.558-.526,0-.669.144-1.975,1.418-.112.111-1.275,1.21-1.307,1.227a.446.446,0,0,1-.255.079c-.605,0-1.545-.749-1.545-1.019,0-.064.032-.08.3-.112a6.049,6.049,0,0,0,2.6-1.227C86.772,7.31,87.091,7.2,87.633,7.2c.414,0,.939.239,1.991,1.291" fill="#1a1311"/>
  <path id="パス_236" data-name="パス 236" d="M3.2,25.03c.085,0,.212,0,.212.145s-.118.135-.254.135c-.111,0-.562,0-.629.442-.026.145-.026,2.737-.026,3.221,0,.213.017,1.25.017,1.488a2.222,2.222,0,0,1-.518,1.691,1.608,1.608,0,0,1-1.139.468c-.459,0-.825-.2-.825-.612a.462.462,0,0,1,.5-.493c.314,0,.365.136.484.459a.28.28,0,0,0,.306.2c.391,0,.451-.3.485-.509.034-.255.034-4.394.034-5.04,0-1.2,0-1.318-.893-1.318-.034,0-.17,0-.17-.135S.918,25.03,1,25.03Z" fill="#1a1311"/>
  <path id="パス_237" data-name="パス 237" d="M6.723,25.03c.408,0,2.346.042,2.346,1.47a1.653,1.653,0,0,1-1.131,1.487c-.3.145-.331.162-.331.255a15.064,15.064,0,0,0,.884,2.032,1.059,1.059,0,0,0,1,.68c.085,0,.255,0,.255.135,0,.119-.17.137-.213.137H8.474a.417.417,0,0,1-.4-.247c-.051-.085-.654-1.4-.747-1.615C6.859,28.336,6.8,28.2,6.5,28.2H6.035c-.06,0-.17.034-.2.1-.034.085-.034,1.207-.034,1.4,0,1.028,0,1.25.782,1.25.059,0,.179,0,.179.135s-.153.137-.247.137H4.42c-.085,0-.212-.018-.212-.137,0-.135.118-.135.237-.135.587,0,.672-.272.7-.587.017-.289.017-2.626.017-3.026a13.669,13.669,0,0,0-.068-1.717c-.11-.314-.476-.314-.671-.314-.051,0-.23,0-.23-.153,0-.127.153-.127.255-.127Zm-.306.28c-.612,0-.612.383-.612,1.258,0,1.334,0,1.36.23,1.36h.688a1.372,1.372,0,0,0,1.538-1.343c0-.595-.323-1.275-1.427-1.275Z" fill="#1a1311"/>
  <path id="パス_238" data-name="パス 238" d="M12.63,28.8c-.136,0-.144.052-.153.145-.025.179-.272.247-.425.247-.135,0-.229-.026-.229-.255,0-.1.034-1,.034-1.19,0-.255-.017-1.4-.017-1.641,0-.042,0-.068.034-.068a1.85,1.85,0,0,1,.382.137,1.358,1.358,0,0,0,.629.169h.833c.094,0,.247,0,.247-.254,0-.451,0-.553-.273-.553h-1.7c-.748,0-.994.009-1.071.017a1.5,1.5,0,0,1-.187.025c-.026,0-.043-.025-.068-.059l-.17-.2c-.034-.034-.034-.042-.034-.05s.009-.026.034-.026c.051,0,.315.026.374.034.417.017.765.025,1.164.025h1.657c.247,0,.273-.093.273-.314,0-.119-.051-.654-.051-.765,0-.094.017-.119.076-.119.026,0,.442.119.587.162.246.068.255.11.255.161s-.2.2-.213.229a.878.878,0,0,0-.042.374c0,.2.025.272.28.272H16.37c.357,0,.4,0,.493-.153.2-.348.272-.348.331-.348a2.232,2.232,0,0,1,.859.612c0,.119-.17.119-.459.119H14.857c-.306,0-.306.051-.306.569,0,.111.026.238.246.238h1.037c.153,0,.2,0,.29-.11.118-.128.152-.162.212-.162.1,0,.6.332.6.442,0,.051-.169.23-.178.281a2.552,2.552,0,0,0-.043.45c0,.23.017,1.266.017,1.479,0,.366-.459.366-.493.366-.178,0-.187-.077-.195-.2-.008-.094-.034-.094-.247-.094h-.883c-.043,0-.1,0-.1.06A5.768,5.768,0,0,0,17.891,30.8c.213.068.238.076.238.1s-.017.051-.059.051c-.306,0-.621,0-.782.3-.043.085-.059.111-.111.111a6.377,6.377,0,0,1-1.861-1.419,5.808,5.808,0,0,1-.663-.876c-.026-.034-.034-.059-.068-.059s-.043.05-.043.085c0,.11-.008.569-.008.663,0,.246.051,1.538.051,1.64a.381.381,0,0,1-.153.348.592.592,0,0,1-.314.128c-.2,0-.23-.17-.23-.281,0-.051.051-1.36.051-1.606,0-.442,0-.493-.068-.493-.025,0-.442.374-.5.425a9.469,9.469,0,0,1-2.83,1.573c-.018,0-.043,0-.043-.035a2.591,2.591,0,0,1,.5-.339,10,10,0,0,0,2.286-1.862,2.034,2.034,0,0,0,.237-.374c0-.077-.067-.077-.144-.077Zm1.062-1.393c.273,0,.273-.094.273-.519,0-.221-.017-.314-.273-.314h-.943c-.255,0-.272.1-.272.314,0,.434.009.519.281.519Zm-.934.221c-.111,0-.272.008-.272.238,0,.688,0,.7.272.7h.918c.263,0,.289-.068.289-.561,0-.263-.009-.382-.281-.382Zm2.065-1.054c-.263,0-.281.068-.281.493,0,.255.018.34.272.34h.978c.272,0,.272-.06.272-.493,0-.238,0-.34-.272-.34Zm.969,2c.28,0,.28-.127.28-.382,0-.434,0-.561-.289-.561h-.96c-.281,0-.281.136-.281.374,0,.5,0,.569.281.569Z" fill="#1a1311"/>
  <path id="パス_239" data-name="パス 239" d="M20.026,27.384c-.239,0-.315-.179-.417-.442a2.1,2.1,0,0,0-.331-.57,1.075,1.075,0,0,1-.1-.11c0-.042.043-.051.094-.051.213,0,1.011.289,1.011.85,0,.187-.11.323-.254.323m.152,4.317c-.28,0-.339-.374-.357-.612-.05-.969-.067-1.079-.306-1.334-.033-.042-.237-.221-.237-.255,0-.059.306-.059.348-.076.195-.06.34-.1.859-1.445.178-.476.518-1.369.552-1.42.009-.017.025-.059.068-.059.026,0,.051.017.051.059,0,.357-.876,2.83-.876,3.213a3.883,3.883,0,0,0,.077.612,3.886,3.886,0,0,1,.221.9.376.376,0,0,1-.4.416m.51-6.212c-.186,0-.229-.094-.39-.468a2.233,2.233,0,0,0-.349-.587c-.025-.033-.093-.11-.093-.144s.059-.034.076-.034c.221,0,1.037.3,1.037.876,0,.152-.06.357-.281.357m4.964,3.059c-.229,0-.238.136-.247.365-.008.2-.1,1.1-.1,1.242s.1.17.179.17c.128,0,.136-.018.246-.187.17-.281.187-.315.256-.315a2.373,2.373,0,0,1,.781.612c0,.119-.17.119-.459.119h-.8c-.221,0-.238.06-.314.4-.077.323-.212.91-.9.91-.085,0-.085-.017-.161-.187a.659.659,0,0,0-.383-.34c-.2-.094-.2-.1-.2-.136s.026-.042.069-.042c.016,0,.484.05.577.05a.422.422,0,0,0,.468-.459c0-.135-.1-.195-.246-.195H22.634a.211.211,0,0,0-.229.153c-.051.229-.093.425-.416.425-.145,0-.221-.051-.221-.2s.3-1.946.3-2.159a.2.2,0,0,0-.238-.213c-.1,0-.6.035-.68.035-.025,0-.042-.017-.068-.051l-.17-.2c-.034-.034-.034-.043-.034-.052a.023.023,0,0,1,.026-.025c.161,0,.867.06,1.011.06.213,0,.221-.145.255-.391.085-.731.145-1.1.153-1.581,0-.06.026-.1.077-.1a3.7,3.7,0,0,1,.5.221.829.829,0,0,0,.247.026h1.436a.765.765,0,0,0,.315-.052c.05-.025.237-.22.288-.22s.613.356.613.561c0,.1-.052.144-.171.237-.059.043-.059.077-.085.315-.008.11-.076.773-.076.824,0,.077.034.162.178.162.077,0,.094-.035.179-.145.187-.263.212-.3.28-.3a1.693,1.693,0,0,1,.655.561c0,.11-.187.11-.451.11ZM22.694,25.4c-.212,0-.255.059-.408.3a4.187,4.187,0,0,1-.807.986c-.026,0-.026-.026-.026-.035,0-.025.17-.365.221-.484a7.631,7.631,0,0,0,.6-1.878c.017-.247.025-.281.093-.281.085,0,.7.34.7.485,0,.042-.2.17-.221.2a1.3,1.3,0,0,0-.153.373c0,.077.06.1.281.1h2.048c.365,0,.408,0,.612-.237.17-.2.187-.222.238-.222.076,0,.714.459.714.57s-.162.119-.451.119Zm.153,3.153c-.059,0-.221,0-.246.162,0,.017-.136,1.385-.136,1.4,0,.213.178.213.246.213h.349c.212,0,.229-.094.246-.247.026-.212.144-1.156.144-1.3a.21.21,0,0,0-.246-.23Zm.187-1.827c-.213,0-.229.093-.238.136-.051.34-.127,1.19-.127,1.249a.209.209,0,0,0,.246.213h.357c.23,0,.247-.119.264-.238.008-.043.118-1.122.118-1.139,0-.187-.144-.221-.246-.221ZM24.2,28.548a.209.209,0,0,0-.22.195c-.009.085-.137,1.344-.137,1.377,0,.137.1.2.239.2h.433c.144,0,.221-.051.238-.153.008-.052.136-1.267.136-1.394a.205.205,0,0,0-.238-.23Zm.247-1.827a.218.218,0,0,0-.247.161c-.025.094-.144,1.165-.144,1.216a.214.214,0,0,0,.246.221h.4c.179,0,.229-.085.238-.221.008-.06.085-1.1.085-1.139,0-.238-.17-.238-.238-.238Z" fill="#1a1311"/>
  <path id="パス_240" data-name="パス 240" d="M27.905,27.673c-.034-.043-.034-.043-.034-.051A.027.027,0,0,1,27.9,27.6c.144,0,.816.05.969.05a.3.3,0,0,0,.3-.127c.221-.238.247-.272.28-.272s.544.3.544.45a.121.121,0,0,1-.059.094c-.085.06-.2.145-.213.187s-.008.926-.008,1.063c0,1.062.025,1.13.085,1.266.221.526.791.7,2.729.7a23.766,23.766,0,0,0,3.059-.237,1.576,1.576,0,0,1,.187-.017c0,.034-.034.076-.119.161a2.734,2.734,0,0,0-.238.417c-.017.034-.059.22-.094.246-.008.017-.875.017-.968.017-.8,0-2.125-.017-2.9-.111a2.027,2.027,0,0,1-1.674-.807c-.043-.076-.2-.578-.306-.578a5.372,5.372,0,0,0-.935,1.19c-.025.153-.059.3-.17.3-.127,0-.51-.68-.51-.689,0-.068.094-.093.145-.11.127-.043,1-.468,1.113-.757.034-.093.034-1.326.034-1.521,0-.552,0-.621-.3-.621-.111,0-.6.043-.706.043-.025,0-.042-.017-.076-.059Zm1.5-1.462c-.11,0-.11,0-.391-.535a4.221,4.221,0,0,0-.68-.952c-.025-.026-.161-.128-.161-.162s.051-.034.059-.034c.476,0,1.581.655,1.471,1.36-.026.162-.162.323-.3.323m2.218,3.969c-.11,0-.144.008-.161.162-.025.246-.323.305-.459.305-.085,0-.179-.008-.179-.195,0-.093.052-.5.06-.586.034-.383.051-1.224.051-1.947,0-.237-.034-1.461-.034-1.5,0-.025,0-.077.034-.077a1.765,1.765,0,0,1,.544.239.48.48,0,0,0,.221.068c.153,0,.2,0,.255-.051a1.922,1.922,0,0,0,.17-.672c0-.153-.111-.153-.2-.153h-.3c-.748,0-1,.017-1.08.017a1.34,1.34,0,0,1-.178.026c-.025,0-.042-.026-.077-.06l-.161-.2c-.034-.035-.034-.043-.034-.051a.023.023,0,0,1,.026-.026c.059,0,.322.034.374.034.416.017.773.026,1.164.026h1.224c.153,0,.331,0,.671-1.122.008-.034.043-.2.051-.238a.084.084,0,0,1,.085-.076c.094,0,.689.348.689.441,0,.043-.213.085-.247.1a3.494,3.494,0,0,0-.807.842.071.071,0,0,0,.076.051H33.9c.434,0,.493,0,.748-.374.025-.043.085-.119.145-.119a2.178,2.178,0,0,1,.713.6c0,.119-.17.119-.459.119H33.158c-.264,0-.3.025-.5.289a5.69,5.69,0,0,0-.407.536c0,.051.067.051.093.051h1.181a.3.3,0,0,0,.3-.12c.136-.161.153-.178.195-.178a1.428,1.428,0,0,1,.6.365c0,.052-.2.2-.213.23-.034.059-.034.127-.034.748,0,.4.085,2.38.085,2.558,0,.238-.178.34-.4.34-.2,0-.221-.093-.221-.2,0-.144,0-.2-.119-.2Zm.171-4.768c-.171,0-.213-.077-.374-.408a3.709,3.709,0,0,0-.409-.569c-.025-.026-.11-.1-.11-.128s.06-.016.068-.016c.17,0,1.284.356,1.1.951a.277.277,0,0,1-.28.17m1.827,3.443c.255,0,.255-.111.255-.366,0-.476-.009-.552-.264-.552h-1.92c-.255,0-.255.11-.255.382,0,.467,0,.536.255.536Zm-.026-1.148c.255,0,.255-.068.255-.493,0-.23,0-.34-.255-.34H31.7c-.264,0-.264.1-.264.349,0,.424,0,.484.264.484Zm.034,2.252c.255,0,.255-.144.255-.433,0-.306,0-.442-.255-.442H31.7c-.23,0-.256.127-.256.246,0,.57,0,.629.264.629Z" fill="#1a1311"/>
  <path id="パス_241" data-name="パス 241" d="M39.566,26.967a.457.457,0,0,0,.392-.229c.084-.111.153-.187.195-.187.069,0,.535.408.535.51,0,.127-.05.127-.5.127H38c-.4,0-.5.009-.807.017-.05,0-.3.026-.348.026a.1.1,0,0,1-.068-.034l-.187-.221c-.026-.034-.034-.034-.034-.051s.025-.017.034-.017c.026,0,.195.017.229.017.332.017.833.042,1.131.042ZM39.379,28.3a.44.44,0,0,0,.392-.23c.084-.1.153-.187.195-.187.069,0,.535.408.535.519,0,.127-.042.127-.5.127H38.98c-.025,0-.153,0-.153.094s.026.093.306.238c.63.314.918.476.918.85,0,.187-.1.365-.264.365s-.169-.042-.348-.391c-.1-.195-.39-.7-.527-.7-.093,0-.093.136-.1.23s-.01.892-.01,1.054c0,.144.018.747.018.866a1.681,1.681,0,0,1-.026.451.458.458,0,0,1-.356.187c-.195,0-.195-.119-.195-.187,0-.246.05-1.343.05-1.564,0-.493,0-.544-.068-.544-.026,0-.069.06-.1.119a6.824,6.824,0,0,1-.893,1.08,3.468,3.468,0,0,1-.45.356A.04.04,0,0,1,36.736,31c0-.025.391-.561.468-.671a5.041,5.041,0,0,0,.8-1.658c0-.1-.033-.136-.219-.136-.24,0-.427.009-.614.026-.024,0-.134.017-.161.017a.076.076,0,0,1-.068-.043l-.195-.221c-.026-.025-.026-.034-.026-.042s.017-.017.034-.017.213.017.255.017c.391.017.833.042,1.089.042.177,0,.195-.085.195-.195,0-.145-.008-.315-.008-.459-.01-.043-.042-.221-.042-.255,0-.051.067-.06.092-.06.059,0,.646.06.646.23,0,.051-.145.246-.153.289s-.008.263-.008.3c0,.085.042.145.161.145Zm-.942-2.839c-.562,0-.8.009-.9.009-.05.008-.289.034-.34.034a.116.116,0,0,1-.076-.043l-.187-.213a.305.305,0,0,1-.026-.05c0-.018.018-.026.034-.026.163,0,.893.06,1.038.06.264,0,.264-.017.264-.57a1.094,1.094,0,0,0-.035-.348c0-.017-.034-.128-.034-.145s.016-.076.1-.076c.026,0,.664.127.664.221,0,.017-.094.212-.111.246a.8.8,0,0,0-.077.391c0,.2.009.281.188.281h.195a.372.372,0,0,0,.29-.154c.2-.229.229-.254.288-.254a1.16,1.16,0,0,1,.646.518c0,.119-.169.119-.451.119h-.364c-.027,0-.069.009-.069.051,0,.085.4.272.4.349,0,.059-.24.237-.273.28-.094.1-.476.586-.57.68a.769.769,0,0,1-.2.119c-.026,0-.034-.034-.034-.051a3.815,3.815,0,0,1,.153-.374,2.545,2.545,0,0,0,.221-.816c0-.153-.025-.238-.255-.238Zm-.876.187a.921.921,0,0,1,.681.807c0,.162-.1.383-.3.383s-.214-.051-.3-.595a2.717,2.717,0,0,0-.127-.51c0-.017-.018-.059,0-.068a.052.052,0,0,1,.042-.017m4.25,1.615c-.281,0-.281.136-.3.62a5.1,5.1,0,0,1-.673,2.779,2.569,2.569,0,0,1-1.036.927c-.026,0-.06,0-.06-.026,0-.05.179-.2.213-.238.934-1.215,1.011-1.98,1.011-4.011,0-1-.017-1.241-.052-1.759-.007-.094-.049-.536-.049-.57s0-.076.042-.076a2.451,2.451,0,0,1,.322.11.99.99,0,0,0,.247.042,6.084,6.084,0,0,0,1.624-.577,1.618,1.618,0,0,1,.246-.162,2.545,2.545,0,0,1,.825.553c0,.076-.035.085-.477.11-.2.017-1.947.213-2.049.255s-.127.085-.127,1.1c0,.638,0,.706.3.706h1.266a.354.354,0,0,0,.358-.162c.211-.28.238-.314.314-.314s.118.042.458.383c.138.135.146.144.146.195,0,.119-.163.119-.5.119h-.535c-.059,0-.178.042-.2.238-.008.059-.016,2.456-.016,2.635,0,.195.016,1.037.016,1.207a.381.381,0,0,1-.424.433c-.2,0-.222-.068-.222-.2,0-.085.026-.773.053-1.479.008-.314.008-1.759.008-2.2,0-.467-.026-.637-.222-.637Z" fill="#1a1311"/>
  <path id="パス_242" data-name="パス 242" d="M46.7,26.339c.179,0,.239-.059.239-.323,0-.459-.017-.527-.255-.527h-.2c-.162,0-.485,0-.74.017a1.213,1.213,0,0,1-.178.026c-.026,0-.043-.026-.077-.06l-.161-.195a.128.128,0,0,1-.034-.052.022.022,0,0,1,.025-.025c.06,0,.34.034.391.034.247.017.57.026.807.026H46.7c.23,0,.23-.094.23-.561a1.619,1.619,0,0,0-.017-.34,1.287,1.287,0,0,1-.034-.145c0-.076.068-.076.1-.076.068,0,.739.136.739.3,0,.059-.017.077-.135.17-.052.043-.145.128-.145.442,0,.213.195.213.272.213h.306a.411.411,0,0,0,.2-.026c.068-.034.306-.314.374-.314.119,0,.467.331.467.45s-.161.119-.45.119h-.9c-.144,0-.272.017-.272.263,0,.528,0,.587.263.587h.179a.254.254,0,0,0,.255-.128c.042-.068.077-.11.144-.11.094,0,.477.238.477.357a3.337,3.337,0,0,1-.187.391,2.317,2.317,0,0,0-.043.646c0,.178.034.943.034,1.1,0,.128-.043.383-.306.383-.127,0-.144-.034-.221-.187-.043-.093-.077-.093-.349-.093-.238,0-.238.093-.238.518,0,.408,0,.51.247.51h.51c.153,0,.2,0,.3-.153.06-.093.171-.238.256-.238.118,0,.5.365.5.485s-.162.127-.459.127H47.7c-.135,0-.255.017-.255.238,0,.2.035,1.045.035,1.224a.353.353,0,0,1-.383.391c-.195,0-.23-.111-.23-.247,0-.084.06-1.164.06-1.368,0-.221-.128-.238-.246-.238h-.289c-.154,0-.476,0-.731.025-.026,0-.154.018-.179.018s-.051-.018-.076-.06l-.162-.187c-.034-.043-.042-.051-.042-.06s.017-.016.034-.016c.059,0,.331.025.391.025.246.017.569.034.807.034h.238c.255,0,.255-.043.255-.688,0-.2,0-.34-.255-.34h-.187a.21.21,0,0,0-.238.136.368.368,0,0,1-.4.331c-.162,0-.162-.2-.162-.272s.008-.238.034-.57c.017-.229.017-.433.017-.756,0-.357,0-.909-.017-1.079-.008-.051-.068-.255-.068-.3s.051-.059.1-.059a2.483,2.483,0,0,1,.366.161.486.486,0,0,0,.22.043Zm-.212.221c-.238,0-.247.11-.247.349,0,.382,0,.484.247.484H47.8c.255,0,.255-.1.255-.468,0-.246,0-.365-.246-.365ZM47.8,28.472c.247,0,.247-.127.247-.391,0-.374,0-.467-.247-.467H46.495c-.256,0-.256.144-.256.4,0,.349,0,.459.256.459Zm1.513-1.079c-.034-.043-.042-.043-.042-.06s.017-.017.034-.017c.059,0,.331.026.391.026.246.017.569.034.807.034h.57c.161,0,.2,0,.306-.145.067-.1.169-.246.254-.246.12,0,.494.365.494.493s-.162.119-.451.119h-.561c-.255,0-.255.136-.255.314v.816c0,.23.17.23.264.23h.739c.153,0,.2,0,.3-.145.068-.093.17-.246.255-.246a1.016,1.016,0,0,1,.5.492c0,.128-.162.128-.459.128H51.118c-.246,0-.246.153-.246.238,0,.034.017.731.017.833,0,.178.051.969.051,1.131a.432.432,0,0,1-.434.492c-.187,0-.221-.1-.221-.255,0-.17.051-1.869.051-2.108s-.025-.331-.229-.331H49.92c-.162,0-.485,0-.74.017-.025,0-.152.026-.178.026s-.043-.026-.077-.06l-.161-.2c-.026-.025-.034-.042-.034-.059s.017-.017.026-.017c.067,0,.339.026.39.034.247.009.57.026.816.026h.153c.23,0,.23-.06.23-.808,0-.408,0-.552-.23-.552-.085,0-.484.043-.561.043-.034,0-.051-.018-.076-.052Zm-.433-.17a8.81,8.81,0,0,0,1.232-2.6c.017-.068.068-.4.094-.467a.12.12,0,0,1,.119-.06c.17,0,.629.238.629.357,0,.042-.111.2-.111.238a4.49,4.49,0,0,0,2.142,1.972c.025.017.187.06.187.085,0,.008-.536.238-.638.3a1.018,1.018,0,0,1-.178.111,5.428,5.428,0,0,1-1.411-1.81c-.034-.077-.17-.425-.2-.476a.057.057,0,0,0-.051-.034c-.034,0-.051.034-.06.059A5.316,5.316,0,0,1,48.8,27.368a.4.4,0,0,1,.085-.145" fill="#1a1311"/>
  <path id="パス_243" data-name="パス 243" d="M55.292,27.979c.28,0,.629,0,.841-.008.23-.009.23-.034.23-.085a4.427,4.427,0,0,0-.2-.553c0-.017.026-.042.06-.042.119,0,.816.552.816,1.037a.336.336,0,0,1-.332.365c-.221,0-.246-.17-.289-.425-.017-.127-.025-.153-.093-.153a2,2,0,0,0-.383.1,3.808,3.808,0,0,0-.042.74c0,.365.042,1.989.042,2.32a.479.479,0,0,1-.45.51c-.144,0-.161-.145-.161-.357,0-.383.059-2.091.059-2.439a4.178,4.178,0,0,0-.026-.587c-.016-.068-.042-.085-.153-.085a4.58,4.58,0,0,0-.781.153c-.043.017-.2.145-.247.145-.085,0-.306-.672-.306-.689s.017-.025.042-.025.315.034.374.042c.043,0,.349.017.425.017.2,0,.239-.059.528-.612a19.252,19.252,0,0,0,.866-1.793c.077-.212.085-.238.137-.238.025,0,.713.323.713.45,0,.068-.017.068-.2.128a.517.517,0,0,0-.255.179c-.365.476-.867,1.3-1.266,1.75-.034.034-.06.094-.043.119s.06.034.094.034m-.2,1.411c0,.06-.187.238-.212.289-.187.349-.425.943-.646,1.283-.017.026-.2.306-.289.306a.036.036,0,0,1-.034-.034c0-.025.255-.781.289-.909a4.87,4.87,0,0,0,.178-1.13c0-.153,0-.179.052-.179a2.362,2.362,0,0,1,.331.119c.213.094.331.162.331.255m-.008-3.238a.663.663,0,0,1,.323.527.253.253,0,0,1-.255.272.274.274,0,0,1-.187-.085c-.068-.077-.374-.5-.45-.586s-.468-.426-.468-.443c0-.033.034-.042.068-.042.085,0,.485.144.578.144.059,0,.077-.033.2-.314a3.81,3.81,0,0,0,.348-1.411c0-.034,0-.094.051-.094.008,0,.79.256.79.434,0,.025,0,.077-.034.094s-.229.1-.263.136c-.1.093-.476.663-.57.79-.067.085-.3.382-.28.459a1.2,1.2,0,0,0,.153.119m1.487,2.719c-.034-.042-.034-.042-.034-.059s.017-.017.026-.017c.161,0,.935.051,1.113.051a.27.27,0,0,0,.247-.119c.085-.119.127-.17.212-.17.136,0,.552.238.552.408a.118.118,0,0,1-.084.1c-.179.068-.179.068-.238.178a6,6,0,0,1-.927,1.479,3.922,3.922,0,0,1-1.394.986c-.008,0-.025,0-.025-.017s.008-.033.051-.076a9.373,9.373,0,0,0,.867-.9,4.479,4.479,0,0,0,.858-1.564c0-.068-.034-.068-.28-.068-.1,0-.629.034-.706.034-.025,0-.042-.017-.076-.051Zm.451,1.3a.329.329,0,0,1-.289.365c-.187,0-.2-.22-.247-.578a2.207,2.207,0,0,0-.229-.637c-.008-.034-.034-.077-.034-.093a.046.046,0,0,1,.042-.043,1.393,1.393,0,0,1,.366.272,1.154,1.154,0,0,1,.391.714m.96-2.312a.25.25,0,0,0-.246.094.476.476,0,0,1-.357.238c-.2,0-.2-.128-.2-.357,0-.247.034-1.47.034-1.742,0-.145-.017-.842-.017-1,0-.034,0-.06.051-.06.085,0,.476.281.578.281.17,0,.689-.943.7-1.114.009-.059.017-.118.068-.118.017,0,.425.2.493.238.119.059.238.119.238.187s-.348.152-.408.187a2.373,2.373,0,0,0-.629.586c0,.051.017.051.162.051h1.632c.178,0,.237-.008.305-.119.187-.289.213-.323.3-.323.11,0,.586.314.586.5a.241.241,0,0,1-.1.17c-.119.1-.153.137-.153.281,0,.128.026.765.026.909,0,.162.06.935.06,1,0,.383-.409.408-.451.408-.119,0-.136-.034-.187-.2-.026-.1-.136-.1-.195-.1h-.978c-.042,0-.077,0-.077.034s.017.043.162.1c.068.017.247.094.247.2,0,.068-.018.076-.153.178a.146.146,0,0,0-.052.1,5.874,5.874,0,0,0,.307.646c.067.127.178.34.28.34.2,0,.782-.612.969-.824.017-.026.093-.111.11-.111a2.47,2.47,0,0,1,.595.595c0,.034-.025.043-.051.043a2.041,2.041,0,0,1-.221-.009c-.246,0-.425.085-1.156.417-.152.068-.152.076-.152.127a4.031,4.031,0,0,0,1.478,1.5c.272.161.306.17.306.2s-.025.025-.136.034a1.992,1.992,0,0,0-.484.093,1.408,1.408,0,0,1-.255.119,6.6,6.6,0,0,1-1.428-2.158c-.034-.077-.187-.527-.2-.527s-.025.246-.025.288c0,.085.017,1.42.017,1.573,0,.518,0,.7-.187.85a1.275,1.275,0,0,1-.663.229c-.051,0-.068-.017-.094-.059a1.031,1.031,0,0,0-.17-.289c-.051-.051-.323-.281-.323-.289,0-.026.026-.026.247-.026.637,0,.671-.085.671-.7,0-.391,0-2.176-.042-2.422-.035-.2-.128-.247-.3-.247Zm.017-2.3c-.11,0-.221.017-.255.179v.484c0,.221.162.221.264.221h2.209c.255,0,.255-.034.255-.654,0-.23-.17-.23-.255-.23Zm0,1.105c-.093,0-.255.008-.255.238,0,.722,0,.74.255.74h2.244a.211.211,0,0,0,.238-.23c0-.714,0-.748-.247-.748Z" fill="#1a1311"/>
  <path id="パス_244" data-name="パス 244" d="M66.045,25.565c0,.026.016.059.016.093a6.515,6.515,0,0,1,.085.918,4.359,4.359,0,0,1-.875,2.491c-.68,1.036-1.114,1.24-1.453,1.24-.561,0-1.063-.875-1.063-1.912a2.994,2.994,0,0,1,.944-2.167,3.515,3.515,0,0,1,2.711-1.105,2.768,2.768,0,0,1,1.368.272,2.664,2.664,0,0,1,1.479,2.473,3.169,3.169,0,0,1-2.142,2.992,5.207,5.207,0,0,1-1.411.314c-.033,0-.085-.008-.085-.059,0-.026.017-.034.23-.119.884-.349,2.728-1.08,2.728-3.2a2.188,2.188,0,0,0-2.354-2.354c-.17,0-.178.068-.178.119m-2.763,2.609c0,.553.221,1.309.74,1.309.246,0,.45-.1,1.036-.986a4.855,4.855,0,0,0,.833-2.473c0-.51-.033-.553-.144-.553a2.936,2.936,0,0,0-2.465,2.7" fill="#1a1311"/>
  <path id="パス_245" data-name="パス 245" d="M74.255,25.412c0,.119-.042.213-.323.4A22.179,22.179,0,0,0,72,27.537a6.016,6.016,0,0,0-.773.935c0,.034.033.051.068.051a11.293,11.293,0,0,0,1.512-.536,5.144,5.144,0,0,1,1.709-.552c.178,0,.79.093.79.408,0,.212-.314.281-.442.281a3.133,3.133,0,0,0-1.164.127c-1.292.357-1.42,1.113-1.42,1.428,0,.816.561.935,1.538,1.147.426.093.519.349.519.425,0,.17-.238.281-.569.281a2.318,2.318,0,0,1-1.453-.57,1.287,1.287,0,0,1-.366-.969,2.1,2.1,0,0,1,.349-1.147c.033-.043.2-.255.2-.272s-.009-.026-.035-.026a2.8,2.8,0,0,0-.628.34c-.451.349-.579.434-.842.434-.348,0-.442-.4-.442-.485,0-.161.068-.229.315-.459.076-.076,1.53-1.844,1.835-2.167.255-.263.765-.807.765-1a.145.145,0,0,0-.144-.153.994.994,0,0,0-.536.323c-.212.229-.323.349-.62.349a.475.475,0,0,1-.485-.366,3.145,3.145,0,0,1-.136-.374.053.053,0,0,1,.06-.059c.025,0,.34.042.408.042a1.126,1.126,0,0,0,.306-.042,4.41,4.41,0,0,1,1.13-.255.758.758,0,0,1,.8.739m1.861.926c0,.128-.119.324-.272.324-.135,0-.2-.111-.407-.434a2.406,2.406,0,0,0-.528-.586c-.025-.026-.11-.1-.11-.136,0-.06.136-.06.162-.06.382,0,1.155.4,1.155.892m.893-.671a.242.242,0,0,1-.221.255c-.178,0-.289-.153-.425-.348a1.981,1.981,0,0,0-.706-.536c-.085-.042-.1-.076-.1-.1,0-.076.2-.076.324-.076.314,0,1.13.246,1.13.807" fill="#1a1311"/>
  <path id="パス_246" data-name="パス 246" d="M80.792,25.429c-.11,0-.468.306-.6.425-.111.1-.434.391-.655.391-.314,0-.552-.6-.552-.629,0-.051.017-.085.068-.085s.246.034.289.034c.272,0,.374-.017.884-.34a1.461,1.461,0,0,1,.816-.28c.56,0,.688.382.688.51,0,.178-.076.28-.518.688a7.705,7.705,0,0,0-1.25,1.726c0,.042.06.051.085.051.11,0,.587-.009.689,0a6.9,6.9,0,0,1,1.606.339.328.328,0,0,0,.136.035c.11,0,.161-.7.161-.783,0-.068-.051-.442-.051-.475,0-.052.06-.052.094-.052s.765.137.765.468a1.844,1.844,0,0,1-.187.331c0,.017-.119.7-.119.723,0,.11.051.136.195.212.332.179,1.105.579,1.105,1.02a.328.328,0,0,1-.314.323c-.17,0-.264-.068-.859-.577-.017-.009-.263-.222-.348-.222-.068,0-.094.06-.119.1a3.676,3.676,0,0,1-1.666,1.573,3.132,3.132,0,0,1-.918.339c-.008,0-.068,0-.068-.025a1.453,1.453,0,0,1,.162-.119,5.28,5.28,0,0,0,1.75-1.683,1.557,1.557,0,0,0,.256-.484c0-.077,0-.119-.468-.349a3.677,3.677,0,0,0-1.564-.382c-.527,0-.544.034-.688.34-.731,1.556-.876,1.87-1.411,1.87-.434,0-.561-.468-.561-.68,0-.722.756-1.368,1.649-1.683a.3.3,0,0,0,.212-.17c.2-.314,1.258-1.921,1.3-2a1.177,1.177,0,0,0,.111-.383c-.009-.042-.034-.1-.1-.1m-2.847,4.1c0,.145.068.247.221.247.467,0,1.02-1.25,1.02-1.284s-.009-.043-.034-.043c-.306,0-1.207.579-1.207,1.08" fill="#1a1311"/>
  <path id="パス_247" data-name="パス 247" d="M86.963,26.687c-.187,0-.774,0-1.071.017a1.226,1.226,0,0,1-.179.026c-.034,0-.042-.026-.076-.06l-.162-.195c-.034-.034-.042-.043-.042-.051s.017-.026.034-.026c.034,0,.45.043.535.043.621.026.638.017,1.122.017.263,0,.263-.068.263-.519,0-.11,0-.8-.025-.841-.059-.1-.11-.11-.221-.11s-.952.042-1.139.042c-.153,0-.17,0-.17-.042s.017-.043.2-.077a8.547,8.547,0,0,0,2.1-.561c.306-.136.339-.153.408-.153s.8.332.8.459c0,.085-.035.085-.519.136-.9.094-.9.111-.9.425,0,.11.008,1.071.017,1.105a.218.218,0,0,0,.238.136h.153c.2,0,.246-.017.348-.136.239-.289.264-.314.34-.314a2.371,2.371,0,0,1,.74.56c0,.119-.17.119-.451.119H88.17c-.247,0-.264.034-.264.646,0,.247.085.264.153.281.357.068,1.249.289,1.249.935,0,.306-.187.416-.289.416-.17,0-.195-.059-.407-.586a1.1,1.1,0,0,0-.646-.655c-.068,0-.068.059-.068.128,0,.331.025,2.728.051,3.051.008.161.025.459.025.493,0,.323-.391.425-.493.425-.178,0-.178-.119-.178-.247,0-.416.051-2.244.051-2.617,0-.086.008-.426.008-.5s-.017-.144-.1-.144c-.042,0-.051.016-.153.127a8.839,8.839,0,0,1-1.623,1.53c-.068.051-.1.077-.136.077A.041.041,0,0,1,85.305,30c0-.009.536-.629.612-.731a10.419,10.419,0,0,0,1.47-2.465.1.1,0,0,0-.11-.119Zm3.841.6c0,1.487,0,1.657.017,2.031,0,.06.017.323.017.374,0,.238-.127.417-.467.417-.213,0-.213-.1-.213-.162s.026-.2.026-.238c.025-.272.042-1.241.042-2.414,0-.382,0-1.4-.068-1.972a1.2,1.2,0,0,1-.017-.178c0-.043.009-.076.068-.076.043,0,.885.152.885.306a.139.139,0,0,1-.043.093c-.17.153-.2.187-.221.306-.009.034-.026.731-.026,1.513m1.666.178c0,.51.051,2.737.051,3.188,0,.611-.042.781-.187.883a1.336,1.336,0,0,1-.6.281c-.119,0-.136-.051-.178-.187-.1-.315-.638-.5-.731-.527-.026-.009-.077-.034-.077-.068S90.8,31,90.813,31c.11,0,.561.076.654.076.417,0,.417-.076.417-.731,0-.79,0-4.921-.043-5.515-.008-.094-.076-.553-.076-.578,0-.043.051-.077.093-.077.026,0,.723.127.774.136s.127.043.127.128-.042.1-.136.17a.4.4,0,0,0-.127.254c-.017.145-.026,2.159-.026,2.6" fill="#1a1311"/>
  <path id="パス_248" data-name="パス 248" d="M95.726,28.93c-.246,0-.246.069-.28.374a3.314,3.314,0,0,1-1.215,2.4.047.047,0,0,1-.051-.042c0-.009.2-.341.238-.408.348-.723.493-1.471.493-3.587,0-.671-.018-2.065-.077-2.694-.008-.093-.068-.578-.068-.595,0-.051.009-.068.06-.068a1.687,1.687,0,0,1,.424.144,1.182,1.182,0,0,0,.672.2h4.156a.335.335,0,0,0,.3-.1c.145-.153.154-.17.213-.17s.688.348.688.484c0,.077-.068.128-.135.162-.2.1-.222.11-.222.918,0,.7.052,3.833.052,4.555,0,.374,0,1.318-.791,1.318-.077,0-.085-.018-.144-.187-.12-.307-.638-.485-.714-.5-.026-.008-.153-.034-.153-.085,0-.034.059-.051.1-.051.11,0,.645.043.765.043.331,0,.339-.094.339-1.173,0-.111,0-.706-.016-.773-.034-.154-.162-.154-.256-.154H98.378c-.229,0-.272.085-.263.332.008.612.008,1.309.008,1.963,0,.162-.025.221-.085.28a.632.632,0,0,1-.4.154c-.17,0-.179-.111-.179-.221,0-.315.051-1.879.051-2.236,0-.187-.059-.272-.263-.272Zm1.547-2.345c.255,0,.255,0,.255-.859,0-.824,0-.849-.255-.849H95.726c-.254,0-.254.033-.254.739,0,.969.008.969.263.969Zm0,2.116a.22.22,0,0,0,.222-.1,9.59,9.59,0,0,0,.033-.994c0-.757,0-.791-.255-.791H95.726c-.093,0-.2.017-.237.153-.009.043-.009,1.241-.009,1.436,0,.137,0,.3.246.3Zm1.1-3.824c-.111,0-.221.016-.255.152-.009.051-.009,1.029-.009,1.233,0,.178,0,.323.264.323h1.691c.264,0,.264-.094.264-.578,0-1.13-.009-1.13-.281-1.13Zm0,1.937c-.264,0-.264.025-.264.808a8.349,8.349,0,0,0,.035.968c.042.111.169.111.229.111H100.1c.256,0,.256-.059.256-.62,0-1.25-.009-1.267-.272-1.267Z" fill="#1a1311"/>
  <path id="パス_277" data-name="パス 277" d="M143.572,7.278c.255,0,.494-.032.494-.462,0-1.418,0-1.5-.446-1.5h-3.648c-1.386,0-1.848.032-2.007.047-.048,0-.287.032-.335.032-.063,0-.1-.032-.143-.095l-.3-.367c-.064-.079-.08-.079-.08-.111s.033-.032.064-.032c.112,0,.606.048.7.048.781.032,1.434.064,2.183.064h3.52c.144,0,.478,0,.478-.415a4.285,4.285,0,0,0-.1-.86c-.015-.111-.191-.605-.191-.717,0-.1.1-.127.207-.127.048,0,1.609.223,1.609.478,0,.048-.223.27-.271.318-.111.112-.159.24-.159.606,0,.462,0,.717.478.717h2.422c.669,0,.844,0,1.019-.271.478-.765.526-.845.717-.845.271,0,1.195.877,1.4,1.02.032.016.239.175.239.287,0,.223-.3.223-.845.223h-4.954c-.478,0-.478.3-.478.462,0,1.481,0,1.5.494,1.5h.892a.945.945,0,0,0,.845-.4c.111-.175.207-.287.334-.287a3.886,3.886,0,0,1,1.4.908,3.9,3.9,0,0,1-.462.813.847.847,0,0,0-.112.509c0,.845.112,4.524.112,5.289,0,.733,0,1.067-.845,1.067-.238,0-.366,0-.4-.445-.031-.335-.127-.447-.525-.447h-3.648a.357.357,0,0,0-.4.351,3.216,3.216,0,0,1-.016.446.782.782,0,0,1-.717.35c-.319,0-.542-.143-.542-.589,0-.287.048-1.529.048-1.784,0-2.931-.1-5.146-.128-5.448-.015-.144-.111-.749-.111-.86,0-.064.032-.08.1-.08.175,0,.222.032.844.366a1.934,1.934,0,0,0,.955.239Zm-3.7,9.288a.429.429,0,0,0-.382.222.879.879,0,0,1-.828.526.452.452,0,0,1-.494-.478c0-.541.111-3.17.111-3.759,0-.542-.016-4.333-.111-4.62a5.139,5.139,0,0,1-.207-.526c0-.143.143-.143.191-.143.239,0,1.641.446,1.641.749,0,.1-.3.414-.335.51-.079.207-.079,4.109-.079,4.524a17.577,17.577,0,0,0,.127,2.325.489.489,0,0,0,.478.255h8.14c.621,0,.717-.032.8-.127.127-.159.637-.988.8-.988.048,0,1.785.876,1.785,1.338,0,.192-.08.192-.845.192Zm3.171-8.874c-.431,0-.431.287-.431.733,0,.781,0,1.051.446,1.051H147c.446,0,.446-.238.446-.891s0-.893-.446-.893Zm.079,2.2a.412.412,0,0,0-.478.462c0,1.2.064,1.306.494,1.306h3.839c.478,0,.478-.191.478-.876,0-.7,0-.892-.478-.892Zm.032,2.182a.393.393,0,0,0-.446.43c0,1.243.128,1.354.478,1.354h3.791c.462,0,.462-.239.462-.892s0-.892-.462-.892Z" fill="#1a1311"/>
  <path id="パス_278" data-name="パス 278" d="M153.121,9.572c-.08-.08-.08-.08-.08-.1,0-.032.032-.047.064-.047.287,0,1.672.111,1.991.111.287,0,.366-.064.59-.319.35-.4.4-.446.477-.446s1.02.558,1.02.845a.132.132,0,0,1-.032.1,3.611,3.611,0,0,1-.4.287c-.1.1-.1.271-.1,1.943,0,2.215,0,2.5.4,2.995.733.94,3.139.94,4.238.94a30.542,30.542,0,0,0,5.894-.462,5.451,5.451,0,0,1,.542-.1c.031,0,.1,0,.1.063,0,.016-.016.08-.127.144a1.5,1.5,0,0,0-.765.669c-.048.1-.143.637-.239.717-.032.016-1.816.016-2.071.016a25.544,25.544,0,0,1-5.8-.414,3.244,3.244,0,0,1-1.991-1.291c-.128-.191-.558-1.226-.7-1.226a9.837,9.837,0,0,0-1.672,2.357c-.016.494-.032.542-.175.542-.3,0-1.132-1.131-1.132-1.37,0-.112.176-.159.335-.207a6.189,6.189,0,0,0,1.481-.861c.67-.493.67-.509.67-1.194,0-.367.031-2.263.031-2.677-.016-.541-.1-.621-.541-.621a11.432,11.432,0,0,0-1.338.048c-.032,0-.191.032-.223.032-.064,0-.1-.032-.144-.111Zm3.106-3.107c-.271,0-.4-.111-.637-.541a10.144,10.144,0,0,0-1.5-1.816c-.1-.1-.621-.589-.621-.606,0-.063.1-.063.143-.063.319,0,3.123.956,3.123,2.469a.512.512,0,0,1-.51.557m7.471-2.8c.558,0,.685,0,.876-.143.08-.064.463-.558.59-.558.143,0,1.434.8,1.434,1.1,0,.111-.1.175-.207.207s-.718.144-.845.192c-.318.127-1.784,1.051-2.119,1.258-.079.048-.541.35-.541.462,0,.048.175.239.191.286.048.08.048.176.048.431,0,.079.08.079.3.079h1.625a.811.811,0,0,0,.526-.127c.064-.032.366-.3.462-.3.207,0,.956.526.956.717,0,.128-.128.207-.255.3-.191.127-.191.207-.191.478,0,2.214,0,2.453.048,3.568.048.972.048,1.625.048,1.832a1.416,1.416,0,0,1-1.243,1.673.281.281,0,0,1-.271-.176,2.906,2.906,0,0,0-.159-.43c-.08-.111-.685-.462-.685-.526,0-.1.8-.159.94-.207.4-.143.4-.254.4-1.4,0-.335,0-.59-.478-.59h-1.736c-.462,0-.494.239-.494.558v.605c0,.176.063,1.068.063,1.275,0,.286-.031.716-.748.716-.335,0-.383-.4-.383-.653,0-.3.112-1.736.112-2.071,0-.43-.3-.43-.478-.43h-1.5c-.509,0-.509.128-.509.988,0,.207.032,1.243.032,1.465,0,.877-.574.892-.67.892-.462,0-.493-.35-.493-.8,0-.159.031-.765.048-.908.047-.621.063-1.115.063-2.453,0-.59-.063-3.505-.063-4.174,0-.128,0-.223.1-.223.032,0,.812.271.876.287a1.9,1.9,0,0,0,.749.111h1.545c.1,0,.191,0,.191-.127a3.017,3.017,0,0,0-.924-1c-.35-.255-.414-.286-.414-.382,0-.08.159-.08.207-.08a3.935,3.935,0,0,1,1.116.224,5.23,5.23,0,0,0,.685.286A5.293,5.293,0,0,0,164.081,4.2c0-.128-.1-.128-.3-.128h-2.453c-.383,0-1.45,0-2.008.048-.047,0-.286.032-.334.032-.064,0-.1-.032-.144-.1l-.3-.366c-.08-.08-.08-.08-.08-.112s.032-.032.064-.032c.1,0,.589.048.7.048.446.016,1.274.064,2.182.064Zm-3.727,5.974a.469.469,0,0,0-.447.191c-.047.1-.047.175-.047,1,0,.27,0,.525.494.525h1.5c.494,0,.494-.175.494-.924,0-.589,0-.8-.494-.8Zm-.016-2.246c-.462,0-.462.127-.462,1.258,0,.255,0,.558.462.558h1.529c.462,0,.462-.112.462-1.227,0-.287,0-.589-.462-.589Zm5.1,1.816c.494,0,.494-.1.494-1.068,0-.541,0-.748-.494-.748h-1.673c-.493,0-.493.143-.493,1.019,0,.621,0,.8.493.8Zm.1,2.15c.462,0,.462-.239.462-.621,0-.988,0-1.1-.462-1.1h-1.784c-.462,0-.462.111-.462,1.067,0,.43,0,.653.462.653Z" fill="#1a1311"/>
  <path id="パス_279" data-name="パス 279" d="M182.719,12.6a5.124,5.124,0,0,1-5.427,5.059c-2.622,0-4.967-1.518-4.967-4.139,0-2.484,1.977-3.656,4.093-4.9-1.219-.713-3.426-2-3.426-4.507,0-2.277,1.793-4.116,4.6-4.116A3.861,3.861,0,0,1,181.8,3.633c0,1.955-1.886,3.38-2.875,4.116,2.162,1.334,3.795,2.484,3.795,4.852m-8.463.851a3.311,3.311,0,0,0,3.312,3.426,3.58,3.58,0,0,0,3.5-3.472c0-2.185-2.276-3.473-3.955-4.416-1.035.783-2.852,2.185-2.852,4.462m5.864-9.566a2.9,2.9,0,0,0-2.852-3.1,2.652,2.652,0,0,0-2.713,2.736c0,1.61,1.311,2.414,3.7,3.84a4.376,4.376,0,0,0,1.863-3.472" fill="#1a1311"/>
  <path id="パス_280" data-name="パス 280" d="M194.725.437V1.656c-3.656,5.634-4.944,8.83-5.243,13.957-.046.6-.114,2.047-1.287,2.047a1.215,1.215,0,0,1-1.173-1.265c0-1.632,1.609-6.461,6.461-14.142h-3.932c-3.334,0-3.84,1.541-4.346,3.013l-.689-.161.942-4.668Z" fill="#1a1311"/>
  <path id="パス_281" data-name="パス 281" d="M204.927,6.275c0,.159-.111.191-.446.271a3.527,3.527,0,0,0-.8,1.083,10.321,10.321,0,0,1-4.731,4.413.085.085,0,0,1-.1-.1c0-.1.032-.111.334-.35a13.74,13.74,0,0,0,3.585-4.811c.111-.239.526-1.593.541-1.593.112-.048,1.609.812,1.609,1.083m1.546,4.652c-.414,0-.414.032-.51.876a6.71,6.71,0,0,1-3.218,5.7,10.4,10.4,0,0,1-3.043,1.035c-.048,0-.191,0-.191-.111,0-.08.08-.112.366-.207a9.123,9.123,0,0,0,3.139-1.928,7.727,7.727,0,0,0,1.8-5.018c0-.35-.159-.35-.4-.35h-.478c-.589,0-1.354.016-1.64.032a3.017,3.017,0,0,1-.335.047c-.064,0-.1-.047-.143-.111l-.319-.367c-.047-.064-.064-.079-.064-.1,0-.032.017-.048.064-.048.112,0,.59.064.7.064.781.032,1.434.048,2.183.048h3.488c.717,0,.8-.033,1.052-.3.239-.255.382-.351.494-.351.255,0,1.179.733,1.179,1.068,0,.079-.255.366-.288.43-.079.159-.174,1.975-.207,2.342-.174,1.927-.3,3.233-.748,3.95a2.4,2.4,0,0,1-1.625.956c-.175,0-.175-.048-.3-.494-.1-.366-.637-.573-1.465-.812-.351-.1-.526-.159-.526-.255s.144-.1.175-.1a6.14,6.14,0,0,1,.621.112,9.356,9.356,0,0,0,1.132.127c.764,0,1.195-.143,1.417-1.784.16-1.227.319-3.074.319-3.887,0-.43-.032-.573-.478-.573Zm.8-5.13c-.4,0-.94.016-1.274.032-.048,0-.271.032-.319.032s-.064-.016-.127-.1l-.3-.366a.173.173,0,0,1-.048-.112c0-.015.016-.032.048-.032.1,0,.558.064.653.064.175.016.844.048.956.048a.817.817,0,0,0,.669-.414c.319-.446.35-.494.478-.494.207,0,1.386.8,1.386,1.147,0,.159-.048.175-.478.287-.08.016-.319.095-.319.334,0,.829,2.1,3.362,4.795,3.632.048,0,.239.032.239.128,0,.08-.414.175-.478.191a3.286,3.286,0,0,0-.971.733c-.032.048-.207.239-.255.239-.542,0-3.171-2.2-3.808-4.6-.175-.685-.207-.749-.573-.749Z" fill="#1a1311"/>
  <line id="線_5" data-name="線 5" x2="214.205" transform="translate(0 39.846)" fill="none" stroke="#1a1311" stroke-miterlimit="10" stroke-width="0.412"/>
</svg>
