<svg xmlns="http://www.w3.org/2000/svg" width="214.205" height="40.052" viewBox="0 0 214.205 40.052">
  <g id="network04" transform="translate(-469.034)">
    <path id="パス_262" data-name="パス 262" d="M474.074,25.03c.085,0,.212,0,.212.145s-.118.135-.254.135c-.111,0-.562,0-.629.442-.025.145-.025,2.737-.025,3.221,0,.213.016,1.25.016,1.488a2.222,2.222,0,0,1-.518,1.691,1.608,1.608,0,0,1-1.139.468c-.459,0-.824-.2-.824-.612a.461.461,0,0,1,.5-.493c.314,0,.365.136.484.459a.28.28,0,0,0,.306.2c.391,0,.451-.3.484-.509.035-.255.035-4.394.035-5.04,0-1.2,0-1.318-.892-1.318-.035,0-.17,0-.17-.135s.127-.145.212-.145Z" fill="#1a1311"/>
    <path id="パス_263" data-name="パス 263" d="M477.593,25.03c.408,0,2.345.042,2.345,1.47a1.653,1.653,0,0,1-1.13,1.487c-.3.145-.331.162-.331.255a15.051,15.051,0,0,0,.883,2.032,1.062,1.062,0,0,0,1,.68c.084,0,.254,0,.254.135,0,.119-.17.137-.212.137h-1.062a.417.417,0,0,1-.4-.247c-.051-.085-.654-1.4-.748-1.615-.467-1.028-.527-1.164-.824-1.164H476.9c-.06,0-.17.034-.2.1-.035.085-.035,1.207-.035,1.4,0,1.028,0,1.25.782,1.25.059,0,.179,0,.179.135s-.153.137-.246.137h-2.1c-.085,0-.213-.018-.213-.137,0-.135.119-.135.238-.135.586,0,.672-.272.7-.587.016-.289.016-2.626.016-3.026a13.875,13.875,0,0,0-.067-1.717c-.112-.314-.477-.314-.672-.314-.051,0-.23,0-.23-.153,0-.127.154-.127.255-.127Zm-.306.28c-.612,0-.612.383-.612,1.258,0,1.334,0,1.36.23,1.36h.688a1.373,1.373,0,0,0,1.539-1.343c0-.595-.324-1.275-1.428-1.275Z" fill="#1a1311"/>
    <path id="パス_264" data-name="パス 264" d="M483.5,28.8c-.137,0-.145.052-.154.145-.026.179-.272.247-.424.247-.137,0-.231-.026-.231-.255,0-.1.035-1,.035-1.19,0-.255-.017-1.4-.017-1.641,0-.042,0-.068.034-.068a1.871,1.871,0,0,1,.382.137,1.358,1.358,0,0,0,.629.169h.834c.093,0,.246,0,.246-.254,0-.451,0-.553-.273-.553h-1.7c-.747,0-.994.009-1.07.017a1.464,1.464,0,0,1-.188.025c-.025,0-.042-.025-.067-.059l-.17-.2c-.034-.034-.034-.042-.034-.05s.009-.026.034-.026c.051,0,.315.026.374.034.416.017.765.025,1.164.025h1.657c.247,0,.273-.093.273-.314,0-.119-.051-.654-.051-.765,0-.094.017-.119.076-.119.026,0,.442.119.586.162.247.068.256.11.256.161s-.2.2-.213.229a.869.869,0,0,0-.043.374c0,.2.026.272.281.272h1.512c.358,0,.4,0,.494-.153.2-.348.272-.348.331-.348a2.232,2.232,0,0,1,.859.612c0,.119-.17.119-.459.119h-2.737c-.306,0-.306.051-.306.569,0,.111.025.238.246.238H486.7c.153,0,.195,0,.289-.11.119-.128.153-.162.213-.162.1,0,.6.332.6.442,0,.051-.169.23-.178.281a2.552,2.552,0,0,0-.042.45c0,.23.016,1.266.016,1.479,0,.366-.459.366-.493.366-.178,0-.187-.077-.2-.2-.008-.094-.034-.094-.246-.094h-.885c-.042,0-.1,0-.1.06a5.768,5.768,0,0,0,3.077,1.938c.213.068.238.076.238.1s-.017.051-.059.051c-.306,0-.621,0-.783.3-.042.085-.058.111-.109.111a6.362,6.362,0,0,1-1.862-1.419,5.9,5.9,0,0,1-.664-.876c-.025-.034-.033-.059-.067-.059s-.042.05-.042.085c0,.11-.009.569-.009.663,0,.246.051,1.538.051,1.64a.381.381,0,0,1-.153.348.592.592,0,0,1-.315.128c-.2,0-.228-.17-.228-.281,0-.051.05-1.36.05-1.606,0-.442,0-.493-.068-.493-.025,0-.441.374-.5.425a9.445,9.445,0,0,1-2.83,1.573c-.017,0-.042,0-.042-.035a2.609,2.609,0,0,1,.5-.339,10.009,10.009,0,0,0,2.287-1.862,2.09,2.09,0,0,0,.237-.374c0-.077-.067-.077-.144-.077Zm1.061-1.393c.273,0,.273-.094.273-.519,0-.221-.018-.314-.273-.314h-.943c-.255,0-.272.1-.272.314,0,.434.009.519.281.519Zm-.934.221c-.111,0-.272.008-.272.238,0,.688,0,.7.272.7h.918c.263,0,.289-.068.289-.561,0-.263-.009-.382-.281-.382Zm2.065-1.054c-.263,0-.28.068-.28.493,0,.255.017.34.271.34h.978c.272,0,.272-.06.272-.493,0-.238,0-.34-.272-.34Zm.969,2c.28,0,.28-.127.28-.382,0-.434,0-.561-.289-.561h-.96c-.28,0-.28.136-.28.374,0,.5,0,.569.28.569Z" fill="#1a1311"/>
    <path id="パス_265" data-name="パス 265" d="M490.895,27.384c-.238,0-.314-.179-.416-.442a2.107,2.107,0,0,0-.332-.57,1.173,1.173,0,0,1-.1-.11c0-.042.043-.051.094-.051.213,0,1.012.289,1.012.85,0,.187-.111.323-.256.323m.153,4.317c-.28,0-.339-.374-.356-.612-.051-.969-.068-1.079-.307-1.334-.033-.042-.238-.221-.238-.255,0-.059.307-.059.35-.076.195-.06.339-.1.857-1.445.179-.476.519-1.369.553-1.42.009-.017.025-.059.068-.059.026,0,.051.017.051.059,0,.357-.875,2.83-.875,3.213a3.851,3.851,0,0,0,.076.612,3.886,3.886,0,0,1,.221.9.377.377,0,0,1-.4.416m.51-6.212c-.186,0-.229-.094-.39-.468a2.233,2.233,0,0,0-.349-.587c-.025-.033-.094-.11-.094-.144s.06-.034.076-.034c.222,0,1.037.3,1.037.876,0,.152-.058.357-.28.357m4.964,3.059c-.229,0-.238.136-.246.365-.009.2-.1,1.1-.1,1.242s.1.17.179.17c.127,0,.136-.018.246-.187.17-.281.188-.315.256-.315a2.374,2.374,0,0,1,.781.612c0,.119-.17.119-.459.119h-.8c-.22,0-.238.06-.314.4-.076.323-.213.91-.9.91-.086,0-.086-.017-.162-.187a.659.659,0,0,0-.383-.34c-.2-.094-.2-.1-.2-.136s.026-.042.069-.042c.016,0,.484.05.578.05a.422.422,0,0,0,.467-.459c0-.135-.1-.195-.246-.195H493.5a.211.211,0,0,0-.229.153c-.051.229-.093.425-.416.425-.145,0-.222-.051-.222-.2s.3-1.946.3-2.159a.2.2,0,0,0-.237-.213c-.1,0-.6.035-.681.035-.025,0-.042-.017-.067-.051l-.17-.2c-.035-.034-.035-.043-.035-.052a.023.023,0,0,1,.026-.025c.161,0,.866.06,1.011.06.213,0,.221-.145.256-.391.084-.731.144-1.1.152-1.581,0-.06.025-.1.076-.1a3.611,3.611,0,0,1,.5.221.822.822,0,0,0,.246.026h1.437a.764.764,0,0,0,.315-.052c.051-.025.237-.22.288-.22s.613.356.613.561c0,.1-.051.144-.17.237-.06.043-.06.077-.086.315-.008.11-.076.773-.076.824,0,.077.034.162.178.162.077,0,.094-.035.179-.145.187-.263.213-.3.28-.3a1.693,1.693,0,0,1,.655.561c0,.11-.187.11-.451.11ZM493.564,25.4c-.212,0-.255.059-.407.3a4.175,4.175,0,0,1-.809.986c-.025,0-.025-.026-.025-.035,0-.025.17-.365.221-.484a7.548,7.548,0,0,0,.6-1.878c.018-.247.026-.281.094-.281.086,0,.7.34.7.485,0,.042-.195.17-.221.2a1.3,1.3,0,0,0-.153.373c0,.077.06.1.28.1h2.049c.365,0,.408,0,.611-.237.17-.2.188-.222.239-.222.076,0,.714.459.714.57s-.162.119-.451.119Zm.153,3.153c-.059,0-.22,0-.246.162,0,.017-.136,1.385-.136,1.4,0,.213.178.213.246.213h.349c.212,0,.229-.094.246-.247.026-.212.145-1.156.145-1.3a.211.211,0,0,0-.246-.23Zm.188-1.827c-.213,0-.231.093-.238.136-.051.34-.128,1.19-.128,1.249,0,.213.186.213.247.213h.356c.23,0,.247-.119.264-.238.009-.043.118-1.122.118-1.139,0-.187-.145-.221-.246-.221Zm1.164,1.827a.209.209,0,0,0-.221.195c-.01.085-.137,1.344-.137,1.377,0,.137.1.2.239.2h.433c.145,0,.221-.051.239-.153.007-.052.134-1.267.134-1.394a.2.2,0,0,0-.237-.23Zm.246-1.827a.216.216,0,0,0-.246.161c-.025.094-.145,1.165-.145,1.216a.214.214,0,0,0,.246.221h.4c.179,0,.229-.085.238-.221.009-.06.085-1.1.085-1.139,0-.238-.17-.238-.238-.238Z" fill="#1a1311"/>
    <path id="パス_266" data-name="パス 266" d="M498.775,27.673c-.034-.043-.034-.043-.034-.051a.027.027,0,0,1,.025-.025c.145,0,.817.05.969.05a.3.3,0,0,0,.3-.127c.222-.238.247-.272.28-.272s.544.3.544.45a.124.124,0,0,1-.059.094c-.084.06-.2.145-.213.187s-.008.926-.008,1.063c0,1.062.025,1.13.085,1.266.222.526.79.7,2.729.7a23.766,23.766,0,0,0,3.059-.237,1.609,1.609,0,0,1,.188-.017c0,.034-.036.076-.12.161a2.648,2.648,0,0,0-.238.417c-.017.034-.059.22-.094.246-.007.017-.875.017-.968.017-.8,0-2.125-.017-2.9-.111a2.025,2.025,0,0,1-1.674-.807c-.043-.076-.2-.578-.306-.578a5.343,5.343,0,0,0-.935,1.19c-.025.153-.059.3-.17.3-.128,0-.51-.68-.51-.689,0-.068.093-.093.144-.11.128-.043,1-.468,1.114-.757.034-.093.034-1.326.034-1.521,0-.552,0-.621-.3-.621-.111,0-.6.043-.706.043-.026,0-.042-.017-.077-.059Zm1.495-1.462c-.109,0-.109,0-.39-.535a4.292,4.292,0,0,0-.68-.952c-.025-.026-.161-.128-.161-.162s.051-.034.06-.034c.475,0,1.58.655,1.47,1.36-.026.162-.162.323-.3.323m2.219,3.969c-.11,0-.144.008-.161.162-.025.246-.323.305-.459.305-.085,0-.179-.008-.179-.195,0-.093.051-.5.06-.586.034-.383.052-1.224.052-1.947,0-.237-.036-1.461-.036-1.5,0-.025,0-.077.036-.077a1.771,1.771,0,0,1,.543.239.48.48,0,0,0,.22.068c.154,0,.2,0,.256-.051a1.9,1.9,0,0,0,.17-.672c0-.153-.111-.153-.2-.153h-.3c-.748,0-.995.017-1.079.017a1.379,1.379,0,0,1-.179.026c-.025,0-.042-.026-.077-.06l-.161-.2c-.034-.035-.034-.043-.034-.051s.008-.026.025-.026c.061,0,.323.034.375.034.416.017.773.026,1.164.026h1.224c.153,0,.331,0,.671-1.122.008-.034.043-.2.051-.238a.084.084,0,0,1,.085-.076c.094,0,.689.348.689.441,0,.043-.213.085-.247.1a3.494,3.494,0,0,0-.807.842.071.071,0,0,0,.076.051h.492c.434,0,.495,0,.749-.374.025-.043.085-.119.144-.119a2.186,2.186,0,0,1,.715.6c0,.119-.17.119-.459.119h-1.887c-.263,0-.3.025-.5.289a5.718,5.718,0,0,0-.408.536c0,.051.068.051.094.051h1.181a.3.3,0,0,0,.3-.12c.137-.161.154-.178.2-.178a1.424,1.424,0,0,1,.6.365c0,.052-.2.2-.212.23-.034.059-.034.127-.034.748,0,.4.085,2.38.085,2.558,0,.238-.179.34-.4.34-.2,0-.221-.093-.221-.2,0-.144,0-.2-.119-.2Zm.17-4.768c-.17,0-.213-.077-.373-.408a3.8,3.8,0,0,0-.408-.569c-.026-.026-.112-.1-.112-.128s.061-.016.069-.016c.17,0,1.283.356,1.105.951a.278.278,0,0,1-.281.17m1.828,3.443c.254,0,.254-.111.254-.366,0-.476-.008-.552-.263-.552h-1.92c-.255,0-.255.11-.255.382,0,.467,0,.536.255.536Zm-.025-1.148c.254,0,.254-.068.254-.493,0-.23,0-.34-.254-.34h-1.887c-.264,0-.264.1-.264.349,0,.424,0,.484.264.484Zm.033,2.252c.256,0,.256-.144.256-.433,0-.306,0-.442-.256-.442h-1.92c-.23,0-.256.127-.256.246,0,.57,0,.629.264.629Z" fill="#1a1311"/>
    <path id="パス_267" data-name="パス 267" d="M508.891,30.809c-.247,0-.247.162-.247.306,0,.247,0,.518-.4.518-.221,0-.281-.093-.281-.34,0-.611.043-3.331.043-3.892a9.119,9.119,0,0,0-.051-1.131c-.008-.042-.025-.229-.025-.272,0-.059.008-.076.076-.076.026,0,.867.161.867.34,0,.06-.025.085-.153.221a1.787,1.787,0,0,0-.068.646c0,.5-.009,2.711-.009,3.161,0,.17.025.3.247.3h1.717a.2.2,0,0,0,.237-.17c.009-.051.052-2.677.052-3.782,0-.757-.017-1.717-.017-1.793s-.043-.366-.043-.425.017-.068.076-.068.442.076.536.093c.178.034.289.051.289.162,0,.051-.161.246-.178.288a.991.991,0,0,0-.043.366c-.025,1.572-.025,3.595-.025,5.031,0,.222.068.3.254.3h1.734c.238,0,.256-.136.256-.34,0-.332.016-1.819.016-2.116,0-.731-.016-1.709-.025-1.81,0-.06-.034-.357-.034-.417s.017-.076.068-.076.824.178.824.365c0,.034-.136.17-.144.2a5.3,5.3,0,0,0-.051.935c0,.382.017,2.082.017,2.43,0,.2.008,1.114.008,1.292a.427.427,0,0,1-.433.476c-.246,0-.255-.187-.255-.45,0-.137-.017-.264-.247-.264Z" fill="#1a1311"/>
    <path id="パス_268" data-name="パス 268" d="M517.212,24.877c-.256,0-.264.161-.264.365,0,3.638,0,4.037.06,5.754,0,.051.009.195.009.289a.473.473,0,0,1-.5.544c-.178,0-.178-.2-.178-.238,0-.238.042-.62.051-.859.016-.288.058-2.915.058-3.2,0-.773-.007-2.354-.05-2.915a1.248,1.248,0,0,1-.034-.17c0-.034.034-.042.077-.042s.1.017.433.187a.737.737,0,0,0,.322.068h.536a.333.333,0,0,0,.247-.077c.025-.034.153-.221.2-.221a4.09,4.09,0,0,1,.672.391.136.136,0,0,1,.067.119c0,.085-.042.1-.254.162-.093.025-.111.059-.281.348a6.136,6.136,0,0,1-.6.893c-.136.161-.188.238-.188.306s.171.22.256.314A2.33,2.33,0,0,1,518.7,28.8c0,1.012-.6,1.377-.782,1.377-.085,0-.085-.034-.152-.314-.018-.085-.086-.187-.324-.357-.008-.008-.093-.068-.119-.085.085,0,.324-.009.392-.017.2-.017.467-.034.467-.833a2.479,2.479,0,0,0-.5-1.59c-.2-.314-.221-.348-.221-.416a14.341,14.341,0,0,0,.477-1.521c0-.17-.154-.17-.221-.17Zm5.184,4.207c-.2,0-.238.051-.3.306a3.389,3.389,0,0,1-2.957,2.49c-.026,0-.061,0-.061-.025s.153-.068.2-.077a4.186,4.186,0,0,0,2.006-1.691,2.805,2.805,0,0,0,.315-.867c0-.136-.068-.136-.3-.136-.272,0-.289.034-.459.314a5.408,5.408,0,0,1-1.335,1.4,2.648,2.648,0,0,1-1.2.425c-.034,0-.051-.017-.051-.026.178-.085.408-.178.467-.2a3.819,3.819,0,0,0,1.606-1.827c0-.085-.034-.085-.356-.085-.145,0-.179.025-.434.272a4.683,4.683,0,0,1-1.292.952.018.018,0,0,1-.016-.017c0-.017.237-.238.279-.29a7.223,7.223,0,0,0,1.4-1.852c0-.11-.12-.11-.153-.11-.111,0-.664.042-.706.042-.025,0-.042-.017-.067-.051l-.17-.2c-.035-.034-.035-.042-.035-.059s.017-.017.035-.017c.058,0,.322.025.373.034.39.017.766.025,1.164.025H522.5c.23,0,.255,0,.3-.017.1-.033.408-.492.45-.492s.638.475.638.62c0,.1-.119.111-.273.111h-2.694a.412.412,0,0,0-.391.17,3.555,3.555,0,0,0-.408.569c0,.077.1.077.154.077h2.379a.294.294,0,0,0,.213-.052.858.858,0,0,1,.17-.11c.017,0,.467.221.561.272a.126.126,0,0,1,.051.11c0,.077-.051.1-.2.179-.059.034-.059.06-.076.263a4.567,4.567,0,0,1-.272,1.615c-.145.34-.425.757-.68.757-.085,0-.136-.052-.2-.145a2.281,2.281,0,0,0-.611-.553.772.772,0,0,1-.155-.118c0-.017.035-.017.069-.017.111,0,.875,0,.926-.009.315-.059.392-1.487.392-1.742,0-.17-.077-.221-.264-.221Zm-.475-4.4a.314.314,0,0,0,.3-.144c.119-.128.136-.128.154-.128a1.621,1.621,0,0,1,.568.468c0,.042-.135.153-.152.187a6.933,6.933,0,0,0-.06,1.164,4.6,4.6,0,0,1-.051.935.36.36,0,0,1-.34.195.213.213,0,0,1-.238-.195c-.026-.119-.068-.17-.254-.17h-1.479c-.187,0-.205.06-.264.2a.346.346,0,0,1-.349.2c-.229,0-.246-.145-.246-.374,0-.052,0-.085.025-.383.009-.178.009-.586.009-.782,0-.731-.017-.969-.034-1.164-.008-.034-.042-.2-.042-.238s.016-.06.059-.06a3.571,3.571,0,0,1,.553.247.91.91,0,0,0,.289.042Zm-.026,1.037c.254,0,.254-.119.254-.323,0-.425,0-.493-.254-.493h-1.521c-.264,0-.264.119-.264.323,0,.417,0,.493.264.493Zm-.017,1.054c.264,0,.264-.119.264-.527,0-.161,0-.306-.264-.306h-1.5c-.264,0-.264.145-.264.289,0,.434,0,.544.272.544Z" fill="#1a1311"/>
    <path id="パス_269" data-name="パス 269" d="M527.709,26.967a.458.458,0,0,0,.391-.229c.084-.111.153-.187.2-.187.067,0,.535.408.535.51,0,.127-.051.127-.5.127h-2.184c-.4,0-.5.009-.807.017-.052,0-.3.026-.349.026a.106.106,0,0,1-.068-.034l-.187-.221c-.025-.034-.034-.034-.034-.051s.025-.017.034-.017c.026,0,.2.017.23.017.332.017.833.042,1.131.042Zm-.187,1.335a.44.44,0,0,0,.391-.23c.085-.1.152-.187.195-.187.069,0,.535.408.535.519,0,.127-.042.127-.5.127h-1.02c-.025,0-.152,0-.152.094s.025.093.305.238c.629.314.918.476.918.85,0,.187-.1.365-.263.365s-.17-.042-.349-.391c-.1-.195-.391-.7-.526-.7-.094,0-.094.136-.1.23s-.008.892-.008,1.054c0,.144.017.747.017.866a1.681,1.681,0,0,1-.026.451.46.46,0,0,1-.356.187c-.2,0-.2-.119-.2-.187,0-.246.05-1.343.05-1.564,0-.493,0-.544-.068-.544-.025,0-.068.06-.1.119a6.805,6.805,0,0,1-.892,1.08,3.4,3.4,0,0,1-.451.356.039.039,0,0,1-.042-.042c0-.025.39-.561.468-.671a5.04,5.04,0,0,0,.8-1.658c0-.1-.034-.136-.22-.136-.239,0-.426.009-.614.026-.025,0-.134.017-.16.017a.073.073,0,0,1-.068-.043l-.2-.221c-.026-.025-.026-.034-.026-.042s.017-.017.033-.017.213.017.256.017c.391.017.832.042,1.088.042.178,0,.2-.085.2-.195,0-.145-.008-.315-.008-.459-.009-.043-.042-.221-.042-.255,0-.051.067-.06.092-.06.06,0,.646.06.646.23,0,.051-.145.246-.152.289s-.009.263-.009.3c0,.085.042.145.161.145Zm-.943-2.839c-.562,0-.8.009-.9.009-.052.008-.289.034-.34.034a.116.116,0,0,1-.077-.043l-.187-.213a.229.229,0,0,1-.025-.05c0-.018.016-.026.034-.026.161,0,.892.06,1.037.06.264,0,.264-.017.264-.57a1.066,1.066,0,0,0-.036-.348c0-.017-.033-.128-.033-.145s.017-.076.1-.076c.025,0,.663.127.663.221,0,.017-.094.212-.11.246a.792.792,0,0,0-.077.391c0,.2.008.281.187.281h.2a.368.368,0,0,0,.289-.154c.2-.229.23-.254.289-.254a1.16,1.16,0,0,1,.646.518c0,.119-.17.119-.45.119h-.366c-.026,0-.068.009-.068.051,0,.085.4.272.4.349,0,.059-.239.237-.272.28-.094.1-.477.586-.57.68a.8.8,0,0,1-.2.119c-.026,0-.035-.034-.035-.051a3.843,3.843,0,0,1,.154-.374,2.59,2.59,0,0,0,.22-.816c0-.153-.025-.238-.254-.238Zm-.876.187a.92.92,0,0,1,.681.807c0,.162-.1.383-.3.383s-.212-.051-.3-.595a2.885,2.885,0,0,0-.127-.51c0-.017-.018-.059,0-.068a.053.053,0,0,1,.042-.017m4.249,1.615c-.279,0-.279.136-.3.62a5.1,5.1,0,0,1-.672,2.779,2.556,2.556,0,0,1-1.037.927c-.025,0-.058,0-.058-.026,0-.05.177-.2.212-.238.934-1.215,1.011-1.98,1.011-4.011,0-1-.016-1.241-.051-1.759-.008-.094-.051-.536-.051-.57s0-.076.043-.076a2.515,2.515,0,0,1,.323.11.982.982,0,0,0,.246.042,6.084,6.084,0,0,0,1.624-.577,1.665,1.665,0,0,1,.246-.162,2.54,2.54,0,0,1,.824.553c0,.076-.034.085-.476.11-.2.017-1.946.213-2.048.255s-.128.085-.128,1.1c0,.638,0,.706.3.706h1.265a.353.353,0,0,0,.358-.162c.212-.28.238-.314.314-.314s.119.042.459.383c.136.135.145.144.145.195,0,.119-.162.119-.5.119h-.535c-.06,0-.179.042-.2.238-.008.059-.017,2.456-.017,2.635,0,.195.017,1.037.017,1.207a.382.382,0,0,1-.425.433c-.2,0-.221-.068-.221-.2,0-.085.025-.773.051-1.479.008-.314.008-1.759.008-2.2,0-.467-.025-.637-.22-.637Z" fill="#1a1311"/>
    <path id="パス_270" data-name="パス 270" d="M534.84,26.339c.178,0,.239-.059.239-.323,0-.459-.018-.527-.256-.527h-.2c-.162,0-.485,0-.741.017a1.2,1.2,0,0,1-.177.026c-.026,0-.043-.026-.077-.06l-.162-.195a.127.127,0,0,1-.034-.052c0-.017.009-.025.026-.025.059,0,.34.034.391.034.246.017.569.026.807.026h.187c.229,0,.229-.094.229-.561a1.622,1.622,0,0,0-.017-.34,1.288,1.288,0,0,1-.034-.145c0-.076.069-.076.1-.076.067,0,.739.136.739.3,0,.059-.018.077-.136.17-.052.043-.144.128-.144.442,0,.213.2.213.272.213h.3a.416.416,0,0,0,.205-.026c.067-.034.306-.314.373-.314.119,0,.468.331.468.45s-.161.119-.45.119h-.9c-.144,0-.272.017-.272.263,0,.528,0,.587.262.587h.18a.253.253,0,0,0,.254-.128c.043-.068.077-.11.144-.11.094,0,.477.238.477.357a3.341,3.341,0,0,1-.187.391,2.371,2.371,0,0,0-.042.646c0,.178.034.943.034,1.1,0,.128-.043.383-.307.383-.127,0-.144-.034-.221-.187-.043-.093-.076-.093-.348-.093-.238,0-.238.093-.238.518,0,.408,0,.51.247.51h.509c.154,0,.2,0,.3-.153.061-.093.171-.238.256-.238.119,0,.5.365.5.485s-.162.127-.459.127h-1.1c-.134,0-.254.017-.254.238,0,.2.034,1.045.034,1.224a.353.353,0,0,1-.383.391c-.2,0-.229-.111-.229-.247,0-.084.059-1.164.059-1.368,0-.221-.127-.238-.246-.238h-.289c-.153,0-.476,0-.731.025-.025,0-.153.018-.178.018s-.051-.018-.077-.06l-.161-.187c-.035-.043-.043-.051-.043-.06s.018-.016.034-.016c.06,0,.332.025.391.025.247.017.569.034.808.034h.238c.254,0,.254-.043.254-.688,0-.2,0-.34-.254-.34h-.187c-.077,0-.2,0-.239.136a.367.367,0,0,1-.4.331c-.162,0-.162-.2-.162-.272s.007-.238.034-.57c.016-.229.016-.433.016-.756,0-.357,0-.909-.016-1.079-.009-.051-.068-.255-.068-.3s.051-.059.1-.059a2.519,2.519,0,0,1,.365.161.49.49,0,0,0,.221.043Zm-.212.221c-.239,0-.247.11-.247.349,0,.382,0,.484.247.484h1.317c.255,0,.255-.1.255-.468,0-.246,0-.365-.246-.365Zm1.317,1.912c.247,0,.247-.127.247-.391,0-.374,0-.467-.247-.467h-1.309c-.255,0-.255.144-.255.4,0,.349,0,.459.255.459Zm1.513-1.079c-.034-.043-.043-.043-.043-.06s.017-.017.035-.017c.058,0,.331.026.39.026.246.017.57.034.807.034h.57c.161,0,.2,0,.306-.145.067-.1.17-.246.255-.246.119,0,.493.365.493.493s-.161.119-.45.119h-.561c-.256,0-.256.136-.256.314v.816c0,.23.17.23.264.23h.739c.154,0,.2,0,.3-.145.069-.093.17-.246.255-.246a1.016,1.016,0,0,1,.5.492c0,.128-.161.128-.459.128H539.26c-.247,0-.247.153-.247.238,0,.034.017.731.017.833,0,.178.051.969.051,1.131a.432.432,0,0,1-.434.492c-.186,0-.221-.1-.221-.255,0-.17.051-1.869.051-2.108s-.025-.331-.228-.331h-.188c-.161,0-.484,0-.739.017-.026,0-.153.026-.179.026s-.043-.026-.076-.06l-.162-.2a.081.081,0,0,1-.033-.059c0-.008.016-.017.025-.017.068,0,.34.026.391.034.246.009.57.026.816.026h.152c.231,0,.231-.06.231-.808,0-.408,0-.552-.231-.552-.084,0-.484.043-.56.043-.034,0-.051-.018-.076-.052Zm-.434-.17a8.784,8.784,0,0,0,1.232-2.6c.018-.068.069-.4.094-.467a.121.121,0,0,1,.119-.06c.17,0,.629.238.629.357,0,.042-.11.2-.11.238a4.491,4.491,0,0,0,2.141,1.972c.026.017.188.06.188.085,0,.008-.536.238-.639.3a1.01,1.01,0,0,1-.177.111,5.427,5.427,0,0,1-1.412-1.81c-.034-.077-.169-.425-.2-.476a.056.056,0,0,0-.051-.034c-.034,0-.051.034-.059.059a5.332,5.332,0,0,1-1.844,2.474.4.4,0,0,1,.084-.145" fill="#1a1311"/>
    <path id="パス_271" data-name="パス 271" d="M543.434,27.979c.28,0,.629,0,.841-.008.229-.009.229-.034.229-.085a4.442,4.442,0,0,0-.2-.553.057.057,0,0,1,.059-.042c.119,0,.816.552.816,1.037a.335.335,0,0,1-.331.365c-.222,0-.246-.17-.289-.425-.017-.127-.026-.153-.094-.153a1.983,1.983,0,0,0-.381.1,3.637,3.637,0,0,0-.044.74c0,.365.044,1.989.044,2.32a.481.481,0,0,1-.452.51c-.144,0-.16-.145-.16-.357,0-.383.059-2.091.059-2.439a4.178,4.178,0,0,0-.026-.587c-.017-.068-.043-.085-.153-.085a4.562,4.562,0,0,0-.781.153c-.043.017-.2.145-.247.145-.084,0-.307-.672-.307-.689s.018-.025.043-.025.314.034.374.042c.043,0,.349.017.426.017.2,0,.237-.059.526-.612a19.041,19.041,0,0,0,.867-1.793c.076-.212.084-.238.136-.238.025,0,.714.323.714.45,0,.068-.018.068-.2.128a.509.509,0,0,0-.255.179c-.365.476-.867,1.3-1.266,1.75-.035.034-.06.094-.043.119s.059.034.094.034m-.2,1.411c0,.06-.187.238-.212.289-.187.349-.426.943-.647,1.283-.017.026-.2.306-.289.306a.036.036,0,0,1-.033-.034c0-.025.254-.781.289-.909a4.87,4.87,0,0,0,.178-1.13c0-.153,0-.179.052-.179a2.407,2.407,0,0,1,.331.119c.213.094.331.162.331.255m-.009-3.238a.663.663,0,0,1,.323.527.253.253,0,0,1-.255.272.279.279,0,0,1-.187-.085c-.068-.077-.373-.5-.449-.586s-.468-.426-.468-.443c0-.033.034-.042.067-.042.086,0,.485.144.579.144.059,0,.076-.033.2-.314a3.806,3.806,0,0,0,.349-1.411c0-.034,0-.094.051-.094.009,0,.789.256.789.434,0,.025,0,.077-.033.094s-.23.1-.264.136c-.1.093-.475.663-.569.79-.067.085-.3.382-.28.459a1.114,1.114,0,0,0,.152.119m1.488,2.719c-.035-.042-.035-.042-.035-.059s.019-.017.026-.017c.162,0,.935.051,1.114.051a.271.271,0,0,0,.247-.119c.085-.119.127-.17.212-.17.136,0,.551.238.551.408a.115.115,0,0,1-.083.1c-.179.068-.179.068-.239.178a5.942,5.942,0,0,1-.927,1.479,3.914,3.914,0,0,1-1.393.986c-.009,0-.025,0-.025-.017s.007-.033.05-.076a9.459,9.459,0,0,0,.868-.9,4.479,4.479,0,0,0,.858-1.564c0-.068-.034-.068-.28-.068-.1,0-.629.034-.705.034-.026,0-.043-.017-.078-.051Zm.45,1.3a.328.328,0,0,1-.289.365c-.185,0-.2-.22-.247-.578a2.173,2.173,0,0,0-.227-.637c-.01-.034-.036-.077-.036-.093a.046.046,0,0,1,.043-.043,1.408,1.408,0,0,1,.365.272,1.15,1.15,0,0,1,.391.714m.961-2.312a.252.252,0,0,0-.247.094.473.473,0,0,1-.357.238c-.2,0-.2-.128-.2-.357,0-.247.034-1.47.034-1.742,0-.145-.017-.842-.017-1,0-.034,0-.06.051-.06.085,0,.476.281.578.281.171,0,.688-.943.7-1.114.009-.059.017-.118.069-.118.016,0,.425.2.493.238.119.059.238.119.238.187s-.349.152-.408.187a2.356,2.356,0,0,0-.629.586c0,.051.017.051.161.051h1.632c.178,0,.238-.008.306-.119.186-.289.213-.323.3-.323.11,0,.586.314.586.5a.244.244,0,0,1-.1.17c-.119.1-.153.137-.153.281,0,.128.026.765.026.909,0,.162.059.935.059,1,0,.383-.408.408-.451.408-.119,0-.135-.034-.186-.2-.026-.1-.137-.1-.2-.1h-.979c-.042,0-.076,0-.076.034s.018.043.162.1c.067.017.246.094.246.2,0,.068-.018.076-.152.178a.142.142,0,0,0-.052.1,6.035,6.035,0,0,0,.306.646c.068.127.178.34.281.34.2,0,.781-.612.969-.824a.445.445,0,0,1,.11-.111,2.491,2.491,0,0,1,.6.595c0,.034-.027.043-.052.043a2.031,2.031,0,0,1-.221-.009c-.247,0-.425.085-1.156.417-.152.068-.152.076-.152.127a4.031,4.031,0,0,0,1.478,1.5c.272.161.306.17.306.2s-.026.025-.136.034a1.992,1.992,0,0,0-.484.093,1.44,1.44,0,0,1-.255.119,6.617,6.617,0,0,1-1.429-2.158c-.032-.077-.186-.527-.2-.527s-.025.246-.025.288c0,.085.016,1.42.016,1.573,0,.518,0,.7-.186.85a1.276,1.276,0,0,1-.664.229.091.091,0,0,1-.093-.059,1.033,1.033,0,0,0-.171-.289c-.051-.051-.322-.281-.322-.289,0-.026.025-.026.246-.026.637,0,.672-.085.672-.7,0-.391,0-2.176-.043-2.422-.034-.2-.126-.247-.3-.247Zm.018-2.3c-.112,0-.222.017-.257.179v.484c0,.221.162.221.265.221h2.209c.255,0,.255-.034.255-.654,0-.23-.17-.23-.255-.23Zm0,1.105c-.095,0-.257.008-.257.238,0,.722,0,.74.257.74h2.242a.211.211,0,0,0,.238-.23c0-.714,0-.748-.247-.748Z" fill="#1a1311"/>
    <path id="パス_272" data-name="パス 272" d="M554.187,25.565c0,.026.017.059.017.093a6.53,6.53,0,0,1,.084.918,4.36,4.36,0,0,1-.875,2.491c-.679,1.036-1.113,1.24-1.453,1.24-.56,0-1.062-.875-1.062-1.912a2.992,2.992,0,0,1,.943-2.167,3.518,3.518,0,0,1,2.711-1.105,2.773,2.773,0,0,1,1.369.272,2.664,2.664,0,0,1,1.479,2.473,3.169,3.169,0,0,1-2.142,2.992,5.222,5.222,0,0,1-1.411.314c-.033,0-.085-.008-.085-.059,0-.026.017-.034.229-.119.884-.349,2.729-1.08,2.729-3.2a2.189,2.189,0,0,0-2.355-2.354c-.169,0-.178.068-.178.119m-2.762,2.609c0,.553.221,1.309.739,1.309.247,0,.45-.1,1.036-.986a4.848,4.848,0,0,0,.834-2.473c0-.51-.034-.553-.144-.553a2.935,2.935,0,0,0-2.465,2.7" fill="#1a1311"/>
    <path id="パス_273" data-name="パス 273" d="M562.4,25.412c0,.119-.043.213-.322.4a22.013,22.013,0,0,0-1.93,1.725,5.953,5.953,0,0,0-.773.935c0,.034.033.051.068.051a11.3,11.3,0,0,0,1.512-.536,5.143,5.143,0,0,1,1.709-.552c.177,0,.791.093.791.408,0,.212-.315.281-.444.281a3.136,3.136,0,0,0-1.164.127c-1.291.357-1.419,1.113-1.419,1.428,0,.816.562.935,1.538,1.147.426.093.519.349.519.425,0,.17-.237.281-.569.281a2.318,2.318,0,0,1-1.453-.57,1.283,1.283,0,0,1-.366-.969,2.1,2.1,0,0,1,.348-1.147,3.3,3.3,0,0,0,.2-.272c0-.017-.009-.026-.034-.026a2.868,2.868,0,0,0-.629.34c-.45.349-.578.434-.841.434-.348,0-.442-.4-.442-.485,0-.161.068-.229.314-.459.076-.076,1.531-1.844,1.836-2.167.255-.263.766-.807.766-1a.146.146,0,0,0-.145-.153,1,1,0,0,0-.536.323c-.212.229-.323.349-.62.349a.474.474,0,0,1-.484-.366,3.208,3.208,0,0,1-.137-.374.054.054,0,0,1,.061-.059c.025,0,.339.042.407.042a1.118,1.118,0,0,0,.3-.042,4.421,4.421,0,0,1,1.131-.255.759.759,0,0,1,.8.739m1.861.926c0,.128-.119.324-.271.324s-.205-.111-.408-.434a2.383,2.383,0,0,0-.528-.586c-.025-.026-.11-.1-.11-.136,0-.06.136-.06.161-.06.383,0,1.156.4,1.156.892m.893-.671a.242.242,0,0,1-.221.255c-.178,0-.289-.153-.425-.348a1.99,1.99,0,0,0-.706-.536c-.085-.042-.1-.076-.1-.1,0-.076.2-.076.322-.076.315,0,1.131.246,1.131.807" fill="#1a1311"/>
    <path id="パス_274" data-name="パス 274" d="M568.935,25.429c-.112,0-.469.306-.6.425-.111.1-.433.391-.654.391-.315,0-.553-.6-.553-.629,0-.051.017-.085.067-.085s.248.034.29.034c.272,0,.374-.017.883-.34a1.461,1.461,0,0,1,.817-.28c.56,0,.687.382.687.51,0,.178-.076.28-.517.688a7.7,7.7,0,0,0-1.25,1.726c0,.042.06.051.086.051.109,0,.586-.009.687,0a6.921,6.921,0,0,1,1.608.339.322.322,0,0,0,.134.035c.112,0,.162-.7.162-.783,0-.068-.05-.442-.05-.475,0-.052.058-.052.093-.052s.765.137.765.468a1.785,1.785,0,0,1-.187.331c0,.017-.119.7-.119.723,0,.11.051.136.2.212.331.179,1.1.579,1.1,1.02a.328.328,0,0,1-.314.323c-.17,0-.264-.068-.859-.577-.017-.009-.263-.222-.348-.222-.068,0-.093.06-.118.1a3.687,3.687,0,0,1-1.666,1.573,3.153,3.153,0,0,1-.918.339c-.009,0-.069,0-.069-.025a1.45,1.45,0,0,1,.162-.119,5.28,5.28,0,0,0,1.75-1.683,1.57,1.57,0,0,0,.255-.484c0-.077,0-.119-.468-.349a3.673,3.673,0,0,0-1.563-.382c-.526,0-.544.034-.689.34-.73,1.556-.875,1.87-1.41,1.87-.433,0-.561-.468-.561-.68,0-.722.757-1.368,1.649-1.683a.3.3,0,0,0,.212-.17c.2-.314,1.258-1.921,1.3-2a1.2,1.2,0,0,0,.111-.383c-.009-.042-.034-.1-.1-.1m-2.848,4.1c0,.145.068.247.221.247.467,0,1.019-1.25,1.019-1.284s-.008-.043-.033-.043c-.307,0-1.207.579-1.207,1.08" fill="#1a1311"/>
    <path id="パス_275" data-name="パス 275" d="M575.1,26.687c-.186,0-.773,0-1.071.017a1.213,1.213,0,0,1-.178.026c-.034,0-.043-.026-.076-.06l-.162-.195c-.034-.034-.043-.043-.043-.051s.017-.026.035-.026c.033,0,.449.043.535.043.62.026.637.017,1.121.017.264,0,.264-.068.264-.519,0-.11,0-.8-.025-.841-.06-.1-.111-.11-.221-.11s-.952.042-1.139.042c-.153,0-.17,0-.17-.042s.017-.043.2-.077a8.53,8.53,0,0,0,2.1-.561c.307-.136.34-.153.408-.153s.8.332.8.459c0,.085-.034.085-.519.136-.9.094-.9.111-.9.425,0,.11.009,1.071.018,1.105a.218.218,0,0,0,.238.136h.152c.2,0,.246-.017.349-.136.238-.289.264-.314.34-.314a2.367,2.367,0,0,1,.739.56c0,.119-.17.119-.45.119h-1.139c-.247,0-.263.034-.263.646,0,.247.084.264.153.281.357.068,1.249.289,1.249.935,0,.306-.187.416-.289.416-.17,0-.2-.059-.407-.586a1.1,1.1,0,0,0-.647-.655c-.068,0-.068.059-.068.128,0,.331.025,2.728.051,3.051.009.161.025.459.025.493,0,.323-.391.425-.492.425-.179,0-.179-.119-.179-.247,0-.416.052-2.244.052-2.617,0-.086.008-.426.008-.5s-.018-.144-.1-.144c-.043,0-.051.016-.153.127a8.815,8.815,0,0,1-1.624,1.53c-.068.051-.1.077-.135.077a.041.041,0,0,1-.043-.043c0-.009.535-.629.611-.731a10.441,10.441,0,0,0,1.471-2.465.1.1,0,0,0-.11-.119Zm3.842.6c0,1.487,0,1.657.017,2.031,0,.06.017.323.017.374,0,.238-.128.417-.468.417-.212,0-.212-.1-.212-.162s.026-.2.026-.238c.025-.272.042-1.241.042-2.414,0-.382,0-1.4-.068-1.972a1.2,1.2,0,0,1-.017-.178c0-.043.008-.076.068-.076.042,0,.884.152.884.306a.135.135,0,0,1-.043.093c-.17.153-.2.187-.221.306-.008.034-.025.731-.025,1.513m1.665.178c0,.51.052,2.737.052,3.188,0,.611-.042.781-.187.883a1.341,1.341,0,0,1-.595.281c-.12,0-.136-.051-.178-.187-.1-.315-.639-.5-.732-.527-.025-.009-.077-.034-.077-.068s.052-.034.061-.034c.109,0,.56.076.654.076.416,0,.416-.076.416-.731,0-.79,0-4.921-.043-5.515-.008-.094-.076-.553-.076-.578,0-.043.051-.077.094-.077.025,0,.722.127.773.136s.127.043.127.128-.042.1-.135.17a.405.405,0,0,0-.128.254c-.016.145-.026,2.159-.026,2.6" fill="#1a1311"/>
    <path id="パス_276" data-name="パス 276" d="M583.868,28.93c-.246,0-.246.069-.279.374a3.31,3.31,0,0,1-1.216,2.4.047.047,0,0,1-.051-.042c0-.009.2-.341.238-.408.349-.723.493-1.471.493-3.587,0-.671-.017-2.065-.076-2.694-.009-.093-.068-.578-.068-.595,0-.051.008-.068.059-.068a1.681,1.681,0,0,1,.425.144,1.18,1.18,0,0,0,.672.2h4.155a.338.338,0,0,0,.3-.1c.144-.153.153-.17.213-.17s.688.348.688.484c0,.077-.068.128-.136.162-.2.1-.221.11-.221.918,0,.7.051,3.833.051,4.555,0,.374,0,1.318-.79,1.318-.078,0-.085-.018-.145-.187-.119-.307-.638-.485-.714-.5-.025-.008-.152-.034-.152-.085,0-.034.058-.051.1-.051.111,0,.646.043.765.043.331,0,.34-.094.34-1.173,0-.111,0-.706-.017-.773-.034-.154-.162-.154-.256-.154h-1.724c-.23,0-.272.085-.264.332.009.612.009,1.309.009,1.963,0,.162-.025.221-.085.28a.635.635,0,0,1-.4.154c-.171,0-.179-.111-.179-.221,0-.315.051-1.879.051-2.236,0-.187-.059-.272-.264-.272Zm1.547-2.345c.256,0,.256,0,.256-.859,0-.824,0-.849-.256-.849h-1.547c-.253,0-.253.033-.253.739,0,.969.007.969.263.969Zm0,2.116a.219.219,0,0,0,.222-.1,9.309,9.309,0,0,0,.034-.994c0-.757,0-.791-.256-.791h-1.547a.209.209,0,0,0-.237.153c-.009.043-.009,1.241-.009,1.436,0,.137,0,.3.246.3Zm1.1-3.824c-.111,0-.222.016-.256.152-.008.051-.008,1.029-.008,1.233,0,.178,0,.323.264.323h1.69c.264,0,.264-.094.264-.578,0-1.13-.009-1.13-.28-1.13Zm0,1.937c-.264,0-.264.025-.264.808a8.593,8.593,0,0,0,.034.968c.043.111.169.111.23.111h1.732c.256,0,.256-.059.256-.62,0-1.25-.009-1.267-.271-1.267Z" fill="#1a1311"/>
    <path id="パス_303" data-name="パス 303" d="M637.57,32.109a5.206,5.206,0,0,1,0-8.227l.076.119a5.75,5.75,0,0,0,0,7.989Z" fill="#1a1311"/>
    <path id="パス_304" data-name="パス 304" d="M645.136,25.292l.331-.441c.042-.051.093-.111.128-.111a.3.3,0,0,1,.152.093l.5.443a.187.187,0,0,1,.084.127c0,.085-.067.094-.127.094h-3.314v.985h1.189l.179-.187c.059-.059.11-.127.161-.127a.323.323,0,0,1,.153.077l.331.237c.061.043.137.111.137.187s-.111.17-.289.281c-.009.348-.018.926.008,1.742.009.222.051,1.292.051,1.453a.38.38,0,0,1-.424.409c-.231,0-.231-.128-.221-.306h-2.448c.009.178.016.467-.4.467-.195,0-.238-.144-.238-.272,0-.076,0-.229.009-.331.025-.459.025-1.173.025-1.675a13.905,13.905,0,0,0-.094-2.269l.732.314h.535c.008-.679.008-.756,0-.985h-2.2a5.8,5.8,0,0,0-1,.076l-.17-.34c.493.043,1.13.059,1.309.059h2.065a3.139,3.139,0,0,0-.179-1.232l.893.281c.093.034.17.068.17.153s-.085.136-.28.254v.544Zm.067,5.933.331-.467c.043-.06.086-.111.137-.111a.339.339,0,0,1,.152.085l.485.468a.24.24,0,0,1,.086.135c0,.085-.069.094-.128.094h-6.1a.406.406,0,0,1-.425.493c-.2,0-.263-.093-.263-.263,0-.111.034-.561.034-.655.025-.493.025-.944.025-1.946,0-.6,0-1.539-.025-1.9a4.27,4.27,0,0,0-.111-.621l.816.264c.1.033.179.067.179.135,0,.094-.085.154-.273.255-.008.536.01,2.244.043,4.029Zm-3.484-3.57h2.456v-.969h-2.456Zm0,1.165h2.456v-.96h-2.456Zm0,1.224h2.456v-1.02h-2.456Z" fill="#1a1311"/>
    <path id="パス_305" data-name="パス 305" d="M654.724,31.633c-.289-.009-1.539.017-1.794.017a8.717,8.717,0,0,1-2.321-.246c-1-.3-1.207-.765-1.325-1.029-.128.17-.773.875-.9,1.029-.026.085-.042.212-.06.246a.105.105,0,0,1-.094.068.163.163,0,0,1-.119-.068l-.62-.739a3.246,3.246,0,0,0,1.4-.409v-2.49a6.166,6.166,0,0,0-1.1.077l-.17-.34c.373.034.629.051,1.139.06l.314-.239c.051-.033.094-.068.119-.068a.182.182,0,0,1,.111.06l.34.306a.16.16,0,0,1,.059.11.122.122,0,0,1-.051.1c-.043.033-.128.11-.178.152-.026.17-.026,1.037-.026,1.224,0,1.054,0,1.606,2.371,1.606a21.607,21.607,0,0,0,2.771-.195c.179-.034.468-.094.688-.144v.034a1.3,1.3,0,0,0-.551.875m-5.414-5.805c-.256,0-.324-.229-.375-.408a2.032,2.032,0,0,0-.722-1.088l.016-.051c1.038.2,1.428.842,1.428,1.165a.358.358,0,0,1-.347.382m5.548.765c-.033.034-.22.178-.262.213-.017.407.008,2.413.008,2.872,0,.289,0,.782-.816.961a1.215,1.215,0,0,0-.663-.8V29.8c.085,0,.5.026.595.026.281,0,.314-.06.314-.306v-.561h-1.325c0,.085.025.909.025,1.062,0,.034.026.3.026.332,0,.152-.136.306-.392.306-.212,0-.212-.128-.212-.2,0-.043.017-.272.017-.323,0-.17,0-.994.009-1.181h-1.309c.009.17.017.986.017,1.173a.4.4,0,0,1-.409.416c-.22,0-.22-.136-.22-.229,0-.026.009-.136.009-.162.025-.382.034-1.5.034-1.827a14.909,14.909,0,0,0-.094-2.337l.773.382h1.428c-.068-.06-.076-.077-.144-.229a2.749,2.749,0,0,0-.774-.859v-.059a2.417,2.417,0,0,1,1.08.374c.2-.2.442-.485.688-.782h-1.9a5.931,5.931,0,0,0-1,.076l-.169-.331c.441.034.875.051,1.308.051h1.836l.307-.213a.236.236,0,0,1,.109-.059.258.258,0,0,1,.137.068l.492.416a.17.17,0,0,1,.061.11.137.137,0,0,1-.069.1,4.213,4.213,0,0,1-.493.085c-.186.051-1,.476-1.19.552a.557.557,0,0,1,.23.433.291.291,0,0,1-.137.264h1.157l.238-.229a.167.167,0,0,1,.11-.068.2.2,0,0,1,.093.05l.442.307a.123.123,0,0,1,.069.085.114.114,0,0,1-.027.076m-2.676-.017h-1.318c0,.238.009.689.009.969h1.309Zm0,1.173h-1.309v1h1.309Zm1.852-1.173h-1.325v.969h1.325Zm0,1.173h-1.325v1h1.325Z" fill="#1a1311"/>
    <path id="パス_306" data-name="パス 306" d="M659.364,31.225h-3.34V31a5.75,5.75,0,0,1,1.25-1.9c1.249-1.445,1.674-1.929,1.674-2.78a1.092,1.092,0,0,0-1.131-1.164c-.594,0-.951.357-.951.663a.473.473,0,0,0,.085.264.735.735,0,0,1,.179.424.472.472,0,0,1-.459.476.536.536,0,0,1-.485-.6,1.7,1.7,0,0,1,1.827-1.521,1.552,1.552,0,0,1,1.7,1.581c0,.858-.495,1.326-1.258,1.98a7.367,7.367,0,0,0-1.836,2.134h1.172c1.19,0,1.47-.459,1.726-1.165l.254.094Z" fill="#1a1311"/>
    <path id="パス_307" data-name="パス 307" d="M662.765,28.76a1.431,1.431,0,0,1-.74.222,1.738,1.738,0,0,1-1.521-1.887,2.121,2.121,0,0,1,1.819-2.236c.969,0,1.955,1.105,1.955,2.933,0,1.963-1.105,3.595-2.406,3.595-.568,0-.969-.341-.969-.74a.426.426,0,0,1,.434-.442c.17,0,.451.111.468.587.009.187.025.306.255.306a.833.833,0,0,0,.62-.3,4.461,4.461,0,0,0,.833-2.847,2.181,2.181,0,0,1-.748.807m.281-3.153a.843.843,0,0,0-.689-.458c-.451,0-1.088.475-1.088,1.869,0,.391.093,1.581.968,1.581.325,0,.868-.238,1.268-1.156a4.148,4.148,0,0,0-.459-1.836" fill="#1a1311"/>
    <path id="パス_308" data-name="パス 308" d="M666.853,31.387a1.718,1.718,0,0,1-1.393-.918,5.273,5.273,0,0,1-.52-2.422c0-1.81.774-3.187,1.913-3.187.875,0,1.912.943,1.912,3.263,0,2.082-.876,3.264-1.912,3.264m-.952-5.108a7.693,7.693,0,0,0-.2,1.844c0,1.9.45,2.975,1.147,2.975.587,0,.85-.782.944-1.1a7.927,7.927,0,0,0,.2-1.87c0-1.938-.468-2.974-1.148-2.974-.6,0-.867.832-.952,1.13" fill="#1a1311"/>
    <path id="パス_309" data-name="パス 309" d="M672.233,25.362a7.333,7.333,0,0,1-2.635,2.889l-.043-.059a11.046,11.046,0,0,0,2.058-3.111,2.884,2.884,0,0,0,.136-.544l.73.493c.043.025.112.077.112.136,0,.1-.221.161-.358.2m3.086,2.66c-.086,3.059-.256,3.68-1.785,3.816a1.221,1.221,0,0,0-.638-.935l.009-.059a5.35,5.35,0,0,0,.986.144c.408,0,.569-.094.7-.867a17.367,17.367,0,0,0,.128-2.448H673a4.044,4.044,0,0,1-3.3,4.131l-.016-.068a4.294,4.294,0,0,0,2.686-4.063h-.247a5.427,5.427,0,0,0-1,.085l-.161-.34c.526.043,1.045.051,1.3.051h2.406l.228-.2a.25.25,0,0,1,.154-.093c.042,0,.085.042.119.076l.34.374a.228.228,0,0,1,.076.136c0,.077-.026.094-.263.264m1.547-.009a4.925,4.925,0,0,1-2.559-3.229h-.679a4.123,4.123,0,0,0-.715.05l-.109-.3c.381.034.755.042.925.042h.425l.273-.272c.076-.076.11-.093.152-.093s.086.043.144.093l.315.307a.149.149,0,0,1,.068.127c0,.17-.39.238-.544.264a3.974,3.974,0,0,0,3.119,2.278l.009.084a1.4,1.4,0,0,0-.824.646" fill="#1a1311"/>
    <path id="パス_310" data-name="パス 310" d="M678.5,32.109l-.076-.119a5.75,5.75,0,0,0,0-7.989l.076-.119a5.206,5.206,0,0,1,0,8.227" fill="#1a1311"/>
    <path id="パス_311" data-name="パス 311" d="M475.995,2.929c.3,0,.446.1.446.334s-.128.351-.446.351h-3.807c-.43,0-.43.1-.43,2.007,0,1.784.016,9.7.016,11.327,0,.366-.08.509-.335.509-.35,0-.35-.111-.35-1.051V3.582a.6.6,0,0,1,.685-.653Z" fill="#1a1311"/>
    <path id="パス_312" data-name="パス 312" d="M478.216,7.151c-.047-.064-.064-.08-.064-.095,0-.033.032-.033.048-.033.223,0,1.258.1,1.482.1.446,0,.446-.127.446-1.131A23.318,23.318,0,0,0,480,3.519c-.016-.08-.144-.478-.144-.574,0-.079.08-.079.144-.079.128,0,1.721.509,1.721.748,0,.1-.382.43-.414.542a13.669,13.669,0,0,0-.113,2.5c0,.3.049.478.3.478a.472.472,0,0,0,.415-.287c.111-.143.335-.478.462-.478.031,0,.924.59.924.956,0,.223-.255.223-.7.223h-.924a.406.406,0,0,0-.479.43c-.015,1.37,0,7.79,0,8.619,0,.127,0,.478-.175.573a1.793,1.793,0,0,1-.669.239c-.366,0-.429-.255-.429-.51,0-.366.079-2.151.1-2.549.047-2.2.1-4.954.1-6.372a.389.389,0,0,0-.447-.43c-.143,0-.971.08-1.082.08-.049,0-.065-.032-.112-.112Zm11.724,6.372c-.159,0-.509,0-.509.446,0,.3.111,1.672.111,1.943,0,1.4-1.1,1.4-1.242,1.4-.3,0-.4-.095-.637-.382a2.791,2.791,0,0,0-.924-.749c-.049-.016-.176-.1-.176-.159,0-.032.032-.048.064-.048a1.02,1.02,0,0,1,.175.032c.048.016,1,.08,1.052.08.319,0,.51-.032.51-.972,0-1.593-.033-1.593-.494-1.593h-2.884c-.94,0-1.593.016-2.022.048-.049,0-.287.031-.335.031s-.08-.031-.144-.1l-.3-.367c-.063-.063-.063-.079-.063-.111,0-.016.016-.032.048-.032.111,0,.605.048.7.048.78.048,1.449.064,2.2.064h2.789c.35,0,.446-.223.446-.383,0-.127-.176-.669-.176-.78s.112-.128.191-.128c0,0,1.148.144,1.323.192a.232.232,0,0,1,.191.223c0,.079-.271.35-.3.414a.346.346,0,0,0-.063.207.267.267,0,0,0,.3.255c.988,0,1.1,0,1.275-.271.334-.494.366-.558.558-.558.286,0,1.1.924,1.1,1.02,0,.223-.318.223-.859.223Zm-.717-7.009a.711.711,0,0,0,.622-.255c.223-.3.255-.335.335-.335.063,0,1.258.781,1.258,1.1,0,.1-.032.112-.256.24a.589.589,0,0,0-.238.573c0,.35,0,.605.048,1.64,0,.192.079,1.164.079,1.371,0,.287-.063.956-.717.956-.3,0-.414-.16-.621-.447a.308.308,0,0,0-.287-.111h-4.205c-.287,0-.366.111-.4.27a.71.71,0,0,1-.8.686c-.414,0-.43-.287-.43-.51,0-.542.1-3.234.1-3.855,0-.351,0-.78-.031-1.131-.017-.112-.113-.717-.113-.844a.073.073,0,0,1,.08-.064c.175,0,.207,0,1.131.494a1.48,1.48,0,0,0,.765.223h.732c.479,0,.479-.16.479-1.052,0-.159,0-.462-.463-.462h-.621c-.382,0-1.449,0-2.007.048-.048,0-.286.032-.335.032s-.079-.032-.143-.111l-.3-.367c-.08-.08-.08-.08-.08-.1,0-.033.047-.033.064-.033.1,0,.589.048.7.048.462.016,1.275.048,2.183.048h.541c.144,0,.463,0,.463-.414a4.221,4.221,0,0,0-.065-.781c-.015-.1-.158-.478-.158-.526,0-.079.1-.1.158-.1s.829.159,1.036.207c.175.048.335.08.335.207a2.774,2.774,0,0,1-.255.4,1.818,1.818,0,0,0-.1.589c0,.414.351.414.51.414h1.88c.668,0,.733,0,.875-.111.1-.08.463-.637.606-.637a2.728,2.728,0,0,1,1.084.955c0,.223-.318.223-.845.223h-3.632c-.3,0-.509.1-.509.446,0,.877,0,1.068.525,1.068Zm-5.591,7.614a7.9,7.9,0,0,1,1.211.239c.812.255,1.1.526,1.1,1.036a.688.688,0,0,1-.621.748c-.318,0-.367-.095-.845-.939a3.864,3.864,0,0,0-.812-.877c-.128-.1-.19-.143-.159-.191,0-.016.1-.016.127-.016m1.546-7.2c-.462,0-.462.207-.462,1.019,0,.383,0,.685.462.685h1.114c.4,0,.463-.063.463-.955,0-.462,0-.749-.463-.749Zm.047,2.134a.4.4,0,0,0-.446.271c-.032.064-.032.892-.032,1.1,0,.3.256.4.478.4h1.051a.475.475,0,0,0,.367-.112c.112-.127.112-.223.112-1.131,0-.239,0-.526-.479-.526Zm2.963-2.134c-.494,0-.494.143-.494,1.179,0,.207,0,.525.494.525h1.227c.478,0,.478-.191.478-1.083,0-.319,0-.621-.478-.621Zm0,2.134c-.478,0-.478.048-.478,1.387,0,.27.207.382.478.382h1.227a.548.548,0,0,0,.366-.112c.112-.111.112-.207.112-1.147,0-.255,0-.51-.478-.51Zm.223-6.276c.207,0,2.183,0,2.183,1a.585.585,0,0,1-.542.558c-.271,0-.382-.159-.541-.4a3.473,3.473,0,0,0-1.052-.972c-.016-.016-.159-.128-.144-.159s.08-.032.1-.032" fill="#1a1311"/>
    <path id="パス_313" data-name="パス 313" d="M502.038,11.5a1.607,1.607,0,0,0-.717.112c-.1.048-.748.35-.748.446,0,.048.031.08.269.159.034.016,1.387.447,1.387,1.306a.757.757,0,0,1-.653.813c-.255,0-.286-.1-.542-.844-.064-.16-.621-1.2-.971-1.2-.16,0-1.371.526-1.642.621a12.835,12.835,0,0,1-2.883.7c-.079,0-.191-.016-.191-.1,0-.063.064-.1.573-.286a18.688,18.688,0,0,0,6.532-3.7,7.278,7.278,0,0,1,.653-.765c.128,0,1.466.669,1.466.94,0,.144-.144.207-.223.223-.08.032-.463.1-.542.128-.143.063-.78.525-.925.621-.349.239-.4.271-.4.318,0,.08.111.08.239.08h3.6a1.153,1.153,0,0,0,.621-.175,1.608,1.608,0,0,1,.558-.334c.143,0,1.227.669,1.227.923,0,.191-.207.255-.319.287a1.953,1.953,0,0,0-.845.4,24.611,24.611,0,0,1-6.117,3.553,21.444,21.444,0,0,1-6.42,1.466c-.143,0-.175-.064-.175-.1a3.59,3.59,0,0,1,.717-.271c3.393-1.068,6.6-2.087,9.511-4.381.191-.159.908-.717.908-.844s-.128-.112-.224-.112Zm3.138-6.467a.81.81,0,0,0,.637-.191c.479-.463.525-.51.653-.51a2.3,2.3,0,0,1,1.179.892c0,.111-.111.175-.334.223a1.494,1.494,0,0,0-.638.414A20.1,20.1,0,0,1,502.1,8.9a19.391,19.391,0,0,1-6.055,1.593c-.174,0-.174-.08-.174-.112,0-.063.032-.079.319-.143a34.784,34.784,0,0,0,4.381-1.514,14.664,14.664,0,0,0,4.619-3.169c0-.1-.1-.1-.223-.1H501.4a1.3,1.3,0,0,0-.893.3,12.593,12.593,0,0,1-4.254,2.293c-.031,0-.094-.016-.094-.063,0-.08.094-.128.207-.191a14.586,14.586,0,0,0,4.969-4.286c.081-.111.368-.685.447-.685.032,0,1.433.606,1.433.892,0,.1-.048.128-.493.3a4.3,4.3,0,0,0-1.1.94c0,.064.1.064.207.064Zm-3.154,2.214a.646.646,0,0,1-.59.717c-.318,0-.366-.239-.462-.637a3.3,3.3,0,0,0-.335-.845c-.158-.286-.175-.318-.175-.366a.1.1,0,0,1,.048-.1c.08-.016,1.514.415,1.514,1.227" fill="#1a1311"/>
    <path id="パス_314" data-name="パス 314" d="M511.3,17.3c-.3,0-.445-.1-.445-.334s.127-.351.445-.351h3.808c.43,0,.43-.1.43-2.007,0-1.784-.016-9.7-.016-11.327,0-.366.08-.509.335-.509.334,0,.334.111.334,1.051V16.645a.586.586,0,0,1-.669.653Z" fill="#1a1311"/>
    <path id="パス_315" data-name="パス 315" d="M520.464,14.813c0,.334,0,1.386-.6,1.386a.527.527,0,0,1-.479-.574,8.849,8.849,0,0,1,.176-.892,7.489,7.489,0,0,0,.175-1.354c0-.669,0-.716.1-.716a.319.319,0,0,1,.095.031,3.626,3.626,0,0,1,.542,2.119m3.759-4.174c.366,0,.4,0,.573-.159.207-.191.32-.3.414-.3.176,0,1,.573,1,.844,0,.1-.031.128-.3.478a1.073,1.073,0,0,0-.126.542,18.122,18.122,0,0,1-.526,3.234,2.649,2.649,0,0,1-1.9,1.959c-.143,0-.207-.031-.43-.414a2,2,0,0,0-.318-.366c-.033-.032-.272-.207-.272-.271s.176-.064.318-.064c1.116,0,1.339-.462,1.418-.637a12.849,12.849,0,0,0,.8-4.03c0-.383-.27-.383-.494-.383h-2.8a.388.388,0,0,0-.335.144c-.223.3-.27.382-.653.382-.366,0-.494-.127-.494-.494,0-.255.111-3.6.111-4.142,0-.621-.015-2.071-.063-2.644-.016-.1-.1-.637-.1-.749,0-.064,0-.1.047-.1.08,0,.813.3.973.366a2,2,0,0,0,.684.112h1.784c.653,0,.844,0,1-.271.223-.4.3-.51.51-.51.175,0,1.178.748,1.178.988,0,.222-.334.222-.86.222h-1.482c-.493,0-.493.112-.493.956,0,.558.032.8.446.8.334,0,.43,0,.557-.255.112-.191.287-.51.526-.51.224,0,.956.765.956.972,0,.223-.271.223-.732.223h-1.291c-.462,0-.462.08-.462,1.338a.4.4,0,0,0,.462.431c.239,0,.334,0,.462-.255.079-.176.239-.51.494-.51s1,.765,1,.987-.319.223-.844.223h-1.084c-.493,0-.493.128-.493,1.418,0,.414.239.446.477.446Zm-2.1,4.237c0,.51-.271.67-.461.67-.4,0-.462-.415-.478-1a7.875,7.875,0,0,0-.191-1.418,1.514,1.514,0,0,1-.048-.382c0-.143.063-.175.159-.143.462.175,1.019,1.768,1.019,2.277m0-8.745c.462,0,.462-.255.462-.86,0-.685,0-.893-.477-.893h-.463c-.478,0-.478.224-.478.877s0,.876.478.876Zm0,2.214c.462,0,.462-.239.462-.876,0-.685,0-.908-.462-.908h-.478c-.478,0-.478.223-.478.908,0,.637,0,.876.462.876Zm-.047,2.294c.509,0,.509-.207.509-.924,0-.7,0-.94-.462-.94h-.446c-.51,0-.51.207-.51.924s0,.94.495.94Zm.78,4.063c-.238,0-.238-.208-.271-.8a7.421,7.421,0,0,0-.174-1.147,4.581,4.581,0,0,1-.1-.573c0-.08,0-.176.063-.176a2.4,2.4,0,0,1,1,1.737c0,.653-.349.956-.525.956m1.545-1.514c0,.287-.143.526-.365.526-.288,0-.3-.1-.447-1.036a2.982,2.982,0,0,0-.208-.733.707.707,0,0,1-.031-.175c0-.08.031-.127.111-.111a2.072,2.072,0,0,1,.94,1.529m7.137-9.272c.24,0,.334-.047.43-.174.224-.335.351-.51.478-.51.144,0,.972.653.972.86a5.912,5.912,0,0,1-.351.733c-.047.191-.047,1.577-.047,1.863,0,.3.047,1.785.047,2.119a.782.782,0,0,1-.8.7c-.335,0-.351-.159-.4-.51-.015-.191-.032-.318-.429-.318h-.622a.38.38,0,0,0-.446.4,1.585,1.585,0,0,0,.032.255c.223,1.465.8,4.365,2.629,6.2a11.341,11.341,0,0,1,.971.924c0,.064-.1.079-.159.079s-.318-.032-.383-.032a5.535,5.535,0,0,0-.875.08c-.064.016-.367.144-.4.144-.08,0-.176-.176-.224-.239a13.945,13.945,0,0,1-2.007-7.153c-.048-.637-.08-.653-.463-.653H528.6c-.478,0-.478.095-.478.971a12.035,12.035,0,0,1-1.88,6.58c-.128.191-.764.955-.94.955a.09.09,0,0,1-.1-.079c0-.064.494-.844.59-1,1.387-2.6,1.387-6.005,1.387-7.248a40.929,40.929,0,0,0-.224-4.62c-.016-.1-.1-.541-.1-.653,0-.048,0-.159.063-.159a7.751,7.751,0,0,1,.973.366,1.978,1.978,0,0,0,.652.127Zm-2.979.415a.425.425,0,0,0-.382.239c-.063.175-.063,2.82-.063,3.138s.031.558.477.558h2.867a.427.427,0,0,0,.414-.176,28.692,28.692,0,0,0,.113-3.154c0-.446-.065-.605-.494-.605Z" fill="#1a1311"/>
    <path id="パス_316" data-name="パス 316" d="M542.438,8.489a13.643,13.643,0,0,0,4.459,3.059c.749.35,1.4.7,1.4,1.162,0,.1-.143.606-.59.606-.142,0-1.576-.048-3.95-2.326-.382-.366-2.087-2.087-2.437-2.421-.366-.351-.638-.558-.892-.558-.526,0-.67.144-1.975,1.418-.113.111-1.275,1.21-1.307,1.227a.446.446,0,0,1-.255.079c-.6,0-1.545-.749-1.545-1.019,0-.064.031-.08.3-.112a6.049,6.049,0,0,0,2.6-1.227c1.338-1.067,1.657-1.179,2.2-1.179.414,0,.939.239,1.992,1.291" fill="#1a1311"/>
    <path id="パス_317" data-name="パス 317" d="M602.72,7.278c.255,0,.494-.032.494-.462,0-1.418,0-1.5-.446-1.5H599.12c-1.386,0-1.848.032-2.007.047-.048,0-.287.032-.334.032-.065,0-.1-.032-.144-.095l-.3-.367c-.063-.079-.08-.079-.08-.111s.033-.032.064-.032c.111,0,.605.048.7.048.781.032,1.434.064,2.183.064h3.52c.144,0,.479,0,.479-.415a4.287,4.287,0,0,0-.1-.86c-.016-.111-.192-.605-.192-.717,0-.1.1-.127.207-.127.048,0,1.61.223,1.61.478,0,.048-.224.27-.272.318-.111.112-.159.24-.159.606,0,.462,0,.717.478.717H607.2c.669,0,.843,0,1.019-.271.479-.765.526-.845.717-.845.271,0,1.2.877,1.4,1.02.032.016.239.175.239.287,0,.223-.3.223-.844.223h-4.955c-.478,0-.478.3-.478.462,0,1.481,0,1.5.494,1.5h.892a.945.945,0,0,0,.845-.4c.111-.175.207-.287.335-.287a3.891,3.891,0,0,1,1.4.908,3.9,3.9,0,0,1-.462.813.853.853,0,0,0-.111.509c0,.845.111,4.524.111,5.289,0,.733,0,1.067-.845,1.067-.239,0-.366,0-.4-.445-.032-.335-.128-.447-.526-.447h-3.648a.357.357,0,0,0-.4.351,3.216,3.216,0,0,1-.016.446.782.782,0,0,1-.717.35c-.319,0-.542-.143-.542-.589,0-.287.048-1.529.048-1.784,0-2.931-.1-5.146-.128-5.448-.015-.144-.111-.749-.111-.86,0-.064.032-.08.1-.08.174,0,.222.032.844.366a1.937,1.937,0,0,0,.955.239Zm-3.695,9.288a.429.429,0,0,0-.383.222.878.878,0,0,1-.828.526.452.452,0,0,1-.494-.478c0-.541.111-3.17.111-3.759,0-.542-.016-4.333-.111-4.62a5.139,5.139,0,0,1-.207-.526c0-.143.143-.143.191-.143.238,0,1.641.446,1.641.749,0,.1-.3.414-.334.51-.08.207-.08,4.109-.08,4.524a17.574,17.574,0,0,0,.127,2.325.489.489,0,0,0,.478.255h8.141c.621,0,.716-.032.8-.127.128-.159.637-.988.8-.988.048,0,1.785.876,1.785,1.338,0,.192-.08.192-.845.192Zm3.17-8.874c-.43,0-.43.287-.43.733,0,.781,0,1.051.445,1.051h3.936c.445,0,.445-.238.445-.891s0-.893-.445-.893Zm.08,2.2a.412.412,0,0,0-.479.462c0,1.2.064,1.306.494,1.306h3.839c.478,0,.478-.191.478-.876,0-.7,0-.892-.478-.892Zm.031,2.182a.393.393,0,0,0-.446.43c0,1.243.128,1.354.477,1.354h3.792c.462,0,.462-.239.462-.892s0-.892-.462-.892Z" fill="#1a1311"/>
    <path id="パス_318" data-name="パス 318" d="M612.269,9.572c-.08-.08-.08-.08-.08-.1,0-.032.032-.047.064-.047.287,0,1.672.111,1.991.111.286,0,.366-.064.589-.319.351-.4.4-.446.479-.446s1.019.558,1.019.845a.128.128,0,0,1-.032.1,3.616,3.616,0,0,1-.4.287c-.094.1-.094.271-.094,1.943,0,2.215,0,2.5.4,2.995.734.94,3.139.94,4.238.94a30.543,30.543,0,0,0,5.894-.462,5.43,5.43,0,0,1,.541-.1c.032,0,.1,0,.1.063,0,.016-.016.08-.127.144a1.5,1.5,0,0,0-.765.669c-.048.1-.143.637-.239.717-.031.016-1.816.016-2.07.016a25.549,25.549,0,0,1-5.8-.414,3.244,3.244,0,0,1-1.991-1.291c-.128-.191-.558-1.226-.7-1.226a9.836,9.836,0,0,0-1.672,2.357c-.016.494-.032.542-.175.542-.3,0-1.132-1.131-1.132-1.37,0-.112.176-.159.335-.207a6.19,6.19,0,0,0,1.481-.861c.67-.493.67-.509.67-1.194,0-.367.031-2.263.031-2.677-.015-.541-.1-.621-.541-.621a11.432,11.432,0,0,0-1.338.048c-.033,0-.191.032-.223.032-.064,0-.1-.032-.144-.111Zm3.106-3.107c-.27,0-.4-.111-.638-.541a10.053,10.053,0,0,0-1.5-1.816c-.095-.1-.621-.589-.621-.606,0-.063.1-.063.144-.063.318,0,3.122.956,3.122,2.469a.512.512,0,0,1-.51.557m7.472-2.8c.556,0,.684,0,.875-.143.08-.064.463-.558.59-.558.143,0,1.433.8,1.433,1.1,0,.111-.095.175-.207.207s-.717.144-.844.192c-.318.127-1.784,1.051-2.119,1.258-.08.048-.541.35-.541.462,0,.048.175.239.192.286.047.08.047.176.047.431,0,.079.08.079.3.079H624.2a.811.811,0,0,0,.526-.127c.064-.032.367-.3.463-.3.207,0,.955.526.955.717,0,.128-.127.207-.255.3-.191.127-.191.207-.191.478,0,2.214,0,2.453.047,3.568.049.972.049,1.625.049,1.832a1.416,1.416,0,0,1-1.243,1.673.281.281,0,0,1-.271-.176,2.705,2.705,0,0,0-.16-.43c-.079-.111-.684-.462-.684-.526,0-.1.8-.159.94-.207.4-.143.4-.254.4-1.4,0-.335,0-.59-.479-.59H622.56c-.462,0-.494.239-.494.558v.605c0,.176.064,1.068.064,1.275,0,.286-.032.716-.749.716-.335,0-.383-.4-.383-.653,0-.3.112-1.736.112-2.071,0-.43-.3-.43-.478-.43h-1.5c-.51,0-.51.128-.51.988,0,.207.033,1.243.033,1.465,0,.877-.574.892-.67.892-.462,0-.494-.35-.494-.8,0-.159.032-.765.049-.908.047-.621.063-1.115.063-2.453,0-.59-.063-3.505-.063-4.174,0-.128,0-.223.1-.223.031,0,.811.271.875.287a1.9,1.9,0,0,0,.749.111h1.546c.1,0,.19,0,.19-.127a3.017,3.017,0,0,0-.924-1c-.35-.255-.414-.286-.414-.382,0-.08.159-.08.207-.08a3.935,3.935,0,0,1,1.116.224,5.28,5.28,0,0,0,.684.286A5.285,5.285,0,0,0,623.229,4.2c0-.128-.1-.128-.3-.128h-2.453c-.382,0-1.45,0-2.007.048-.049,0-.287.032-.335.032-.064,0-.1-.032-.144-.1l-.3-.366c-.08-.08-.08-.08-.08-.112s.033-.032.064-.032c.1,0,.59.048.7.048.446.016,1.274.064,2.182.064Zm-3.729,5.974a.468.468,0,0,0-.445.191c-.049.1-.049.175-.049,1,0,.27,0,.525.494.525h1.5c.494,0,.494-.175.494-.924,0-.589,0-.8-.494-.8ZM619.1,7.39c-.462,0-.462.127-.462,1.258,0,.255,0,.558.462.558h1.529c.462,0,.462-.112.462-1.227,0-.287,0-.589-.462-.589Zm5.1,1.816c.494,0,.494-.1.494-1.068,0-.541,0-.748-.494-.748h-1.673c-.493,0-.493.143-.493,1.019,0,.621,0,.8.493.8Zm.1,2.15c.462,0,.462-.239.462-.621,0-.988,0-1.1-.462-1.1h-1.784c-.462,0-.462.111-.462,1.067,0,.43,0,.653.462.653Z" fill="#1a1311"/>
    <path id="パス_319" data-name="パス 319" d="M637.308,17.223h-9.037V16.6a15.6,15.6,0,0,1,3.381-5.151c3.381-3.909,4.53-5.22,4.53-7.519a2.955,2.955,0,0,0-3.059-3.15c-1.609,0-2.575.965-2.575,1.793a1.267,1.267,0,0,0,.231.713,1.98,1.98,0,0,1,.482,1.15,1.276,1.276,0,0,1-1.242,1.287,1.451,1.451,0,0,1-1.311-1.609c0-1.679,1.633-4.116,4.944-4.116,2.851,0,4.6,1.793,4.6,4.277,0,2.322-1.334,3.587-3.4,5.358-.782.644-3.817,3.242-4.967,5.772h3.173c3.22,0,3.979-1.242,4.668-3.151l.69.253Z" fill="#1a1311"/>
    <path id="パス_320" data-name="パス 320" d="M650.7,12.6a5.124,5.124,0,0,1-5.427,5.059c-2.622,0-4.968-1.518-4.968-4.139,0-2.484,1.979-3.656,4.094-4.9-1.219-.713-3.426-2-3.426-4.507,0-2.277,1.793-4.116,4.6-4.116a3.861,3.861,0,0,1,4.208,3.633c0,1.955-1.886,3.38-2.875,4.116,2.162,1.334,3.795,2.484,3.795,4.852m-8.463.851a3.31,3.31,0,0,0,3.312,3.426,3.579,3.579,0,0,0,3.494-3.472c0-2.185-2.275-3.473-3.955-4.416-1.034.783-2.851,2.185-2.851,4.462M648.1,3.886a2.9,2.9,0,0,0-2.852-3.1,2.652,2.652,0,0,0-2.713,2.736c0,1.61,1.311,2.414,3.7,3.84A4.378,4.378,0,0,0,648.1,3.886" fill="#1a1311"/>
    <path id="パス_321" data-name="パス 321" d="M656.56,7.129a3.887,3.887,0,0,1,2-.6c2.276,0,4.116,2.3,4.116,5.082,0,3.2-2.276,6.047-4.921,6.047-2.621,0-5.288-2.966-5.288-7.933,0-5.312,2.988-9.727,6.507-9.727,1.54,0,2.622.92,2.622,2.024a1.151,1.151,0,0,1-1.174,1.2c-.459,0-1.219-.3-1.264-1.61-.023-.506-.069-.828-.69-.828a2.37,2.37,0,0,0-1.679.828c-2.047,2.254-2.162,5.633-2.254,7.7a5.722,5.722,0,0,1,2.024-2.184m-.758,8.508a2.275,2.275,0,0,0,1.862,1.242c1.219,0,2.944-1.265,2.944-5.059,0-1.035-.253-4.254-2.622-4.254-.873,0-2.345.643-3.426,3.127a10.962,10.962,0,0,0,1.242,4.944" fill="#1a1311"/>
    <path id="パス_322" data-name="パス 322" d="M674.075,6.275c0,.159-.111.191-.445.271a3.541,3.541,0,0,0-.8,1.083,10.326,10.326,0,0,1-4.73,4.413.084.084,0,0,1-.1-.1c0-.1.031-.111.334-.35a13.746,13.746,0,0,0,3.584-4.811c.111-.239.526-1.593.542-1.593.111-.048,1.608.812,1.608,1.083m1.546,4.652c-.414,0-.414.032-.51.876a6.709,6.709,0,0,1-3.217,5.7,10.4,10.4,0,0,1-3.043,1.035c-.048,0-.192,0-.192-.111,0-.08.08-.112.367-.207a9.128,9.128,0,0,0,3.138-1.928,7.721,7.721,0,0,0,1.8-5.018c0-.35-.158-.35-.4-.35h-.477c-.589,0-1.355.016-1.641.032a2.955,2.955,0,0,1-.335.047c-.063,0-.095-.047-.142-.111l-.319-.367c-.048-.064-.064-.079-.064-.1,0-.032.016-.048.064-.048.112,0,.589.064.7.064.78.032,1.434.048,2.182.048h3.488c.717,0,.8-.033,1.052-.3.239-.255.382-.351.494-.351.255,0,1.179.733,1.179,1.068,0,.079-.255.366-.287.43-.08.159-.175,1.975-.207,2.342-.175,1.927-.3,3.233-.748,3.95a2.4,2.4,0,0,1-1.625.956c-.176,0-.176-.048-.3-.494-.1-.366-.638-.573-1.466-.812-.35-.1-.526-.159-.526-.255s.145-.1.176-.1a6.244,6.244,0,0,1,.621.112,9.351,9.351,0,0,0,1.131.127c.765,0,1.2-.143,1.418-1.784.16-1.227.318-3.074.318-3.887,0-.43-.031-.573-.478-.573Zm.8-5.13c-.4,0-.939.016-1.273.032-.049,0-.272.032-.319.032s-.064-.016-.128-.1l-.3-.366a.168.168,0,0,1-.048-.112c0-.015.015-.032.048-.032.095,0,.557.064.653.064.175.016.844.048.955.048a.817.817,0,0,0,.67-.414c.318-.446.349-.494.477-.494.207,0,1.386.8,1.386,1.147,0,.159-.048.175-.477.287-.08.016-.32.095-.32.334,0,.829,2.1,3.362,4.795,3.632.049,0,.239.032.239.128,0,.08-.414.175-.477.191a3.292,3.292,0,0,0-.972.733c-.032.048-.207.239-.255.239-.542,0-3.17-2.2-3.807-4.6-.175-.685-.207-.749-.574-.749Z" fill="#1a1311"/>
    <line id="線_7" data-name="線 7" x2="214.205" transform="translate(469.034 39.846)" fill="none" stroke="#1a1311" stroke-miterlimit="10" stroke-width="0.412"/>
  </g>
</svg>
