<svg xmlns="http://www.w3.org/2000/svg" width="215.431" height="55.242" viewBox="0 0 215.431 55.242">
  <g id="intro-txt03" transform="translate(-469.373)">
    <path id="パス_37" data-name="パス 37" d="M582.025,10.661c.255,0,.494-.032.494-.462,0-1.418,0-1.5-.446-1.5h-3.649c-1.385,0-1.847.032-2.006.047-.048,0-.286.032-.334.032-.065,0-.1-.032-.144-.1l-.3-.367c-.063-.079-.08-.079-.08-.111s.033-.032.065-.032c.111,0,.6.048.7.048.781.032,1.434.064,2.183.064h3.52c.144,0,.478,0,.478-.415a4.33,4.33,0,0,0-.095-.86c-.017-.111-.192-.605-.192-.717,0-.095.1-.127.207-.127.048,0,1.609.223,1.609.478,0,.048-.223.27-.271.318-.111.112-.159.24-.159.606,0,.462,0,.717.478.717H586.5c.669,0,.844,0,1.019-.271.478-.765.526-.845.717-.845.27,0,1.194.877,1.4,1.02.033.016.24.175.24.287,0,.223-.3.223-.844.223H584.08c-.478,0-.478.3-.478.462,0,1.481,0,1.5.494,1.5h.892a.945.945,0,0,0,.845-.4c.111-.175.207-.287.334-.287a3.886,3.886,0,0,1,1.4.908,3.9,3.9,0,0,1-.462.813.853.853,0,0,0-.111.509c0,.845.111,4.524.111,5.289,0,.733,0,1.067-.845,1.067-.238,0-.366,0-.4-.445-.031-.335-.127-.447-.525-.447h-3.648a.356.356,0,0,0-.4.351,3.022,3.022,0,0,1-.017.446.779.779,0,0,1-.717.35c-.318,0-.541-.143-.541-.589,0-.287.048-1.529.048-1.784,0-2.931-.1-5.146-.128-5.448-.015-.144-.111-.749-.111-.86,0-.064.032-.08.1-.08.174,0,.222.032.843.366a1.941,1.941,0,0,0,.956.239Zm-3.7,9.288a.431.431,0,0,0-.383.222.879.879,0,0,1-.828.526.452.452,0,0,1-.494-.478c0-.541.111-3.17.111-3.759,0-.542-.016-4.333-.111-4.62a5.139,5.139,0,0,1-.207-.526c0-.143.143-.143.191-.143.239,0,1.641.446,1.641.749,0,.1-.3.414-.335.51-.079.207-.079,4.109-.079,4.524a17.742,17.742,0,0,0,.127,2.325.489.489,0,0,0,.478.255h8.14c.622,0,.717-.032.8-.127.128-.159.637-.988.8-.988.048,0,1.785.876,1.785,1.338,0,.192-.08.192-.845.192Zm3.17-8.874c-.431,0-.431.287-.431.733,0,.781,0,1.051.446,1.051h3.935c.446,0,.446-.238.446-.891s0-.893-.446-.893Zm.079,2.2a.412.412,0,0,0-.478.462c0,1.195.064,1.306.494,1.306h3.839c.478,0,.478-.191.478-.876,0-.7,0-.892-.478-.892Zm.032,2.182a.393.393,0,0,0-.446.43c0,1.243.128,1.354.478,1.354h3.791c.462,0,.462-.239.462-.892s0-.892-.462-.892Z" fill="#1a1311"/>
    <path id="パス_38" data-name="パス 38" d="M591.575,12.955c-.08-.08-.08-.08-.08-.1,0-.032.032-.047.064-.047.286,0,1.673.111,1.991.111.286,0,.366-.064.589-.319.351-.4.4-.446.479-.446s1.019.558,1.019.845a.132.132,0,0,1-.032.095,3.515,3.515,0,0,1-.4.287c-.095.1-.095.271-.095,1.943,0,2.215,0,2.5.4,2.995.734.94,3.139.94,4.238.94a30.542,30.542,0,0,0,5.894-.462,5.4,5.4,0,0,1,.542-.1c.031,0,.1,0,.1.063,0,.016-.016.08-.127.144a1.5,1.5,0,0,0-.765.669c-.048.095-.143.637-.239.717-.031.016-1.816.016-2.07.016a25.549,25.549,0,0,1-5.8-.414,3.242,3.242,0,0,1-1.991-1.291c-.128-.191-.558-1.226-.7-1.226a9.836,9.836,0,0,0-1.672,2.357c-.016.494-.032.542-.175.542-.3,0-1.131-1.131-1.131-1.37,0-.112.175-.159.334-.207a6.188,6.188,0,0,0,1.481-.861c.669-.493.669-.509.669-1.194,0-.367.032-2.263.032-2.677-.015-.541-.095-.621-.542-.621a11.421,11.421,0,0,0-1.337.048c-.032,0-.192.032-.223.032-.065,0-.1-.032-.144-.111Zm3.106-3.107c-.27,0-.4-.111-.638-.541a10.109,10.109,0,0,0-1.5-1.816c-.1-.1-.621-.589-.621-.606,0-.063.1-.063.144-.063.318,0,3.122.956,3.122,2.469a.512.512,0,0,1-.51.557m7.471-2.8c.557,0,.685,0,.877-.143.079-.064.462-.558.589-.558.143,0,1.433.8,1.433,1.1,0,.111-.1.175-.207.207s-.717.144-.844.192c-.319.127-1.784,1.051-2.119,1.258-.079.048-.541.35-.541.462,0,.048.175.239.191.286.048.08.048.176.048.431,0,.079.08.079.3.079h1.625a.812.812,0,0,0,.526-.127c.064-.032.367-.3.462-.3.207,0,.956.526.956.717,0,.128-.127.207-.255.3-.192.127-.192.207-.192.478,0,2.214,0,2.453.048,3.568.048.972.048,1.625.048,1.832a1.414,1.414,0,0,1-1.242,1.673.28.28,0,0,1-.271-.176,3.02,3.02,0,0,0-.159-.43c-.08-.111-.685-.462-.685-.526,0-.1.8-.159.939-.207.4-.143.4-.254.4-1.4,0-.335,0-.59-.478-.59h-1.736c-.462,0-.494.239-.494.558v.605c0,.176.063,1.068.063,1.275,0,.286-.031.716-.748.716-.335,0-.383-.4-.383-.653,0-.3.111-1.736.111-2.071,0-.43-.3-.43-.477-.43h-1.5c-.51,0-.51.128-.51.988,0,.207.031,1.243.031,1.465,0,.877-.573.892-.669.892-.462,0-.493-.35-.493-.8,0-.159.031-.765.047-.908.048-.621.065-1.115.065-2.453,0-.59-.065-3.505-.065-4.174,0-.128,0-.223.1-.223.032,0,.812.271.877.287a1.89,1.89,0,0,0,.748.111h1.545c.1,0,.191,0,.191-.127a3.017,3.017,0,0,0-.924-1c-.35-.255-.414-.286-.414-.382,0-.08.159-.08.207-.08a3.936,3.936,0,0,1,1.116.224,5.273,5.273,0,0,0,.684.286,5.285,5.285,0,0,0,1.562-1.688c0-.128-.1-.128-.3-.128h-2.453c-.383,0-1.449,0-2.007.048-.048,0-.287.032-.335.032-.064,0-.1-.032-.144-.1l-.3-.366c-.079-.08-.079-.08-.079-.112s.031-.032.063-.032c.1,0,.589.048.7.048.446.016,1.275.064,2.183.064Zm-3.728,5.974a.467.467,0,0,0-.445.191c-.048.1-.048.175-.048,1,0,.27,0,.525.493.525h1.5c.493,0,.493-.175.493-.924,0-.589,0-.8-.493-.8Zm-.015-2.246c-.462,0-.462.127-.462,1.258,0,.255,0,.558.462.558h1.529c.462,0,.462-.112.462-1.227,0-.287,0-.589-.462-.589Zm5.1,1.816c.494,0,.494-.1.494-1.068,0-.541,0-.748-.494-.748h-1.673c-.493,0-.493.143-.493,1.019,0,.621,0,.8.493.8Zm.1,2.15c.462,0,.462-.239.462-.621,0-.988,0-1.1-.462-1.1h-1.784c-.462,0-.462.111-.462,1.067,0,.43,0,.653.462.653Z" fill="#1a1311"/>
    <path id="パス_83" data-name="パス 83" d="M472.814,41.163c.084,0,.237,0,.237.153s-.162.17-.246.17h-1.487a.423.423,0,0,1-.478-.468v-6.8a.422.422,0,0,1,.478-.467h1.5c.084,0,.237.008.237.161s-.153.162-.237.162h-1.438a.21.21,0,0,0-.2.119,8.99,8.99,0,0,0-.034.986c0,.663,0,5.634.008,5.771a.207.207,0,0,0,.221.212Z" fill="#1a1311"/>
    <path id="パス_84" data-name="パス 84" d="M473.886,37.329c-.043-.042-.043-.042-.043-.051s.017-.025.034-.025c.153,0,.893.059,1.063.059.152,0,.2-.034.314-.17.187-.212.212-.237.255-.237s.544.3.544.45a.071.071,0,0,1-.018.051,1.847,1.847,0,0,1-.212.153c-.05.051-.05.144-.05,1.036,0,1.182,0,1.335.212,1.6.391.5,1.674.5,2.26.5a16.285,16.285,0,0,0,3.145-.247c.043-.008.238-.051.289-.051.018,0,.051,0,.051.034,0,.009-.008.043-.068.077a.8.8,0,0,0-.408.357c-.025.051-.076.34-.127.382-.017.009-.97.009-1.105.009a13.636,13.636,0,0,1-3.094-.221,1.732,1.732,0,0,1-1.063-.689c-.067-.1-.3-.654-.374-.654a5.232,5.232,0,0,0-.891,1.258c-.009.263-.018.289-.094.289-.162,0-.6-.6-.6-.731,0-.06.093-.085.178-.111a3.306,3.306,0,0,0,.79-.458c.358-.264.358-.272.358-.638,0-.195.016-1.207.016-1.428-.008-.289-.05-.331-.289-.331a6.1,6.1,0,0,0-.714.025c-.016,0-.1.017-.119.017-.034,0-.05-.017-.076-.059Zm1.657-1.657c-.144,0-.213-.059-.341-.289a5.4,5.4,0,0,0-.8-.969c-.051-.051-.331-.315-.331-.323,0-.034.05-.034.076-.034.17,0,1.666.51,1.666,1.317a.273.273,0,0,1-.272.3m3.986-1.5c.3,0,.366,0,.467-.077.043-.033.246-.3.315-.3s.764.425.764.586c0,.06-.05.094-.11.111s-.382.076-.45.1c-.17.068-.952.561-1.131.672-.042.025-.288.186-.288.246,0,.025.093.127.1.153.025.043.025.093.025.23,0,.042.043.042.161.042h.867a.428.428,0,0,0,.28-.068c.035-.017.2-.161.248-.161.11,0,.509.28.509.382,0,.068-.068.11-.135.162-.1.067-.1.11-.1.254,0,1.182,0,1.309.025,1.9.026.519.026.867.026.978a.754.754,0,0,1-.662.892.151.151,0,0,1-.145-.093,1.525,1.525,0,0,0-.085-.23c-.043-.059-.366-.246-.366-.281s.426-.085.5-.11c.212-.077.212-.136.212-.748,0-.178,0-.315-.255-.315h-.926c-.247,0-.263.128-.263.3v.323c0,.093.034.569.034.68,0,.153-.018.383-.4.383-.178,0-.2-.213-.2-.349,0-.162.06-.926.06-1.1,0-.23-.162-.23-.255-.23h-.8c-.272,0-.272.069-.272.527,0,.111.016.663.016.783,0,.467-.3.476-.356.476-.246,0-.264-.187-.264-.426,0-.085.018-.407.025-.484.026-.332.035-.6.035-1.309,0-.314-.035-1.87-.035-2.227,0-.068,0-.119.051-.119.018,0,.434.145.468.154a1.021,1.021,0,0,0,.4.059h.825c.051,0,.1,0,.1-.068a1.609,1.609,0,0,0-.493-.535c-.186-.137-.221-.154-.221-.2s.085-.042.111-.042a2.075,2.075,0,0,1,.594.119,2.742,2.742,0,0,0,.366.153,2.826,2.826,0,0,0,.833-.9c0-.068-.051-.068-.161-.068h-1.309c-.2,0-.774,0-1.071.026-.026,0-.154.017-.179.017s-.051-.017-.076-.052l-.161-.195c-.043-.042-.043-.042-.043-.059s.016-.018.034-.018c.051,0,.314.026.374.026.237.009.68.034,1.164.034Zm-1.989,3.187a.252.252,0,0,0-.238.1c-.025.051-.025.094-.025.536,0,.144,0,.28.263.28h.8c.264,0,.264-.093.264-.493,0-.314,0-.425-.264-.425Zm-.009-1.2c-.246,0-.246.068-.246.671,0,.136,0,.3.246.3h.817c.246,0,.246-.06.246-.655,0-.153,0-.314-.246-.314Zm2.72.969c.264,0,.264-.051.264-.57,0-.289,0-.4-.264-.4h-.892c-.263,0-.263.076-.263.544,0,.331,0,.425.263.425Zm.051,1.147c.247,0,.247-.127.247-.332,0-.526,0-.586-.247-.586h-.951c-.247,0-.247.06-.247.57,0,.229,0,.348.247.348Z" fill="#1a1311"/>
    <path id="パス_85" data-name="パス 85" d="M482.979,39.717a.1.1,0,0,1-.042-.05c0-.017.017-.026.034-.026.051,0,.263.026.306.034.1,0,.8.034,1.07.034.222,0,.222-.059.222-.4,0-.382,0-.408-.307-.408-.2,0-.781,0-1.079.026-.025,0-.153.017-.178.017s-.042-.017-.076-.051l-.162-.2c-.026-.025-.034-.042-.034-.059s.008-.017.026-.017c.042,0,.45.034.535.034.629.025.679.025,1.062.025.213,0,.221-.135.221-.365,0-.561,0-.621-.272-.621h-.22c-.2,0-.2.035-.222.374-.017.281-.349.34-.434.34-.144,0-.152-.042-.152-.22,0-.222.034-1.182.034-1.377a2.757,2.757,0,0,0-.068-.731,2.012,2.012,0,0,1-.076-.213.072.072,0,0,1,.067-.068,2.3,2.3,0,0,1,.493.264.519.519,0,0,0,.358.1h1.623a.4.4,0,0,0,.246-.051c.043-.026.213-.2.264-.2a1.773,1.773,0,0,1,.552.51c0,.043,0,.043-.119.085s-.119.06-.128.3c-.008.152-.025.935-.042.994-.043.161-.3.2-.34.2-.128,0-.153-.094-.17-.187-.034-.12-.153-.12-.221-.12h-.4c-.262,0-.262.077-.262.442,0,.494,0,.544.288.544h.178a1.71,1.71,0,0,0,.29-.008c.093-.025.424-.4.459-.4s.518.382.518.5-.059.127-.527.127h-.977c-.2,0-.229.077-.229.29,0,.416,0,.467.127.5.043.017.059.017.289.017a.289.289,0,0,0,.186-.059c.06-.052.307-.366.349-.366s.561.391.561.51c0,.136-.119.136-.391.136h-.866c-.128,0-.247,0-.247.212,0,.332,0,.417.178.417.238,0,1.36-.128,1.5-.128.009,0,.043,0,.043.017a32.015,32.015,0,0,1-3.493.833c-.051.017-.246.179-.3.179-.178,0-.34-.8-.34-.825a.045.045,0,0,1,.051-.051c.052,0,.256.077.3.077a.469.469,0,0,0,.144.017c.085,0,1.207-.06,1.258-.068.128-.034.128-.077.128-.442,0-.144-.017-.238-.213-.238-.271,0-.7,0-.96.017a1.611,1.611,0,0,1-.178.025c-.035,0-.051-.017-.077-.059Zm3.2-4.81c-.229,0-.229.11-.229.28,0,.051,0,.366-.008.383-.026.1-.213.178-.357.178-.179,0-.179-.059-.179-.255,0-.527,0-.586-.23-.586h-.535c-.1,0-.238.008-.238.212,0,.052.018.289.018.332,0,.272-.307.357-.358.357-.221,0-.221-.162-.221-.272,0-.561,0-.621-.2-.621-.1,0-.544.034-.637.034-.026,0-.042-.017-.076-.05l-.162-.2c-.026-.026-.034-.043-.034-.06s.008-.016.026-.016c.144,0,.764.05.883.05.162,0,.2-.085.2-.229a1.774,1.774,0,0,0-.06-.519c-.008-.033-.127-.178-.127-.212a.018.018,0,0,1,.017-.017c.076,0,.757.221.782.229.042.017.11.069.11.119s-.016.06-.135.17a.27.27,0,0,0-.06.2c0,.246.1.272.272.272h.543c.23,0,.23-.077.23-.4a.9.9,0,0,0-.042-.348,1.075,1.075,0,0,1-.06-.153c0-.034.042-.034.06-.034s.8.136.8.255c0,.042-.018.093-.111.187a.251.251,0,0,0-.1.247c0,.127,0,.246.222.246h.152c.1,0,.136-.017.3-.238.152-.2.17-.221.186-.221.051,0,.587.416.587.552s-.051.128-.518.128ZM484.3,37.465c.264,0,.272-.051.272-.552,0-.442,0-.519-.272-.519h-.229c-.272,0-.272.06-.272.587,0,.408,0,.484.272.484Zm1.054-1.071c-.263,0-.271.068-.271.519,0,.5,0,.552.271.552h.358c.262,0,.271-.06.271-.518,0-.5,0-.553-.271-.553Zm3.8-.535c.11,0,.17-.009.229-.111.154-.263.17-.3.222-.3s.671.416.671.51c0,.059-.238.238-.264.272a2.792,2.792,0,0,0-.016.628,17.306,17.306,0,0,1-.358,3.638c-.322.85-.909.876-.994.876-.144,0-.144-.034-.153-.136s-.059-.221-.255-.374c-.042-.026-.263-.145-.263-.2a.027.027,0,0,1,.026-.025c.033,0,.433.068.509.068.239,0,.485-.017.655-.621a17.061,17.061,0,0,0,.272-3.68c0-.229-.017-.323-.256-.323h-.288c-.221,0-.272.026-.3.264a9.012,9.012,0,0,1-1.019,3.867,2.9,2.9,0,0,1-1.522,1.223c-.008,0-.043,0-.043-.025a.161.161,0,0,1,.043-.059,3.7,3.7,0,0,0,1.207-1.479,9.548,9.548,0,0,0,.756-3.587c0-.2-.144-.2-.22-.2s-.485.009-.638.026c-.025,0-.11.017-.127.017-.034,0-.052-.026-.077-.06l-.161-.195c-.034-.034-.043-.043-.043-.051s.017-.026.034-.026c.144,0,.884.06,1.054.06a.2.2,0,0,0,.213-.145,10.685,10.685,0,0,0,.05-1.113,3.253,3.253,0,0,0-.016-.485c-.009-.068-.052-.246-.052-.289s.034-.051.094-.051c.135,0,.892.2.892.366,0,.043-.051.085-.068.1s-.152.094-.178.119a8.3,8.3,0,0,0-.119,1.292c0,.17.119.2.255.2Z" fill="#1a1311"/>
    <path id="パス_86" data-name="パス 86" d="M493.231,34.8a.457.457,0,0,0,.348-.128c.195-.187.222-.212.264-.212a1.1,1.1,0,0,1,.468.459,3.142,3.142,0,0,1-.188.425,8.931,8.931,0,0,0-.051,1.088c0,.442.051,2.4.051,2.787a.732.732,0,0,1-.152.519.724.724,0,0,1-.358.195c-.153,0-.161-.195-.161-.246,0-.2,0-.264-.238-.264h-.484a.214.214,0,0,0-.239.238c0,.026,0,.366-.008.417-.026.221-.306.5-.433.5-.23,0-.23-.195-.23-.272s.035-.62.035-.739c.025-.9.042-1.5.042-3.884,0-.179-.026-.969-.026-1.122,0-.043,0-.094.051-.094a1.449,1.449,0,0,1,.383.187.724.724,0,0,0,.467.145Zm-.017,4.4c.076,0,.2,0,.255-.11.025-.06.025-.739.025-.918a8.324,8.324,0,0,0-.025-.909.208.208,0,0,0-.2-.111H492.7c-.22,0-.22.068-.22.765a11.586,11.586,0,0,0,.034,1.173c.025.085.118.11.2.11Zm-.484-4.173a.21.21,0,0,0-.179.068,10.236,10.236,0,0,0-.068,1.5c0,.187,0,.34.238.34h.518a.233.233,0,0,0,.23-.111c.034-.085.034-.968.034-1.138,0-.612,0-.655-.246-.655Zm4.852,1.683c.4,0,.442,0,.57-.212.059-.094.212-.34.348-.34a2.038,2.038,0,0,1,.34.238c.4.331.426.348.426.416,0,.119-.179.119-.459.119h-3.2c-.4,0-.748.009-.911.026-.033,0-.161.017-.186.017s-.043-.017-.068-.052l-.17-.195c-.035-.042-.035-.042-.035-.059s.009-.018.026-.018c.068,0,.332.026.383.026.3.017.722.034,1,.034h.332c.254,0,.254-.17.254-.272,0-.178,0-.646-.008-.8-.009-.212-.145-.212-.23-.212-.272,0-.705,0-.952.017-.025,0-.152.025-.179.025s-.05-.025-.076-.059l-.161-.2c-.034-.034-.043-.042-.043-.051s.018-.025.034-.025c.06,0,.324.025.374.034.306.008.68.025.978.025.094,0,.255,0,.255-.212a7.022,7.022,0,0,0-.051-.943c-.009-.043-.034-.205-.034-.239a.063.063,0,0,1,.068-.068c.008,0,.9.255.9.366,0,.042-.186.187-.212.221a.645.645,0,0,0-.059.34c0,.51,0,.535.365.535.349,0,.476.009.586-.152.238-.332.238-.332.307-.332a2.462,2.462,0,0,1,.747.62c0,.094-.042.094-.416.094H497.09c-.238,0-.238.136-.238.34a3.551,3.551,0,0,0,.025.833.21.21,0,0,0,.221.11ZM497.9,38.4c-.255,0-.289.077-.289.307,0,.331.043,1.776.043,2.073,0,.663-.7.689-.816.689-.085,0-.119-.009-.119-.1,0-.221,0-.34-.357-.468-.085-.025-.459-.119-.527-.144-.034-.017-.136-.068-.136-.1s.051-.06.128-.06c.033,0,.807.094.96.094s.187-.018.221-.136a6.7,6.7,0,0,0,.025-1.046c0-1.087-.008-1.1-.289-1.1h-.7c-.188,0-.774,0-1.072.018a1.337,1.337,0,0,1-.178.025c-.033,0-.051-.025-.076-.06l-.162-.195c-.034-.034-.042-.042-.042-.051s.017-.026.034-.026c.059,0,.323.026.374.035.39.017.773.025,1.164.025h.663c.247,0,.247-.145.247-.289,0-.11-.043-.68-.043-.7,0-.068.017-.1.068-.1s.85.23.85.4c0,.052-.213.213-.23.255a.548.548,0,0,0-.042.256c0,.144.077.178.162.178.1,0,.127-.034.339-.323.077-.111.17-.221.264-.221.042,0,.076.025.34.238.4.323.425.348.425.416,0,.119-.17.119-.45.119ZM496,40.211c-.187,0-.238-.094-.417-.4a2.744,2.744,0,0,0-.756-.747c-.034-.026-.306-.222-.306-.23,0-.042.042-.051.068-.051.17,0,1.708.3,1.708,1.122a.324.324,0,0,1-.3.306" fill="#1a1311"/>
    <path id="パス_87" data-name="パス 87" d="M500.337,34.074c-.086,0-.238,0-.238-.153s.152-.17.238-.17h1.495a.423.423,0,0,1,.477.468v6.8a.421.421,0,0,1-.477.467h-1.495c-.086,0-.238-.008-.238-.161s.152-.162.238-.162h1.436a.211.211,0,0,0,.2-.119,9.245,9.245,0,0,0,.033-.986c0-.858,0-5.634-.008-5.771a.207.207,0,0,0-.221-.212Z" fill="#1a1311"/>
    <path id="パス_88" data-name="パス 88" d="M507.417,34.652c.085,0,.213,0,.213.145s-.119.135-.255.135c-.111,0-.562,0-.629.442-.026.145-.026,2.737-.026,3.221,0,.213.017,1.25.017,1.488a2.222,2.222,0,0,1-.518,1.691,1.609,1.609,0,0,1-1.139.468c-.459,0-.824-.2-.824-.612a.462.462,0,0,1,.5-.493c.314,0,.365.136.484.459a.28.28,0,0,0,.306.2c.391,0,.451-.306.484-.51.034-.255.034-4.394.034-5.04,0-1.2,0-1.318-.892-1.318-.033,0-.17,0-.17-.135s.128-.145.213-.145Z" fill="#1a1311"/>
    <path id="パス_89" data-name="パス 89" d="M510.936,34.653c.408,0,2.345.042,2.345,1.47a1.654,1.654,0,0,1-1.129,1.487c-.3.145-.332.162-.332.255A15,15,0,0,0,512.7,39.9a1.058,1.058,0,0,0,1,.681c.085,0,.255,0,.255.136,0,.118-.17.136-.213.136h-1.062a.417.417,0,0,1-.4-.247c-.051-.085-.654-1.4-.748-1.615-.467-1.028-.526-1.164-.824-1.164h-.468c-.058,0-.17.034-.2.1-.034.085-.034,1.207-.034,1.4,0,1.028,0,1.25.782,1.25.059,0,.179,0,.179.136s-.154.136-.246.136h-2.1c-.085,0-.213-.018-.213-.136,0-.136.119-.136.238-.136.586,0,.672-.272.7-.587.016-.289.016-2.626.016-3.026a13.664,13.664,0,0,0-.068-1.717c-.111-.314-.476-.314-.671-.314-.051,0-.23,0-.23-.153,0-.127.154-.127.255-.127Zm-.306.28c-.612,0-.612.383-.612,1.258,0,1.334,0,1.36.229,1.36h.689a1.373,1.373,0,0,0,1.539-1.343c0-.6-.323-1.275-1.428-1.275Z" fill="#1a1311"/>
    <path id="パス_90" data-name="パス 90" d="M516.095,40.432c-.246,0-.246.162-.246.306,0,.246,0,.519-.4.519-.22,0-.28-.094-.28-.341,0-.611.042-3.331.042-3.892a9.113,9.113,0,0,0-.051-1.131c-.008-.042-.025-.229-.025-.272,0-.059.009-.076.076-.076.026,0,.867.161.867.34,0,.06-.025.085-.153.221a1.812,1.812,0,0,0-.067.646c0,.5-.009,2.711-.009,3.161,0,.17.025.3.246.3h1.717a.2.2,0,0,0,.238-.17c.009-.051.051-2.677.051-3.782,0-.757-.017-1.717-.017-1.793s-.043-.366-.043-.425.018-.068.077-.068.442.076.536.093c.178.034.289.051.289.162,0,.051-.162.246-.179.288a1,1,0,0,0-.042.366c-.026,1.572-.026,3.6-.026,5.031,0,.222.068.3.255.3h1.734c.238,0,.255-.136.255-.34,0-.332.016-1.819.016-2.116,0-.731-.016-1.709-.025-1.81,0-.06-.033-.357-.033-.417s.016-.076.067-.076.824.178.824.365c0,.034-.135.17-.144.2a5.292,5.292,0,0,0-.051.935c0,.382.018,2.082.018,2.43,0,.2.007,1.114.007,1.292a.426.426,0,0,1-.433.476c-.246,0-.255-.187-.255-.45,0-.137-.017-.264-.246-.264Z" fill="#1a1311"/>
    <path id="パス_91" data-name="パス 91" d="M528.794,36.4c.408,0,.451,0,.57-.195.17-.281.221-.332.3-.332a2.446,2.446,0,0,1,.689.629c0,.127-.161.127-.451.127h-2.252c-.23,0-.238.145-.238.272,0,.1,0,1.1.026,1.148a.22.22,0,0,0,.22.11h1.607c.4,0,.442,0,.544-.135.272-.374.3-.417.408-.417a2.057,2.057,0,0,1,.73.663c0,.119-.17.119-.45.119h-2.839c-.22,0-.246.119-.246.255,0,.272.008,1.453.008,1.7a.984.984,0,0,1-.365.884.932.932,0,0,1-.57.195c-.135,0-.135-.017-.169-.255-.035-.187-.34-.365-.638-.484-.026-.009-.076-.034-.076-.06,0-.042.05-.042.076-.042.884,0,.977,0,1.046-.12s.085-.195.085-1.818c0-.094,0-.255-.239-.255h-1.852c-.739,0-.986.017-1.071.017a1.384,1.384,0,0,1-.178.025c-.034,0-.052-.025-.077-.059l-.161-.2c-.035-.034-.043-.042-.043-.05s.017-.026.034-.026c.059,0,.323.034.374.034.417.017.764.025,1.164.025h1.81a.228.228,0,0,0,.221-.1c.027-.051.027-1.045.027-1.156s-.009-.272-.248-.272h-1.326c-.739,0-.985.009-1.07.018-.025,0-.153.025-.179.025s-.051-.025-.076-.06l-.162-.195c-.017-.017-.042-.042-.042-.051s.017-.026.034-.026c.06,0,.322.035.374.035.416.025.765.025,1.164.025h1.283c.239,0,.239-.153.239-.263,0-1.241,0-1.275-.306-1.275-.094,0-1.037.042-1.232.042a5.226,5.226,0,0,1-1.327-.11,1.547,1.547,0,0,1,.349-.06,18.289,18.289,0,0,0,3.884-.629,3.838,3.838,0,0,0,.535-.246.249.249,0,0,1,.085-.026,3.46,3.46,0,0,1,.477.34c.289.2.3.213.3.281,0,.144-.094.153-.764.195a6.078,6.078,0,0,0-1.276.179c-.136.076-.136.161-.136.9,0,.6,0,.671.247.671Z" fill="#1a1311"/>
    <path id="パス_92" data-name="パス 92" d="M533.214,37.6c.281,0,.629,0,.842-.008.229-.009.229-.034.229-.085a4.443,4.443,0,0,0-.195-.553c0-.017.025-.042.06-.042.119,0,.815.552.815,1.037a.335.335,0,0,1-.331.365c-.222,0-.247-.17-.289-.425-.018-.127-.025-.153-.094-.153a2.023,2.023,0,0,0-.383.1,3.809,3.809,0,0,0-.042.74c0,.365.042,1.989.042,2.32a.479.479,0,0,1-.45.51c-.144,0-.161-.145-.161-.357,0-.383.06-2.091.06-2.439a4.178,4.178,0,0,0-.026-.587c-.017-.068-.043-.085-.153-.085a4.588,4.588,0,0,0-.782.153c-.042.017-.2.145-.246.145-.085,0-.306-.672-.306-.689s.017-.025.042-.025.314.034.374.042c.043,0,.349.017.425.017.2,0,.238-.059.527-.612a19.041,19.041,0,0,0,.867-1.793c.076-.212.085-.238.136-.238.025,0,.714.323.714.45,0,.068-.018.068-.2.128a.509.509,0,0,0-.255.179c-.365.476-.867,1.3-1.267,1.751-.034.033-.059.093-.042.118s.06.034.093.034m-.2,1.411c0,.06-.187.238-.212.289-.188.349-.426.943-.647,1.283-.016.026-.2.306-.289.306a.036.036,0,0,1-.034-.034c0-.025.256-.781.289-.909a4.9,4.9,0,0,0,.179-1.13c0-.153,0-.179.051-.179a2.371,2.371,0,0,1,.332.119c.212.094.331.162.331.255m-.009-3.238a.663.663,0,0,1,.323.527.252.252,0,0,1-.255.272.273.273,0,0,1-.186-.085c-.069-.077-.374-.5-.451-.586s-.467-.426-.467-.443c0-.033.033-.042.067-.042.085,0,.485.144.578.144.06,0,.077-.033.2-.314a3.79,3.79,0,0,0,.348-1.411c0-.034,0-.094.051-.094.009,0,.791.256.791.434,0,.025,0,.077-.034.094s-.23.1-.264.136c-.1.093-.475.663-.569.79-.068.085-.3.382-.28.459a1.187,1.187,0,0,0,.152.119m1.487,2.719c-.033-.042-.033-.042-.033-.059s.017-.017.025-.017c.162,0,.935.051,1.114.051a.268.268,0,0,0,.246-.119c.085-.119.128-.17.213-.17.135,0,.552.238.552.408a.118.118,0,0,1-.084.1c-.179.068-.179.068-.239.178a5.97,5.97,0,0,1-.927,1.479,3.933,3.933,0,0,1-1.393.986c-.009,0-.025,0-.025-.017s.008-.033.05-.076a9.464,9.464,0,0,0,.868-.9,4.479,4.479,0,0,0,.858-1.564c0-.068-.034-.068-.28-.068-.1,0-.629.034-.706.034-.026,0-.042-.017-.077-.051Zm.451,1.3a.328.328,0,0,1-.289.365c-.187,0-.2-.22-.247-.578a2.142,2.142,0,0,0-.229-.637c-.008-.034-.033-.077-.033-.093a.045.045,0,0,1,.042-.043,1.392,1.392,0,0,1,.365.272,1.154,1.154,0,0,1,.391.714m.96-2.312a.251.251,0,0,0-.246.094.473.473,0,0,1-.357.238c-.2,0-.2-.128-.2-.357,0-.247.034-1.47.034-1.742,0-.145-.017-.842-.017-.995,0-.034,0-.06.051-.06.085,0,.476.281.578.281.17,0,.689-.943.7-1.114.009-.059.018-.118.069-.118.016,0,.425.2.493.238.118.059.237.119.237.187s-.348.152-.407.187a2.356,2.356,0,0,0-.629.586c0,.051.017.051.161.051h1.632c.179,0,.238-.008.306-.119.187-.289.213-.323.3-.323.11,0,.585.314.585.5a.242.242,0,0,1-.1.17c-.119.1-.153.137-.153.281,0,.128.025.765.025.909,0,.162.06.935.06,1,0,.383-.408.408-.451.408-.119,0-.135-.034-.186-.2-.027-.1-.137-.1-.2-.1h-.977c-.043,0-.077,0-.077.034s.017.043.162.1c.067.017.246.094.246.2,0,.068-.017.076-.153.178a.145.145,0,0,0-.051.1,6.036,6.036,0,0,0,.306.646c.068.127.178.34.281.34.2,0,.781-.612.969-.824.016-.026.092-.111.11-.111a2.488,2.488,0,0,1,.6.6c0,.034-.026.043-.051.043a2.032,2.032,0,0,1-.221-.009c-.247,0-.426.085-1.156.417-.153.068-.153.076-.153.127a4.038,4.038,0,0,0,1.479,1.5c.272.161.306.17.306.2s-.026.025-.136.034a1.992,1.992,0,0,0-.484.093,1.44,1.44,0,0,1-.255.119,6.616,6.616,0,0,1-1.429-2.158c-.033-.077-.186-.527-.2-.527s-.026.246-.026.288c0,.085.017,1.42.017,1.573,0,.518,0,.705-.187.85a1.275,1.275,0,0,1-.662.229.092.092,0,0,1-.094-.059,1.057,1.057,0,0,0-.17-.289c-.051-.051-.323-.281-.323-.289,0-.026.025-.026.246-.026.637,0,.672-.085.672-.7,0-.391,0-2.176-.043-2.422-.034-.2-.127-.247-.3-.247Zm.018-2.3c-.111,0-.222.017-.255.179v.484c0,.221.161.221.263.221h2.21c.255,0,.255-.034.255-.654,0-.23-.17-.23-.255-.23Zm0,1.1c-.094,0-.255.008-.255.238,0,.722,0,.74.255.74h2.243a.211.211,0,0,0,.238-.23c0-.714,0-.748-.246-.748Z" fill="#1a1311"/>
    <path id="パス_93" data-name="パス 93" d="M542.208,36.309c-.187,0-.773,0-1.071.017a1.226,1.226,0,0,1-.179.026c-.034,0-.042-.026-.076-.06l-.162-.195c-.033-.034-.042-.043-.042-.051s.016-.026.034-.026c.034,0,.45.043.535.043.62.025.638.017,1.122.017.264,0,.264-.068.264-.519,0-.11,0-.8-.025-.841-.06-.1-.112-.11-.222-.11s-.951.042-1.139.042c-.153,0-.17,0-.17-.042s.017-.043.2-.077a8.528,8.528,0,0,0,2.1-.561c.306-.136.34-.153.407-.153s.8.332.8.459c0,.085-.033.085-.518.136-.9.094-.9.111-.9.425,0,.11.009,1.071.017,1.1a.218.218,0,0,0,.238.136h.153c.2,0,.246-.017.349-.136.237-.289.263-.314.34-.314a2.378,2.378,0,0,1,.739.56c0,.119-.17.119-.45.119h-1.14c-.246,0-.262.034-.262.646,0,.247.084.264.152.281.357.068,1.25.289,1.25.935,0,.306-.188.416-.289.416-.17,0-.2-.059-.408-.586a1.1,1.1,0,0,0-.647-.655c-.067,0-.067.059-.067.128,0,.331.025,2.728.051,3.051.008.161.025.459.025.493,0,.323-.391.425-.493.425-.178,0-.178-.119-.178-.247,0-.416.051-2.244.051-2.617,0-.086.009-.426.009-.5s-.018-.144-.1-.144c-.042,0-.051.016-.153.127a8.839,8.839,0,0,1-1.623,1.53c-.068.051-.1.077-.136.077a.041.041,0,0,1-.043-.043c0-.009.536-.629.612-.731a10.476,10.476,0,0,0,1.471-2.465.1.1,0,0,0-.11-.119Zm3.841.6c0,1.487,0,1.657.018,2.031,0,.06.016.323.016.374,0,.238-.127.417-.468.417-.212,0-.212-.1-.212-.162s.026-.2.026-.238c.025-.272.043-1.241.043-2.414,0-.382,0-1.4-.069-1.972a1.2,1.2,0,0,1-.017-.178c0-.042.009-.076.068-.076.043,0,.884.152.884.305a.138.138,0,0,1-.042.094c-.17.153-.2.187-.222.306-.007.034-.025.731-.025,1.513m1.666.178c0,.51.051,2.737.051,3.188,0,.611-.042.781-.187.883a1.334,1.334,0,0,1-.594.281c-.12,0-.137-.051-.179-.187-.1-.315-.638-.5-.732-.527-.025-.009-.076-.034-.076-.068s.051-.034.06-.034c.11,0,.56.076.654.076.417,0,.417-.076.417-.731,0-.79,0-4.921-.043-5.516-.009-.093-.076-.552-.076-.577,0-.043.051-.077.094-.077.025,0,.721.127.773.136s.127.043.127.128-.042.1-.136.17a.41.41,0,0,0-.128.254c-.016.145-.025,2.159-.025,2.6" fill="#1a1311"/>
    <path id="パス_94" data-name="パス 94" d="M550.97,38.553c-.247,0-.247.069-.281.374a3.314,3.314,0,0,1-1.215,2.4.046.046,0,0,1-.05-.042c0-.009.2-.341.237-.408.348-.723.493-1.471.493-3.587,0-.671-.017-2.065-.076-2.694-.009-.093-.069-.578-.069-.595,0-.051.009-.068.06-.068a1.693,1.693,0,0,1,.425.144,1.18,1.18,0,0,0,.672.2h4.156a.337.337,0,0,0,.3-.1c.144-.153.153-.17.213-.17s.688.348.688.484c0,.077-.068.128-.136.162-.2.1-.221.11-.221.918,0,.7.051,3.833.051,4.555,0,.374,0,1.318-.79,1.318-.077,0-.085-.018-.145-.187-.119-.307-.638-.485-.714-.5-.025-.008-.153-.034-.153-.085,0-.034.059-.051.1-.051.111,0,.646.043.765.043.331,0,.34-.094.34-1.173,0-.111,0-.706-.017-.773-.034-.154-.162-.154-.255-.154h-1.725c-.23,0-.273.085-.264.332.009.612.009,1.309.009,1.963,0,.162-.025.221-.085.28a.634.634,0,0,1-.4.154c-.17,0-.179-.111-.179-.221,0-.315.051-1.879.051-2.236,0-.187-.06-.272-.264-.272Zm1.547-2.345c.255,0,.255,0,.255-.859,0-.824,0-.849-.255-.849H550.97c-.254,0-.254.033-.254.739,0,.969.007.969.262.969Zm0,2.116a.219.219,0,0,0,.221-.1,9.309,9.309,0,0,0,.034-.994c0-.757,0-.791-.255-.791H550.97c-.093,0-.2.017-.238.153-.009.042-.009,1.241-.009,1.436,0,.137,0,.3.247.3Zm1.1-3.824c-.11,0-.221.016-.255.152-.009.051-.009,1.029-.009,1.233,0,.178,0,.323.264.323H555.3c.264,0,.264-.094.264-.578,0-1.13-.009-1.13-.28-1.13Zm0,1.937c-.264,0-.264.025-.264.808a8.355,8.355,0,0,0,.035.968c.042.111.169.111.229.111h1.734c.255,0,.255-.06.255-.62,0-1.25-.009-1.267-.272-1.267Z" fill="#1a1311"/>
    <path id="パス_95" data-name="パス 95" d="M472.814,54.163c.084,0,.237,0,.237.153s-.162.17-.246.17h-1.487a.423.423,0,0,1-.478-.468v-6.8a.422.422,0,0,1,.478-.467h1.5c.084,0,.237.008.237.161s-.153.162-.237.162h-1.438a.21.21,0,0,0-.2.119,8.99,8.99,0,0,0-.034.986c0,.663,0,5.634.008,5.771a.207.207,0,0,0,.221.212Z" fill="#1a1311"/>
    <path id="パス_96" data-name="パス 96" d="M475.592,47.533c-.739,0-.986.017-1.071.026-.025,0-.152.017-.178.017s-.051-.017-.077-.051l-.161-.2c-.034-.042-.034-.042-.034-.059s.009-.017.025-.017c.06,0,.324.025.374.025.417.026.765.034,1.164.034h3.732c.348,0,.39,0,.459-.059s.34-.4.425-.4a2.6,2.6,0,0,1,.791.6c0,.085-.043.085-.452.085h-2.506c-.255,0-.255.094-.255.569,0,.264.009,2.55.016,2.6.043.135.17.135.264.135h1.657c.392,0,.434,0,.544-.144.247-.34.28-.374.358-.374.152,0,.705.578.705.629,0,.11-.17.11-.45.11h-2.814c-.17,0-.271.034-.271.29,0,.356.033,1.962.033,2.286,0,.4,0,.875-.425.875-.28,0-.28-.246-.28-.331,0-.4.05-2.151.05-2.508,0-.544,0-.612-.271-.612H475.21c-.748,0-.995.018-1.079.026-.026,0-.154.025-.179.025s-.042-.025-.076-.059l-.162-.2c-.034-.034-.034-.042-.034-.05a.023.023,0,0,1,.026-.026c.059,0,.323.026.374.034.416.017.773.025,1.173.025h1.7c.085,0,.2,0,.247-.093a4.161,4.161,0,0,0,.034-.748c0-.034,0-2.269-.009-2.3-.016-.128-.1-.162-.229-.162Zm-.952.621c.119,0,1.4.824,1.4,1.751a.4.4,0,0,1-.374.433c-.238,0-.272-.119-.416-.689a4.243,4.243,0,0,0-.434-1.088c-.034-.05-.2-.3-.221-.339,0-.026,0-.068.042-.068m5.678.552a7.324,7.324,0,0,0-.816,1.037,3.01,3.01,0,0,1-.79.722.073.073,0,0,1-.077-.068c0-.008.153-.254.17-.28a5.454,5.454,0,0,0,.9-2.057c0-.161,0-.187.05-.187.018,0,.808.476.808.621,0,.085-.017.085-.246.212" fill="#1a1311"/>
    <path id="パス_97" data-name="パス 97" d="M485.64,48.408c.247,0,.247-.152.247-.391,0-.085.008-.433.008-.51,0-.127-.033-.7-.033-.807,0-.051,0-.085.076-.085.034,0,.748.162.748.323,0,.051-.17.221-.179.272-.009.034-.025.867-.025.952a.217.217,0,0,0,.246.246h.348c.136,0,.264,0,.723-1.088.025-.067.119-.374.136-.433s.043-.085.094-.085c.034,0,.8.459.8.578,0,.076-.034.085-.323.17a2.685,2.685,0,0,0-.866.808c0,.05.067.05.1.05h1.019a.573.573,0,0,0,.23-.042,2.258,2.258,0,0,1,.247-.128c.119,0,.713.434.713.706a.136.136,0,0,1-.153.144c-.059,0-.28-.093-.331-.093a1.183,1.183,0,0,0-.587.331,1.192,1.192,0,0,1-.17.136c-.025,0-.025-.034-.025-.042,0-.051.2-.629.2-.714s-.051-.076-.119-.076h-5.32c-.12,0-.12.016-.128.161-.026.433-.323.824-.518.824a.349.349,0,0,1-.3-.365.626.626,0,0,1,.145-.366,1.639,1.639,0,0,0,.238-.815c0-.17,0-.187.051-.187s.059.042.255.374c.067.127.1.152.212.152Zm2.533,3.409a.361.361,0,0,0,.179-.035c.059-.025.255-.254.314-.254.085,0,.612.289.612.467,0,.059-.026.076-.178.153-.052.026-.06.1-.06.145a5.009,5.009,0,0,1-.051,1.393,1.058,1.058,0,0,1-.706.57c-.093,0-.119-.026-.3-.289a.9.9,0,0,0-.442-.306c-.034-.017-.1-.051-.1-.068,0-.034.043-.034.068-.034a3.638,3.638,0,0,0,.646-.051c.289-.051.289-.119.289-.8,0-.6,0-.672-.255-.672h-1.428c-.255,0-.255.137-.255.289,0,.255.009,1.394.009,1.632s-.1.536-.425.536c-.238,0-.238-.187-.238-.264,0-.008.068-1.623.068-1.929,0-.136-.009-.264-.264-.264h-1.326c-.263,0-.271.043-.271.952,0,.111.025.6.025.706a.523.523,0,0,1-.5.569c-.11,0-.178-.059-.178-.3,0-.314.051-1.691.051-1.972,0-.051-.034-.306-.034-.357s.026-.076.068-.076a4.783,4.783,0,0,1,.467.187.573.573,0,0,0,.281.068h1.436c.255,0,.255-.153.255-.307,0-.7-.119-.7-.28-.7h-.655c-.1,0-.187,0-.238.111-.067.127-.119.22-.425.22-.246,0-.246-.161-.246-.229,0-.161.026-.875.026-1.028a3.07,3.07,0,0,0-.035-.5c-.008-.068-.016-.119-.016-.136a.067.067,0,0,1,.067-.076,3.618,3.618,0,0,1,.477.187.884.884,0,0,0,.365.051h2.575a.329.329,0,0,0,.3-.128c.1-.161.119-.178.213-.178s.493.212.493.408c0,.068-.034.11-.136.229-.034.043-.034.127-.034.281,0,.1.008.561.008.654a.426.426,0,0,1-.433.4c-.119,0-.136-.034-.187-.179-.034-.085-.127-.085-.187-.085h-1.122c-.025,0-.076,0-.076.034s.008.025.11.077c.178.085.247.119.247.161s-.187.213-.213.255a.369.369,0,0,0-.026.145c0,.2,0,.34.264.34Zm-3.536-3.528c-.178,0-.212-.076-.535-.731a4.073,4.073,0,0,0-.3-.552c-.008-.017-.11-.136-.11-.145,0-.025.034-.034.051-.034a2.506,2.506,0,0,1,.731.383,1.067,1.067,0,0,1,.459.68c0,.17-.085.4-.3.4m.374,1.343c-.263,0-.263.085-.263.553,0,.28.034.4.288.4h2.5a.227.227,0,0,0,.239-.119,3.749,3.749,0,0,0,.025-.6c0-.229-.179-.229-.255-.229Z" fill="#1a1311"/>
    <path id="パス_98" data-name="パス 98" d="M492.891,47.8a.457.457,0,0,0,.348-.128c.195-.187.222-.212.264-.212a1.1,1.1,0,0,1,.468.459,3.142,3.142,0,0,1-.188.425,8.931,8.931,0,0,0-.051,1.088c0,.442.051,2.4.051,2.787a.732.732,0,0,1-.152.519.724.724,0,0,1-.358.195c-.153,0-.161-.195-.161-.246,0-.2,0-.264-.238-.264h-.484a.214.214,0,0,0-.239.238c0,.026,0,.366-.008.417-.026.221-.306.5-.433.5-.23,0-.23-.195-.23-.272s.035-.62.035-.739c.025-.9.042-1.5.042-3.884,0-.179-.026-.969-.026-1.122,0-.043,0-.094.051-.094a1.449,1.449,0,0,1,.383.187.724.724,0,0,0,.467.145Zm-.017,4.4c.076,0,.2,0,.255-.11.025-.06.025-.739.025-.918a8.324,8.324,0,0,0-.025-.909.208.208,0,0,0-.2-.111h-.578c-.22,0-.22.068-.22.765a11.586,11.586,0,0,0,.034,1.173c.025.085.118.11.2.11Zm-.484-4.173a.21.21,0,0,0-.179.068,10.236,10.236,0,0,0-.068,1.5c0,.187,0,.34.238.34h.518a.233.233,0,0,0,.23-.111c.034-.085.034-.968.034-1.138,0-.612,0-.655-.246-.655Zm4.852,1.683c.4,0,.442,0,.57-.212.059-.094.212-.34.348-.34a2.038,2.038,0,0,1,.34.238c.4.331.426.348.426.416,0,.119-.179.119-.459.119h-3.2c-.4,0-.748.009-.911.026-.033,0-.161.017-.186.017s-.043-.017-.068-.052l-.17-.195c-.035-.042-.035-.042-.035-.059s.009-.018.026-.018c.068,0,.332.026.383.026.3.017.722.034,1,.034h.332c.254,0,.254-.17.254-.272,0-.178,0-.646-.008-.8-.009-.212-.145-.212-.23-.212-.272,0-.705,0-.952.017-.025,0-.152.025-.179.025s-.05-.025-.076-.059l-.161-.2c-.034-.034-.043-.042-.043-.051s.018-.025.034-.025c.06,0,.324.025.374.034.306.008.68.025.978.025.094,0,.255,0,.255-.212a7.022,7.022,0,0,0-.051-.943c-.009-.043-.034-.205-.034-.239a.063.063,0,0,1,.068-.068c.008,0,.9.255.9.366,0,.042-.186.187-.212.221a.645.645,0,0,0-.059.34c0,.51,0,.535.365.535.349,0,.476.009.586-.152.238-.332.238-.332.307-.332a2.462,2.462,0,0,1,.747.62c0,.094-.042.094-.416.094H496.75c-.238,0-.238.136-.238.34a3.555,3.555,0,0,0,.025.833.21.21,0,0,0,.221.11Zm.323,1.691c-.255,0-.289.077-.289.307,0,.331.043,1.776.043,2.073,0,.663-.7.689-.816.689-.085,0-.119-.009-.119-.1,0-.221,0-.34-.357-.468-.085-.025-.459-.119-.527-.144-.034-.017-.136-.068-.136-.1s.051-.06.128-.06c.033,0,.807.094.96.094s.187-.018.221-.136a6.7,6.7,0,0,0,.025-1.046c0-1.087-.008-1.1-.289-1.1h-.7c-.188,0-.774,0-1.072.018a1.337,1.337,0,0,1-.178.025c-.033,0-.051-.025-.076-.06l-.162-.195c-.034-.034-.042-.042-.042-.051s.017-.026.034-.026c.059,0,.323.026.374.035.39.017.773.025,1.164.025h.663c.247,0,.247-.145.247-.289,0-.11-.043-.68-.043-.7,0-.068.017-.1.068-.1s.85.23.85.4c0,.052-.213.213-.23.255a.548.548,0,0,0-.042.256c0,.144.077.178.162.178.1,0,.127-.034.339-.323.077-.111.17-.221.264-.221.042,0,.076.025.34.238.4.323.425.348.425.416,0,.119-.17.119-.45.119Zm-1.9,1.811c-.187,0-.238-.094-.417-.4a2.744,2.744,0,0,0-.756-.747c-.034-.026-.306-.222-.306-.23,0-.042.042-.051.068-.051.17,0,1.708.3,1.708,1.122a.324.324,0,0,1-.3.306" fill="#1a1311"/>
    <path id="パス_99" data-name="パス 99" d="M500,47.074c-.086,0-.238,0-.238-.153s.152-.17.238-.17h1.495a.423.423,0,0,1,.477.468v6.8a.421.421,0,0,1-.477.467H500c-.086,0-.238-.008-.238-.161s.152-.162.238-.162h1.436a.211.211,0,0,0,.2-.119,9.254,9.254,0,0,0,.033-.986c0-.858,0-5.634-.008-5.771a.207.207,0,0,0-.221-.212Z" fill="#1a1311"/>
    <path id="パス_100" data-name="パス 100" d="M507.077,47.652c.085,0,.213,0,.213.145s-.119.135-.255.135c-.111,0-.562,0-.629.442-.026.145-.026,2.737-.026,3.221,0,.213.017,1.25.017,1.488a2.222,2.222,0,0,1-.518,1.691,1.609,1.609,0,0,1-1.139.468c-.459,0-.824-.2-.824-.612a.462.462,0,0,1,.5-.493c.314,0,.365.136.484.459a.28.28,0,0,0,.306.2c.391,0,.451-.306.484-.51.034-.255.034-4.394.034-5.04,0-1.2,0-1.318-.892-1.318-.033,0-.17,0-.17-.135s.128-.145.213-.145Z" fill="#1a1311"/>
    <path id="パス_101" data-name="パス 101" d="M510.6,47.653c.408,0,2.345.042,2.345,1.47a1.653,1.653,0,0,1-1.13,1.487c-.3.145-.331.162-.331.255a15,15,0,0,0,.884,2.031,1.057,1.057,0,0,0,1,.681c.085,0,.255,0,.255.136,0,.118-.17.136-.213.136h-1.062a.417.417,0,0,1-.4-.247c-.051-.085-.654-1.4-.748-1.615-.467-1.028-.526-1.164-.824-1.164h-.468c-.058,0-.17.034-.2.1-.034.085-.034,1.207-.034,1.4,0,1.028,0,1.25.782,1.25.059,0,.179,0,.179.136s-.154.136-.246.136h-2.1c-.085,0-.213-.018-.213-.136,0-.136.119-.136.238-.136.586,0,.672-.272.7-.587.016-.289.016-2.626.016-3.026a13.67,13.67,0,0,0-.068-1.717c-.111-.314-.476-.314-.671-.314-.051,0-.23,0-.23-.153,0-.127.154-.127.255-.127Zm-.306.28c-.612,0-.612.383-.612,1.258,0,1.334,0,1.36.229,1.36h.689a1.373,1.373,0,0,0,1.539-1.343c0-.6-.324-1.275-1.428-1.275Z" fill="#1a1311"/>
    <path id="パス_102" data-name="パス 102" d="M515.755,53.432c-.246,0-.246.162-.246.306,0,.246,0,.519-.4.519-.22,0-.28-.094-.28-.341,0-.611.042-3.331.042-3.892a9.124,9.124,0,0,0-.051-1.131c-.008-.042-.025-.229-.025-.272,0-.059.009-.076.076-.076.026,0,.867.161.867.34,0,.06-.025.085-.153.221a1.812,1.812,0,0,0-.067.646c0,.5-.009,2.711-.009,3.161,0,.17.025.3.246.3h1.717a.2.2,0,0,0,.238-.17c.009-.051.051-2.677.051-3.782,0-.757-.017-1.717-.017-1.793s-.043-.366-.043-.425.018-.068.077-.068.442.076.536.093c.178.034.289.051.289.162,0,.051-.162.246-.179.288a1,1,0,0,0-.042.366c-.026,1.572-.026,3.6-.026,5.031,0,.222.068.3.255.3h1.734c.238,0,.255-.136.255-.34,0-.332.016-1.819.016-2.116,0-.731-.016-1.709-.025-1.81,0-.06-.033-.357-.033-.417s.016-.076.067-.076.824.178.824.365c0,.034-.135.17-.144.2a5.3,5.3,0,0,0-.051.935c0,.382.018,2.082.018,2.43,0,.2.007,1.114.007,1.292a.426.426,0,0,1-.433.476c-.246,0-.255-.187-.255-.45,0-.137-.017-.264-.246-.264Z" fill="#1a1311"/>
    <path id="パス_103" data-name="パス 103" d="M528.453,49.4c.408,0,.451,0,.57-.195.17-.281.221-.332.3-.332a2.446,2.446,0,0,1,.689.629c0,.127-.161.127-.451.127h-2.252c-.229,0-.238.145-.238.272,0,.1,0,1.1.026,1.148a.22.22,0,0,0,.22.11h1.607c.4,0,.442,0,.544-.135.272-.374.3-.417.408-.417a2.056,2.056,0,0,1,.73.663c0,.119-.17.119-.45.119h-2.839c-.22,0-.246.119-.246.255,0,.272.009,1.453.009,1.7a.986.986,0,0,1-.366.884.932.932,0,0,1-.57.195c-.135,0-.135-.017-.169-.255-.035-.187-.34-.365-.638-.484-.026-.009-.076-.034-.076-.06,0-.042.05-.042.076-.042.884,0,.977,0,1.046-.12s.085-.195.085-1.818c0-.094,0-.255-.239-.255h-1.852c-.739,0-.986.017-1.071.017a1.384,1.384,0,0,1-.178.025c-.034,0-.052-.025-.077-.059l-.161-.2c-.035-.034-.043-.042-.043-.05s.017-.026.034-.026c.059,0,.323.034.374.034.417.017.764.025,1.164.025h1.81a.228.228,0,0,0,.221-.1c.027-.051.027-1.045.027-1.156s-.009-.272-.248-.272H524.9c-.74,0-.986.009-1.071.018-.025,0-.153.025-.179.025s-.051-.025-.076-.06l-.162-.195c-.017-.017-.042-.042-.042-.051s.017-.026.034-.026c.06,0,.322.035.374.035.416.025.765.025,1.164.025h1.283c.239,0,.239-.153.239-.263,0-1.241,0-1.275-.306-1.275-.094,0-1.037.042-1.232.042a5.226,5.226,0,0,1-1.327-.11,1.547,1.547,0,0,1,.349-.06,18.289,18.289,0,0,0,3.884-.629,3.838,3.838,0,0,0,.535-.246.249.249,0,0,1,.085-.026,3.46,3.46,0,0,1,.477.34c.289.2.3.213.3.281,0,.144-.094.153-.764.195a6.078,6.078,0,0,0-1.276.179c-.136.076-.136.161-.136.9,0,.6,0,.671.247.671Z" fill="#1a1311"/>
    <path id="パス_104" data-name="パス 104" d="M532.874,50.6c.281,0,.629,0,.842-.008.229-.009.229-.034.229-.085a4.442,4.442,0,0,0-.2-.553c0-.017.025-.042.06-.042.119,0,.815.552.815,1.037a.335.335,0,0,1-.331.365c-.222,0-.247-.17-.289-.425-.018-.127-.025-.153-.094-.153a2.021,2.021,0,0,0-.383.1,3.809,3.809,0,0,0-.042.74c0,.365.042,1.989.042,2.32a.479.479,0,0,1-.45.51c-.144,0-.161-.145-.161-.357,0-.383.06-2.091.06-2.439a4.178,4.178,0,0,0-.026-.587c-.017-.068-.043-.085-.153-.085a4.588,4.588,0,0,0-.782.153c-.042.017-.2.145-.246.145-.085,0-.306-.672-.306-.689s.017-.025.042-.025.314.034.374.042c.043,0,.349.017.425.017.2,0,.238-.059.527-.612a19.026,19.026,0,0,0,.867-1.793c.076-.212.085-.238.136-.238.025,0,.714.323.714.45,0,.068-.018.068-.2.128a.508.508,0,0,0-.255.179c-.365.476-.867,1.3-1.267,1.751-.034.033-.059.093-.042.118s.06.034.093.034m-.2,1.411c0,.06-.187.238-.212.289-.188.349-.426.943-.647,1.283-.016.026-.2.306-.289.306a.036.036,0,0,1-.034-.034c0-.025.256-.781.289-.909a4.907,4.907,0,0,0,.179-1.13c0-.153,0-.179.051-.179a2.371,2.371,0,0,1,.332.119c.212.094.331.162.331.255m-.009-3.238a.663.663,0,0,1,.323.527.252.252,0,0,1-.255.272.273.273,0,0,1-.186-.085c-.069-.077-.374-.5-.451-.586s-.467-.426-.467-.443c0-.033.033-.042.067-.042.085,0,.485.144.578.144.06,0,.077-.033.2-.314a3.789,3.789,0,0,0,.348-1.411c0-.034,0-.094.051-.094.009,0,.791.256.791.434,0,.025,0,.077-.034.094s-.23.1-.264.136c-.1.093-.475.663-.569.79-.068.085-.3.382-.28.459a1.186,1.186,0,0,0,.152.119m1.487,2.719c-.033-.042-.033-.042-.033-.059s.017-.017.025-.017c.162,0,.935.051,1.114.051a.268.268,0,0,0,.246-.119c.085-.119.128-.17.213-.17.135,0,.552.238.552.408a.118.118,0,0,1-.084.1c-.179.068-.179.068-.239.178a5.97,5.97,0,0,1-.927,1.479,3.931,3.931,0,0,1-1.393.986c-.009,0-.025,0-.025-.017s.008-.033.05-.076a9.45,9.45,0,0,0,.868-.9,4.48,4.48,0,0,0,.858-1.564c0-.068-.034-.068-.28-.068-.1,0-.629.034-.706.034-.026,0-.042-.017-.077-.051Zm.451,1.3a.328.328,0,0,1-.289.365c-.187,0-.2-.22-.247-.578a2.143,2.143,0,0,0-.229-.637c-.008-.034-.033-.077-.033-.093a.045.045,0,0,1,.042-.043,1.391,1.391,0,0,1,.365.272,1.154,1.154,0,0,1,.391.714m.96-2.312a.251.251,0,0,0-.246.094.473.473,0,0,1-.357.238c-.2,0-.2-.128-.2-.357,0-.247.034-1.47.034-1.742,0-.145-.017-.842-.017-.995,0-.034,0-.06.051-.06.085,0,.476.281.578.281.17,0,.689-.943.7-1.114.009-.059.018-.118.069-.118.016,0,.425.2.493.238.118.059.237.119.237.187s-.348.152-.407.187a2.357,2.357,0,0,0-.629.586c0,.051.017.051.161.051h1.632c.179,0,.238-.008.306-.119.187-.289.213-.323.3-.323.11,0,.585.314.585.5a.242.242,0,0,1-.1.17c-.119.1-.153.137-.153.281,0,.128.025.765.025.909,0,.162.06.935.06,1,0,.383-.408.408-.451.408-.119,0-.135-.034-.186-.2-.027-.1-.137-.1-.2-.1h-.977c-.043,0-.077,0-.077.034s.017.043.162.1c.067.017.246.094.246.2,0,.068-.017.076-.153.178a.145.145,0,0,0-.051.1,6.047,6.047,0,0,0,.306.646c.068.127.178.34.281.34.2,0,.781-.612.969-.824.016-.026.092-.111.11-.111a2.488,2.488,0,0,1,.595.6c0,.034-.026.043-.051.043a2.031,2.031,0,0,1-.221-.009c-.247,0-.426.085-1.156.417-.153.068-.153.076-.153.127a4.038,4.038,0,0,0,1.479,1.5c.272.161.306.17.306.2s-.026.025-.136.034a1.993,1.993,0,0,0-.484.093,1.438,1.438,0,0,1-.255.119,6.617,6.617,0,0,1-1.429-2.158c-.033-.077-.186-.527-.2-.527s-.026.246-.026.288c0,.085.017,1.42.017,1.573,0,.518,0,.705-.187.85a1.275,1.275,0,0,1-.662.229.092.092,0,0,1-.094-.059,1.054,1.054,0,0,0-.17-.289c-.051-.051-.323-.281-.323-.289,0-.026.025-.026.246-.026.637,0,.672-.085.672-.7,0-.391,0-2.176-.043-2.422-.034-.2-.127-.247-.3-.247Zm.018-2.3c-.111,0-.222.017-.255.179v.484c0,.221.161.221.263.221h2.21c.255,0,.255-.034.255-.654,0-.23-.17-.23-.255-.23Zm0,1.1c-.094,0-.255.008-.255.238,0,.722,0,.74.255.74h2.243a.211.211,0,0,0,.238-.23c0-.714,0-.748-.246-.748Z" fill="#1a1311"/>
    <path id="パス_105" data-name="パス 105" d="M541.868,49.309c-.187,0-.773,0-1.071.017a1.226,1.226,0,0,1-.179.026c-.034,0-.042-.026-.076-.06l-.162-.195c-.033-.034-.042-.043-.042-.051s.016-.026.034-.026c.034,0,.45.043.535.043.62.025.638.017,1.122.017.264,0,.264-.068.264-.519,0-.11,0-.8-.025-.841-.06-.1-.112-.11-.222-.11s-.951.042-1.139.042c-.153,0-.17,0-.17-.042s.017-.043.2-.077a8.531,8.531,0,0,0,2.1-.561c.306-.136.34-.153.407-.153s.8.332.8.459c0,.085-.033.085-.518.136-.9.094-.9.111-.9.425,0,.11.009,1.071.017,1.1a.219.219,0,0,0,.238.136h.153c.2,0,.246-.017.349-.136.237-.289.263-.314.34-.314a2.378,2.378,0,0,1,.739.56c0,.119-.17.119-.45.119h-1.14c-.246,0-.262.034-.262.646,0,.247.084.264.152.281.357.068,1.25.289,1.25.935,0,.306-.188.416-.289.416-.17,0-.2-.059-.408-.586a1.1,1.1,0,0,0-.647-.655c-.067,0-.067.059-.067.128,0,.331.025,2.728.051,3.051.008.161.025.459.025.493,0,.323-.391.425-.493.425-.178,0-.178-.119-.178-.247,0-.416.051-2.244.051-2.617,0-.086.009-.426.009-.5s-.018-.144-.1-.144c-.042,0-.051.016-.153.127a8.838,8.838,0,0,1-1.623,1.53c-.068.051-.1.077-.136.077a.041.041,0,0,1-.043-.043c0-.009.536-.629.612-.731a10.478,10.478,0,0,0,1.471-2.465.105.105,0,0,0-.11-.119Zm3.841.6c0,1.487,0,1.657.018,2.031,0,.06.016.323.016.374,0,.238-.127.417-.468.417-.212,0-.212-.1-.212-.162s.026-.2.026-.238c.025-.272.043-1.241.043-2.414,0-.382,0-1.4-.069-1.972a1.2,1.2,0,0,1-.017-.178c0-.042.009-.076.068-.076.043,0,.884.152.884.305a.138.138,0,0,1-.042.094c-.17.153-.2.187-.222.306-.007.034-.025.731-.025,1.513m1.666.178c0,.51.051,2.737.051,3.188,0,.611-.042.781-.187.883a1.334,1.334,0,0,1-.594.281c-.12,0-.137-.051-.179-.187-.1-.315-.638-.5-.732-.527-.025-.009-.076-.034-.076-.068s.051-.034.06-.034c.11,0,.56.076.654.076.417,0,.417-.076.417-.731,0-.79,0-4.921-.043-5.516-.009-.093-.076-.552-.076-.577,0-.043.051-.077.094-.077.025,0,.721.127.773.136s.127.043.127.128-.042.1-.136.17a.41.41,0,0,0-.128.254c-.016.145-.025,2.159-.025,2.6" fill="#1a1311"/>
    <path id="パス_106" data-name="パス 106" d="M550.63,51.553c-.247,0-.247.069-.281.374a3.314,3.314,0,0,1-1.215,2.4.046.046,0,0,1-.05-.042c0-.009.2-.341.237-.408.348-.723.493-1.471.493-3.587,0-.671-.017-2.065-.076-2.694-.009-.093-.069-.578-.069-.595,0-.051.009-.068.06-.068a1.694,1.694,0,0,1,.425.144,1.18,1.18,0,0,0,.672.2h4.156a.337.337,0,0,0,.3-.1c.144-.153.153-.17.213-.17s.688.348.688.484c0,.077-.068.128-.136.162-.2.1-.221.11-.221.918,0,.7.051,3.833.051,4.555,0,.374,0,1.318-.79,1.318-.077,0-.085-.018-.145-.187-.119-.307-.638-.485-.714-.5-.025-.008-.153-.034-.153-.085,0-.034.059-.051.1-.051.111,0,.646.043.765.043.331,0,.34-.094.34-1.173,0-.111,0-.706-.017-.773-.034-.154-.162-.154-.255-.154h-1.725c-.23,0-.273.085-.264.332.009.612.009,1.309.009,1.963,0,.162-.025.221-.085.28a.635.635,0,0,1-.4.154c-.17,0-.179-.111-.179-.221,0-.315.051-1.879.051-2.236,0-.187-.06-.272-.264-.272Zm1.547-2.345c.255,0,.255,0,.255-.859,0-.824,0-.849-.255-.849H550.63c-.254,0-.254.033-.254.739,0,.969.007.969.262.969Zm0,2.116a.219.219,0,0,0,.221-.1,9.309,9.309,0,0,0,.034-.994c0-.757,0-.791-.255-.791H550.63c-.093,0-.2.017-.238.153-.009.042-.009,1.241-.009,1.436,0,.137,0,.3.247.3Zm1.1-3.824c-.11,0-.221.016-.255.152-.009.051-.009,1.029-.009,1.233,0,.178,0,.323.264.323h1.691c.264,0,.264-.094.264-.578,0-1.13-.009-1.13-.28-1.13Zm0,1.937c-.264,0-.264.025-.264.808a8.34,8.34,0,0,0,.035.968c.042.111.169.111.229.111h1.734c.255,0,.255-.06.255-.62,0-1.25-.009-1.267-.272-1.267Z" fill="#1a1311"/>
    <path id="パス_107" data-name="パス 107" d="M476.221,6.312c.3,0,.445.1.445.334s-.127.351-.445.351h-3.808c-.429,0-.429.095-.429,2.007,0,1.784.015,9.7.015,11.327,0,.366-.08.509-.335.509-.35,0-.35-.111-.35-1.051V6.965A.6.6,0,0,1,472,6.312Z" fill="#1a1311"/>
    <path id="パス_108" data-name="パス 108" d="M484.128,11.569a.856.856,0,0,0,.733-.43c.16-.207.286-.35.367-.35.127,0,1,.764,1,.956,0,.238-.1.238-.94.238H481.2c-.749,0-.94.017-1.513.032-.1,0-.558.048-.654.048A.2.2,0,0,1,478.9,12l-.35-.415c-.048-.063-.064-.063-.064-.1,0-.016.048-.032.064-.032.048,0,.366.032.429.032.623.032,1.562.079,2.12.079Zm-.351,2.5a.824.824,0,0,0,.734-.43c.159-.191.286-.35.366-.35.128,0,1,.764,1,.972,0,.239-.08.239-.941.239h-1.911c-.048,0-.287,0-.287.175,0,.159.048.175.573.446,1.18.589,1.721.892,1.721,1.593,0,.35-.191.685-.494.685-.286,0-.318-.08-.652-.733-.192-.366-.734-1.306-.989-1.306-.174,0-.174.255-.191.43,0,.191-.016,1.672-.016,1.975,0,.271.033,1.4.033,1.625a3.192,3.192,0,0,1-.048.844.865.865,0,0,1-.669.351c-.366,0-.366-.223-.366-.351,0-.462.094-2.517.094-2.931,0-.924,0-1.019-.127-1.019-.048,0-.128.111-.191.223a12.832,12.832,0,0,1-1.673,2.023,6.364,6.364,0,0,1-.844.669.076.076,0,0,1-.08-.08c0-.048.734-1.051.876-1.258a9.428,9.428,0,0,0,1.5-3.107c0-.191-.063-.254-.414-.254-.446,0-.8.016-1.147.047-.048,0-.255.032-.3.032a.142.142,0,0,1-.127-.079l-.366-.415c-.048-.047-.048-.063-.048-.079,0-.032.031-.032.063-.032.016,0,.4.032.478.032.733.032,1.562.079,2.039.079.335,0,.366-.159.366-.366,0-.271-.015-.59-.015-.861-.016-.079-.079-.414-.079-.477,0-.1.127-.112.174-.112.112,0,1.211.112,1.211.43,0,.1-.271.462-.287.542,0,.064-.015.494-.015.557,0,.16.079.271.3.271ZM482.01,8.75c-1.052,0-1.5.016-1.689.016-.1.015-.542.063-.637.063a.218.218,0,0,1-.144-.079l-.351-.4a.623.623,0,0,1-.047-.1c0-.032.032-.048.064-.048.3,0,1.673.111,1.943.111.5,0,.5-.031.5-1.067a2.076,2.076,0,0,0-.065-.653c0-.032-.063-.239-.063-.271,0-.048.032-.143.191-.143.048,0,1.242.239,1.242.414,0,.032-.175.4-.207.462a1.506,1.506,0,0,0-.143.733c0,.366.016.525.35.525h.366a.688.688,0,0,0,.542-.286c.382-.43.43-.478.542-.478a2.17,2.17,0,0,1,1.21.971c0,.224-.318.224-.843.224h-.686c-.048,0-.127.016-.127.1,0,.159.749.51.749.654,0,.111-.446.445-.51.525-.175.191-.892,1.1-1.067,1.274a1.492,1.492,0,0,1-.383.224c-.048,0-.063-.064-.063-.1a7.164,7.164,0,0,1,.287-.7A4.809,4.809,0,0,0,483.38,9.2c0-.287-.048-.446-.479-.446Zm-1.641.35a1.726,1.726,0,0,1,1.275,1.513c0,.3-.192.717-.558.717-.383,0-.4-.1-.558-1.115a5.245,5.245,0,0,0-.239-.956c0-.031-.032-.111,0-.127a.1.1,0,0,1,.08-.032m7.965,3.027c-.526,0-.526.255-.558,1.163a9.588,9.588,0,0,1-1.258,5.209,4.826,4.826,0,0,1-1.944,1.736c-.048,0-.111,0-.111-.047,0-.1.334-.383.4-.447,1.752-2.278,1.9-3.711,1.9-7.518,0-1.88-.032-2.326-.1-3.3-.015-.175-.1-1-.1-1.068s0-.143.081-.143a4.7,4.7,0,0,1,.605.207,1.836,1.836,0,0,0,.462.08,11.38,11.38,0,0,0,3.042-1.083,3.24,3.24,0,0,1,.462-.3,4.785,4.785,0,0,1,1.546,1.035c0,.144-.065.16-.893.207-.366.033-3.647.4-3.839.478-.207.1-.239.16-.239,2.056,0,1.194,0,1.322.558,1.322h2.374a.661.661,0,0,0,.669-.3c.4-.526.446-.59.588-.59.161,0,.224.08.861.718.255.255.271.27.271.366,0,.223-.3.223-.94.223h-1c-.111,0-.334.08-.366.446-.016.112-.031,4.6-.031,4.938,0,.366.031,1.944.031,2.262a.717.717,0,0,1-.8.813c-.383,0-.414-.127-.414-.367,0-.159.047-1.449.1-2.772.016-.589.016-3.3.016-4.125,0-.877-.048-1.195-.414-1.195Z" fill="#1a1311"/>
    <path id="パス_109" data-name="パス 109" d="M497.866,13.481a4.636,4.636,0,0,0-.063.971c0,.654.08,3.569.08,4.158v.924c0,.064.031.43.031.51a.7.7,0,0,1-.717.653c-.462,0-.525-.223-.525-.494,0-.127.015-.287.032-.542.047-.828.1-1.784.1-3.042,0-.4.016-1.657-.016-2.629,0-.223-.015-.366-.143-.366-.191,0-1.928,1.545-2.119,1.545-.016,0-.08,0-.08-.048,0-.015.941-1.035,1.083-1.21,1.148-1.37,2.5-3.314,2.614-4.078.015-.176.031-.24.127-.24a1.414,1.414,0,0,1,.494.271c.4.271.828.574.828.781,0,.191-.111.239-.414.35-.159.064-.192.064-.908.925a6.283,6.283,0,0,0-.5.637c0,.079.017.1.256.207a.277.277,0,0,1,.159.3,2.606,2.606,0,0,1-.319.415m8.524-5.29c.3,0,.429-.031.556-.222.208-.3.239-.335.351-.335a.411.411,0,0,1,.239.064c.287.207.7.557.972.764.43.335.462.383.462.542,0,.223-.175.319-.414.319-.127,0-.829-.08-.988-.08a2.675,2.675,0,0,0-.924.271c-.127.064-.239.127-.287.159-.015,0-.032-.032-.032-.047a2.749,2.749,0,0,0,.383-.781c0-.223-.272-.223-.446-.223h-8.906c-.286,0-.334,0-.509.557-.16.494-.733,1.354-1.21,1.354A.621.621,0,0,1,495,9.848a.8.8,0,0,1,.287-.621,4.262,4.262,0,0,0,1-1.338c.048-.095.191-.59.208-.59a1.069,1.069,0,0,1,.382.59c.1.271.175.3.414.3h3.664c.494,0,.494-.286.494-.493,0-.271-.016-.924-.032-1.147,0-.064-.1-.319-.1-.382,0-.1.08-.144.176-.144.079,0,1.083.223,1.227.255a.327.327,0,0,1,.318.3c0,.127-.032.159-.318.446-.112.111-.144.191-.144.7,0,.35.127.461.542.461Zm-1.068,2.836a.633.633,0,0,0-.622.271,12.459,12.459,0,0,1-1.386,1.354c-.174.143-.286.239-.286.3,0,.1.127.1.175.1h2.677a.527.527,0,0,0,.51-.207c.19-.286.222-.334.366-.334a5.949,5.949,0,0,1,.8.557c.382.3.414.335.414.415a.308.308,0,0,1-.223.271c-.191.111-.287.19-.334.318s-.048,3.138-.048,3.52c0,.192,0,1.307.048,1.689a4.315,4.315,0,0,1,.064.478.8.8,0,0,1-.876.765c-.383,0-.4-.494-.414-.749-.017-.334-.32-.334-.431-.334H502.3c-.382,0-.414.111-.478.509a.788.788,0,0,1-.749.638.424.424,0,0,1-.477-.478c0-.128,0-.176.031-.622.048-.6.112-1.465.112-2.963,0-1.147,0-2.9-.1-3.52-.017-.08-.08-.415-.08-.494a.089.089,0,0,1,.1-.08c.08,0,.159.048.893.446a.873.873,0,0,0,.541.175c.287,0,.3-.047.526-.382a6.048,6.048,0,0,0,.685-1.418c0-.223-.144-.223-.271-.223h-.255c-.3,0-1.131,0-1.768.032-.064,0-.446.048-.478.048-.048,0-.08-.032-.143-.1l-.3-.366c-.063-.08-.063-.1-.063-.112,0-.031.031-.031.047-.031.112,0,.589.047.7.047.461.016,1.291.064,2.2.064h2.677c.461,0,.525,0,.764-.3.319-.382.462-.51.606-.51.238,0,1.257.765,1.257,1,0,.223-.3.223-.843.223Zm-3.011,2.437c-.509,0-.509.128-.509,1.179,0,1.131,0,1.259.509,1.259h3.537c.509,0,.509-.128.509-1.227,0-1.083,0-1.211-.509-1.211Zm-.064,2.852a.374.374,0,0,0-.43.43V18.4c0,.318,0,.6.447.6h3.647a.374.374,0,0,0,.431-.43V16.937c0-.318,0-.621-.431-.621Z" fill="#1a1311"/>
    <path id="パス_110" data-name="パス 110" d="M511.525,20.681c-.3,0-.446-.095-.446-.334s.128-.351.446-.351h3.808c.429,0,.429-.1.429-2.007,0-1.784-.015-9.7-.015-11.327,0-.366.079-.509.334-.509.335,0,.335.111.335,1.051V20.028a.587.587,0,0,1-.669.653Z" fill="#1a1311"/>
    <path id="パス_111" data-name="パス 111" d="M520.688,18.2c0,.334,0,1.386-.6,1.386a.527.527,0,0,1-.479-.574,8.584,8.584,0,0,1,.176-.892,7.483,7.483,0,0,0,.175-1.354c0-.669,0-.716.1-.716a.328.328,0,0,1,.095.031,3.627,3.627,0,0,1,.541,2.119m3.76-4.174c.366,0,.4,0,.574-.159.207-.191.319-.3.414-.3.175,0,1,.573,1,.844,0,.1-.031.128-.3.478a1.074,1.074,0,0,0-.126.542,18.225,18.225,0,0,1-.526,3.234,2.647,2.647,0,0,1-1.9,1.959c-.143,0-.207-.031-.43-.414a2,2,0,0,0-.318-.366c-.033-.032-.272-.207-.272-.271s.176-.064.319-.064c1.116,0,1.338-.462,1.417-.637a12.849,12.849,0,0,0,.8-4.03c0-.383-.27-.383-.494-.383h-2.8a.387.387,0,0,0-.334.144c-.223.3-.271.382-.653.382-.366,0-.494-.127-.494-.494,0-.255.112-3.6.112-4.142,0-.621-.016-2.071-.064-2.644-.016-.1-.1-.637-.1-.749,0-.064,0-.095.048-.095.08,0,.813.3.972.366a2.009,2.009,0,0,0,.685.112h1.784c.654,0,.844,0,1-.271.224-.4.3-.51.51-.51.176,0,1.18.748,1.18.988,0,.222-.335.222-.861.222h-1.481c-.494,0-.494.112-.494.956,0,.558.032.8.446.8.334,0,.43,0,.558-.255.111-.191.286-.51.525-.51.223,0,.956.765.956.972,0,.223-.271.223-.733.223h-1.29c-.462,0-.462.08-.462,1.338a.4.4,0,0,0,.462.431c.239,0,.335,0,.462-.255.08-.176.239-.51.494-.51s1,.765,1,.987-.32.223-.845.223h-1.083c-.494,0-.494.128-.494,1.418,0,.414.239.446.477.446Zm-2.1,4.237c0,.51-.27.67-.461.67-.4,0-.462-.415-.478-1a7.881,7.881,0,0,0-.191-1.418,1.514,1.514,0,0,1-.048-.382c0-.143.063-.175.159-.143.462.175,1.019,1.768,1.019,2.277m0-8.745c.462,0,.462-.255.462-.86,0-.685,0-.893-.477-.893h-.462c-.479,0-.479.224-.479.877s0,.876.479.876Zm0,2.214c.462,0,.462-.239.462-.876,0-.685,0-.908-.462-.908h-.477c-.479,0-.479.223-.479.908,0,.637,0,.876.462.876Zm-.047,2.294c.509,0,.509-.207.509-.924,0-.7,0-.94-.462-.94H521.9c-.51,0-.51.207-.51.924s0,.94.495.94Zm.78,4.063c-.238,0-.238-.208-.271-.8a7.55,7.55,0,0,0-.174-1.147,4.581,4.581,0,0,1-.1-.573c0-.08,0-.176.063-.176a2.4,2.4,0,0,1,1,1.737c0,.653-.35.956-.526.956m1.546-1.514c0,.287-.144.526-.367.526-.287,0-.3-.1-.446-1.036a3.022,3.022,0,0,0-.207-.733.666.666,0,0,1-.032-.175c0-.08.032-.127.111-.111a2.073,2.073,0,0,1,.941,1.529M531.76,7.3a.444.444,0,0,0,.43-.174c.223-.335.351-.51.479-.51s.971.653.971.86a6.034,6.034,0,0,1-.35.733c-.048.191-.048,1.577-.048,1.863,0,.3.048,1.785.048,2.119a.783.783,0,0,1-.8.7c-.334,0-.351-.159-.4-.51-.015-.191-.031-.318-.429-.318h-.621a.38.38,0,0,0-.447.4,1.484,1.484,0,0,0,.033.255c.222,1.465.8,4.365,2.628,6.2a11.341,11.341,0,0,1,.971.924c0,.064-.1.079-.159.079s-.318-.032-.382-.032a5.546,5.546,0,0,0-.877.08c-.063.016-.366.144-.4.144-.079,0-.175-.176-.223-.239a13.947,13.947,0,0,1-2.007-7.153c-.048-.637-.08-.653-.462-.653h-.892c-.478,0-.478.1-.478.971a12.036,12.036,0,0,1-1.88,6.58c-.128.191-.764.955-.939.955a.089.089,0,0,1-.1-.079c0-.064.493-.844.589-1,1.386-2.6,1.386-6.005,1.386-7.248a40.878,40.878,0,0,0-.223-4.62c-.015-.1-.095-.541-.095-.653,0-.048,0-.159.063-.159a7.736,7.736,0,0,1,.972.366,1.986,1.986,0,0,0,.653.127Zm-2.979.415a.424.424,0,0,0-.382.239c-.064.175-.064,2.82-.064,3.138s.032.558.478.558h2.867a.429.429,0,0,0,.414-.176,28.941,28.941,0,0,0,.112-3.154c0-.446-.064-.605-.493-.605Z" fill="#1a1311"/>
    <path id="パス_112" data-name="パス 112" d="M542.663,11.872a13.664,13.664,0,0,0,4.46,3.059c.749.35,1.4.7,1.4,1.162,0,.1-.143.606-.59.606-.143,0-1.577-.048-3.95-2.326-.383-.366-2.087-2.087-2.437-2.421-.366-.351-.637-.558-.893-.558-.525,0-.669.144-1.974,1.418-.112.111-1.275,1.21-1.307,1.227a.446.446,0,0,1-.255.079c-.605,0-1.545-.749-1.545-1.019,0-.064.031-.08.3-.112a6.058,6.058,0,0,0,2.6-1.227c1.337-1.067,1.656-1.179,2.2-1.179.414,0,.939.239,1.991,1.291" fill="#1a1311"/>
    <path id="パス_113" data-name="パス 113" d="M619.884,20.606H609.071v-.743c.551-1.733,1.844-3.659,4.045-6.162,4.044-4.678,5.42-6.245,5.42-9A3.536,3.536,0,0,0,614.877.935c-1.926,0-3.082,1.156-3.082,2.146a1.514,1.514,0,0,0,.276.853,2.375,2.375,0,0,1,.578,1.376,1.527,1.527,0,0,1-1.486,1.54,1.737,1.737,0,0,1-1.568-1.926c0-2.008,1.953-4.924,5.915-4.924,3.411,0,5.5,2.146,5.5,5.117,0,2.779-1.6,4.292-4.071,6.41-.936.77-4.568,3.879-5.944,6.906h3.8c3.852,0,4.76-1.486,5.585-3.769l.825.3Z" fill="#1a1311"/>
    <path id="パス_114" data-name="パス 114" d="M631.82,0h1.128V13.975h3.109v.881h-3.109v3.191c0,1.21.6,1.678,1.926,1.678h.44v.881h-6.987v-.881h.439c1.293,0,1.926-.44,1.926-1.678V14.856h-7.4v-.963Zm-1.128,3.631-6.354,10.344h6.354Z" fill="#1a1311"/>
    <path id="パス_115" data-name="パス 115" d="M646.7,7.946c0,.159-.112.191-.446.271a3.541,3.541,0,0,0-.8,1.083,10.321,10.321,0,0,1-4.731,4.413.084.084,0,0,1-.095-.1c0-.095.031-.111.334-.35a13.746,13.746,0,0,0,3.584-4.811c.112-.239.526-1.593.542-1.593.111-.048,1.609.812,1.609,1.083m1.545,4.652c-.414,0-.414.032-.51.876a6.709,6.709,0,0,1-3.217,5.7,10.4,10.4,0,0,1-3.043,1.035c-.048,0-.192,0-.192-.111,0-.08.08-.112.367-.207a9.128,9.128,0,0,0,3.138-1.928,7.721,7.721,0,0,0,1.8-5.018c0-.35-.159-.35-.4-.35h-.478c-.589,0-1.354.016-1.641.032a2.988,2.988,0,0,1-.335.047c-.063,0-.094-.047-.142-.111l-.32-.367c-.047-.064-.063-.079-.063-.1,0-.032.016-.048.063-.048.113,0,.59.064.7.064.78.032,1.433.048,2.182.048h3.488c.717,0,.8-.033,1.052-.3.24-.255.383-.351.494-.351.255,0,1.179.733,1.179,1.068,0,.079-.255.366-.287.43-.079.159-.175,1.975-.207,2.342-.175,1.927-.3,3.233-.748,3.95a2.4,2.4,0,0,1-1.625.956c-.176,0-.176-.048-.3-.494-.1-.366-.638-.573-1.466-.812-.35-.1-.525-.159-.525-.255s.143-.1.175-.1a6.193,6.193,0,0,1,.621.112,9.373,9.373,0,0,0,1.131.127c.764,0,1.2-.143,1.418-1.784.159-1.227.318-3.074.318-3.887,0-.43-.031-.573-.477-.573Zm.8-5.13c-.4,0-.94.016-1.274.032-.048,0-.272.032-.32.032s-.063-.016-.127-.1l-.3-.366a.168.168,0,0,1-.048-.112c0-.015.015-.032.048-.032.095,0,.557.064.653.064.175.016.844.048.955.048a.817.817,0,0,0,.67-.414c.318-.446.349-.494.477-.494.207,0,1.386.8,1.386,1.147,0,.159-.048.175-.477.287-.08.016-.32.095-.32.334,0,.829,2.1,3.362,4.8,3.632.048,0,.238.032.238.128,0,.08-.414.175-.477.191a3.292,3.292,0,0,0-.972.733c-.032.048-.207.239-.255.239-.542,0-3.17-2.2-3.807-4.6-.175-.685-.207-.749-.573-.749Z" fill="#1a1311"/>
    <path id="パス_116" data-name="パス 116" d="M660.071,19.348a4.38,4.38,0,0,1,.463.557.064.064,0,0,1-.067.057,5.579,5.579,0,0,1,0-8.992.064.064,0,0,1,.067.057,4.451,4.451,0,0,1-.463.557,6.22,6.22,0,0,0,0,7.764" fill="#1a1311"/>
    <path id="パス_117" data-name="パス 117" d="M665.293,19.055H661.58V18.8a6.419,6.419,0,0,1,1.389-2.116c1.388-1.606,1.861-2.144,1.861-3.088a1.215,1.215,0,0,0-1.257-1.294c-.661,0-1.057.4-1.057.736a.522.522,0,0,0,.094.293.821.821,0,0,1,.2.473.524.524,0,0,1-.51.528.6.6,0,0,1-.539-.661,1.89,1.89,0,0,1,2.031-1.69,1.723,1.723,0,0,1,1.889,1.756c0,.954-.548,1.474-1.4,2.2a8.207,8.207,0,0,0-2.041,2.371h1.3c1.322,0,1.634-.51,1.918-1.294l.283.1Z" fill="#1a1311"/>
    <path id="パス_118" data-name="パス 118" d="M669.391,11.98h.387v4.8h1.068v.3h-1.068v1.1c0,.416.208.576.662.576h.151v.3h-2.4v-.3h.151c.443,0,.661-.151.661-.576v-1.1h-2.541V16.75ZM669,13.227l-2.182,3.551H669Z" fill="#1a1311"/>
    <path id="パス_119" data-name="パス 119" d="M676.162,12.4c0,.094-.066.113-.264.161a2.072,2.072,0,0,0-.473.642,6.118,6.118,0,0,1-2.8,2.616.049.049,0,0,1-.056-.056c0-.057.018-.066.2-.208a8.136,8.136,0,0,0,2.125-2.853c.066-.141.311-.944.321-.944.067-.028.954.482.954.642m.916,2.758c-.245,0-.245.019-.3.52a3.98,3.98,0,0,1-1.909,3.381,6.157,6.157,0,0,1-1.8.614c-.029,0-.114,0-.114-.066,0-.047.048-.066.218-.123a5.406,5.406,0,0,0,1.861-1.143,4.577,4.577,0,0,0,1.067-2.975c0-.208-.1-.208-.236-.208h-.284c-.349,0-.8.01-.972.019a1.757,1.757,0,0,1-.2.028c-.038,0-.056-.028-.084-.066l-.19-.217c-.028-.038-.037-.047-.037-.056s.009-.029.037-.029c.066,0,.35.038.416.038.463.019.85.028,1.294.028h2.068c.425,0,.473-.019.623-.179s.228-.208.293-.208c.152,0,.7.434.7.633,0,.047-.152.217-.17.255-.047.094-.1,1.171-.123,1.388a6.283,6.283,0,0,1-.444,2.343,1.425,1.425,0,0,1-.964.566c-.1,0-.1-.028-.179-.292-.057-.218-.378-.34-.868-.482-.208-.057-.313-.095-.313-.151s.085-.057.1-.057c.065,0,.321.057.368.066a5.6,5.6,0,0,0,.671.076c.453,0,.708-.085.839-1.058.095-.728.19-1.823.19-2.305,0-.255-.019-.34-.283-.34Zm.473-3.041c-.236,0-.558.009-.756.019-.028,0-.161.019-.189.019s-.037-.01-.076-.057l-.179-.217a.1.1,0,0,1-.029-.066c0-.01.01-.019.029-.019.056,0,.331.037.388.037.1.01.5.029.566.029a.48.48,0,0,0,.4-.246c.19-.264.208-.292.285-.292.122,0,.821.472.821.68,0,.094-.028.1-.283.17-.048.009-.19.056-.19.2a3.532,3.532,0,0,0,2.844,2.153c.028,0,.142.019.142.076s-.247.1-.284.113a1.932,1.932,0,0,0-.576.435c-.019.028-.123.141-.151.141a4.736,4.736,0,0,1-2.258-2.729c-.1-.406-.123-.444-.34-.444Z" fill="#1a1311"/>
    <path id="パス_120" data-name="パス 120" d="M682.924,11.584a4.38,4.38,0,0,1-.463-.557.064.064,0,0,1,.067-.057,5.579,5.579,0,0,1,0,8.992.064.064,0,0,1-.067-.057,4.451,4.451,0,0,1,.463-.557,6.22,6.22,0,0,0,0-7.764" fill="#1a1311"/>
    <line id="線_3" data-name="線 3" x2="214.205" transform="translate(469.373 26.536)" fill="none" stroke="#1a1311" stroke-miterlimit="10" stroke-width="0.295"/>
  </g>
</svg>
