<?xml version="1.0" encoding="UTF-8"?>
<svg id="_レイヤー_2" data-name="レイヤー 2" xmlns="http://www.w3.org/2000/svg" viewBox="0 0 683.24 333.05">
  <defs>
    <style>
      .cls-1 {
        letter-spacing: -.04em;
      }

      .cls-2 {
        fill: #a56a08;
      }

      .cls-2, .cls-3, .cls-4, .cls-5, .cls-6, .cls-7, .cls-8, .cls-9, .cls-10, .cls-11, .cls-12, .cls-13 {
        font-family: YuMinPr6N-Regular-83pv-RKSJ-H, 'Yu Mincho Pr6N';
      }

      .cls-2, .cls-3, .cls-5, .cls-8, .cls-9, .cls-11 {
        font-size: 8.97px;
      }

      .cls-14 {
        letter-spacing: .81em;
      }

      .cls-15 {
        letter-spacing: .05em;
      }

      .cls-16 {
        letter-spacing: -.04em;
      }

      .cls-17 {
        letter-spacing: .01em;
      }

      .cls-18 {
        letter-spacing: -.08em;
      }

      .cls-19 {
        letter-spacing: .85em;
      }

      .cls-20 {
        letter-spacing: -.02em;
      }

      .cls-21 {
        letter-spacing: .85em;
      }

      .cls-22 {
        letter-spacing: .1em;
      }

      .cls-23 {
        letter-spacing: -.09em;
      }

      .cls-24 {
        letter-spacing: .05em;
      }

      .cls-25 {
        letter-spacing: -.04em;
      }

      .cls-26 {
        letter-spacing: .86em;
      }

      .cls-27 {
        letter-spacing: -.14em;
      }

      .cls-28 {
        letter-spacing: -.14em;
      }

      .cls-29 {
        letter-spacing: .1em;
      }

      .cls-30 {
        letter-spacing: .05em;
      }

      .cls-31 {
        letter-spacing: .02em;
      }

      .cls-32 {
        letter-spacing: -.08em;
      }

      .cls-33 {
        letter-spacing: .04em;
      }

      .cls-34 {
        letter-spacing: -.04em;
      }

      .cls-35 {
        letter-spacing: -.02em;
      }

      .cls-36 {
        letter-spacing: -.08em;
      }

      .cls-37 {
        letter-spacing: .85em;
      }

      .cls-38 {
        letter-spacing: -.08em;
      }

      .cls-39 {
        letter-spacing: .86em;
      }

      .cls-40 {
        letter-spacing: .09em;
      }

      .cls-41 {
        letter-spacing: .05em;
      }

      .cls-42 {
        letter-spacing: .88em;
      }

      .cls-43 {
        letter-spacing: -.09em;
      }

      .cls-44 {
        letter-spacing: .05em;
      }

      .cls-45 {
        letter-spacing: -.08em;
      }

      .cls-46 {
        letter-spacing: .9em;
      }

      .cls-47 {
        letter-spacing: .09em;
      }

      .cls-48 {
        letter-spacing: .02em;
      }

      .cls-49 {
        letter-spacing: .9em;
      }

      .cls-50 {
        letter-spacing: .04em;
      }

      .cls-51 {
        letter-spacing: .89em;
      }

      .cls-52 {
        letter-spacing: .89em;
      }

      .cls-53 {
        letter-spacing: .03em;
      }

      .cls-54 {
        letter-spacing: .69em;
      }

      .cls-55 {
        letter-spacing: -.09em;
      }

      .cls-56 {
        letter-spacing: .66em;
      }

      .cls-57 {
        letter-spacing: .67em;
      }

      .cls-58 {
        letter-spacing: .67em;
      }

      .cls-59 {
        letter-spacing: .03em;
      }

      .cls-60 {
        letter-spacing: -.14em;
      }

      .cls-61 {
        letter-spacing: .67em;
      }

      .cls-62 {
        letter-spacing: .67em;
      }

      .cls-63 {
        letter-spacing: -.14em;
      }

      .cls-64 {
        letter-spacing: .68em;
      }

      .cls-65 {
        letter-spacing: -.07em;
      }

      .cls-66 {
        letter-spacing: -.13em;
      }

      .cls-67 {
        letter-spacing: .02em;
      }

      .cls-68 {
        letter-spacing: .65em;
      }

      .cls-69 {
        letter-spacing: -.12em;
      }

      .cls-70 {
        letter-spacing: .06em;
      }

      .cls-71 {
        letter-spacing: .06em;
      }

      .cls-72 {
        letter-spacing: .69em;
      }

      .cls-73 {
        letter-spacing: -.06em;
      }

      .cls-74 {
        letter-spacing: .66em;
      }

      .cls-75 {
        letter-spacing: -.02em;
      }

      .cls-76 {
        letter-spacing: .93em;
      }

      .cls-77 {
        letter-spacing: 0em;
      }

      .cls-78 {
        letter-spacing: .94em;
      }

      .cls-79 {
        letter-spacing: .94em;
      }

      .cls-80 {
        letter-spacing: -.2em;
      }

      .cls-81 {
        letter-spacing: .97em;
      }

      .cls-82 {
        letter-spacing: .97em;
      }

      .cls-83 {
        letter-spacing: .98em;
      }

      .cls-84 {
        letter-spacing: .98em;
      }

      .cls-85 {
        letter-spacing: .95em;
      }

      .cls-86, .cls-12 {
        font-size: 8.19px;
      }

      .cls-87 {
        letter-spacing: .95em;
      }

      .cls-88 {
        letter-spacing: .99em;
      }

      .cls-89 {
        letter-spacing: .08em;
      }

      .cls-90 {
        letter-spacing: .96em;
      }

      .cls-91 {
        letter-spacing: .09em;
      }

      .cls-92 {
        letter-spacing: -.01em;
      }

      .cls-93 {
        letter-spacing: .08em;
      }

      .cls-94 {
        letter-spacing: .02em;
      }

      .cls-95 {
        letter-spacing: .97em;
      }

      .cls-96 {
        letter-spacing: .97em;
      }

      .cls-97 {
        letter-spacing: -.11em;
      }

      .cls-98 {
        letter-spacing: .09em;
      }

      .cls-99 {
        letter-spacing: 1em;
      }

      .cls-100 {
        letter-spacing: .98em;
      }

      .cls-101 {
        letter-spacing: 1.04em;
      }

      .cls-102 {
        letter-spacing: -.18em;
      }

      .cls-103 {
        letter-spacing: 1.04em;
      }

      .cls-104 {
        letter-spacing: 0em;
      }

      .cls-105 {
        letter-spacing: .08em;
      }

      .cls-106 {
        letter-spacing: .13em;
      }

      .cls-107 {
        letter-spacing: 1.07em;
      }

      .cls-108 {
        letter-spacing: 1.03em;
      }

      .cls-109 {
        letter-spacing: 1.03em;
      }

      .cls-110 {
        letter-spacing: .99em;
      }

      .cls-111 {
        letter-spacing: .99em;
      }

      .cls-112 {
        letter-spacing: .98em;
      }

      .cls-113 {
        letter-spacing: .98em;
      }

      .cls-114 {
        letter-spacing: -.1em;
      }

      .cls-115 {
        letter-spacing: 1.01em;
      }

      .cls-116 {
        letter-spacing: .99em;
      }

      .cls-117 {
        letter-spacing: .99em;
      }

      .cls-118 {
        letter-spacing: 1.01em;
      }

      .cls-119 {
        letter-spacing: 0em;
      }

      .cls-120 {
        letter-spacing: .04em;
      }

      .cls-121 {
        letter-spacing: 1.01em;
      }

      .cls-122 {
        letter-spacing: .13em;
      }

      .cls-123 {
        letter-spacing: 1.03em;
      }

      .cls-124 {
        letter-spacing: -.02em;
      }

      .cls-125 {
        letter-spacing: .26em;
      }

      .cls-126 {
        letter-spacing: .13em;
      }

      .cls-127 {
        letter-spacing: -.1em;
      }

      .cls-128 {
        letter-spacing: 1.03em;
      }

      .cls-129 {
        letter-spacing: 1.05em;
      }

      .cls-130, .cls-10 {
        font-size: 8.44px;
      }

      .cls-131 {
        letter-spacing: -.05em;
      }

      .cls-3 {
        fill: #e61673;
      }

      .cls-132 {
        letter-spacing: -.01em;
      }

      .cls-133 {
        letter-spacing: 1.05em;
      }

      .cls-134 {
        letter-spacing: 1.01em;
      }

      .cls-135 {
        letter-spacing: 1.01em;
      }

      .cls-136 {
        letter-spacing: -.2em;
      }

      .cls-4, .cls-10, .cls-12 {
        fill: #231815;
      }

      .cls-137 {
        letter-spacing: .01em;
      }

      .cls-138 {
        letter-spacing: -.16em;
      }

      .cls-139 {
        letter-spacing: .13em;
      }

      .cls-140 {
        letter-spacing: .07em;
      }

      .cls-141 {
        letter-spacing: .26em;
      }

      .cls-142 {
        letter-spacing: -.04em;
      }

      .cls-143 {
        letter-spacing: 1.02em;
      }

      .cls-144 {
        letter-spacing: -.05em;
      }

      .cls-145 {
        letter-spacing: .06em;
      }

      .cls-146 {
        letter-spacing: -.17em;
      }

      .cls-147 {
        letter-spacing: 0em;
      }

      .cls-148 {
        letter-spacing: .05em;
      }

      .cls-149 {
        letter-spacing: -.01em;
      }

      .cls-150 {
        letter-spacing: .03em;
      }

      .cls-151 {
        letter-spacing: .81em;
      }

      .cls-152 {
        letter-spacing: .03em;
      }

      .cls-153 {
        letter-spacing: .79em;
      }

      .cls-154 {
        letter-spacing: -.17em;
      }

      .cls-155 {
        letter-spacing: .2em;
      }

      .cls-156 {
        letter-spacing: .79em;
      }

      .cls-157 {
        letter-spacing: .05em;
      }

      .cls-158 {
        letter-spacing: .1em;
      }

      .cls-159 {
        letter-spacing: -.17em;
      }

      .cls-160 {
        letter-spacing: -.07em;
      }

      .cls-161, .cls-6 {
        letter-spacing: .2em;
      }

      .cls-162, .cls-7 {
        letter-spacing: .2em;
      }

      .cls-5 {
        fill: #601986;
      }

      .cls-163 {
        letter-spacing: .14em;
      }

      .cls-164 {
        letter-spacing: -.05em;
      }

      .cls-165 {
        letter-spacing: .15em;
      }

      .cls-166 {
        letter-spacing: .15em;
      }

      .cls-167 {
        letter-spacing: .15em;
      }

      .cls-168 {
        letter-spacing: -.05em;
      }

      .cls-169 {
        letter-spacing: .02em;
      }

      .cls-170 {
        letter-spacing: .02em;
      }

      .cls-171 {
        letter-spacing: .07em;
      }

      .cls-172 {
        letter-spacing: -.06em;
      }

      .cls-173 {
        letter-spacing: .03em;
      }

      .cls-174 {
        letter-spacing: -.01em;
      }

      .cls-175 {
        letter-spacing: .07em;
      }

      .cls-176 {
        letter-spacing: .07em;
      }

      .cls-177 {
        letter-spacing: 0em;
      }

      .cls-178 {
        letter-spacing: .61em;
      }

      .cls-179 {
        letter-spacing: .62em;
      }

      .cls-180 {
        letter-spacing: .16em;
      }

      .cls-181 {
        letter-spacing: -.22em;
      }

      .cls-182 {
        letter-spacing: .61em;
      }

      .cls-183 {
        letter-spacing: .02em;
      }

      .cls-184 {
        letter-spacing: .17em;
      }

      .cls-185 {
        fill: #11374c;
        stroke-width: 0px;
      }

      .cls-186 {
        letter-spacing: 1.26em;
      }

      .cls-187 {
        letter-spacing: -.12em;
      }

      .cls-188 {
        letter-spacing: .16em;
      }

      .cls-189 {
        letter-spacing: -.11em;
      }

      .cls-190 {
        letter-spacing: 0em;
      }

      .cls-191 {
        letter-spacing: -.06em;
      }

      .cls-192 {
        letter-spacing: 0em;
      }

      .cls-193 {
        letter-spacing: -.12em;
      }

      .cls-194 {
        letter-spacing: -.03em;
      }

      .cls-195 {
        letter-spacing: -.05em;
      }

      .cls-6, .cls-7, .cls-13 {
        fill: #fff;
        font-size: 10.25px;
      }

      .cls-196 {
        letter-spacing: -.1em;
      }

      .cls-197 {
        letter-spacing: .91em;
      }

      .cls-198 {
        letter-spacing: -.05em;
      }

      .cls-199 {
        letter-spacing: -.45em;
      }

      .cls-200 {
        letter-spacing: .13em;
      }

      .cls-8 {
        fill: #ef7c0a;
      }

      .cls-201 {
        letter-spacing: -.2em;
      }

      .cls-202 {
        letter-spacing: -.09em;
      }

      .cls-203 {
        letter-spacing: .05em;
      }

      .cls-204 {
        letter-spacing: .91em;
      }

      .cls-205 {
        letter-spacing: .01em;
      }

      .cls-206 {
        letter-spacing: -.09em;
      }

      .cls-207 {
        letter-spacing: .92em;
      }

      .cls-208 {
        letter-spacing: .94em;
      }

      .cls-209 {
        letter-spacing: .95em;
      }

      .cls-210 {
        letter-spacing: 0em;
      }

      .cls-211 {
        letter-spacing: .94em;
      }

      .cls-212 {
        letter-spacing: .94em;
      }

      .cls-213 {
        letter-spacing: .92em;
      }

      .cls-214 {
        letter-spacing: -.05em;
      }

      .cls-215 {
        letter-spacing: .23em;
      }

      .cls-216 {
        letter-spacing: .05em;
      }

      .cls-217 {
        letter-spacing: .92em;
      }

      .cls-9 {
        fill: #006934;
      }

      .cls-218 {
        letter-spacing: -.04em;
      }

      .cls-219 {
        letter-spacing: .71em;
      }

      .cls-220 {
        letter-spacing: -.56em;
      }

      .cls-221 {
        letter-spacing: -.06em;
      }

      .cls-222 {
        letter-spacing: 0em;
      }

      .cls-223 {
        letter-spacing: -.06em;
      }

      .cls-224 {
        letter-spacing: -.14em;
      }

      .cls-225 {
        letter-spacing: -.03em;
      }

      .cls-226 {
        letter-spacing: .72em;
      }

      .cls-227 {
        letter-spacing: .71em;
      }

      .cls-228 {
        letter-spacing: -.13em;
      }

      .cls-229 {
        letter-spacing: -.03em;
      }

      .cls-230 {
        letter-spacing: .71em;
      }

      .cls-231 {
        letter-spacing: .11em;
      }

      .cls-232 {
        letter-spacing: .06em;
      }

      .cls-233 {
        letter-spacing: .75em;
      }

      .cls-234 {
        letter-spacing: .19em;
      }

      .cls-235 {
        letter-spacing: 0em;
      }

      .cls-236 {
        letter-spacing: -.06em;
      }

      .cls-237 {
        letter-spacing: 0em;
      }

      .cls-238 {
        letter-spacing: .11em;
      }

      .cls-239 {
        letter-spacing: -.06em;
      }

      .cls-240 {
        letter-spacing: .72em;
      }

      .cls-241 {
        letter-spacing: .71em;
      }

      .cls-242 {
        letter-spacing: -.5em;
      }

      .cls-243 {
        letter-spacing: .06em;
      }

      .cls-244 {
        letter-spacing: .19em;
      }

      .cls-245 {
        letter-spacing: -.02em;
      }

      .cls-246 {
        letter-spacing: .75em;
      }

      .cls-247 {
        letter-spacing: .78em;
      }

      .cls-248 {
        letter-spacing: 0em;
      }

      .cls-249 {
        letter-spacing: -.07em;
      }

      .cls-250 {
        letter-spacing: .73em;
      }

      .cls-251 {
        letter-spacing: -.07em;
      }

      .cls-252 {
        letter-spacing: .2em;
      }

      .cls-253 {
        letter-spacing: 0em;
      }

      .cls-254 {
        letter-spacing: -.04em;
      }

      .cls-11 {
        fill: #0083c0;
      }

      .cls-255 {
        letter-spacing: -.13em;
      }

      .cls-256 {
        letter-spacing: -.13em;
      }

      .cls-257 {
        letter-spacing: -.06em;
      }

      .cls-258 {
        letter-spacing: -.03em;
      }

      .cls-259 {
        letter-spacing: .78em;
      }

      .cls-260 {
        letter-spacing: .2em;
      }

      .cls-261 {
        letter-spacing: .2em;
      }

      .cls-262 {
        letter-spacing: .78em;
      }

      .cls-263 {
        letter-spacing: -.13em;
      }

      .cls-264 {
        letter-spacing: .54em;
      }

      .cls-265 {
        letter-spacing: 0em;
      }

      .cls-266 {
        letter-spacing: -.12em;
      }

      .cls-267 {
        letter-spacing: .14em;
      }

      .cls-268 {
        letter-spacing: -.03em;
      }

      .cls-269 {
        letter-spacing: .1em;
      }

      .cls-270 {
        letter-spacing: -.22em;
      }

      .cls-271 {
        letter-spacing: -.22em;
      }

      .cls-272 {
        letter-spacing: 1.09em;
      }

      .cls-273 {
        letter-spacing: 1.09em;
      }

      .cls-274 {
        letter-spacing: 1.08em;
      }

      .cls-275 {
        letter-spacing: .56em;
      }

      .cls-276 {
        letter-spacing: .02em;
      }

      .cls-277 {
        letter-spacing: -.03em;
      }

      .cls-278 {
        letter-spacing: -.1em;
      }

      .cls-279 {
        letter-spacing: 0em;
      }

      .cls-280 {
        letter-spacing: .54em;
      }

      .cls-281 {
        letter-spacing: 1.08em;
      }

      .cls-282 {
        letter-spacing: .15em;
      }
    </style>
  </defs>
  <g id="_レイヤー_1-2" data-name="レイヤー 1">
    <g>
      <g>
        <text class="cls-4" transform="translate(153.36 32.39)"><tspan class="cls-130"><tspan x="0" y="0">約120m/徒</tspan><tspan class="cls-188" x="41.76" y="0">歩</tspan><tspan x="51.55" y="0" xml:space="preserve"> 2分</tspan></tspan><tspan class="cls-130"><tspan x="0" y="14.09">約370m/徒</tspan><tspan class="cls-188" x="41.76" y="14.09">歩</tspan><tspan x="51.55" y="14.09" xml:space="preserve"> 5分</tspan></tspan><tspan class="cls-130"><tspan x="0" y="28.18">約520m/徒</tspan><tspan class="cls-188" x="41.76" y="28.18">歩</tspan><tspan x="51.55" y="28.18" xml:space="preserve"> 7分</tspan></tspan><tspan class="cls-130"><tspan x="0" y="42.27">約660m/徒</tspan><tspan class="cls-188" x="41.76" y="42.27">歩</tspan><tspan x="51.55" y="42.27" xml:space="preserve"> 9分</tspan></tspan><tspan class="cls-130" x="0" y="56.36">約860m/</tspan><tspan class="cls-86" x="33.32" y="56.26">徒歩11分</tspan><tspan class="cls-130" x="0" y="70.45">約880m/</tspan><tspan class="cls-86" x="33.32" y="70.36">徒歩11分</tspan><tspan class="cls-130" x="0" y="84.54">約930m/</tspan><tspan class="cls-86" x="33.32" y="84.45">徒歩12分</tspan></text>
        <text class="cls-12" transform="translate(152.25 130.8) scale(.87 1)"><tspan x="0" y="0">約1,020m</tspan></text>
        <text class="cls-12" transform="translate(182.83 130.8)"><tspan x="0" y="0">/徒歩13分</tspan></text>
        <text class="cls-12" transform="translate(152.25 144.89) scale(.87 1)"><tspan x="0" y="0">約1,470m</tspan></text>
        <text class="cls-12" transform="translate(182.83 144.89)"><tspan x="0" y="0">/徒歩19分</tspan></text>
      </g>
      <text class="cls-10" transform="translate(10.4 31.72)"><tspan class="cls-143" x="0" y="0">セ</tspan><tspan class="cls-90" x="17.02" y="0">ブ</tspan><tspan class="cls-204" x="33.58" y="0">ン</tspan><tspan class="cls-217" x="49.7" y="0">イ</tspan><tspan class="cls-84" x="65.9" y="0">レ</tspan><tspan class="cls-90" x="82.6" y="0">ブ</tspan><tspan class="cls-135" x="99.16" y="0">ン</tspan><tspan class="cls-274" x="116.14" y="0">港</tspan><tspan x="133.72" y="0">区</tspan><tspan class="cls-83" x=".24" y="14.09">芝</tspan><tspan class="cls-95" x="16.92" y="14.09">浦</tspan><tspan class="cls-113" x="33.57" y="14.09">ふ</tspan><tspan class="cls-83" x="50.29" y="14.09">頭店………</tspan><tspan x="133.72" y="14.09">…</tspan><tspan class="cls-14" x="-.4" y="28.18">ピ</tspan><tspan class="cls-156" x="14.85" y="28.18">ー</tspan><tspan class="cls-226" x="30" y="28.18">コ</tspan><tspan class="cls-57" x="44.53" y="28.18">ッ</tspan><tspan class="cls-246" x="58.67" y="28.18">ク</tspan><tspan class="cls-54" x="73.47" y="28.18">ス</tspan><tspan class="cls-64" x="87.73" y="28.18">ト</tspan><tspan class="cls-39" x="101.95" y="28.18">ア</tspan><tspan class="cls-46" x="117.64" y="28.18">芝</tspan><tspan x="133.72" y="28.18">浦</tspan><tspan class="cls-230" x="-.18" y="42.27">ア</tspan><tspan class="cls-68" x="14.26" y="42.27">イ</tspan><tspan class="cls-61" x="28.16" y="42.27">ラ</tspan><tspan class="cls-179" x="42.27" y="42.27">ン</tspan><tspan class="cls-247" x="55.96" y="42.27">ド</tspan><tspan class="cls-26" x="70.97" y="42.27">…………</tspan><tspan x="133.72" y="42.27">…</tspan><tspan class="cls-211" x="-.29" y="56.36">ま</tspan><tspan class="cls-133" x="16.11" y="56.36">い</tspan><tspan class="cls-281" x="33.4" y="56.36">ば</tspan><tspan class="cls-109" x="50.94" y="56.36">す</tspan><tspan class="cls-207" x="68.06" y="56.36">け</tspan><tspan class="cls-51" x="84.24" y="56.36">っ</tspan><tspan class="cls-213" x="100.19" y="56.36">と</tspan><tspan class="cls-129" x="116.42" y="56.36">海</tspan><tspan x="133.72" y="56.36">岸</tspan><tspan class="cls-103" x=".24" y="70.45">3</tspan><tspan class="cls-128" x="13.56" y="70.45">丁</tspan><tspan class="cls-108" x="30.66" y="70.45">目</tspan><tspan class="cls-103" x="47.77" y="70.45">店…………</tspan><tspan x="133.72" y="70.45">…</tspan><tspan class="cls-157" x=".24" y="84.54">芝浦商店会…………………………</tspan><tspan x="133.72" y="84.54">…</tspan><tspan class="cls-96" x=".24" y="98.63">肉</tspan><tspan class="cls-117" x="16.89" y="98.63">の</tspan><tspan class="cls-208" x="33.72" y="98.63">ハ</tspan><tspan class="cls-112" x="50.13" y="98.63">ナ</tspan><tspan class="cls-81" x="66.87" y="98.63">マ</tspan><tspan class="cls-100" x="83.49" y="98.63">サ</tspan><tspan class="cls-110" x="100.21" y="98.63">芝浦</tspan><tspan x="133.72" y="98.63">店</tspan><tspan class="cls-186" x=".24" y="112.72">…………………</tspan><tspan x="133.72" y="112.72">…</tspan></text>
      <text class="cls-3" transform="translate(1.1 31.98)"><tspan x="0" y="0">❶</tspan><tspan x="0" y="14.09">❷</tspan><tspan x="0" y="28.18">❸</tspan><tspan x="0" y="42.27">❹</tspan><tspan x="0" y="56.36">❺</tspan><tspan x="0" y="70.45">❻</tspan><tspan x="0" y="84.54">❼</tspan><tspan x="0" y="98.63">❽</tspan><tspan x="0" y="112.72">❾</tspan></text>
    </g>
    <g>
      <g>
        <text class="cls-4" transform="translate(385.38 32.39)"><tspan class="cls-130"><tspan x="0" y="0">約280m/徒</tspan><tspan class="cls-188" x="41.76" y="0">歩</tspan><tspan x="51.55" y="0" xml:space="preserve"> 4分</tspan></tspan><tspan class="cls-130"><tspan x="0" y="14.09">約410m/徒</tspan><tspan class="cls-188" x="41.76" y="14.09">歩</tspan><tspan x="51.55" y="14.09" xml:space="preserve"> 6分</tspan></tspan><tspan class="cls-130"><tspan x="0" y="28.18">約420m/徒</tspan><tspan class="cls-188" x="41.76" y="28.18">歩</tspan><tspan x="51.55" y="28.18" xml:space="preserve"> 6分</tspan></tspan><tspan class="cls-130"><tspan x="0" y="42.27">約480m/徒</tspan><tspan class="cls-188" x="41.76" y="42.27">歩</tspan><tspan x="51.55" y="42.27" xml:space="preserve"> 6分</tspan></tspan><tspan class="cls-130"><tspan x="0" y="56.36">約530m/徒</tspan><tspan class="cls-188" x="41.76" y="56.36">歩</tspan><tspan x="51.55" y="56.36" xml:space="preserve"> 7分</tspan></tspan><tspan class="cls-130" x="0" y="70.45">約860m/</tspan><tspan class="cls-86" x="33.32" y="70.36">徒歩11分</tspan></text>
        <text class="cls-12" transform="translate(384.63 116.71) scale(.86 1)"><tspan x="0" y="0">約1,020m</tspan></text>
        <text class="cls-12" transform="translate(414.85 116.71)"><tspan x="0" y="0">/徒歩13分</tspan></text>
        <text class="cls-12" transform="translate(384.98 130.8) scale(.85 1)"><tspan x="0" y="0">約1,220m</tspan></text>
        <text class="cls-12" transform="translate(414.85 130.8)"><tspan x="0" y="0">/徒歩16分</tspan></text>
      </g>
      <g>
        <text class="cls-10" transform="translate(242.66 31.72)"><tspan class="cls-157" x="0" y="0">芝浦運河緑地………………………</tspan><tspan x="133.48" y="0">…</tspan><tspan class="cls-196" x="-.56" y="14.09">プ</tspan><tspan class="cls-228" x="7.04" y="14.09">ラ</tspan><tspan class="cls-38" x="14.41" y="14.09">タ</tspan><tspan class="cls-214" x="22.17" y="14.09">ナ</tspan><tspan class="cls-174" x="30.19" y="14.09">ス</tspan><tspan class="cls-31" x="38.52" y="14.09">公園………………………</tspan><tspan x="133.48" y="14.09">…</tspan><tspan class="cls-157" x="0" y="28.18">埠頭少年野球場……………………</tspan><tspan x="133.48" y="28.18">…</tspan><tspan class="cls-157" x="0" y="42.27">芝浦</tspan><tspan class="cls-15" x="17.8" y="42.27">南</tspan><tspan class="cls-232" x="26.65" y="42.27">ふ</tspan><tspan class="cls-148" x="35.6" y="42.27">頭公園運動広場…………</tspan><tspan x="133.48" y="42.27">…</tspan></text>
        <text class="cls-10" transform="translate(242.66 88.08) scale(.9 1)"><tspan class="cls-183" x="0" y="0">NAS </tspan><tspan class="cls-218" x="20.17" y="0">W</tspan><tspan class="cls-183" x="28.09" y="0">ellness &amp; Spa CLUB芝</tspan><tspan class="cls-258" x="114.12" y="0">浦</tspan><tspan class="cls-256" x="122.28" y="0">ア</tspan><tspan class="cls-136" x="129.6" y="0">イ</tspan><tspan class="cls-146" x="136.38" y="0">ラ</tspan><tspan class="cls-271" x="143.37" y="0">ン</tspan><tspan class="cls-32" x="149.94" y="0">ド</tspan></text>
        <text class="cls-10" transform="translate(242.66 102.17)"><tspan class="cls-177" x="0" y="0">GOL</tspan><tspan class="cls-114" x="19.57" y="0">F</tspan><tspan class="cls-239" x="23.85" y="0">＆</tspan><tspan class="cls-177" x="31.75" y="0">FITNESS POINT芝浦……</tspan><tspan x="133.48" y="0">…</tspan><tspan class="cls-157" x="0" y="14.09">芝浦公園……………………………</tspan><tspan x="133.48" y="14.09">…</tspan><tspan class="cls-107" x="0" y="28.18">港</tspan><tspan class="cls-121" x="17.44" y="28.18">区</tspan><tspan class="cls-134" x="34.37" y="28.18">ス</tspan><tspan class="cls-99" x="51.34" y="28.18">ポ</tspan><tspan class="cls-82" x="68.22" y="28.18">ー</tspan><tspan class="cls-116" x="84.82" y="28.18">ツ</tspan><tspan class="cls-209" x="101.64" y="28.18">セ</tspan><tspan class="cls-197" x="118.06" y="28.18">ン</tspan><tspan class="cls-55" x="134.21" y="28.18">タ</tspan><tspan class="cls-85" x="-.33" y="42.27">ー</tspan><tspan class="cls-111" x="16.14" y="42.27">…………………</tspan><tspan x="133.48" y="42.27">…</tspan></text>
      </g>
      <text class="cls-9" transform="translate(233.13 31.98)"><tspan x="0" y="0">❶</tspan><tspan x="0" y="14.09">❷</tspan><tspan x="0" y="28.18">❸</tspan><tspan x="0" y="42.27">❹</tspan><tspan x="0" y="56.36">❺</tspan><tspan x="0" y="70.45">❻</tspan><tspan x="0" y="84.54">❼</tspan><tspan x="0" y="98.63">❽</tspan></text>
    </g>
    <g>
      <g>
        <text class="cls-10" transform="translate(616.47 32.39)"><tspan x="0" y="0">約390m/徒</tspan><tspan class="cls-188" x="41.76" y="0">歩</tspan><tspan x="51.55" y="0" xml:space="preserve"> 5分</tspan></text>
        <text class="cls-10" transform="translate(614.72 46.48) scale(.83 1)"><tspan x="0" y="0">約1,010m</tspan></text>
        <text class="cls-10" transform="translate(644.79 46.48)"><tspan x="0" y="0">/徒歩13分</tspan></text>
        <text class="cls-10" transform="translate(614.72 60.58) scale(.83 1)"><tspan x="0" y="0">約1,050m</tspan></text>
        <text class="cls-10" transform="translate(644.79 60.58)"><tspan x="0" y="0">/徒歩14分</tspan></text>
        <text class="cls-10" transform="translate(614.72 74.67) scale(.83 1)"><tspan x="0" y="0">約1,170m</tspan></text>
        <text class="cls-10" transform="translate(644.79 74.67)"><tspan x="0" y="0">/徒歩15分</tspan></text>
        <text class="cls-10" transform="translate(614.72 88.75) scale(.83 1)"><tspan x="0" y="0">約1,220m</tspan></text>
        <text class="cls-10" transform="translate(644.79 88.75)"><tspan x="0" y="0">/徒歩16分</tspan></text>
        <text class="cls-10" transform="translate(614.72 102.85) scale(.83 1)"><tspan x="0" y="0">約1,220m</tspan></text>
        <text class="cls-10" transform="translate(644.79 102.85)"><tspan x="0" y="0">/徒歩16分</tspan></text>
        <text class="cls-10" transform="translate(614.72 116.94) scale(.83 1)"><tspan x="0" y="0">約1,470m</tspan></text>
        <text class="cls-10" transform="translate(644.79 116.94)"><tspan x="0" y="0">/徒歩19分</tspan></text>
        <text class="cls-10" transform="translate(614.72 131.03) scale(.83 1)"><tspan x="0" y="0">約1,690m</tspan></text>
        <text class="cls-10" transform="translate(644.79 131.03)"><tspan x="0" y="0">/徒歩22分</tspan></text>
      </g>
      <text class="cls-10" transform="translate(473.75 31.72)"><tspan class="cls-273" x="0" y="0">芝</tspan><tspan class="cls-101" x="17.65" y="0">浦</tspan><tspan class="cls-212" x="34.89" y="0">ア</tspan><tspan class="cls-42" x="51.29" y="0">イ</tspan><tspan class="cls-49" x="67.15" y="0">ラ</tspan><tspan class="cls-21" x="83.22" y="0">ン</tspan><tspan class="cls-118" x="98.87" y="0">ド</tspan><tspan class="cls-272" x="115.83" y="0">児</tspan><tspan x="133.48" y="0">童</tspan><tspan class="cls-115" x="0" y="14.09">高齢者交</tspan><tspan class="cls-79" x="67.81" y="14.09">流</tspan><tspan class="cls-52" x="84.21" y="14.09">プ</tspan><tspan class="cls-78" x="100.12" y="14.09">ラ</tspan><tspan class="cls-135" x="116.5" y="14.09">ザ</tspan><tspan x="133.48" y="14.09">…</tspan><tspan class="cls-169" x="0" y="28.18">芝浦港南区</tspan><tspan class="cls-149" x="42.93" y="28.18">民</tspan><tspan class="cls-278" x="51.28" y="28.18">セ</tspan><tspan class="cls-224" x="58.85" y="28.18">ン</tspan><tspan class="cls-97" x="66.14" y="28.18">タ</tspan><tspan class="cls-75" x="73.67" y="28.18">ー</tspan><tspan class="cls-169" x="81.96" y="28.18">………………</tspan><tspan x="133.48" y="28.18">…</tspan><tspan class="cls-59" x="0" y="42.27">子</tspan><tspan class="cls-77" x="8.7" y="42.27">育</tspan><tspan class="cls-251" x="17.19" y="42.27">て</tspan><tspan class="cls-144" x="25.07" y="42.27">ひ</tspan><tspan class="cls-35" x="33.09" y="42.27">ろ</tspan><tspan class="cls-120" x="41.33" y="42.27">ば</tspan><tspan class="cls-206" x="50.07" y="42.27">あ</tspan><tspan class="cls-160" x="57.75" y="42.27">っ</tspan><tspan class="cls-36" x="65.57" y="42.27">ぴ</tspan><tspan class="cls-223" x="73.32" y="42.27">ぃ</tspan><tspan class="cls-59" x="81.26" y="42.27">芝浦…………</tspan><tspan x="133.48" y="42.27">…</tspan><tspan class="cls-24" x="0" y="56.36">区立港南図書</tspan><tspan class="cls-199" x="53.22" y="56.36">館</tspan><tspan class="cls-30" x="57.87" y="56.36">［地図外</tspan><tspan class="cls-199" x="93.35" y="56.36">］</tspan><tspan class="cls-30" x="98" y="56.36">…………</tspan><tspan x="133.48" y="56.36">…</tspan><tspan class="cls-210" x="0" y="70.45">芝浦区民協</tspan><tspan class="cls-191" x="42.43" y="70.45">働</tspan><tspan class="cls-268" x="50.4" y="70.45">ス</tspan><tspan class="cls-229" x="58.54" y="70.45">ペ</tspan><tspan class="cls-202" x="66.72" y="70.45">ー</tspan><tspan class="cls-225" x="74.39" y="70.45">ス</tspan><tspan class="cls-210" x="82.57" y="70.45">………………</tspan><tspan x="133.48" y="70.45">…</tspan><tspan class="cls-91" x="0" y="84.54">消費</tspan><tspan class="cls-71" x="18.32" y="84.54">者</tspan><tspan class="cls-16" x="27.24" y="84.54">セ</tspan><tspan class="cls-65" x="35.38" y="84.54">ン</tspan><tspan class="cls-34" x="43.25" y="84.54">タ</tspan><tspan class="cls-44" x="51.35" y="84.54">ー</tspan><tspan class="cls-89" x="60.21" y="84.54">……………………</tspan><tspan x="133.48" y="84.54">…</tspan><tspan class="cls-148" x="0" y="98.63">区立三田図書館……………………</tspan><tspan x="133.48" y="98.63">…</tspan><tspan class="cls-260" x="-.03" y="112.72">み</tspan><tspan class="cls-200" x="10.07" y="112.72">な</tspan><tspan class="cls-139" x="19.58" y="112.72">と</tspan><tspan class="cls-141" x="29.1" y="112.72">子</tspan><tspan class="cls-215" x="39.69" y="112.72">育</tspan><tspan class="cls-155" x="50.07" y="112.72">て</tspan><tspan class="cls-141" x="60.19" y="112.72">応</tspan><tspan class="cls-234" x="70.79" y="112.72">援</tspan><tspan class="cls-126" x="80.82" y="112.72">プ</tspan><tspan class="cls-244" x="90.38" y="112.72">ラ</tspan><tspan class="cls-125" x="100.4" y="112.72">ザ</tspan><tspan class="cls-252" x="111.03" y="112.72">P</tspan><tspan class="cls-141" x="118.27" y="112.72">okk</tspan><tspan x="137.79" y="112.72">e</tspan></text>
      <text class="cls-5" transform="translate(464.22 31.98)"><tspan x="0" y="0">❶</tspan><tspan x="0" y="14.09">❷</tspan><tspan x="0" y="28.18">❸</tspan><tspan x="0" y="42.27">❹</tspan><tspan x="0" y="56.36">❺</tspan><tspan x="0" y="70.45">❻</tspan><tspan x="0" y="84.54">❼</tspan><tspan x="0" y="98.63">❽</tspan></text>
    </g>
    <g>
      <g>
        <text class="cls-4" transform="translate(153.36 189.39)"><tspan class="cls-130"><tspan x="0" y="0">約150m/徒</tspan><tspan class="cls-188" x="41.76" y="0">歩</tspan><tspan x="51.55" y="0" xml:space="preserve"> 2分</tspan></tspan><tspan class="cls-130"><tspan x="0" y="14.09">約440m/徒</tspan><tspan class="cls-188" x="41.76" y="14.09">歩</tspan><tspan x="51.55" y="14.09" xml:space="preserve"> 6分</tspan></tspan><tspan class="cls-130" x="0" y="28.18">約860m/</tspan><tspan class="cls-86" x="33.32" y="28.08">徒歩11分</tspan><tspan class="cls-130" x="0" y="42.27">約880m/</tspan><tspan class="cls-86" x="33.32" y="42.17">徒歩11分</tspan><tspan class="cls-130" x="0" y="56.36">約910m/</tspan><tspan class="cls-86" x="33.32" y="56.26">徒歩12分</tspan><tspan class="cls-130" x="0" y="70.45">約920m/</tspan><tspan class="cls-86" x="33.32" y="70.36">徒歩12分</tspan></text>
        <text class="cls-12" transform="translate(152.6 273.71) scale(.86 1)"><tspan x="0" y="0">約1,220m</tspan></text>
        <text class="cls-12" transform="translate(182.83 273.71)"><tspan x="0" y="0">/徒歩16分</tspan></text>
        <text class="cls-12" transform="translate(152.6 287.8) scale(.86 1)"><tspan x="0" y="0">約1,240m</tspan></text>
        <text class="cls-12" transform="translate(182.83 287.8)"><tspan x="0" y="0">/徒歩16分</tspan></text>
        <text class="cls-12" transform="translate(152.6 301.89) scale(.86 1)"><tspan x="0" y="0">約1,670m</tspan></text>
        <text class="cls-12" transform="translate(182.83 301.89)"><tspan x="0" y="0">/徒歩21分</tspan></text>
      </g>
      <text class="cls-10" transform="translate(10.64 188.72)"><tspan class="cls-170" x="0" y="0">海</tspan><tspan class="cls-168" x="8.59" y="0">岸</tspan><tspan class="cls-69" x="16.59" y="0">カ</tspan><tspan class="cls-60" x="24.02" y="0">フ</tspan><tspan class="cls-45" x="31.27" y="0">ェ</tspan><tspan class="cls-170" x="39.04" y="0">……………………………</tspan><tspan x="133.48" y="0">…</tspan><tspan class="cls-164" x=".22" y="14.09">バ</tspan><tspan class="cls-147" x="8.21" y="14.09">グ</tspan><tspan class="cls-277" x="16.64" y="14.09">ー</tspan><tspan class="cls-243" x="24.86" y="14.09">ス</tspan><tspan class="cls-222" x="33.79" y="14.09">バ</tspan><tspan class="cls-173" x="42.24" y="14.09">ー</tspan><tspan class="cls-176" x="50.97" y="14.09">芝</tspan><tspan class="cls-276" x="59.99" y="14.09">浦</tspan><tspan class="cls-18" x="68.6" y="14.09">ア</tspan><tspan class="cls-27" x="76.38" y="14.09">イ</tspan><tspan class="cls-193" x="83.61" y="14.09">ラ</tspan><tspan class="cls-159" x="91.05" y="14.09">ン</tspan><tspan class="cls-132" x="98.08" y="14.09">ド</tspan><tspan class="cls-175" x="106.42" y="14.09">………</tspan><tspan x="133.48" y="14.09">…</tspan><tspan class="cls-237" x="0" y="28.18">Ptisserie PORT SINCERE…………</tspan><tspan x="133.49" y="28.18">…</tspan><tspan class="cls-205" x="0" y="42.27">Mi tiempo……………………………</tspan><tspan x="133.48" y="42.27">…</tspan><tspan class="cls-219" x="-.94" y="56.36">リ</tspan><tspan class="cls-74" x="13.46" y="56.36">ス</tspan><tspan class="cls-178" x="27.52" y="56.36">ト</tspan><tspan class="cls-72" x="41.12" y="56.36">ラ</tspan><tspan class="cls-259" x="55.42" y="56.36">ン</tspan><tspan class="cls-19" x="70.41" y="56.36">テ</tspan><tspan class="cls-262" x="86" y="56.36"> </tspan><tspan class="cls-151" x="94.79" y="56.36">ラ</tspan><tspan class="cls-37" x="110.11" y="56.36"> </tspan><tspan class="cls-233" x="119.48" y="56.36">チ</tspan><tspan class="cls-23" x="134.25" y="56.36">ャ</tspan><tspan class="cls-76" x="-.68" y="70.45">ウ</tspan><tspan class="cls-88" x="15.62" y="70.45">…………………</tspan><tspan x="133.48" y="70.45">…</tspan><tspan class="cls-62" x="-.63" y="84.54">ビ</tspan><tspan class="cls-275" x="13.46" y="84.54">ス</tspan><tspan class="cls-264" x="26.6" y="84.54">ト</tspan><tspan class="cls-227" x="39.57" y="84.54">ロ</tspan><tspan class="cls-240" x="54.02" y="84.54"> </tspan><tspan class="cls-250" x="62.33" y="84.54">ア</tspan><tspan class="cls-58" x="76.9" y="84.54"> </tspan><tspan class="cls-241" x="84.78" y="84.54">ラ</tspan><tspan class="cls-182" x="99.19" y="84.54"> </tspan><tspan class="cls-280" x="106.5" y="84.54">ド</tspan><tspan class="cls-56" x="119.51" y="84.54">ゥ</tspan><tspan class="cls-192" x="133.54" y="84.54">マ</tspan><tspan class="cls-153" x="-1.02" y="98.63">ン</tspan><tspan class="cls-87" x="14.13" y="98.63">ド</tspan><tspan class="cls-123" x="30.59" y="98.63">………………</tspan><tspan x="133.48" y="98.63">…</tspan><tspan class="cls-157" x="0" y="112.72">梅家…………………………………</tspan><tspan x="133.48" y="112.72">…</tspan></text>
      <text class="cls-8" transform="translate(1.1 188.97)"><tspan x="0" y="0">❶</tspan><tspan x="0" y="14.09">❷</tspan><tspan x="0" y="28.18">❸</tspan><tspan x="0" y="42.27">❹</tspan><tspan x="0" y="56.36">❺</tspan><tspan x="0" y="70.45">❻</tspan><tspan x="0" y="84.54">❼</tspan><tspan x="0" y="98.63">❽</tspan><tspan x="0" y="112.72">❾</tspan></text>
    </g>
    <g>
      <g>
        <text class="cls-4" transform="translate(385.38 189.39)"><tspan class="cls-130"><tspan x="0" y="0">約350m/徒</tspan><tspan class="cls-188" x="41.76" y="0">歩</tspan><tspan x="51.55" y="0" xml:space="preserve"> 5分</tspan></tspan><tspan class="cls-130"><tspan x="0" y="14.09">約390m/徒</tspan><tspan class="cls-188" x="41.76" y="14.09">歩</tspan><tspan x="51.55" y="14.09" xml:space="preserve"> 5分</tspan></tspan><tspan class="cls-130"><tspan x="0" y="28.18">約700m/徒</tspan><tspan class="cls-188" x="41.76" y="28.18">歩</tspan><tspan x="51.55" y="28.18" xml:space="preserve"> 9分</tspan></tspan><tspan class="cls-130" x="0" y="42.27">約770m/</tspan><tspan class="cls-86" x="33.32" y="42.17">徒歩10分</tspan><tspan class="cls-130" x="0" y="56.36">約890m/</tspan><tspan class="cls-86" x="33.32" y="56.26">徒歩12分</tspan><tspan class="cls-130" x="0" y="70.45">約990m/</tspan><tspan class="cls-86" x="33.32" y="70.36">徒歩13分</tspan></text>
        <text class="cls-12" transform="translate(384.63 273.71) scale(.86 1)"><tspan x="0" y="0">約1,120m</tspan></text>
        <text class="cls-12" transform="translate(414.85 273.71)"><tspan x="0" y="0">/徒歩14分</tspan></text>
        <text class="cls-12" transform="translate(384.63 287.8) scale(.86 1)"><tspan x="0" y="0">約1,260m</tspan></text>
        <text class="cls-12" transform="translate(414.85 287.8)"><tspan x="0" y="0">/徒歩16分</tspan></text>
        <text class="cls-12" transform="translate(384.63 301.89) scale(.86 1)"><tspan x="0" y="0">約1,390m</tspan></text>
        <text class="cls-12" transform="translate(414.85 301.89)"><tspan x="0" y="0">/徒歩18分</tspan></text>
      </g>
      <text class="cls-10" transform="translate(242.51 188.72)"><tspan class="cls-255" x="0" y="0">に</tspan><tspan class="cls-127" x="7.32" y="0">じ</tspan><tspan class="cls-249" x="14.95" y="0">い</tspan><tspan class="cls-142" x="22.83" y="0">ろ</tspan><tspan class="cls-67" x="30.91" y="0">保育園海岸三</tspan><tspan class="cls-279" x="82.36" y="0">丁</tspan><tspan class="cls-119" x="90.85" y="0">目</tspan><tspan class="cls-67" x="99.34" y="0">…………</tspan><tspan x="133.64" y="0">…</tspan><tspan class="cls-137" x=".15" y="14.09">芝</tspan><tspan class="cls-254" x="8.71" y="14.09">浦</tspan><tspan class="cls-263" x="16.85" y="14.09">ア</tspan><tspan class="cls-80" x="24.16" y="14.09">イ</tspan><tspan class="cls-154" x="30.93" y="14.09">ラ</tspan><tspan class="cls-270" x="37.91" y="14.09">ン</tspan><tspan class="cls-63" x="44.47" y="14.09">ド</tspan><tspan class="cls-138" x="51.72" y="14.09">こ</tspan><tspan class="cls-187" x="58.81" y="14.09">ど</tspan><tspan class="cls-266" x="66.26" y="14.09">も</tspan><tspan class="cls-137" x="73.73" y="14.09">園………………</tspan><tspan x="133.64" y="14.09">…</tspan><tspan class="cls-70" x=".15" y="28.18">太</tspan><tspan class="cls-41" x="9.08" y="28.18">陽</tspan><tspan class="cls-50" x="17.9" y="28.18">の</tspan><tspan class="cls-70" x="26.72" y="28.18">子芝浦二</tspan><tspan class="cls-203" x="62.41" y="28.18">丁</tspan><tspan class="cls-216" x="71.25" y="28.18">目</tspan><tspan class="cls-70" x="80.09" y="28.18">保育園………</tspan><tspan x="133.64" y="28.18">…</tspan><tspan class="cls-221" x="0" y="42.27">に</tspan><tspan class="cls-92" x="7.94" y="42.27">じ</tspan><tspan class="cls-145" x="16.26" y="42.27">の</tspan><tspan class="cls-124" x="25.17" y="42.27">い</tspan><tspan class="cls-194" x="33.4" y="42.27">る</tspan><tspan class="cls-158" x="41.61" y="42.27">か</tspan><tspan class="cls-47" x="50.88" y="42.27">保育園芝浦…………</tspan><tspan x="133.64" y="42.27">…</tspan><tspan class="cls-104" x="-.26" y="56.36">ア</tspan><tspan class="cls-25" x="8.23" y="56.36">ス</tspan><tspan class="cls-48" x="16.32" y="56.36">ク</tspan><tspan class="cls-231" x="24.96" y="56.36">芝浦4</tspan><tspan class="cls-22" x="49.27" y="56.36">丁</tspan><tspan class="cls-269" x="58.57" y="56.36">目</tspan><tspan class="cls-231" x="67.88" y="56.36">保育園…………</tspan><tspan x="133.64" y="56.36">…</tspan><tspan class="cls-150" x=".15" y="70.45">東京工業大学田</tspan><tspan class="cls-131" x="60.87" y="70.45">町</tspan><tspan class="cls-28" x="68.91" y="70.45">キ</tspan><tspan class="cls-102" x="76.15" y="70.45">ャ</tspan><tspan class="cls-245" x="83.03" y="70.45">ン</tspan><tspan class="cls-236" x="91.33" y="70.45">パ</tspan><tspan class="cls-248" x="99.25" y="70.45">ス</tspan><tspan class="cls-152" x="107.61" y="70.45">………</tspan><tspan x="133.64" y="70.45">…</tspan><tspan class="cls-166" x=".15" y="84.54">区立芝浦小学</tspan><tspan class="cls-93" x="58.29" y="84.54">校＜</tspan><tspan class="cls-165" x="76.58" y="84.54">通学</tspan><tspan class="cls-105" x="95.96" y="84.54">区＞</tspan><tspan class="cls-167" x="114.26" y="84.54">……</tspan><tspan x="133.64" y="84.54">…</tspan><tspan class="cls-122" x=".15" y="98.63">芝浦幼稚園………………………</tspan><tspan x="133.64" y="98.63">…</tspan><tspan class="cls-265" x=".15" y="112.72">区立港南中学</tspan><tspan class="cls-73" x="51.01" y="112.72">校＜</tspan><tspan class="cls-265" x="66.88" y="112.72">通学</tspan><tspan class="cls-73" x="83.83" y="112.72">区</tspan><tspan class="cls-220" x="91.76" y="112.72">＞</tspan><tspan class="cls-265" x="95.48" y="112.72">［地図外</tspan><tspan class="cls-242" x="129.38" y="112.72">］</tspan><tspan x="133.64" y="112.72">…</tspan></text>
      <text class="cls-2" transform="translate(233.13 188.97)"><tspan x="0" y="0">❶</tspan><tspan x="0" y="14.09">❷</tspan><tspan x="0" y="28.18">❸</tspan><tspan x="0" y="42.27">❹</tspan><tspan x="0" y="56.36">❺</tspan><tspan x="0" y="70.45">❻</tspan><tspan x="0" y="84.54">❼</tspan><tspan x="0" y="98.63">❽</tspan><tspan x="0" y="112.72">❾</tspan></text>
    </g>
    <g>
      <g>
        <text class="cls-10" transform="translate(615.44 189.39)"><tspan x="0" y="0">約840m/徒歩11分</tspan></text>
        <text class="cls-10" transform="translate(614.72 203.48) scale(.83 1)"><tspan x="0" y="0">約1,080m</tspan></text>
        <text class="cls-10" transform="translate(644.79 203.48)"><tspan x="0" y="0">/徒歩14分</tspan></text>
        <text class="cls-10" transform="translate(614.72 217.57) scale(.83 1)"><tspan x="0" y="0">約1,090m</tspan></text>
        <text class="cls-10" transform="translate(644.79 217.57)"><tspan x="0" y="0">/徒歩14分</tspan></text>
        <text class="cls-10" transform="translate(614.72 231.66) scale(.83 1)"><tspan x="0" y="0">約1,460m</tspan></text>
        <text class="cls-10" transform="translate(644.79 231.66)"><tspan x="0" y="0">/徒歩19分</tspan></text>
        <text class="cls-10" transform="translate(614.72 245.75) scale(.83 1)"><tspan x="0" y="0">約1,470m</tspan></text>
        <text class="cls-10" transform="translate(644.79 245.75)"><tspan x="0" y="0">/徒歩19分</tspan></text>
        <text class="cls-10" transform="translate(614.72 259.84) scale(.83 1)"><tspan x="0" y="0">約1,490m</tspan></text>
        <text class="cls-10" transform="translate(644.79 259.84)"><tspan x="0" y="0">/徒歩19分</tspan></text>
        <text class="cls-10" transform="translate(614.72 273.93) scale(.83 1)"><tspan x="0" y="0">約1,540m</tspan></text>
        <text class="cls-10" transform="translate(644.79 273.93)"><tspan x="0" y="0">/徒歩20分</tspan></text>
        <text class="cls-10" transform="translate(614.72 288.02) scale(.83 1)"><tspan x="0" y="0">約1,570m</tspan></text>
        <text class="cls-10" transform="translate(644.79 288.02)"><tspan x="0" y="0">/徒歩20分</tspan></text>
      </g>
      <text class="cls-10" transform="translate(472.88 188.72)"><tspan class="cls-66" x="0" y="0">さ</tspan><tspan class="cls-235" x="7.36" y="0">わ</tspan><tspan class="cls-190" x="15.72" y="0">や</tspan><tspan class="cls-17" x="24.18" y="0">か</tspan><tspan class="cls-253" x="32.73" y="0">信用金庫芝浦支店…………</tspan><tspan x="134.35" y="0">…</tspan><tspan class="cls-148" x=".87" y="14.09">港芝浦郵便局………………………</tspan><tspan x="134.35" y="14.09">…</tspan><tspan class="cls-148" x=".87" y="28.18">芝浦海岸通郵便局…………………</tspan><tspan x="134.35" y="28.18">…</tspan><tspan class="cls-66" x="0" y="42.27">さ</tspan><tspan class="cls-235" x="7.36" y="42.27">わ</tspan><tspan class="cls-190" x="15.72" y="42.27">や</tspan><tspan class="cls-17" x="24.18" y="42.27">か</tspan><tspan class="cls-253" x="32.73" y="42.27">信用金庫東京港支店………</tspan><tspan x="134.35" y="42.27">…</tspan><tspan class="cls-148" x=".87" y="56.36">港芝四郵便局………………………</tspan><tspan x="134.35" y="56.36">…</tspan><tspan class="cls-43" x="-.27" y="70.45">り</tspan><tspan class="cls-1" x="7.45" y="70.45">そ</tspan><tspan class="cls-33" x="15.56" y="70.45">な</tspan><tspan class="cls-98" x="24.38" y="70.45">銀行田町支店………………</tspan><tspan x="134.35" y="70.45">…</tspan><tspan class="cls-201" x=".09" y="84.54">き</tspan><tspan class="cls-20" x="6.81" y="84.54">ら</tspan><tspan class="cls-257" x="15.09" y="84.54">ぼ</tspan><tspan class="cls-172" x="22.99" y="84.54">し</tspan><tspan class="cls-94" x="30.9" y="84.54">銀行浜松町支店……………</tspan><tspan x="134.35" y="84.54">…</tspan><tspan class="cls-53" x=".87" y="98.63">三菱UFJ銀行田町支</tspan><tspan class="cls-181" x="77.6" y="98.63">店・</tspan><tspan class="cls-53" x="90.8" y="98.63">三田支店…</tspan><tspan x="134.35" y="98.63">…</tspan></text>
      <text class="cls-11" transform="translate(464.22 188.97)"><tspan x="0" y="0">❶</tspan><tspan x="0" y="14.09">❷</tspan><tspan x="0" y="28.18">❸</tspan><tspan x="0" y="42.27">❹</tspan><tspan x="0" y="56.36">❺</tspan><tspan x="0" y="70.45">❻</tspan><tspan x="0" y="84.54">❼</tspan><tspan x="0" y="98.63">❽</tspan></text>
    </g>
    <rect class="cls-185" width="220.79" height="15.87"/>
    <text class="cls-7" transform="translate(10.64 12.21)"><tspan x="0" y="0">商業施設</tspan></text>
    <rect class="cls-185" x="231.36" width="220.79" height="15.87"/>
    <text class="cls-13" transform="translate(242 12.21)"><tspan class="cls-162" x="0" y="0">公</tspan><tspan class="cls-195" x="12.3" y="0">園</tspan><tspan class="cls-189" x="22.03" y="0">・</tspan><tspan class="cls-163" x="31.14" y="0">ス</tspan><tspan class="cls-106" x="42.88" y="0">ポ</tspan><tspan class="cls-29" x="54.48" y="0">ー</tspan><tspan class="cls-180" x="65.77" y="0">ツ</tspan><tspan class="cls-282" x="77.6" y="0">&amp;</tspan><tspan class="cls-238" x="86.75" y="0">レ</tspan><tspan class="cls-140" x="98.14" y="0">ジ</tspan><tspan class="cls-171" x="109.12" y="0">ャ</tspan><tspan class="cls-184" x="120.09" y="0">ー</tspan><tspan class="cls-161" x="132.03" y="0">施設</tspan></text>
    <rect class="cls-185" x="461.82" width="220.79" height="15.87"/>
    <text class="cls-13" transform="translate(472.46 12.21)"><tspan class="cls-161" x="0" y="0">公</tspan><tspan class="cls-198" x="12.3" y="0">共・</tspan><tspan class="cls-161" x="31.77" y="0">文化施設</tspan></text>
    <rect class="cls-185" y="156.99" width="220.79" height="15.87"/>
    <text class="cls-13" transform="translate(9.69 169.2)"><tspan class="cls-261" x="0" y="0">グ</tspan><tspan class="cls-267" x="12.26" y="0">ル</tspan><tspan class="cls-40" x="23.94" y="0">メ</tspan></text>
    <rect class="cls-185" x="231.36" y="156.99" width="220.79" height="15.87"/>
    <text class="cls-7" transform="translate(242 169.2)"><tspan x="0" y="0">教育施設</tspan></text>
    <rect class="cls-185" x="461.82" y="156.99" width="220.79" height="15.87"/>
    <text class="cls-6" transform="translate(472.46 169.2)"><tspan x="0" y="0">金融施設</tspan></text>
  </g>
</svg>